<svg width="971" height="391" viewBox="0 0 971 391" fill="none" xmlns="http://www.w3.org/2000/svg">
<g clip-path="url(#clip0_7414_40004)">
<rect width="971" height="389.744" transform="translate(0 0.894531)" fill="#FAF9F6"/>
<g filter="url(#filter0_df_7414_40004)">
<path d="M43.002 5.92119C26.2957 -22.1649 10.5889 -50.8863 -5.60708 -79.2716C3.44019 -84.4338 -18.07 -101.114 -21.3038 -106.782C-26.2536 -115.457 -29.525 -125.371 -34.1884 -133.544C-48.6948 -158.968 -60.5644 -187.33 -76.991 -212.509C-81.4393 -219.327 -86.2326 -226.047 -91.2496 -232.648C-89.3654 -215.683 -84.3959 -198.418 -81.0194 -186.687L-80.6938 -185.555C-79.8687 -182.686 -79.0095 -179.82 -78.1179 -176.959C-44.4719 -112.621 -6.86053 -41.2211 -17.5768 -52.1757C-28.298 -63.1352 -35.2885 -78.3874 -42.2994 -91.7889C-56.444 -118.827 -68.9845 -147.651 -78.1179 -176.959C-106.617 -231.456 -132.272 -280.887 -123.301 -270.912C-112.37 -258.758 -101.356 -245.945 -91.2496 -232.648C-92.9991 -248.399 -92.0891 -263.893 -84.7752 -274.458C-77.4567 -285.029 -60.7454 -290.808 -51.1188 -299.543C-34.7561 -314.391 -22.8818 -331.97 -13.8816 -352.028C-2.86284 -376.585 -0.99756 -405.04 16.5707 -426.39C40.1335 -455.025 73.5869 -477.744 105.637 -496.031L210.203 -555.694C238.878 -572.055 268.457 -593.595 301.225 -600.309C347.948 -609.883 398.497 -598.697 443.687 -587.749C484.901 -577.764 541.037 -565.295 569.324 -530.822C583.09 -514.045 593.077 -493.757 606.241 -476.339C612.146 -468.528 617.843 -460.665 623.272 -452.622C595.165 -498.242 535.305 -595.976 507.58 -640.969C502.564 -648.468 497.714 -656.095 493.213 -663.983C491.521 -666.949 497.373 -657.533 507.58 -640.969C519.784 -622.724 532.974 -605.239 544.52 -586.603C546.616 -583.22 547.428 -584.034 550.651 -582.128C556.632 -578.592 560.133 -571.926 565.108 -567.242C570.929 -561.761 575.909 -556.673 579.846 -549.772C617.573 -483.651 658.6 -417.71 699.284 -352.984C787.311 -212.943 880.7 -74.1419 955.872 73.4896C979.385 119.668 997.872 165.861 1015.75 214.204C1019.98 225.624 1023.1 239.627 1029.15 250.218C1040.99 270.979 1004.71 285.509 990.25 288.88L989.475 289.061C973.083 292.885 956.926 296.654 939.93 294.979C921.213 293.136 905.062 286.455 887.163 281.694C875.177 278.505 859.28 270.563 847.132 276.563C836.078 282.024 825.501 288.775 814.787 294.888C799.484 303.62 775.138 324.625 756.516 315.85C733.226 304.878 708.905 292.438 687.334 278.209C667.771 265.304 645.934 248.443 622.527 245.913C607.047 244.239 588.044 242.359 572.78 244.888C519.256 253.758 479.477 224.567 441.939 191.846C433.406 184.408 421.966 171.478 409.378 171.474C390.389 171.467 371.815 175.736 352.64 175.615C334.709 175.502 313.729 175.905 297.069 169.026C271.674 158.541 257.443 139.347 241.718 118.003C220.341 88.9863 202.948 59.9062 174.845 36.5651C163.018 26.7424 144.203 15.5496 127.826 21.0448C101.521 29.8713 59.0085 32.8309 43.002 5.92119Z" fill="#EBEEFF"/>
</g>
<g filter="url(#filter1_f_7414_40004)">
<path d="M45.4868 -25.1186C29.2628 -52.2897 14.0992 -80.1289 -1.58439 -107.616C7.99104 -113.08 -13.6531 -128.768 -16.7845 -134.256C-21.5777 -142.657 -24.5837 -152.349 -29.0996 -160.264C-43.1471 -184.884 -54.3482 -212.516 -70.3951 -236.818C-74.7406 -243.399 -79.4473 -249.869 -84.3905 -256.213C-83.0953 -239.482 -78.6147 -222.574 -75.5702 -211.086L-75.2765 -209.977C-74.5328 -207.168 -73.7535 -204.363 -72.9404 -201.563C-40.5668 -139.142 -4.35768 -69.8796 -15.0382 -80.3146C-25.7236 -90.7544 -32.3768 -105.59 -39.1226 -118.592C-52.7327 -144.825 -64.6112 -172.889 -72.9404 -201.563C-100.362 -254.437 -125.031 -302.403 -116.122 -292.87C-105.266 -281.255 -94.3484 -268.991 -84.3905 -256.213C-85.5932 -271.746 -84.0498 -287.127 -76.0612 -297.875C-68.0678 -308.629 -50.5264 -315 -40.2121 -324.025C-22.6806 -339.365 -9.69445 -357.237 0.409287 -377.453C12.7793 -402.203 15.8148 -430.46 34.8475 -452.287C60.3745 -481.561 95.9215 -505.36 129.843 -524.715L240.513 -587.861C270.862 -605.177 302.349 -627.658 336.565 -635.578C385.354 -646.87 437.303 -637.75 483.708 -628.657C526.03 -620.364 583.719 -610.19 611.696 -577.141C625.312 -561.057 634.875 -541.349 647.842 -524.607C653.657 -517.099 659.257 -509.532 664.571 -501.776C637.212 -545.872 578.968 -640.356 551.98 -683.845C547.073 -691.078 542.343 -698.445 537.984 -706.084C536.346 -708.956 542.045 -699.856 551.98 -683.845C563.921 -666.247 576.911 -649.44 588.154 -631.429C590.195 -628.159 591.068 -628.997 594.334 -627.235C600.395 -623.963 603.764 -617.497 608.738 -613.051C614.559 -607.847 619.521 -603.001 623.334 -596.318C659.868 -532.289 699.827 -468.566 739.48 -406.033C825.273 -270.737 916.671 -136.877 988.85 6.43532C1011.43 51.263 1028.79 96.2993 1045.45 143.489C1049.39 154.636 1052.08 168.385 1057.93 178.641C1069.41 198.745 1031.24 214.542 1016.13 218.441L1015.32 218.651C998.184 223.073 981.294 227.432 963.748 226.432C944.423 225.331 927.945 219.341 909.582 215.318C897.285 212.624 881.119 205.373 868.298 211.787C856.631 217.624 845.408 224.721 834.069 231.191C817.872 240.432 791.83 262.18 772.872 254.211C749.163 244.245 724.441 232.866 702.639 219.609C682.866 207.585 660.891 191.731 636.733 190.131C620.757 189.073 601.137 187.948 585.222 191.044C546.255 198.627 509.989 184.746 474.433 160.396C462.456 149.984 439.515 123.891 418.737 124.661C399.06 125.39 379.646 130.337 359.781 130.961C341.203 131.544 319.447 132.756 302.449 126.588C276.539 117.187 262.536 98.7269 247.068 78.1956C226.039 50.2838 209.143 22.1547 180.924 0.12489C169.049 -9.14591 149.986 -19.5031 132.801 -13.4257C105.2 -3.66408 61.0313 0.91451 45.4868 -25.1186Z" fill="#D8DDF6"/>
</g>
<g clip-path="url(#clip1_7414_40004)">
<path d="M433.814 329.799L351.495 324.279V329.799L433.814 335.664V329.799Z" fill="#6D524C" stroke="#361D02" stroke-width="0.587758"/>
<path d="M388.19 294.064L376.104 256.85L385.202 294.746L388.19 294.064Z" fill="#090203" stroke="#361D02" stroke-width="0.587758"/>
<path d="M374.705 251.868L378.208 251.594L376.456 304.576H371.64L374.705 251.868Z" fill="url(#paint0_linear_7414_40004)" stroke="#361D02" stroke-width="0.587758"/>
<path d="M345.364 341.356C344.664 340.656 347.992 313.917 349.743 300.635L354.122 301.073C353.422 301.073 351.495 328.074 350.619 341.356H345.364Z" fill="#916E65" stroke="#361D02" stroke-width="0.587758"/>
<path d="M354.999 301.074H354.123L351.058 341.358L352.372 337.855L354.999 301.074Z" fill="#322308" stroke="#361D02" stroke-width="0.587758"/>
<path d="M431.625 349.678L434.252 307.205H438.631L437.755 349.678H431.625Z" fill="#6C4A41" stroke="#361D02" stroke-width="0.587758"/>
<path d="M458.336 289.253L454.833 250.283L455.271 289.253H458.336Z" fill="#090203" stroke="#361D02" stroke-width="0.587758"/>
<path d="M344.054 300.199V296.258L437.319 303.702V307.642L344.054 300.199Z" fill="#49330D" stroke="#361D02" stroke-width="0.587758"/>
<path d="M379.3 223.57C380.351 224.271 381.781 223.862 382.365 223.57L381.927 227.949C381.198 227.949 379.475 227.861 378.424 227.511C377.111 227.073 375.797 225.76 374.922 224.884C374.221 224.183 370.543 224.884 368.791 225.322H362.223C361.522 221.819 362.657 220.277 363.313 219.944H371.419C372.437 219.855 373.574 219.885 374.484 220.067C376.673 220.505 377.987 222.695 379.3 223.57Z" fill="#CD9A8D"/>
<path d="M390.684 169.713L452.348 168.838L452.424 167.523H455.927L450.452 254.659H447.386L451.943 175.844L448.045 175.898L444.542 175.843L415.643 176.324L405.572 176.491L405.572 176.491L403.383 176.527L400.317 176.571L397.69 176.608L394.625 176.651L389.809 176.719L390.684 169.713Z" fill="#CD9A8D"/>
<path d="M368.791 225.322C370.543 224.884 374.221 224.183 374.922 224.884C375.797 225.76 377.111 227.073 378.424 227.511C379.475 227.861 381.198 227.949 381.927 227.949L382.365 223.57C381.781 223.862 380.351 224.271 379.3 223.57C377.987 222.695 376.673 220.505 374.484 220.067C373.574 219.885 372.437 219.855 371.419 219.944M368.791 225.322C368.791 224.154 368.791 221.644 368.791 220.943C368.791 220.431 369.987 220.069 371.419 219.944M368.791 225.322H362.223C361.522 221.819 362.657 220.277 363.313 219.944H371.419M452.424 168.837L390.684 169.713L389.809 176.719L394.625 176.651L397.69 176.608M452.424 168.837L451.986 175.843L448.045 175.898L444.542 175.843C428.468 176.11 419.456 176.26 403.383 176.527L400.317 176.571L397.69 176.608M452.424 168.837V167.523M452.424 167.523H455.927L450.452 254.659H447.386L452.424 167.523ZM397.69 176.608C413.764 176.34 438.85 175.923 438.85 175.923M438.85 176.028L441.915 175.985M405.572 176.491L408.637 176.448M412.578 176.367L415.643 176.324M432.546 176.028L435.611 175.985M425.54 176.137L428.605 176.093M419.584 176.236L422.649 176.193" stroke="#361D02" stroke-width="0.587758"/>
<path d="M390.687 168.834H388.06L379.74 251.591H383.243L390.687 168.834Z" fill="#CD9A8D" stroke="#361D02" stroke-width="0.587758"/>
<path d="M372.953 253.784L374.267 224.885L370.764 225.76C369.742 235.977 367.786 256.236 368.137 255.535C368.487 254.835 371.494 254.076 372.953 253.784Z" fill="#CD9A8D" stroke="#361D02" stroke-width="0.587758"/>
<path d="M376.018 226.638L374.266 225.324L374.704 253.348L380.396 251.596L376.018 226.638Z" fill="#CD9A8D" stroke="#361D02" stroke-width="0.587758"/>
<path d="M387.401 252.384L395.282 176.214L398.348 176.171L420.24 175.807L420.241 175.799L423.306 175.756L426.197 175.708L426.197 175.7L429.262 175.657L433.203 175.591L436.268 175.548L436.268 175.555L445.199 175.406L448.702 175.462L444.761 253.784H441.696L445.199 175.406L436.268 175.555L432.501 253.081L429.436 252.995L433.203 175.606L429.262 175.671L425.057 252.995L421.992 252.909L426.196 175.722L423.305 175.77L417.176 252.471L414.111 252.384L420.239 175.821L416.3 175.887L409.732 252.181H406.667L413.234 175.938L406.229 176.054L409.294 176.011L402.726 252.305H399.661L406.229 176.054L404.04 176.091L397.472 252.384H394.407L400.975 176.134L398.348 176.171L390.466 252.384H387.401Z" fill="#CD9A8D"/>
<path d="M435.128 253.081L439.507 175.591L442.572 175.548L438.193 253.168L435.128 253.081Z" fill="#CD9A8D"/>
<path d="M451.767 175.548L448.702 175.462M390.466 176.282L395.282 176.214M395.282 176.214L387.401 252.384H390.466L398.348 176.171M395.282 176.214L398.348 176.171M398.348 176.171L400.975 176.134M398.348 176.171C414.421 175.904 439.507 175.486 439.507 175.486M400.975 176.134L394.407 252.384H397.472L404.04 176.091M400.975 176.134L404.04 176.091M404.04 176.091C420.114 175.823 429.126 175.674 445.199 175.406M445.199 175.406L441.696 253.784H444.761L448.702 175.462M445.199 175.406L448.702 175.462M439.507 175.591L435.128 253.081L438.193 253.168L442.572 175.548L439.507 175.591ZM406.229 176.054L399.661 252.305H402.726L409.294 176.011L406.229 176.054ZM413.235 175.93L406.667 252.181H409.732L416.3 175.887L413.235 175.93ZM433.203 175.591L429.436 252.995L432.501 253.081L436.268 175.548L433.203 175.591ZM426.197 175.7L421.992 252.909L425.057 252.995L429.262 175.657L426.197 175.7ZM420.241 175.799L414.111 252.384L417.176 252.471L423.306 175.756L420.241 175.799Z" stroke="#361D02" stroke-width="0.587758"/>
<path d="M368.574 262.977V259.036C365.072 257.985 352.519 279.032 346.681 289.687H349.746C352.549 280.229 363.466 267.939 368.574 262.977Z" fill="#58412B" stroke="#361D02" stroke-width="0.587758"/>
<path d="M369.01 259.037V262.978L444.323 266.043V262.54L369.01 259.037Z" fill="#583A1C" stroke="#583A1C" stroke-width="0.587758"/>
<path d="M448.702 254.661L447.826 256.85L378.206 253.785L380.395 251.158L448.702 254.661Z" fill="#583A1C" stroke="#583A1C" stroke-width="0.587758"/>
<path d="M390.027 252.033H387.4C378.643 258.689 366.528 280.786 361.566 291.003H365.945C370.849 276.291 384.043 258.893 390.027 252.033Z" fill="#DFB3A0" stroke="#361D02" stroke-width="0.587758"/>
<path d="M382.583 251.594H379.956C371.199 258.249 359.085 280.347 354.122 290.564H358.501C363.405 275.852 376.599 258.454 382.583 251.594Z" fill="#DFB3A0" stroke="#361D02" stroke-width="0.587758"/>
<path d="M396.597 252.469H393.97C385.213 259.124 373.098 281.222 368.136 291.439H372.952C385.213 266.48 390.613 259.329 396.597 252.469Z" fill="#DFB3A0" stroke="#361D02" stroke-width="0.587758"/>
<path d="M402.726 252.469H400.099C391.341 259.124 382.292 282.098 377.33 292.315H381.708C386.612 277.602 396.742 259.329 402.726 252.469Z" fill="#DFB3A0" stroke="#361D02" stroke-width="0.587758"/>
<path d="M409.293 252.469H406.666C397.908 259.124 390.027 279.179 384.334 292.752H390.027C393.968 276.551 403.309 259.329 409.293 252.469Z" fill="#DFB3A0" stroke="#361D02" stroke-width="0.587758"/>
<path d="M416.739 252.469H414.112C405.355 259.124 398.787 276.551 393.094 293.628H397.911C401.852 277.427 410.755 259.329 416.739 252.469Z" fill="#DFB3A0" stroke="#361D02" stroke-width="0.587758"/>
<path d="M424.619 253.344H421.992C413.235 259.999 405.353 278.74 401.412 294.503H405.791C412.359 269.107 418.635 260.204 424.619 253.344Z" fill="#DFB3A0" stroke="#361D02" stroke-width="0.587758"/>
<path d="M437.757 253.344H435.13C424.183 265.166 421.994 279.616 418.053 295.379H423.307C428.124 269.545 431.773 260.204 437.757 253.344Z" fill="#DFB3A0" stroke="#361D02" stroke-width="0.587758"/>
<path d="M444.763 254.223H442.136C431.189 266.921 432.941 275.678 426.811 296.258H432.065C436.881 270.424 438.779 261.083 444.763 254.223Z" fill="#DFB3A0" stroke="#361D02" stroke-width="0.587758"/>
<path d="M432.502 253.344H429.875C420.242 259.474 413.674 279.178 409.733 294.941H414.987C421.555 266.918 424.183 260.35 432.502 253.344Z" fill="#DFB3A0" stroke="#361D02" stroke-width="0.587758"/>
<path d="M372.079 255.535L368.576 258.6L444.764 262.103L446.078 258.6L372.079 255.535Z" fill="#C59C8D" stroke="#5C462D" stroke-width="0.587758"/>
<path d="M347.994 288.812L344.491 295.38L438.194 303.262L439.946 297.132L347.994 288.812Z" fill="#F0CCB4" stroke="#361D02" stroke-width="0.587758"/>
<path d="M368.138 255.535C370.24 253.783 376.896 252.178 379.961 251.594L378.647 252.907C366.037 253.958 350.478 281.369 344.056 294.943H339.239C352.375 266.043 365.511 257.724 368.138 255.535Z" fill="#E5B5AB" stroke="#361D02" stroke-width="0.587758"/>
<path d="M338.37 300.078L338.788 295.059C338.794 294.994 338.851 294.946 338.915 294.951L343.945 295.37C344.006 295.375 344.053 295.426 344.053 295.487V300.507C344.053 300.575 343.994 300.629 343.926 300.624L338.478 300.205C338.413 300.2 338.365 300.143 338.37 300.078Z" fill="#34220D" stroke="#34220D" stroke-width="0.587758"/>
<path d="M380.396 250.719L378.644 252.908L450.016 255.973C450.016 255.389 450.804 254.572 450.454 254.222C450.104 253.871 403.311 251.594 380.396 250.719Z" fill="#CD9A8D" stroke="#361D02" stroke-width="0.587758"/>
<path d="M450.889 254.223C447.824 261.229 444.175 288.668 442.57 303.702H437.315C437.461 300.637 438.279 291.266 440.38 278.305C442.482 265.344 446.073 255.974 447.386 254.223H450.889Z" fill="#C7A197" stroke="#361D02" stroke-width="0.587758"/>
<path d="M437.325 308.39L437.745 302.933C437.75 302.872 437.801 302.824 437.862 302.824H442.89C442.955 302.824 443.008 302.877 443.008 302.942V308.399C443.008 308.464 442.955 308.516 442.89 308.516H437.442C437.374 308.516 437.32 308.458 437.325 308.39Z" fill="#34220D" stroke="#34220D" stroke-width="0.587758"/>
<path d="M452.647 226.633L456.15 226.195L454.398 310.704H449.582L452.647 226.633Z" fill="url(#paint1_linear_7414_40004)" stroke="#361D02" stroke-width="0.587758"/>
<path d="M449.582 220.066V225.759L457.463 225.321V220.066H449.582Z" fill="url(#paint2_linear_7414_40004)" stroke="#361D02" stroke-width="0.587758"/>
<path d="M457.46 225.321V220.066L459.649 225.759V229.262L457.46 225.321Z" fill="#3A3119" stroke="#361D02" stroke-width="0.587758"/>
<path d="M459.211 228.823H455.008L449.152 226.87C449.035 226.832 449.049 226.663 449.169 226.643L450.279 226.458L457.635 226.195L459.211 228.823Z" fill="#0F0600" stroke="#361D02" stroke-width="0.587758"/>
<path d="M439.626 184.629L438.439 202.215L434.977 195.478L429.869 189.13L439.398 184.476C439.508 184.422 439.635 184.507 439.626 184.629Z" fill="#E0D5D1" stroke="#25222C" stroke-width="0.958005"/>
<path d="M387.822 185.808L389.426 203.402L392.42 196.661L397.515 190.556L388.053 185.653C387.942 185.595 387.811 185.683 387.822 185.808Z" fill="#E0D5D1" stroke="#25222C" stroke-width="0.958005"/>
<path d="M445.766 223.354C445.766 231.634 446.949 232.819 443.4 238.731L445.169 252.664C448.718 249.115 451.68 232.819 452.863 223.354C453.157 221.004 452.863 215.079 459.96 215.075C464.692 215.073 467.058 218.622 468.241 220.99C469.422 223.354 470.606 226.902 468.241 229.27C466.371 231.141 462.595 226.182 458.777 228.087C456.412 229.268 455.353 231.886 456.412 234.002C457.595 236.365 464.692 241.099 470.606 236.367C476.521 231.636 476.521 228.087 476.521 225.721C476.521 219.687 472.972 212.708 468.241 209.159C463.509 205.61 456.167 206.913 451.68 209.158C449.314 210.342 445.766 214.396 445.766 223.354Z" fill="#E0D5D1" stroke="#25222C" stroke-width="0.958005"/>
<path d="M430.267 270.414C425.535 271.361 407.003 270.809 398.329 270.414C390.762 270.07 386.56 265.24 385.317 262.134C382.95 256.22 384.134 250.304 385.317 242.024C386.5 233.744 386.895 212.453 390.048 202.988C393.931 191.336 401.321 185.246 414.889 185.246C429.084 185.246 436.012 193.524 439.73 206.538C441.069 211.228 445.644 249.122 445.644 252.671C445.644 256.22 444.461 262.134 442.095 264.5C439.73 266.866 436.181 269.231 430.267 270.414Z" fill="#E0D5D1" stroke="#25222C" stroke-width="0.958005"/>
<path d="M419.723 204.656C419.723 205.041 419.723 205.425 419.723 205.81C419.723 206.508 419.895 206.987 420.319 207.56C421.003 208.483 422.181 208.857 423.293 208.857C424.182 208.857 424.87 208.531 425.363 207.777C425.641 207.352 425.81 206.885 426.054 206.453C426.107 206.358 426.201 206.196 426.204 206.083C426.209 205.886 426.325 205.167 426.144 205.076" stroke="#25222C" stroke-width="0.383202" stroke-linecap="round"/>
<path d="M402.871 205.195C402.931 205.575 402.992 205.955 403.052 206.334C403.162 207.024 403.408 207.47 403.917 207.969C404.737 208.773 405.959 208.957 407.057 208.782C407.935 208.642 408.563 208.212 408.932 207.389C409.14 206.926 409.233 206.439 409.405 205.974C409.443 205.871 409.51 205.696 409.495 205.585C409.469 205.389 409.471 204.661 409.278 204.6" stroke="#25222C" stroke-width="0.383202" stroke-linecap="round"/>
<path d="M427.714 242.818L432.948 220.455L439.133 219.504" stroke="#D822C6" stroke-width="0.319335"/>
<path d="M426.763 250.906L425.336 237.584H433.9L432.473 250.906H426.763Z" fill="url(#paint3_linear_7414_40004)"/>
<path d="M432.924 251.371V253.761H426.614L426.362 251.371M432.924 251.371H426.362M432.924 251.371L435.328 228.068H423.909L426.362 251.371" stroke="#25222C" stroke-width="0.63867"/>
<path d="M423.909 223.678L432.54 223.311L438.183 231.388C437.077 231.755 434.465 232.27 432.872 231.388C431.323 231.021 428.158 229.92 427.893 228.451C425.768 227.863 424.352 225.024 423.909 223.678Z" fill="#F26565"/>
<path d="M432.54 223.311L423.909 223.678C424.352 225.024 425.768 227.863 427.893 228.451M432.54 223.311L427.893 228.451M432.54 223.311L432.872 231.388M432.54 223.311L438.183 231.388C437.077 231.755 434.465 232.27 432.872 231.388M427.893 228.451C428.158 229.92 431.323 231.021 432.872 231.388" stroke="#C01F1F" stroke-width="0.319335"/>
<path d="M379.666 239.01C378.524 235.965 384.423 221.406 387.754 216.172L385.376 235.204C389.34 236.314 392.322 233.396 395.367 237.583C398.412 241.77 393.147 243.292 391.085 242.816C384.9 240.913 380.808 242.055 379.666 239.01Z" fill="#E0D5D1" stroke="#25222C" stroke-width="0.63867"/>
<path d="M392.935 236.954C392.852 236.982 392.806 237.073 392.834 237.156C392.862 237.24 392.953 237.285 393.036 237.257L392.935 236.954ZM393.036 237.257C393.681 237.042 394.381 237.29 394.918 237.655C395.184 237.835 395.4 238.038 395.538 238.21C395.607 238.296 395.652 238.369 395.675 238.424C395.703 238.489 395.684 238.49 395.698 238.462L395.983 238.605C396.037 238.498 396.003 238.38 395.969 238.299C395.93 238.208 395.866 238.109 395.787 238.01C395.627 237.81 395.387 237.586 395.098 237.39C394.525 237.002 393.718 236.694 392.935 236.954L393.036 237.257Z" fill="#25222C"/>
<path d="M393.934 239.325C393.846 239.325 393.774 239.396 393.774 239.484C393.774 239.573 393.846 239.644 393.934 239.644V239.325ZM393.934 239.644C394.854 239.644 395.45 239.912 395.794 240.201C395.967 240.347 396.075 240.497 396.13 240.62C396.19 240.754 396.178 240.826 396.17 240.84L396.456 240.983C396.528 240.839 396.495 240.654 396.421 240.489C396.343 240.316 396.203 240.129 396 239.957C395.59 239.612 394.917 239.325 393.934 239.325V239.644Z" fill="#25222C"/>
<path d="M392.035 241.708C391.947 241.708 391.875 241.779 391.875 241.867C391.875 241.955 391.947 242.027 392.035 242.027V241.708ZM392.035 242.027C392.978 242.027 393.448 242.186 393.663 242.351C393.766 242.43 393.806 242.508 393.819 242.57C393.833 242.634 393.821 242.696 393.796 242.747L394.081 242.89C394.135 242.783 394.163 242.647 394.132 242.503C394.1 242.357 394.012 242.216 393.857 242.097C393.556 241.866 392.996 241.708 392.035 241.708V242.027Z" fill="#25222C"/>
<path d="M447.702 238.538C448.844 235.493 444.822 219.982 441.491 214.748L443.419 233.304L441.04 235.207C437.075 236.317 433.143 231.972 430.098 236.159C427.052 240.346 433.27 242.82 435.331 242.344C441.516 240.441 446.56 241.583 447.702 238.538Z" fill="#E0D5D1" stroke="#25222C" stroke-width="0.63867"/>
<path d="M432.537 235.62C432.621 235.648 432.666 235.739 432.638 235.822C432.61 235.906 432.52 235.951 432.436 235.923L432.537 235.62ZM432.436 235.923C431.791 235.708 431.092 235.956 430.554 236.321C430.288 236.501 430.073 236.704 429.935 236.876C429.866 236.962 429.821 237.035 429.798 237.09C429.77 237.155 429.789 237.156 429.775 237.128L429.489 237.271C429.436 237.164 429.469 237.046 429.504 236.965C429.542 236.874 429.606 236.775 429.686 236.676C429.846 236.476 430.086 236.253 430.375 236.056C430.948 235.668 431.755 235.36 432.537 235.62L432.436 235.923Z" fill="#25222C"/>
<path d="M432.025 237.993C432.114 237.993 432.185 238.064 432.185 238.152C432.185 238.241 432.114 238.312 432.025 238.312V237.993ZM432.025 238.312C431.105 238.312 430.509 238.58 430.166 238.869C429.993 239.015 429.885 239.165 429.829 239.288C429.769 239.422 429.782 239.494 429.789 239.508L429.504 239.651C429.432 239.507 429.464 239.322 429.538 239.157C429.616 238.984 429.756 238.797 429.96 238.625C430.37 238.28 431.042 237.993 432.025 237.993V238.312Z" fill="#25222C"/>
<path d="M433.924 240.284C434.012 240.284 434.084 240.355 434.084 240.443C434.084 240.532 434.012 240.603 433.924 240.603V240.284ZM433.924 240.603C432.988 240.603 432.382 240.76 432.036 240.941C431.863 241.033 431.764 241.125 431.717 241.199C431.671 241.271 431.681 241.309 431.688 241.324L431.403 241.466C431.331 241.322 431.36 241.163 431.448 241.026C431.535 240.891 431.684 240.766 431.887 240.659C432.295 240.444 432.958 240.284 433.924 240.284V240.603Z" fill="#25222C"/>
<path d="M405.403 214.315C404.037 214.998 403.126 214.6 402.841 214.315C401.418 213.603 397.973 211.07 395.582 206.629C392.593 201.078 396.009 198.088 398.571 197.661C401.133 197.234 402.841 199.796 404.122 199.796C405.403 199.796 411.382 196.807 412.663 202.358C413.944 207.91 407.111 213.461 405.403 214.315Z" fill="#54333F" fill-opacity="0.4" stroke="#DC1E41" stroke-width="1.14641"/>
<path d="M424.348 214.791C425.714 215.475 426.625 215.076 426.91 214.791C428.333 214.08 431.778 211.547 434.169 207.106C437.158 201.554 433.742 198.565 431.18 198.138C428.618 197.711 426.91 200.273 425.629 200.273C424.348 200.273 418.369 197.283 417.088 202.835C415.807 208.386 422.64 213.937 424.348 214.791Z" fill="#54333F" fill-opacity="0.4" stroke="#DC1E41" stroke-width="1.14641"/>
<path d="M416.506 203.213H413.089V204.921H416.506V203.213Z" fill="#DC1E41" stroke="#DC1E41" stroke-width="0.286602"/>
<path d="M397.749 189.526L394.418 203.8H393.942L396.797 190.477L395.37 188.574L397.749 189.526Z" fill="#DC1E41" stroke="#DC1E41" stroke-width="0.319335"/>
<path d="M428.677 189.047L435.338 201.894V201.418L429.629 189.999L431.056 188.096L428.677 189.047Z" fill="#DC1E41" stroke="#DC1E41" stroke-width="0.319335"/>
<path d="M415.754 224.026V220.021" stroke="#25222C" stroke-width="0.383202"/>
<path d="M410.748 222.527C410.748 226.131 414.085 225.03 415.753 224.029C417.255 225.03 420.258 226.131 420.258 222.527" stroke="#25222C" stroke-width="0.383202"/>
<path d="M414.3 219.337C414.721 219.58 415.138 219.937 415.637 219.937C415.705 220.071 415.91 219.903 415.972 219.841C416.13 219.683 416.316 219.545 416.473 219.387C416.655 219.206 416.792 218.973 416.975 218.79C417.168 218.597 417.425 218.407 417.647 218.241C418.503 217.599 418.548 215.303 417.169 215.303C416.452 215.303 415.846 215.474 415.351 215.998C415.305 216.046 415.216 216.145 415.207 216.21C415.2 216.267 415.178 216.425 415.157 216.372C415.042 216.084 414.738 215.776 414.48 215.611C414.165 215.408 413.556 215.607 413.288 215.791C412.672 216.215 412.135 217.069 412.577 217.76C412.686 217.93 412.79 218.097 412.914 218.254C413.259 218.69 413.826 219.063 414.3 219.337Z" stroke="#25222C" stroke-width="0.79391" stroke-linecap="round"/>
<path d="M414.569 216.68C414.428 216.68 414.288 216.68 414.148 216.68C414.02 216.68 413.991 216.829 413.946 216.925C413.921 216.979 413.933 217.05 413.933 217.107C413.933 217.285 413.937 217.471 413.991 217.642C414.046 217.82 414.12 217.988 414.2 218.156C414.215 218.189 414.238 218.299 414.286 218.304C414.446 218.322 414.133 217.933 414.108 217.904C413.997 217.771 413.784 217.739 413.639 217.642C413.57 217.596 413.567 217.452 413.499 217.407C413.241 217.235 413.51 216.848 413.639 216.69C413.706 216.607 413.734 216.471 413.821 216.402C413.848 216.381 414.011 216.905 414.027 216.957C414.186 217.478 414.513 218.034 414.972 218.351C415.112 218.448 415.274 218.592 415.435 218.652C415.607 218.716 415.296 218.526 415.257 218.498C415.11 218.39 414.945 218.277 414.815 218.15C414.785 218.121 414.72 218.024 414.676 218.024C414.641 218.024 414.713 218.205 414.72 218.22C414.785 218.357 414.849 218.494 414.924 218.626C414.977 218.718 415.007 218.834 415.084 218.911C415.157 218.984 415.255 219.122 415.346 219.17C415.391 219.194 415.356 218.963 415.355 218.955C415.319 218.684 415.243 218.42 415.182 218.154C415.126 217.909 415.11 217.647 415.04 217.407C414.986 217.223 415.259 217.622 415.285 217.666C415.305 217.699 415.441 217.995 415.497 217.995C415.578 217.995 415.534 217.292 415.534 217.221C415.534 217.103 415.513 216.964 415.552 216.85C415.578 216.776 415.587 217.002 415.607 217.077C415.681 217.352 415.767 217.624 415.863 217.891C415.93 218.072 415.932 217.599 415.934 217.577C415.972 217.159 416.052 216.722 416.052 216.303C416.052 216.221 416.041 216.148 416.03 216.068C416.009 215.926 415.966 216.166 415.958 216.207C415.842 216.788 415.981 217.414 415.981 218.003C415.981 218.034 415.963 218.16 416.005 218.163C416.067 218.166 416.099 218.116 416.122 218.069" stroke="#25222C" stroke-width="0.79391" stroke-linecap="round"/>
<path d="M416.804 216.138C416.916 216.138 417.164 216.085 417.262 216.141C417.296 216.16 417.34 216.325 417.344 216.363C417.357 216.478 417.346 216.599 417.346 216.715C417.346 216.966 417.166 217.281 417.006 217.467C416.912 217.576 416.821 217.69 416.723 217.795C416.678 217.844 416.596 217.904 416.569 217.965C416.517 218.082 416.476 218.196 416.412 218.309C416.369 218.387 416.284 218.531 416.237 218.608C416.231 218.616 416.159 218.747 416.182 218.655C416.203 218.568 416.234 218.483 416.263 218.398C416.296 218.301 416.336 218.213 416.399 218.134C416.45 218.07 416.455 217.898 416.475 217.82C416.531 217.6 416.569 217.405 416.569 217.174C416.569 217.1 416.61 216.83 416.545 216.797" stroke="#25222C" stroke-width="0.79391" stroke-linecap="round"/>
<path d="M430.661 285.388C429.666 285.056 427.677 266.818 422.703 268.476L443.594 256.869C448.237 261.843 439.615 280.745 441.273 279.419C442.931 278.092 451.221 282.735 453.211 284.393C455.2 286.051 453.874 290.362 452.216 291.688C450.558 293.015 446.91 290.03 446.247 288.704C445.584 287.377 431.656 285.72 430.661 285.388Z" fill="#E0D5D1" stroke="#E0D5D1" stroke-width="0.63867"/>
<path d="M422.703 268.476C427.677 266.818 429.666 285.056 430.661 285.388C431.656 285.72 445.584 287.377 446.247 288.704C446.91 290.03 450.558 293.015 452.216 291.688C453.874 290.362 455.2 286.051 453.211 284.393C451.221 282.735 442.931 278.092 441.273 279.419C439.615 280.745 448.237 261.843 443.594 256.869" stroke="#25222C" stroke-width="0.63867"/>
<path d="M450.774 289.223C451.409 289.857 452.202 291.126 452.202 291.602" stroke="#25222C" stroke-width="0.319335"/>
<path d="M452.201 288.271C452.835 288.906 453.152 289.699 453.628 290.175" stroke="#25222C" stroke-width="0.319335"/>
<path d="M453.154 287.32C453.789 287.955 453.63 288.272 454.106 288.748" stroke="#25222C" stroke-width="0.319335"/>
<path d="M382.53 264.885C379.081 256.131 383.967 250.184 386.841 248.305L393.804 267.87C393.274 267.604 393.583 269.749 393.804 270.854C394.136 272.181 394.003 274.966 390.82 275.497C386.841 276.16 373.245 271.517 371.587 270.523C369.929 269.528 365.949 269.528 363.959 268.201C361.97 266.875 362.964 264.554 363.296 263.559C363.628 262.564 368.27 261.569 372.25 262.564C376.229 263.559 381.203 266.543 382.53 266.543C383.591 266.543 382.972 265.438 382.53 264.885Z" fill="#E0D5D1" stroke="#E0D5D1" stroke-width="0.63867"/>
<path d="M386.841 248.305C383.967 250.184 379.081 256.131 382.53 264.885C382.972 265.438 383.591 266.543 382.53 266.543C381.203 266.543 376.229 263.559 372.25 262.564C368.27 261.569 363.628 262.564 363.296 263.559C362.964 264.554 361.97 266.875 363.959 268.201C365.949 269.528 369.929 269.528 371.587 270.523C373.245 271.517 386.841 276.16 390.82 275.497C394.003 274.966 394.136 272.181 393.804 270.854C393.583 269.749 393.555 268.231 395.107 268.764" stroke="#25222C" stroke-width="0.63867"/>
<path d="M365.678 266.812C365.399 267.124 365.976 267.914 366.931 268.355C367.078 268.502 367.417 268.707 367.593 268.355C367.769 268.002 367.762 267.872 367.778 267.6C367.794 267.329 368.254 267.6 368.254 266.812C368.254 266.592 366.425 265.973 365.678 266.812Z" fill="#25222C"/>
<path d="M366.621 265.617C366.444 265.265 366.485 265.179 366.558 264.959C366.632 264.738 367.649 265.25 367.723 265.397C367.796 265.544 367.899 265.882 367.723 266.058C367.502 266.279 366.841 266.058 366.621 265.617Z" fill="#25222C"/>
<path d="M364.419 265.426C364.243 265.073 364.345 265.023 364.419 264.802C364.492 264.582 365.301 265.175 365.521 265.396C365.742 265.616 366.016 265.91 365.84 266.087C365.62 266.307 364.64 265.866 364.419 265.426Z" fill="#25222C"/>
<path d="M363.945 266.828C363.788 266.585 363.917 266.555 363.945 266.386C363.974 266.216 364.525 266.561 364.699 266.703C364.872 266.845 365.091 267.036 364.987 267.183C364.858 267.366 364.141 267.133 363.945 266.828Z" fill="#25222C"/>
<path d="M485.466 319.783L488.692 332.168H521.417L527.409 319.783H521.417L527.87 307.915H524.643L530.635 290.886H527.409L530.635 277.985H527.87L530.635 260.44H527.87L530.635 242.896H527.87L530.635 226.899H527.87L530.635 215.546H527.87V199.55H524.643V185.101H521.417V170.652L517.73 173.749V161.364H514.964L513.121 147.947L509.433 150.527V135.563L506.207 138.143L504.363 124.726L500.676 127.822V116.986H496.989V106.149L495.145 102.537V97.377L488.692 96.345L485.466 92.2168L482.24 102.537L478.091 100.473L485.466 116.986H483.161L488.692 127.822H485.466L493.301 140.207L488.692 138.143L496.989 150.527H493.301L500.676 159.816H496.989L504.363 173.749H500.676L504.363 185.101H500.676L504.363 196.97H500.676L506.207 210.386H502.52L506.207 226.899L502.52 225.351L504.363 242.896L500.676 240.832L502.52 257.344L500.676 255.28V273.341L496.989 270.245V288.822L493.301 286.242V302.754H488.692V319.783H485.466Z" fill="#8D6358" stroke="#2C1B17" stroke-width="0.587758"/>
<path d="M357.546 47.5513C419.328 15.0786 478.245 65.8176 499.981 95.2462C526.607 34.1613 577.842 28.8636 600.636 48.2576C590.867 50.4462 579.547 61.0478 575.108 66.075L561.357 63.2881L574.212 73.4137L552.846 72.8169L571.29 83.3234L540.014 79.805L554.139 87.7708L517.362 108.24C574.763 77.8737 619.388 119.757 634.801 145.132C628.822 141.341 611.872 138.372 604.145 137.361L591.978 124.904L603.592 143.534L582.031 126.406L587.166 141.225L565.949 122.932L573.893 141.114L552.332 123.986L561.517 133.664L530.757 128.396C598.999 161.694 598.848 231.26 590.243 261.881L571.887 220.988L564.595 254.319L561.125 210.212L552.839 242.616L549.332 202.934L544.028 238.118C542.689 221.884 540.039 190.183 540.147 193.256C540.255 196.329 536.341 209.03 534.371 214.996C537.232 192.397 503.66 134.346 491.075 131.903C481.007 129.949 456.589 159.329 445.639 174.264C444.491 167.843 446.54 159.746 447.709 156.5L427.838 176.619L432.478 160.88L412.638 187.344L417.181 163.339L403.894 184.766L399.858 168.37L378.164 196.821L383.118 173.572L368.016 192.562C362.94 192.586 344.697 205.751 336.21 212.33C373.846 96.7084 450.481 94.803 484.093 108.303C476.333 101.96 456.193 100.5 447.093 100.563L435.711 94.039L442.541 85.9152L413.799 88.8461L435.86 76.3419L405.436 80.6783L417.311 68.3394L391.244 70.7919L403.253 62.2942L386.894 61.906C386.021 54.552 366.965 49.272 357.546 47.5513Z" fill="#BDE692"/>
<path d="M517.362 108.24C574.763 77.8737 619.388 119.757 634.801 145.132C628.822 141.341 611.872 138.372 604.145 137.361L591.978 124.904L603.592 143.534L582.031 126.406L587.166 141.225L565.949 122.932L573.893 141.114L552.332 123.986L561.517 133.664L530.757 128.396C598.999 161.694 598.848 231.26 590.243 261.881L571.887 220.988L564.595 254.319L561.125 210.212L552.839 242.616L549.332 202.934L544.028 238.118C542.689 221.884 540.039 190.183 540.147 193.256C540.255 196.329 536.341 209.03 534.371 214.996C537.232 192.397 503.66 134.346 491.075 131.903C481.007 129.949 456.589 159.329 445.639 174.264C444.491 167.843 446.54 159.746 447.709 156.5L427.838 176.619L432.478 160.88L412.638 187.344L417.181 163.339L403.894 184.766L399.858 168.37L378.164 196.821L383.118 173.572L368.016 192.562C362.94 192.586 344.697 205.751 336.21 212.33C373.846 96.7084 450.481 94.803 484.093 108.303C476.333 101.96 456.193 100.5 447.093 100.563L435.711 94.039L442.541 85.9152L413.799 88.8461L435.86 76.3419L405.436 80.6783L417.311 68.3394L391.244 70.7919L403.253 62.2942L386.894 61.906C386.021 54.552 366.965 49.272 357.546 47.5513C419.328 15.0786 478.245 65.8176 499.981 95.2462C526.607 34.1613 577.842 28.8636 600.636 48.2576C590.867 50.4462 579.547 61.0478 575.108 66.075L561.357 63.2881L574.212 73.4137L552.846 72.8169L571.29 83.3234L540.014 79.805L554.139 87.7708L517.362 108.24ZM517.362 108.24C515.985 108.968 514.601 109.738 513.209 110.551L517.362 108.24Z" stroke="#90C85E" stroke-width="0.587758"/>
<path d="M582.665 42.5888C548.317 37.0244 516.565 76.9564 504.983 97.618L509.646 98.9928C529.426 59.8396 562.105 39.2579 582.665 42.5888Z" fill="#90C85E" stroke="#90C85E" stroke-width="0.587758"/>
<path d="M355.379 183.844C388.149 123.874 456.429 113.047 486.473 115.13L482.545 123.885C427.978 116.499 374.995 147.946 355.379 183.844Z" fill="#90C85E" stroke="#90C85E" stroke-width="0.587758"/>
<path d="M379.657 45.6214C422.058 29.842 474.482 75.3383 495.393 100.059L489.818 103.027C452.971 55.6538 405.038 36.1759 379.657 45.6214Z" fill="#90C85E" stroke="#90C85E" stroke-width="0.587758"/>
<path d="M620.1 134.38C595.712 102.614 548.122 106.179 527.375 111.933L530.342 116.698C567.921 104.046 605.501 115.365 620.1 134.38Z" fill="#90C85E" stroke="#90C85E" stroke-width="0.587758"/>
<path d="M587.821 242.427C590.852 179.571 543.568 138.534 519.547 125.873L518.447 134.642C563.768 154.799 589.636 204.802 587.821 242.427Z" fill="#90C85E" stroke="#90C85E" stroke-width="0.587758"/>
<path d="M420.491 185.813C421.545 137.692 471.415 112.964 496.218 106.615C468.51 73.6799 482.321 39.3759 501.473 29.748C499.545 36.594 502.134 46.6158 503.669 50.771L497.445 58.8877L507.761 53.2479L500.323 66.8266L512.719 57.6924L500.25 76.8839L509.695 69.8681L509.749 98.8082C510.611 54.0486 550.447 36.213 570.73 32.8786C566.482 35.7399 559.089 45.8652 555.924 50.5702L544.442 55.1642L559.432 52.5243L542.044 61.9468L552.608 62.4845L534.637 71.3842L548.143 70.9867L530.755 80.4093L539.586 77.0119L526.242 95.4191C568.771 60.1804 610.324 78.2944 625.785 91.7563L595.246 92.9637L612.763 106.284L585.235 97.0902L601.869 110.809L576.974 102.785L596.258 115.307C586.106 111.963 566.269 105.456 568.143 106.183C570.016 106.909 576.315 112.714 579.23 115.526C566.663 107.833 520.82 114.377 515.189 121.834C510.683 127.799 520.162 151.103 525.465 162.009C521.244 161.084 517.081 157.67 515.527 156.078L520.974 174.061L513.099 167.002L522.35 186.609L509.5 177.472L517.911 191.561L506.768 189.909L516.594 211.222L504.331 202.016L510.683 216.642C509.016 219.911 510.843 235.046 511.966 242.205C455.291 188.068 479.548 138.317 498.761 120.209C492.396 123.554 484.848 136.121 481.87 141.986L474.197 147.613L471.602 141.118L463.83 160.352L463.662 142.933L456.173 163.611L452.729 152.783L445.558 170.173L444.455 160.253L438.802 170.667C434.115 169.324 424.642 180.205 420.491 185.813Z" fill="#BDE692"/>
<path d="M509.749 98.8082C510.611 54.0486 550.447 36.213 570.73 32.8786C566.482 35.7399 559.089 45.8652 555.924 50.5702L544.442 55.1642L559.432 52.5243L542.044 61.9468L552.608 62.4845L534.637 71.3842L548.143 70.9867L530.755 80.4093L539.586 77.0119L526.242 95.4191C568.771 60.1804 610.324 78.2944 625.785 91.7563L595.246 92.9637L612.763 106.284L585.235 97.0902L601.869 110.809L576.974 102.785L596.258 115.307C586.106 111.963 566.269 105.456 568.143 106.183C570.016 106.909 576.315 112.714 579.23 115.526C566.663 107.833 520.82 114.377 515.189 121.834C510.683 127.799 520.162 151.103 525.465 162.009C521.244 161.084 517.081 157.67 515.527 156.078L520.974 174.061L513.099 167.002L522.35 186.609L509.5 177.472L517.911 191.561L506.768 189.909L516.594 211.222L504.331 202.016L510.683 216.642C509.016 219.911 510.843 235.046 511.966 242.205C455.291 188.068 479.548 138.317 498.761 120.209C492.396 123.554 484.848 136.121 481.87 141.986L474.197 147.613L471.602 141.118L463.83 160.352L463.662 142.933L456.173 163.611L452.729 152.783L445.558 170.173L444.455 160.253L438.802 170.667C434.115 169.324 424.642 180.205 420.491 185.813C421.545 137.692 471.415 112.964 496.218 106.615C468.51 73.6799 482.321 39.3759 501.473 29.748C499.545 36.594 502.134 46.6158 503.669 50.771L497.445 58.8877L507.761 53.2479L500.323 66.8266L512.719 57.6924L500.25 76.8839L509.695 69.8681L509.749 98.8082ZM509.749 98.8082C509.728 99.8821 509.73 100.971 509.755 102.076L509.749 98.8082Z" stroke="#90C85E" stroke-width="0.587758"/>
<path d="M492.13 39.8281C477.42 60.464 490.779 91.2153 499.297 104.011L501.664 101.37C484.804 78.5157 483.325 52.1806 492.13 39.8281Z" fill="#90C85E" stroke="#90C85E" stroke-width="0.587758"/>
<path d="M501.285 222.504C476.28 185.909 492.433 139.217 503.636 120.445L507.57 125.237C485.069 158.398 486.317 200.598 501.285 222.504Z" fill="#90C85E" stroke="#90C85E" stroke-width="0.587758"/>
<path d="M426.666 171.104C431.281 139.763 475.863 117.851 497.577 110.812L497.504 115.165C456.962 126.579 429.428 152.344 426.666 171.104Z" fill="#90C85E" stroke="#90C85E" stroke-width="0.587758"/>
<path d="M559.431 39.541C532.351 46.9894 518.712 78.502 515.278 93.3272L519.111 92.6543C523.998 65.2231 543.221 43.9995 559.431 39.541Z" fill="#90C85E" stroke="#90C85E" stroke-width="0.587758"/>
<path d="M613.348 88.2737C576.762 70.0457 536.551 89.8097 521.018 101.97L525.898 104.948C552.972 81.0386 591.448 77.3625 613.348 88.2737Z" fill="#90C85E" stroke="#90C85E" stroke-width="0.587758"/>
<path d="M507.774 360.595L509.083 360.494L505.696 339.457L504.009 340.349L507.774 360.595Z" fill="#361D02" stroke="#361D02" stroke-width="0.293879"/>
<path d="M509.083 360.492L504.966 335.709L516.636 333.283L520.082 355.076L509.083 360.492Z" fill="#6C4A41" stroke="#361D02" stroke-width="0.293879"/>
<path d="M534.04 348.333L535.349 348.232L531.963 327.195L530.275 328.087L534.04 348.333Z" fill="#361D02" stroke="#361D02" stroke-width="0.293879"/>
<path d="M535.349 348.231L531.232 323.447L542.902 321.021L546.348 342.814L535.349 348.231Z" fill="#6C4A41" stroke="#361D02" stroke-width="0.293879"/>
<path d="M468.846 346.562L469.722 347.052L473.663 326.945L472.787 326.455L468.846 346.562Z" fill="#361D02" stroke="#361D02" stroke-width="0.293879"/>
<path d="M484.171 322.531L474.1 325.474L470.159 347.052L478.479 343.128L484.171 322.531Z" fill="#201201" stroke="#361D02" stroke-width="0.293879"/>
<path d="M488.113 338.683L488.989 339.173L492.93 319.067L492.054 318.576L488.113 338.683Z" fill="#361D02" stroke="#361D02" stroke-width="0.293879"/>
<path d="M503.438 314.652L493.367 317.595L489.426 339.173L497.746 335.25L503.438 314.652Z" fill="#201201" stroke="#361D02" stroke-width="0.293879"/>
<path d="M559.211 324.848L552.582 331.167L552.769 333.196L559.398 326.876L559.211 324.848Z" fill="#A46A51" stroke="#361D02" stroke-width="0.293879"/>
<path d="M486.432 305.194L478.827 309.148L552.579 331.17L559.208 324.85L486.432 305.194Z" fill="#DBB3A2" stroke="#361D02" stroke-width="0.293879"/>
<path d="M552.58 331.169L478.827 309.146L478.977 310.769L552.767 333.197L552.58 331.169Z" fill="#A46A51" stroke="#361D02" stroke-width="0.293879"/>
<path d="M552.175 331.067L545.051 337.183L545.169 339.216L552.294 333.101L552.175 331.067Z" fill="#A46A51" stroke="#361D02" stroke-width="0.293879"/>
<path d="M477.271 309.204L469.219 312.925L545.049 337.183L552.174 331.067L477.271 309.204Z" fill="#DBB3A2" stroke="#361D02" stroke-width="0.293879"/>
<path d="M545.049 337.184L469.219 312.926L469.314 314.552L545.167 339.217L545.049 337.184Z" fill="#A46A51" stroke="#361D02" stroke-width="0.293879"/>
<path d="M544.339 337.527L536.803 343.437L536.86 345.472L544.396 339.562L544.339 337.527Z" fill="#A46A51" stroke="#361D02" stroke-width="0.293879"/>
<path d="M467.866 313.532L459.452 317.021L536.803 343.435L544.339 337.525L467.866 313.532Z" fill="#DBB3A2" stroke="#361D02" stroke-width="0.293879"/>
<path d="M536.802 343.434L459.451 317.02L459.496 318.648L536.859 345.469L536.802 343.434Z" fill="#A46A51" stroke="#361D02" stroke-width="0.293879"/>
<path d="M536.337 343.691L528.492 349.394V351.43L536.337 345.728V343.691Z" fill="#A46A51" stroke="#361D02" stroke-width="0.293879"/>
<path d="M459.124 317.623L450.454 320.882L528.49 349.394L536.334 343.691L459.124 317.623Z" fill="#DBB3A2" stroke="#361D02" stroke-width="0.293879"/>
<path d="M528.49 349.391L450.454 320.879V322.508L528.49 351.428V349.391Z" fill="#A46A51" stroke="#361D02" stroke-width="0.293879"/>
<path d="M529.638 317.748L489.69 314.253C489.403 314.228 489.099 314.34 488.874 314.553L475.192 327.48C474.632 328.009 474.841 328.822 475.552 328.884L518.276 332.622C518.607 332.651 518.958 332.497 519.185 332.223L530.09 319.053C530.537 318.512 530.292 317.805 529.638 317.748Z" fill="#A2A9B8" stroke="#444749" stroke-width="0.587758"/>
<path d="M529.638 316.873L489.69 313.378C489.403 313.353 489.099 313.465 488.874 313.678L475.192 326.605C474.632 327.134 474.841 327.947 475.552 328.009L518.276 331.747C518.607 331.776 518.958 331.622 519.185 331.348L530.09 318.178C530.537 317.637 530.292 316.93 529.638 316.873Z" fill="#A2A9B8" stroke="#444749" stroke-width="0.587758"/>
<path d="M498.75 330.619C497.582 330.181 495.685 329.743 493.933 330.181L498.75 330.619Z" stroke="#A2A9B8" stroke-width="0.293879"/>
<g clip-path="url(#clip2_7414_40004)">
<path d="M504.03 322.886C503.984 322.562 503.998 322.21 504.074 321.856L504.174 321.381C504.239 321.071 504.066 320.834 503.732 320.74C504.088 320.238 504.851 320.057 505.156 319.981C505.309 319.943 505.442 319.836 505.452 319.735C505.465 319.632 505.352 319.583 505.202 319.613C504.97 319.662 504.627 319.758 504.276 319.933C504.444 319.669 504.567 319.258 503.729 319.202C503.729 319.202 502.889 319.882 503.954 320.133C503.954 320.133 503.616 320.359 503.383 320.699C502.956 320.703 502.464 320.878 502.096 321.164L501.543 321.593C501.124 321.917 500.674 322.216 500.194 322.488C499.812 322.706 499.462 323.046 499.243 323.516C498.865 324.316 499.087 325.047 499.807 325.121C500.024 325.143 500.228 325.103 500.43 325.011C500.478 325.126 500.6 325.202 500.815 325.225C501.537 325.299 502.709 324.712 503.462 323.953C503.907 323.506 504.065 323.147 504.03 322.886Z" fill="white"/>
<path d="M502.913 323.518C503.488 322.723 503.972 322.772 504.359 322.812L503.353 324.204C503.111 324.251 502.439 324.174 502.913 323.518Z" fill="#A2A9B8"/>
</g>
</g>
</g>
<defs>
<filter id="filter0_df_7414_40004" x="-129.099" y="-668.504" width="1164.56" height="999.717" filterUnits="userSpaceOnUse" color-interpolation-filters="sRGB">
<feFlood flood-opacity="0" result="BackgroundImageFix"/>
<feColorMatrix in="SourceAlpha" type="matrix" values="0 0 0 0 0 0 0 0 0 0 0 0 0 0 0 0 0 0 127 0" result="hardAlpha"/>
<feOffset dy="10.6093"/>
<feGaussianBlur stdDeviation="1.32616"/>
<feComposite in2="hardAlpha" operator="out"/>
<feColorMatrix type="matrix" values="0 0 0 0 1 0 0 0 0 1 0 0 0 0 1 0 0 0 0.4 0"/>
<feBlend mode="normal" in2="BackgroundImageFix" result="effect1_dropShadow_7414_40004"/>
<feBlend mode="normal" in="SourceGraphic" in2="effect1_dropShadow_7414_40004" result="shape"/>
<feGaussianBlur stdDeviation="1.98924" result="effect2_foregroundBlur_7414_40004"/>
</filter>
<filter id="filter1_f_7414_40004" x="-121.953" y="-710.588" width="1185.98" height="970.5" filterUnits="userSpaceOnUse" color-interpolation-filters="sRGB">
<feFlood flood-opacity="0" result="BackgroundImageFix"/>
<feBlend mode="normal" in="SourceGraphic" in2="BackgroundImageFix" result="shape"/>
<feGaussianBlur stdDeviation="1.98924" result="effect1_foregroundBlur_7414_40004"/>
</filter>
<linearGradient id="paint0_linear_7414_40004" x1="374.924" y1="251.594" x2="374.924" y2="304.576" gradientUnits="userSpaceOnUse">
<stop stop-color="#99746A"/>
<stop offset="0.235" stop-color="#41312D"/>
<stop offset="1" stop-color="#A77E74"/>
</linearGradient>
<linearGradient id="paint1_linear_7414_40004" x1="452.866" y1="226.195" x2="452.866" y2="310.704" gradientUnits="userSpaceOnUse">
<stop stop-color="#99746A"/>
<stop offset="0.235" stop-color="#41312D"/>
<stop offset="1" stop-color="#A77E74"/>
</linearGradient>
<linearGradient id="paint2_linear_7414_40004" x1="453.522" y1="220.066" x2="453.522" y2="225.759" gradientUnits="userSpaceOnUse">
<stop stop-color="#8E6459"/>
<stop offset="0.755" stop-color="#563B32"/>
</linearGradient>
<linearGradient id="paint3_linear_7414_40004" x1="429.618" y1="237.584" x2="429.618" y2="250.906" gradientUnits="userSpaceOnUse">
<stop stop-color="#FFE920"/>
<stop offset="1" stop-color="#FF460C"/>
</linearGradient>
<clipPath id="clip0_7414_40004">
<rect width="971" height="389.744" fill="white" transform="translate(0 0.894531)"/>
</clipPath>
<clipPath id="clip1_7414_40004">
<rect width="298.59" height="332.028" fill="white" transform="translate(336.205 29.752)"/>
</clipPath>
<clipPath id="clip2_7414_40004">
<rect width="7.8816" height="7.8816" fill="white" transform="matrix(0.994745 0.102379 -0.586036 0.810285 500.83 318.633)"/>
</clipPath>
</defs>
</svg>
