<svg width="24" height="24" viewBox="0 0 24 24" fill="none" xmlns="http://www.w3.org/2000/svg">
<g clip-path="url(#clip0_2249_17820)">
<path d="M10.77 15.4119C10.6252 15.303 10.475 15.2016 10.32 15.1078L10.2867 15.0885C9.88959 14.8574 9.47908 14.6184 9.06375 14.4034C8.95701 14.3482 8.84966 14.287 8.7458 14.2277C8.4611 14.0653 8.16682 13.8975 7.82934 13.8169C7.81449 13.8133 7.79891 13.8141 7.78447 13.8191C7.77004 13.8241 7.75735 13.8331 7.74791 13.8451L7.58746 14.0476C7.57837 14.0591 7.57265 14.0729 7.57089 14.0875C7.56913 14.102 7.57142 14.1167 7.5775 14.13C7.58855 14.1542 7.59773 14.1789 7.60676 14.2028C7.62542 14.2628 7.65463 14.3189 7.69303 14.3686C8.56784 15.3851 9.63931 16.2939 11.1668 17.3156C11.2599 17.3747 11.3575 17.427 11.4585 17.4718C11.593 17.5391 11.741 17.5755 11.8916 17.5784C12.0937 17.5759 12.2882 17.5004 12.4388 17.3661C12.471 17.339 12.5039 17.3125 12.5367 17.286C12.6076 17.2292 12.6807 17.1703 12.748 17.1048C12.9335 16.9243 13.1199 16.7446 13.3071 16.5657C13.8034 16.0894 14.3165 15.5968 14.7966 15.0881C15.094 14.759 15.3704 14.4116 15.6243 14.0481C15.7091 13.9318 15.7938 13.8155 15.88 13.7008L15.8895 13.6881C15.9393 13.6231 16.0557 13.471 15.8841 13.2933C15.87 13.2787 15.8508 13.27 15.8305 13.2689C15.5401 13.2546 15.3466 13.424 15.1601 13.5889C15.0902 13.6537 15.016 13.7135 14.9377 13.7679C14.6453 13.9688 14.3662 14.1883 14.1023 14.425L14.0541 14.4664C13.9192 14.5822 13.7889 14.7063 13.663 14.8262C13.5426 14.9409 13.4181 15.0595 13.291 15.1693C13.2035 15.2448 13.1213 15.3286 13.0419 15.4095C12.8935 15.5748 12.7228 15.7187 12.5345 15.837C12.5334 15.8285 12.5324 15.8203 12.5314 15.812C12.5209 15.7451 12.5155 15.6775 12.5153 15.6099C12.5277 15.1753 12.5411 14.7407 12.5558 14.306C12.5783 13.6119 12.6016 12.8941 12.6169 12.1877C12.6217 11.9668 12.6267 11.7458 12.6319 11.5248C12.6777 9.54794 12.725 7.50456 12.5454 5.49597C12.481 4.77501 12.3718 4.0475 12.2663 3.34367L12.222 3.04744C12.195 2.93533 12.1456 2.82984 12.0765 2.73735C12.0343 2.66959 11.9865 2.59278 11.933 2.49479C11.9258 2.4816 11.9151 2.47072 11.9019 2.46337C11.8888 2.45602 11.8738 2.45246 11.8587 2.45323C11.8437 2.45399 11.8291 2.45898 11.8168 2.46761C11.8044 2.47625 11.7948 2.4882 11.789 2.50206C11.6068 2.93432 11.6009 3.3069 11.5956 3.63551C11.5939 3.75032 11.5921 3.85889 11.5836 3.96665C11.5689 4.15208 11.551 4.33728 11.5331 4.52233C11.5104 4.7559 11.487 4.99746 11.4708 5.23607C11.4474 5.57973 11.4328 5.92941 11.4188 6.26748C11.4142 6.37477 11.4097 6.48202 11.4051 6.58931L11.4001 6.70188C11.3821 7.1084 11.3636 7.52872 11.3499 7.94261C11.3374 8.32588 11.3278 8.73096 11.3198 9.21741C11.3147 9.5275 11.312 9.83803 11.3094 10.1485L11.3055 10.5713C11.3041 10.7119 11.3024 10.8526 11.3004 10.9932C11.2965 11.2987 11.2926 11.6147 11.2926 11.9257C11.293 12.3258 11.2955 12.7996 11.3103 13.2813C11.3164 13.4806 11.3281 13.6826 11.3396 13.8782C11.3525 14.0994 11.3658 14.3278 11.3707 14.5526C11.3738 14.6881 11.3849 14.8261 11.3956 14.9595C11.4283 15.245 11.43 15.5333 11.4007 15.8192C11.1798 15.7004 10.9689 15.5642 10.77 15.4119Z" fill="#F9F9F9"/>
<path d="M20.8122 12.3406C20.7586 12.311 20.6992 12.2932 20.638 12.2886C20.5768 12.284 20.5154 12.2927 20.4578 12.3139C20.4466 12.317 20.4362 12.3225 20.4273 12.33C20.4185 12.3375 20.4114 12.3469 20.4065 12.3574C20.1986 12.807 20.1408 15.2348 20.0986 17.0075C20.0821 17.7 20.0687 18.259 20.0504 18.5294C19.9529 18.5386 19.861 18.5484 19.7733 18.5577C19.5553 18.581 19.367 18.6008 19.1775 18.6053C18.4196 18.6234 17.5236 18.6417 16.6231 18.6417H16.6098C16.016 18.6417 15.422 18.6425 14.828 18.6441C12.9552 18.6474 11.0185 18.6513 9.11462 18.6169C7.99262 18.5966 6.85187 18.5247 5.74864 18.4551C5.28472 18.4258 4.80501 18.3957 4.33292 18.3699C4.2456 18.3631 4.15873 18.3514 4.07274 18.3348C4.0416 18.3295 4.00968 18.3241 3.97613 18.3188C3.96998 18.2777 3.96343 18.2372 3.95697 18.1971C3.93554 18.0784 3.9205 17.9585 3.9119 17.8382C3.89243 17.4656 3.87633 17.0928 3.86013 16.72C3.83195 16.0703 3.80283 15.3986 3.75597 14.7386C3.70614 14.0348 3.63514 12.8529 3.59738 12.2113C3.59091 12.0904 3.53864 11.9763 3.45109 11.8922C3.36356 11.8081 3.24725 11.7601 3.1256 11.7579C3.0007 11.7553 2.87959 11.8006 2.78742 11.8846C2.69525 11.9686 2.6391 12.0847 2.63062 12.2088C2.55378 13.4036 2.38414 16.3627 2.46806 18.0312L2.47344 18.146C2.47624 18.4035 2.50577 18.6602 2.56157 18.9117C2.67718 19.3569 2.9446 19.5566 3.45554 19.5794C3.86107 19.5977 4.26652 19.6191 4.67189 19.6406C5.31805 19.6748 5.98671 19.7104 6.64502 19.7312C8.08846 19.7777 9.39542 19.8042 10.6406 19.8132C11.1956 19.8172 11.7505 19.8223 12.3055 19.8286C13.3004 19.8389 14.3096 19.8494 15.3242 19.8494C16.6913 19.8494 18.0681 19.8304 19.4318 19.7665C19.7275 19.7582 20.0224 19.7308 20.3146 19.6843C20.7798 19.6016 21.0412 19.3159 21.0702 18.8579C21.0815 18.6793 21.0961 18.4863 21.111 18.2913C21.1311 18.0268 21.152 17.7534 21.1649 17.5034C21.1555 15.7706 20.9816 12.8062 20.9482 12.5736C20.9439 12.5273 20.9295 12.4824 20.906 12.4422C20.8825 12.402 20.8505 12.3672 20.8122 12.3406Z" fill="#F9F9F9"/>
</g>
<defs>
<clipPath id="clip0_2249_17820">
<rect width="18.84" height="17.52" fill="white" transform="translate(2.39844 2.39844)"/>
</clipPath>
</defs>
</svg>
