<svg width="80" height="27" viewBox="0 0 80 27" fill="none" xmlns="http://www.w3.org/2000/svg">
<line x1="0.5" x2="0.5" y2="27" stroke="#25222C" strokeOpacity="0.2"/>
<line x1="8.5" x2="8.5" y2="16" stroke="#25222C" strokeOpacity="0.2"/>
<line x1="16.5" x2="16.5" y2="16" stroke="#25222C" strokeOpacity="0.2"/>
<line x1="24.5" x2="24.5" y2="16" stroke="#25222C" strokeOpacity="0.2"/>
<line x1="32.5" x2="32.5" y2="16" stroke="#25222C" strokeOpacity="0.2"/>
<line x1="40.5" x2="40.5" y2="22" stroke="#25222C" strokeOpacity="0.2"/>
<line y1="-0.5" x2="27" y2="-0.5" transform="matrix(0 1 1 0 80 0)" stroke="#25222C" strokeOpacity="0.2"/>
<line y1="-0.5" x2="16" y2="-0.5" transform="matrix(0 1 1 0 72 0)" stroke="#25222C" strokeOpacity="0.2"/>
<line y1="-0.5" x2="16" y2="-0.5" transform="matrix(0 1 1 0 64 0)" stroke="#25222C" strokeOpacity="0.2"/>
<line y1="-0.5" x2="16" y2="-0.5" transform="matrix(0 1 1 0 56 0)" stroke="#25222C" strokeOpacity="0.2"/>
<line y1="-0.5" x2="16" y2="-0.5" transform="matrix(0 1 1 0 48 0)" stroke="#25222C" strokeOpacity="0.2"/>
</svg>
