<svg width="26" height="22" viewBox="0 0 26 22" fill="none" xmlns="http://www.w3.org/2000/svg">
<circle cx="13.168" cy="11.5" r="10.5" fill="#DBF8CA"/>
<path d="M2.66797 8.5C3.12339 7.15939 4.66797 4.5 5.66797 3.5C7.63559 1.53237 10.469 1 13.2514 1C15.4173 1 18.0412 1.77176 19.6698 3.25563C20.5639 4.07025 21.9945 5.2848 22.2759 6.5274C22.3755 6.9673 22.4424 7.37296 22.6173 7.81154C22.7039 8.02874 23.7801 10.0438 23.6176 9.93743C23.4776 9.84586 22.7314 9.51144 22.5718 9.44184C21.7373 9.07795 21.5609 8.71904 20.668 8.5M23.266 9.24085C23.997 10.1512 23.6801 10.3459 24.0284 9.25202C24.244 8.57524 24.7216 7.57227 24.9838 7.2562" stroke="#47444F" stroke-linecap="round"/>
<path d="M23.168 14C22.719 15.8182 21.321 17.3636 20.1399 18.7065C18.6272 20.0909 15.668 21.5 13.168 21.5C8.92535 21.5 6.5047 19.6364 3.36185 16C2.91287 15.0909 2.51312 13.6909 2.22588 12.668C2.03453 11.9866 2.34177 11.3015 1.95286 12.2248C1.71236 12.7958 0.594487 16.629 0.671792 14.2635C0.70257 13.3217 1.3827 12.4361 1.42783 11.6265C1.47665 10.7508 1.69309 10.8834 2.07887 11.4713C2.53384 12.1648 3.64584 13.1733 4.452 13.222" stroke="#47444F" stroke-linecap="round"/>
<path d="M10.038 14.11C9.68464 14.11 9.3413 14.05 9.00797 13.93C8.67464 13.81 8.4013 13.6267 8.18797 13.38L8.72797 12.64L8.78797 12.56L8.85797 12.62C8.86464 12.6667 8.87797 12.7167 8.89797 12.77C8.91797 12.8233 8.96464 12.89 9.03797 12.97C9.16464 13.07 9.30464 13.1533 9.45797 13.22C9.6113 13.28 9.78797 13.31 9.98797 13.31C10.2213 13.31 10.4146 13.2667 10.568 13.18C10.7213 13.0867 10.838 12.96 10.918 12.8C10.998 12.6333 11.038 12.4467 11.038 12.24C11.038 12.02 11.0013 11.8367 10.928 11.69C10.8546 11.5367 10.7446 11.4167 10.598 11.33C10.458 11.2433 10.2846 11.1867 10.078 11.16C9.8713 11.1333 9.63464 11.1333 9.36797 11.16V10.38C9.66797 10.3867 9.91797 10.3633 10.118 10.31C10.318 10.2567 10.4713 10.1833 10.578 10.09C10.6913 9.99 10.768 9.87667 10.808 9.75C10.8546 9.62333 10.878 9.49 10.878 9.35C10.878 9.22333 10.858 9.11 10.818 9.01C10.778 8.90333 10.7213 8.81333 10.648 8.74C10.5746 8.66667 10.4846 8.61 10.378 8.57C10.278 8.53 10.1646 8.51 10.038 8.51C9.90464 8.51 9.7713 8.52667 9.63797 8.56C9.50464 8.59333 9.37797 8.64667 9.25797 8.72C9.13797 8.78667 9.02464 8.87667 8.91797 8.99L8.34797 8.41C8.5813 8.15 8.84797 7.96667 9.14797 7.86C9.45464 7.75333 9.75797 7.7 10.058 7.7C10.418 7.7 10.7313 7.76667 10.998 7.9C11.2646 8.03333 11.4713 8.22 11.618 8.46C11.7713 8.7 11.848 8.97333 11.848 9.28C11.848 9.50667 11.8046 9.71667 11.718 9.91C11.638 10.0967 11.5246 10.2567 11.378 10.39C11.2313 10.5233 11.0613 10.6233 10.868 10.69C11.0813 10.7567 11.2746 10.86 11.448 11C11.628 11.14 11.7713 11.3167 11.878 11.53C11.9846 11.7367 12.038 11.9833 12.038 12.27C12.038 12.61 11.958 12.92 11.798 13.2C11.638 13.48 11.408 13.7033 11.108 13.87C10.8146 14.03 10.458 14.11 10.038 14.11ZM14.818 14V8.87L13.648 9.26L13.428 8.64L15.088 7.76H15.808V14H14.818Z" fill="#343434"/>
</svg>
