<svg width="24" height="24" viewBox="0 0 24 24" fill="none" xmlns="http://www.w3.org/2000/svg">
<path d="M12.4298 11.0315C13.3692 11.0469 14.2913 11.0449 15.2123 11.0808C16.6825 11.1385 18.1517 11.2216 19.6213 11.2942C19.6747 11.2968 19.7277 11.3056 19.7813 11.308C20.0382 11.3204 20.2728 11.3791 20.318 11.6798C20.3518 11.905 20.1014 12.1345 19.7633 12.1415C18.9211 12.159 18.0787 12.1554 17.236 12.145C15.6978 12.1266 14.1596 12.0973 12.6215 12.0738C12.2308 12.0997 11.8405 12.041 11.4456 12.0481C10.5188 12.0649 9.61276 12.0626 8.70882 12.1031C7.84058 12.142 6.9745 12.2304 6.10712 12.2867C5.77439 12.3147 5.44009 12.3197 5.10656 12.3017C4.83145 12.2815 4.61886 12.1182 4.60871 11.8182C4.59855 11.5225 4.81792 11.3956 5.07143 11.3558C5.54481 11.269 6.02268 11.2083 6.50284 11.1739C8.01217 11.1054 9.52269 11.064 11.0328 11.0127C11.9329 10.9815 11.9984 11.0127 12.4298 11.0315Z" fill="#F9F9F9"/>
</svg>
