<svg width="631" height="433" viewBox="0 0 631 433" fill="none" xmlns="http://www.w3.org/2000/svg" >
<g clip-path="url(#clip0_1918_4481)">
<line x1="22.75" y1="2.50234" x2="20.75" y2="430.502" stroke="#E2D2B2" strokeOpacity="0.5"/>
<line x1="84.75" y1="2.50234" x2="82.75" y2="430.502" stroke="#E2D2B2" strokeOpacity="0.5"/>
<line x1="106.75" y1="2.50234" x2="104.75" y2="430.502" stroke="#E2D2B2" strokeOpacity="0.5"/>
<line x1="168.75" y1="2.50234" x2="166.75" y2="430.502" stroke="#E2D2B2" strokeOpacity="0.5"/>
<line x1="190.75" y1="2.50234" x2="188.75" y2="430.502" stroke="#E2D2B2" strokeOpacity="0.5"/>
<line x1="252.75" y1="2.50234" x2="250.75" y2="430.502" stroke="#E2D2B2" strokeOpacity="0.5"/>
<line x1="274.75" y1="2.50234" x2="272.75" y2="430.502" stroke="#E2D2B2" strokeOpacity="0.5"/>
<line x1="336.75" y1="2.50234" x2="334.75" y2="430.502" stroke="#E2D2B2" strokeOpacity="0.5"/>
<line x1="358.75" y1="2.50234" x2="356.75" y2="430.502" stroke="#E2D2B2" strokeOpacity="0.5"/>
<line x1="420.75" y1="2.50234" x2="418.75" y2="430.502" stroke="#E2D2B2" strokeOpacity="0.5"/>
<line x1="442.75" y1="2.50234" x2="440.75" y2="430.502" stroke="#E2D2B2" strokeOpacity="0.5"/>
<line x1="504.75" y1="2.50234" x2="502.75" y2="430.502" stroke="#E2D2B2" strokeOpacity="0.5"/>
<line x1="526.75" y1="2.50234" x2="524.75" y2="430.502" stroke="#E2D2B2" strokeOpacity="0.5"/>
<line x1="588.75" y1="2.50234" x2="586.75" y2="430.502" stroke="#E2D2B2" strokeOpacity="0.5"/>
<line x1="610.75" y1="2.50234" x2="608.75" y2="430.502" stroke="#E2D2B2" strokeOpacity="0.5"/>
<line y1="-0.5" x2="726.16" y2="-0.5" transform="matrix(0.999996 0.00275421 -0.00792792 0.999969 -55.0781 430)" stroke="#E2D2B2" strokeOpacity="0.5"/>
<line y1="-0.5" x2="726.16" y2="-0.5" transform="matrix(0.999996 0.00275421 -0.00792792 0.999969 -55.0781 408)" stroke="#E2D2B2" strokeOpacity="0.5"/>
<line y1="-0.5" x2="726.16" y2="-0.5" transform="matrix(0.999996 0.00275421 -0.00792792 0.999969 -55.0781 346)" stroke="#E2D2B2" strokeOpacity="0.5"/>
<line y1="-0.5" x2="726.16" y2="-0.5" transform="matrix(0.999996 0.00275421 -0.00792792 0.999969 -55.0781 324)" stroke="#E2D2B2" strokeOpacity="0.5"/>
<line y1="-0.5" x2="726.16" y2="-0.5" transform="matrix(0.999996 0.00275421 -0.00792792 0.999969 -55.0781 262)" stroke="#E2D2B2" strokeOpacity="0.5"/>
<line y1="-0.5" x2="726.16" y2="-0.5" transform="matrix(0.999996 0.00275421 -0.00792792 0.999969 -55.0781 240)" stroke="#E2D2B2" strokeOpacity="0.5"/>
<line y1="-0.5" x2="726.16" y2="-0.5" transform="matrix(0.999996 0.00275421 -0.00792792 0.999969 -55.0781 178)" stroke="#E2D2B2" strokeOpacity="0.5"/>
<line y1="-0.5" x2="726.16" y2="-0.5" transform="matrix(0.999996 0.00275421 -0.00792792 0.999969 -55.0781 156)" stroke="#E2D2B2" strokeOpacity="0.5"/>
<line y1="-0.5" x2="726.16" y2="-0.5" transform="matrix(0.999996 0.00275421 -0.00792792 0.999969 -55.0781 94)" stroke="#E2D2B2" strokeOpacity="0.5"/>
<line y1="-0.5" x2="726.16" y2="-0.5" transform="matrix(0.999996 0.00275421 -0.00792792 0.999969 -55.0781 72)" stroke="#E2D2B2" strokeOpacity="0.5"/>
<line y1="-0.5" x2="726.16" y2="-0.5" transform="matrix(0.999996 0.00275421 -0.00792792 0.999969 -55.0781 10)" stroke="#E2D2B2" strokeOpacity="0.5"/>
</g>

<defs>
<clipPath id="clip0_1918_4481">
<rect width="630.5" height="433" fill="white"/>
</clipPath>
</defs>
</svg>
