<svg width="24" height="24" viewBox="0 0 24 24" fill="none" xmlns="http://www.w3.org/2000/svg">
<path d="M11.4429 11.0065C11.4714 9.60792 11.5056 8.24617 11.5245 6.88419C11.5356 6.09518 11.5155 5.30579 11.5245 4.51679C11.5243 4.30419 11.5597 4.09315 11.6293 3.89243C11.6653 3.79494 11.8358 3.67105 11.9218 3.68679C12.0359 3.70784 12.1503 3.83971 12.2205 3.95153C12.2718 4.03301 12.2597 4.15891 12.2628 4.26521C12.3175 6.28383 12.3711 8.30231 12.4236 10.3206C12.4295 10.547 12.4286 10.7736 12.4309 11.0295C13.3703 11.0449 14.2924 11.0429 15.2134 11.0788C16.6836 11.1365 18.1528 11.2197 19.6224 11.2922C19.6758 11.2948 19.7288 11.3036 19.7824 11.306C20.0393 11.3185 20.2739 11.3771 20.3191 11.6779C20.3529 11.9031 20.1025 12.1325 19.7643 12.1395C18.9222 12.157 18.0797 12.1534 17.2371 12.1431C15.6989 12.1247 14.1607 12.0953 12.6226 12.0719C12.5621 12.0759 12.502 12.084 12.4426 12.0963C12.4562 13.1999 12.4739 14.2954 12.4824 15.3912C12.4919 16.6618 12.4966 17.9325 12.4967 19.2031C12.4972 19.6802 12.3495 19.9246 12.0646 19.9515C11.7694 19.9793 11.5429 19.7399 11.5261 19.2408C11.4805 17.8913 11.4676 16.5408 11.4533 15.1902C11.4422 14.1612 11.4482 13.1318 11.4467 12.0462C10.5199 12.0629 9.61385 12.0607 8.70991 12.1012C7.84167 12.1401 6.9756 12.2284 6.10821 12.2848C5.77548 12.3128 5.44119 12.3178 5.10766 12.2998C4.83254 12.2795 4.61995 12.1162 4.60981 11.8162C4.59964 11.5205 4.81901 11.3936 5.07252 11.3538C5.5459 11.2671 6.02377 11.2063 6.50394 11.1719C8.01327 11.1034 9.52378 11.062 11.0339 11.0108C11.1532 11.0066 11.2731 11.0081 11.4429 11.0065Z" fill="#F9F9F9"/>
</svg>
