<svg width="21" height="16" viewBox="0 0 21 16" fill="none" xmlns="http://www.w3.org/2000/svg">
<rect x="0.5" y="0.5" width="20" height="15" stroke="#47444F"/>
<path d="M3.588 8.052H7.372V8.708H3.588V8.052ZM5.836 6.46V10.3H5.128V6.46H5.836ZM8.76494 8.76L8.60494 8.492H11.2569L11.4809 8.444H12.6049V9.024H8.35294L8.26494 8.504L11.0289 5.12H11.7809V11H11.0089V5.544L11.3369 5.644L8.76494 8.76ZM13.7259 8.76L13.5659 8.492H16.2179L16.4419 8.444H17.5659V9.024H13.3139L13.2259 8.504L15.9899 5.12H16.7419V11H15.9699V5.544L16.2979 5.644L13.7259 8.76Z" fill="#47444F"/>
</svg>
