<svg width="25" height="23" viewBox="0 0 25 23" fill="none" xmlns="http://www.w3.org/2000/svg">
<path d="M11.5245 17.7884C10.8599 17.7884 9.71942 17.7029 9.10035 17.7884C8.08086 18.5395 7.48276 19.1298 6.3732 19.7526C5.0515 20.4945 5.78981 19.956 4.50708 20.7572C3.92889 21.1184 2.04775 21.5114 2.04775 21.5114C3.1939 19.6047 2.28167 21.1788 3.1939 19.2156C3.2875 19.0142 3.74705 17.9828 3.6063 17.7884C3.40784 17.5143 1.52494 17.4085 1.01251 16.4691C0.335615 14.6738 0.858885 12.5785 0.893128 10.7242C0.910315 9.79354 1.08848 8.89842 1.08848 7.96574C1.08848 7.36303 1.2795 3.93512 1.45687 3.3667C1.93965 1.81948 1.86977 2.19959 3.1939 1.54923C4.06166 1.12302 5.92839 1.33335 6.97917 1.33335C7.76807 1.33335 8.08219 1.41134 8.47916 1.33335C9.20622 1.19051 10.0598 1.31477 10.7582 1.0575C11.0663 0.94403 11.5202 1.03351 11.8326 1.03351C12.5326 1.03351 13.2239 1.08072 13.9218 1.14146C14.4969 1.1915 15.0658 1.2494 15.6419 1.2494C17.2862 1.2494 20.3905 1.33335 20.3905 1.33335C20.3905 1.33335 23.2902 1.48901 23.4613 3.19118C23.4823 3.40002 23.4383 4.8107 23.4613 5.03934C23.4944 5.36862 23.5748 5.69751 23.6295 6.0228C23.7626 6.81328 23.4811 7.31635 23.6295 8.1001V10.4668C23.6295 11.053 23.4521 12.079 23.6295 12.8335C23.6295 13.6224 23.7714 14.069 23.5536 14.7061C23.32 15.3892 23.0594 16.2263 22.4303 16.5891C21.5322 17.1069 20.4263 17.7404 19.4029 17.7404H14.8577C14.0717 17.7404 12.3004 17.7884 11.5245 17.7884Z" fill="#DBF8CA" stroke="#47444F" stroke-linecap="round"/>
</svg>
