<svg width="631" height="500" viewBox="0 0 631 500" fill="none" xmlns="http://www.w3.org/2000/svg" >
<g clip-path="url(#clip0_1918_4242)">
<rect x="0.5" y="-16.5" width="37" height="37" stroke="#CBB9CF" stroke-opacity="0.3"/>
<rect x="37.5" y="-16.5" width="37" height="37" stroke="#CBB9CF" stroke-opacity="0.3"/>
<rect x="74.5" y="-16.5" width="37" height="37" stroke="#CBB9CF" stroke-opacity="0.3"/>
<rect x="111.5" y="-16.5" width="37" height="37" stroke="#CBB9CF" stroke-opacity="0.3"/>
<rect x="148.5" y="-16.5" width="37" height="37" stroke="#CBB9CF" stroke-opacity="0.3"/>
<rect x="185.5" y="-16.5" width="37" height="37" stroke="#CBB9CF" stroke-opacity="0.3"/>
<rect x="222.5" y="-16.5" width="37" height="37" stroke="#CBB9CF" stroke-opacity="0.3"/>
<rect x="259.5" y="-16.5" width="37" height="37" stroke="#CBB9CF" stroke-opacity="0.3"/>
<rect x="296.5" y="-16.5" width="37" height="37" stroke="#CBB9CF" stroke-opacity="0.3"/>
<rect x="333.5" y="-16.5" width="37" height="37" stroke="#CBB9CF" stroke-opacity="0.3"/>
<rect x="370.5" y="-16.5" width="37" height="37" stroke="#CBB9CF" stroke-opacity="0.3"/>
<rect x="407.5" y="-16.5" width="37" height="37" stroke="#CBB9CF" stroke-opacity="0.3"/>
<rect x="444.5" y="-16.5" width="37" height="37" stroke="#CBB9CF" stroke-opacity="0.3"/>
<rect x="481.5" y="-16.5" width="37" height="37" stroke="#CBB9CF" stroke-opacity="0.3"/>
<rect x="518.5" y="-16.5" width="37" height="37" stroke="#CBB9CF" stroke-opacity="0.3"/>
<rect x="555.5" y="-16.5" width="37" height="37" stroke="#CBB9CF" stroke-opacity="0.3"/>
<rect x="592.5" y="-16.5" width="37" height="37" stroke="#CBB9CF" stroke-opacity="0.3"/>
<mask id="path-20-inside-1_1918_4242" fill="white">
<path d="M0 21H38V59H0V21Z"/>
</mask>
<path d="M38 59V60H39V59H38ZM0 59H-1V60H0V59ZM37 21V59H39V21H37ZM38 58H0V60H38V58ZM1 59V21H-1V59H1Z" fill="#CBB9CF" fill-opacity="0.3" mask="url(#path-20-inside-1_1918_4242)"/>
<path d="M38 59V60H39V59H38ZM0 59H-1V60H0V59ZM37 21V59H39V21H37ZM38 58H0V60H38V58ZM1 59V21H-1V59H1Z" fill="#CBB9CF" fill-opacity="0.3" mask="url(#path-20-inside-1_1918_4242)"/>
<mask id="path-22-inside-2_1918_4242" fill="white">
<path d="M37 21H75V59H37V21Z"/>
</mask>
<path d="M75 59V60H76V59H75ZM37 59H36V60H37V59ZM74 21V59H76V21H74ZM75 58H37V60H75V58ZM38 59V21H36V59H38Z" fill="#CBB9CF" fill-opacity="0.3" mask="url(#path-22-inside-2_1918_4242)"/>
<path d="M75 59V60H76V59H75ZM37 59H36V60H37V59ZM74 21V59H76V21H74ZM75 58H37V60H75V58ZM38 59V21H36V59H38Z" fill="#CBB9CF" fill-opacity="0.3" mask="url(#path-22-inside-2_1918_4242)"/>
<mask id="path-24-inside-3_1918_4242" fill="white">
<path d="M74 21H112V59H74V21Z"/>
</mask>
<path d="M112 59V60H113V59H112ZM74 59H73V60H74V59ZM111 21V59H113V21H111ZM112 58H74V60H112V58ZM75 59V21H73V59H75Z" fill="#CBB9CF" fill-opacity="0.3" mask="url(#path-24-inside-3_1918_4242)"/>
<path d="M112 59V60H113V59H112ZM74 59H73V60H74V59ZM111 21V59H113V21H111ZM112 58H74V60H112V58ZM75 59V21H73V59H75Z" fill="#CBB9CF" fill-opacity="0.3" mask="url(#path-24-inside-3_1918_4242)"/>
<mask id="path-26-inside-4_1918_4242" fill="white">
<path d="M111 21H149V59H111V21Z"/>
</mask>
<path d="M149 59V60H150V59H149ZM111 59H110V60H111V59ZM148 21V59H150V21H148ZM149 58H111V60H149V58ZM112 59V21H110V59H112Z" fill="#CBB9CF" fill-opacity="0.3" mask="url(#path-26-inside-4_1918_4242)"/>
<path d="M149 59V60H150V59H149ZM111 59H110V60H111V59ZM148 21V59H150V21H148ZM149 58H111V60H149V58ZM112 59V21H110V59H112Z" fill="#CBB9CF" fill-opacity="0.3" mask="url(#path-26-inside-4_1918_4242)"/>
<mask id="path-28-inside-5_1918_4242" fill="white">
<path d="M148 21H186V59H148V21Z"/>
</mask>
<path d="M186 59V60H187V59H186ZM148 59H147V60H148V59ZM185 21V59H187V21H185ZM186 58H148V60H186V58ZM149 59V21H147V59H149Z" fill="#CBB9CF" fill-opacity="0.3" mask="url(#path-28-inside-5_1918_4242)"/>
<path d="M186 59V60H187V59H186ZM148 59H147V60H148V59ZM185 21V59H187V21H185ZM186 58H148V60H186V58ZM149 59V21H147V59H149Z" fill="#CBB9CF" fill-opacity="0.3" mask="url(#path-28-inside-5_1918_4242)"/>
<mask id="path-30-inside-6_1918_4242" fill="white">
<path d="M185 21H223V59H185V21Z"/>
</mask>
<path d="M223 59V60H224V59H223ZM185 59H184V60H185V59ZM222 21V59H224V21H222ZM223 58H185V60H223V58ZM186 59V21H184V59H186Z" fill="#CBB9CF" fill-opacity="0.3" mask="url(#path-30-inside-6_1918_4242)"/>
<path d="M223 59V60H224V59H223ZM185 59H184V60H185V59ZM222 21V59H224V21H222ZM223 58H185V60H223V58ZM186 59V21H184V59H186Z" fill="#CBB9CF" fill-opacity="0.3" mask="url(#path-30-inside-6_1918_4242)"/>
<mask id="path-32-inside-7_1918_4242" fill="white">
<path d="M222 21H260V59H222V21Z"/>
</mask>
<path d="M260 59V60H261V59H260ZM222 59H221V60H222V59ZM259 21V59H261V21H259ZM260 58H222V60H260V58ZM223 59V21H221V59H223Z" fill="#CBB9CF" fill-opacity="0.3" mask="url(#path-32-inside-7_1918_4242)"/>
<path d="M260 59V60H261V59H260ZM222 59H221V60H222V59ZM259 21V59H261V21H259ZM260 58H222V60H260V58ZM223 59V21H221V59H223Z" fill="#CBB9CF" fill-opacity="0.3" mask="url(#path-32-inside-7_1918_4242)"/>
<mask id="path-34-inside-8_1918_4242" fill="white">
<path d="M259 21H297V59H259V21Z"/>
</mask>
<path d="M297 59V60H298V59H297ZM259 59H258V60H259V59ZM296 21V59H298V21H296ZM297 58H259V60H297V58ZM260 59V21H258V59H260Z" fill="#CBB9CF" fill-opacity="0.3" mask="url(#path-34-inside-8_1918_4242)"/>
<path d="M297 59V60H298V59H297ZM259 59H258V60H259V59ZM296 21V59H298V21H296ZM297 58H259V60H297V58ZM260 59V21H258V59H260Z" fill="#CBB9CF" fill-opacity="0.3" mask="url(#path-34-inside-8_1918_4242)"/>
<mask id="path-36-inside-9_1918_4242" fill="white">
<path d="M296 21H334V59H296V21Z"/>
</mask>
<path d="M334 59V60H335V59H334ZM296 59H295V60H296V59ZM333 21V59H335V21H333ZM334 58H296V60H334V58ZM297 59V21H295V59H297Z" fill="#CBB9CF" fill-opacity="0.3" mask="url(#path-36-inside-9_1918_4242)"/>
<path d="M334 59V60H335V59H334ZM296 59H295V60H296V59ZM333 21V59H335V21H333ZM334 58H296V60H334V58ZM297 59V21H295V59H297Z" fill="#CBB9CF" fill-opacity="0.3" mask="url(#path-36-inside-9_1918_4242)"/>
<mask id="path-38-inside-10_1918_4242" fill="white">
<path d="M333 21H371V59H333V21Z"/>
</mask>
<path d="M371 59V60H372V59H371ZM333 59H332V60H333V59ZM370 21V59H372V21H370ZM371 58H333V60H371V58ZM334 59V21H332V59H334Z" fill="#CBB9CF" fill-opacity="0.3" mask="url(#path-38-inside-10_1918_4242)"/>
<path d="M371 59V60H372V59H371ZM333 59H332V60H333V59ZM370 21V59H372V21H370ZM371 58H333V60H371V58ZM334 59V21H332V59H334Z" fill="#CBB9CF" fill-opacity="0.3" mask="url(#path-38-inside-10_1918_4242)"/>
<mask id="path-40-inside-11_1918_4242" fill="white">
<path d="M370 21H408V59H370V21Z"/>
</mask>
<path d="M408 59V60H409V59H408ZM370 59H369V60H370V59ZM407 21V59H409V21H407ZM408 58H370V60H408V58ZM371 59V21H369V59H371Z" fill="#CBB9CF" fill-opacity="0.3" mask="url(#path-40-inside-11_1918_4242)"/>
<path d="M408 59V60H409V59H408ZM370 59H369V60H370V59ZM407 21V59H409V21H407ZM408 58H370V60H408V58ZM371 59V21H369V59H371Z" fill="#CBB9CF" fill-opacity="0.3" mask="url(#path-40-inside-11_1918_4242)"/>
<mask id="path-42-inside-12_1918_4242" fill="white">
<path d="M407 21H445V59H407V21Z"/>
</mask>
<path d="M445 59V60H446V59H445ZM407 59H406V60H407V59ZM444 21V59H446V21H444ZM445 58H407V60H445V58ZM408 59V21H406V59H408Z" fill="#CBB9CF" fill-opacity="0.3" mask="url(#path-42-inside-12_1918_4242)"/>
<path d="M445 59V60H446V59H445ZM407 59H406V60H407V59ZM444 21V59H446V21H444ZM445 58H407V60H445V58ZM408 59V21H406V59H408Z" fill="#CBB9CF" fill-opacity="0.3" mask="url(#path-42-inside-12_1918_4242)"/>
<mask id="path-44-inside-13_1918_4242" fill="white">
<path d="M444 21H482V59H444V21Z"/>
</mask>
<path d="M482 59V60H483V59H482ZM444 59H443V60H444V59ZM481 21V59H483V21H481ZM482 58H444V60H482V58ZM445 59V21H443V59H445Z" fill="#CBB9CF" fill-opacity="0.3" mask="url(#path-44-inside-13_1918_4242)"/>
<path d="M482 59V60H483V59H482ZM444 59H443V60H444V59ZM481 21V59H483V21H481ZM482 58H444V60H482V58ZM445 59V21H443V59H445Z" fill="#CBB9CF" fill-opacity="0.3" mask="url(#path-44-inside-13_1918_4242)"/>
<mask id="path-46-inside-14_1918_4242" fill="white">
<path d="M481 21H519V59H481V21Z"/>
</mask>
<path d="M519 59V60H520V59H519ZM481 59H480V60H481V59ZM518 21V59H520V21H518ZM519 58H481V60H519V58ZM482 59V21H480V59H482Z" fill="#CBB9CF" fill-opacity="0.3" mask="url(#path-46-inside-14_1918_4242)"/>
<path d="M519 59V60H520V59H519ZM481 59H480V60H481V59ZM518 21V59H520V21H518ZM519 58H481V60H519V58ZM482 59V21H480V59H482Z" fill="#CBB9CF" fill-opacity="0.3" mask="url(#path-46-inside-14_1918_4242)"/>
<mask id="path-48-inside-15_1918_4242" fill="white">
<path d="M518 21H556V59H518V21Z"/>
</mask>
<path d="M556 59V60H557V59H556ZM518 59H517V60H518V59ZM555 21V59H557V21H555ZM556 58H518V60H556V58ZM519 59V21H517V59H519Z" fill="#CBB9CF" fill-opacity="0.3" mask="url(#path-48-inside-15_1918_4242)"/>
<path d="M556 59V60H557V59H556ZM518 59H517V60H518V59ZM555 21V59H557V21H555ZM556 58H518V60H556V58ZM519 59V21H517V59H519Z" fill="#CBB9CF" fill-opacity="0.3" mask="url(#path-48-inside-15_1918_4242)"/>
<mask id="path-50-inside-16_1918_4242" fill="white">
<path d="M555 21H593V59H555V21Z"/>
</mask>
<path d="M593 59V60H594V59H593ZM555 59H554V60H555V59ZM592 21V59H594V21H592ZM593 58H555V60H593V58ZM556 59V21H554V59H556Z" fill="#CBB9CF" fill-opacity="0.3" mask="url(#path-50-inside-16_1918_4242)"/>
<path d="M593 59V60H594V59H593ZM555 59H554V60H555V59ZM592 21V59H594V21H592ZM593 58H555V60H593V58ZM556 59V21H554V59H556Z" fill="#CBB9CF" fill-opacity="0.3" mask="url(#path-50-inside-16_1918_4242)"/>
<mask id="path-52-inside-17_1918_4242" fill="white">
<path d="M592 21H630V59H592V21Z"/>
</mask>
<path d="M630 59V60H631V59H630ZM592 59H591V60H592V59ZM629 21V59H631V21H629ZM630 58H592V60H630V58ZM593 59V21H591V59H593Z" fill="#CBB9CF" fill-opacity="0.3" mask="url(#path-52-inside-17_1918_4242)"/>
<path d="M630 59V60H631V59H630ZM592 59H591V60H592V59ZM629 21V59H631V21H629ZM630 58H592V60H630V58ZM593 59V21H591V59H593Z" fill="#CBB9CF" fill-opacity="0.3" mask="url(#path-52-inside-17_1918_4242)"/>
<mask id="path-54-inside-18_1918_4242" fill="white">
<path d="M0 59H38V97H0V59Z"/>
</mask>
<path d="M38 97V98H39V97H38ZM0 97H-1V98H0V97ZM37 59V97H39V59H37ZM38 96H0V98H38V96ZM1 97V59H-1V97H1Z" fill="#CBB9CF" fill-opacity="0.3" mask="url(#path-54-inside-18_1918_4242)"/>
<path d="M38 97V98H39V97H38ZM0 97H-1V98H0V97ZM37 59V97H39V59H37ZM38 96H0V98H38V96ZM1 97V59H-1V97H1Z" fill="#CBB9CF" fill-opacity="0.3" mask="url(#path-54-inside-18_1918_4242)"/>
<mask id="path-56-inside-19_1918_4242" fill="white">
<path d="M37 59H75V97H37V59Z"/>
</mask>
<path d="M75 97V98H76V97H75ZM37 97H36V98H37V97ZM74 59V97H76V59H74ZM75 96H37V98H75V96ZM38 97V59H36V97H38Z" fill="#CBB9CF" fill-opacity="0.3" mask="url(#path-56-inside-19_1918_4242)"/>
<path d="M75 97V98H76V97H75ZM37 97H36V98H37V97ZM74 59V97H76V59H74ZM75 96H37V98H75V96ZM38 97V59H36V97H38Z" fill="#CBB9CF" fill-opacity="0.3" mask="url(#path-56-inside-19_1918_4242)"/>
<mask id="path-58-inside-20_1918_4242" fill="white">
<path d="M74 59H112V97H74V59Z"/>
</mask>
<path d="M112 97V98H113V97H112ZM74 97H73V98H74V97ZM111 59V97H113V59H111ZM112 96H74V98H112V96ZM75 97V59H73V97H75Z" fill="#CBB9CF" fill-opacity="0.3" mask="url(#path-58-inside-20_1918_4242)"/>
<path d="M112 97V98H113V97H112ZM74 97H73V98H74V97ZM111 59V97H113V59H111ZM112 96H74V98H112V96ZM75 97V59H73V97H75Z" fill="#CBB9CF" fill-opacity="0.3" mask="url(#path-58-inside-20_1918_4242)"/>
<mask id="path-60-inside-21_1918_4242" fill="white">
<path d="M111 59H149V97H111V59Z"/>
</mask>
<path d="M149 97V98H150V97H149ZM111 97H110V98H111V97ZM148 59V97H150V59H148ZM149 96H111V98H149V96ZM112 97V59H110V97H112Z" fill="#CBB9CF" fill-opacity="0.3" mask="url(#path-60-inside-21_1918_4242)"/>
<path d="M149 97V98H150V97H149ZM111 97H110V98H111V97ZM148 59V97H150V59H148ZM149 96H111V98H149V96ZM112 97V59H110V97H112Z" fill="#CBB9CF" fill-opacity="0.3" mask="url(#path-60-inside-21_1918_4242)"/>
<mask id="path-62-inside-22_1918_4242" fill="white">
<path d="M148 59H186V97H148V59Z"/>
</mask>
<path d="M186 97V98H187V97H186ZM148 97H147V98H148V97ZM185 59V97H187V59H185ZM186 96H148V98H186V96ZM149 97V59H147V97H149Z" fill="#CBB9CF" fill-opacity="0.3" mask="url(#path-62-inside-22_1918_4242)"/>
<path d="M186 97V98H187V97H186ZM148 97H147V98H148V97ZM185 59V97H187V59H185ZM186 96H148V98H186V96ZM149 97V59H147V97H149Z" fill="#CBB9CF" fill-opacity="0.3" mask="url(#path-62-inside-22_1918_4242)"/>
<mask id="path-64-inside-23_1918_4242" fill="white">
<path d="M185 59H223V97H185V59Z"/>
</mask>
<path d="M223 97V98H224V97H223ZM185 97H184V98H185V97ZM222 59V97H224V59H222ZM223 96H185V98H223V96ZM186 97V59H184V97H186Z" fill="#CBB9CF" fill-opacity="0.3" mask="url(#path-64-inside-23_1918_4242)"/>
<path d="M223 97V98H224V97H223ZM185 97H184V98H185V97ZM222 59V97H224V59H222ZM223 96H185V98H223V96ZM186 97V59H184V97H186Z" fill="#CBB9CF" fill-opacity="0.3" mask="url(#path-64-inside-23_1918_4242)"/>
<mask id="path-66-inside-24_1918_4242" fill="white">
<path d="M222 59H260V97H222V59Z"/>
</mask>
<path d="M260 97V98H261V97H260ZM222 97H221V98H222V97ZM259 59V97H261V59H259ZM260 96H222V98H260V96ZM223 97V59H221V97H223Z" fill="#CBB9CF" fill-opacity="0.3" mask="url(#path-66-inside-24_1918_4242)"/>
<path d="M260 97V98H261V97H260ZM222 97H221V98H222V97ZM259 59V97H261V59H259ZM260 96H222V98H260V96ZM223 97V59H221V97H223Z" fill="#CBB9CF" fill-opacity="0.3" mask="url(#path-66-inside-24_1918_4242)"/>
<mask id="path-68-inside-25_1918_4242" fill="white">
<path d="M259 59H297V97H259V59Z"/>
</mask>
<path d="M297 97V98H298V97H297ZM259 97H258V98H259V97ZM296 59V97H298V59H296ZM297 96H259V98H297V96ZM260 97V59H258V97H260Z" fill="#CBB9CF" fill-opacity="0.3" mask="url(#path-68-inside-25_1918_4242)"/>
<path d="M297 97V98H298V97H297ZM259 97H258V98H259V97ZM296 59V97H298V59H296ZM297 96H259V98H297V96ZM260 97V59H258V97H260Z" fill="#CBB9CF" fill-opacity="0.3" mask="url(#path-68-inside-25_1918_4242)"/>
<mask id="path-70-inside-26_1918_4242" fill="white">
<path d="M296 59H334V97H296V59Z"/>
</mask>
<path d="M334 97V98H335V97H334ZM296 97H295V98H296V97ZM333 59V97H335V59H333ZM334 96H296V98H334V96ZM297 97V59H295V97H297Z" fill="#CBB9CF" fill-opacity="0.3" mask="url(#path-70-inside-26_1918_4242)"/>
<path d="M334 97V98H335V97H334ZM296 97H295V98H296V97ZM333 59V97H335V59H333ZM334 96H296V98H334V96ZM297 97V59H295V97H297Z" fill="#CBB9CF" fill-opacity="0.3" mask="url(#path-70-inside-26_1918_4242)"/>
<mask id="path-72-inside-27_1918_4242" fill="white">
<path d="M333 59H371V97H333V59Z"/>
</mask>
<path d="M371 97V98H372V97H371ZM333 97H332V98H333V97ZM370 59V97H372V59H370ZM371 96H333V98H371V96ZM334 97V59H332V97H334Z" fill="#CBB9CF" fill-opacity="0.3" mask="url(#path-72-inside-27_1918_4242)"/>
<path d="M371 97V98H372V97H371ZM333 97H332V98H333V97ZM370 59V97H372V59H370ZM371 96H333V98H371V96ZM334 97V59H332V97H334Z" fill="#CBB9CF" fill-opacity="0.3" mask="url(#path-72-inside-27_1918_4242)"/>
<mask id="path-74-inside-28_1918_4242" fill="white">
<path d="M370 59H408V97H370V59Z"/>
</mask>
<path d="M408 97V98H409V97H408ZM370 97H369V98H370V97ZM407 59V97H409V59H407ZM408 96H370V98H408V96ZM371 97V59H369V97H371Z" fill="#CBB9CF" fill-opacity="0.3" mask="url(#path-74-inside-28_1918_4242)"/>
<path d="M408 97V98H409V97H408ZM370 97H369V98H370V97ZM407 59V97H409V59H407ZM408 96H370V98H408V96ZM371 97V59H369V97H371Z" fill="#CBB9CF" fill-opacity="0.3" mask="url(#path-74-inside-28_1918_4242)"/>
<mask id="path-76-inside-29_1918_4242" fill="white">
<path d="M407 59H445V97H407V59Z"/>
</mask>
<path d="M445 97V98H446V97H445ZM407 97H406V98H407V97ZM444 59V97H446V59H444ZM445 96H407V98H445V96ZM408 97V59H406V97H408Z" fill="#CBB9CF" fill-opacity="0.3" mask="url(#path-76-inside-29_1918_4242)"/>
<path d="M445 97V98H446V97H445ZM407 97H406V98H407V97ZM444 59V97H446V59H444ZM445 96H407V98H445V96ZM408 97V59H406V97H408Z" fill="#CBB9CF" fill-opacity="0.3" mask="url(#path-76-inside-29_1918_4242)"/>
<mask id="path-78-inside-30_1918_4242" fill="white">
<path d="M444 59H482V97H444V59Z"/>
</mask>
<path d="M482 97V98H483V97H482ZM444 97H443V98H444V97ZM481 59V97H483V59H481ZM482 96H444V98H482V96ZM445 97V59H443V97H445Z" fill="#CBB9CF" fill-opacity="0.3" mask="url(#path-78-inside-30_1918_4242)"/>
<path d="M482 97V98H483V97H482ZM444 97H443V98H444V97ZM481 59V97H483V59H481ZM482 96H444V98H482V96ZM445 97V59H443V97H445Z" fill="#CBB9CF" fill-opacity="0.3" mask="url(#path-78-inside-30_1918_4242)"/>
<mask id="path-80-inside-31_1918_4242" fill="white">
<path d="M481 59H519V97H481V59Z"/>
</mask>
<path d="M519 97V98H520V97H519ZM481 97H480V98H481V97ZM518 59V97H520V59H518ZM519 96H481V98H519V96ZM482 97V59H480V97H482Z" fill="#CBB9CF" fill-opacity="0.3" mask="url(#path-80-inside-31_1918_4242)"/>
<path d="M519 97V98H520V97H519ZM481 97H480V98H481V97ZM518 59V97H520V59H518ZM519 96H481V98H519V96ZM482 97V59H480V97H482Z" fill="#CBB9CF" fill-opacity="0.3" mask="url(#path-80-inside-31_1918_4242)"/>
<mask id="path-82-inside-32_1918_4242" fill="white">
<path d="M518 59H556V97H518V59Z"/>
</mask>
<path d="M556 97V98H557V97H556ZM518 97H517V98H518V97ZM555 59V97H557V59H555ZM556 96H518V98H556V96ZM519 97V59H517V97H519Z" fill="#CBB9CF" fill-opacity="0.3" mask="url(#path-82-inside-32_1918_4242)"/>
<path d="M556 97V98H557V97H556ZM518 97H517V98H518V97ZM555 59V97H557V59H555ZM556 96H518V98H556V96ZM519 97V59H517V97H519Z" fill="#CBB9CF" fill-opacity="0.3" mask="url(#path-82-inside-32_1918_4242)"/>
<mask id="path-84-inside-33_1918_4242" fill="white">
<path d="M555 59H593V97H555V59Z"/>
</mask>
<path d="M593 97V98H594V97H593ZM555 97H554V98H555V97ZM592 59V97H594V59H592ZM593 96H555V98H593V96ZM556 97V59H554V97H556Z" fill="#CBB9CF" fill-opacity="0.3" mask="url(#path-84-inside-33_1918_4242)"/>
<path d="M593 97V98H594V97H593ZM555 97H554V98H555V97ZM592 59V97H594V59H592ZM593 96H555V98H593V96ZM556 97V59H554V97H556Z" fill="#CBB9CF" fill-opacity="0.3" mask="url(#path-84-inside-33_1918_4242)"/>
<mask id="path-86-inside-34_1918_4242" fill="white">
<path d="M592 59H630V97H592V59Z"/>
</mask>
<path d="M630 97V98H631V97H630ZM592 97H591V98H592V97ZM629 59V97H631V59H629ZM630 96H592V98H630V96ZM593 97V59H591V97H593Z" fill="#CBB9CF" fill-opacity="0.3" mask="url(#path-86-inside-34_1918_4242)"/>
<path d="M630 97V98H631V97H630ZM592 97H591V98H592V97ZM629 59V97H631V59H629ZM630 96H592V98H630V96ZM593 97V59H591V97H593Z" fill="#CBB9CF" fill-opacity="0.3" mask="url(#path-86-inside-34_1918_4242)"/>
<mask id="path-88-inside-35_1918_4242" fill="white">
<path d="M0 97H38V135H0V97Z"/>
</mask>
<path d="M38 135V136H39V135H38ZM0 135H-1V136H0V135ZM37 97V135H39V97H37ZM38 134H0V136H38V134ZM1 135V97H-1V135H1Z" fill="#CBB9CF" fill-opacity="0.3" mask="url(#path-88-inside-35_1918_4242)"/>
<path d="M38 135V136H39V135H38ZM0 135H-1V136H0V135ZM37 97V135H39V97H37ZM38 134H0V136H38V134ZM1 135V97H-1V135H1Z" fill="#CBB9CF" fill-opacity="0.3" mask="url(#path-88-inside-35_1918_4242)"/>
<mask id="path-90-inside-36_1918_4242" fill="white">
<path d="M37 97H75V135H37V97Z"/>
</mask>
<path d="M75 135V136H76V135H75ZM37 135H36V136H37V135ZM74 97V135H76V97H74ZM75 134H37V136H75V134ZM38 135V97H36V135H38Z" fill="#CBB9CF" fill-opacity="0.3" mask="url(#path-90-inside-36_1918_4242)"/>
<path d="M75 135V136H76V135H75ZM37 135H36V136H37V135ZM74 97V135H76V97H74ZM75 134H37V136H75V134ZM38 135V97H36V135H38Z" fill="#CBB9CF" fill-opacity="0.3" mask="url(#path-90-inside-36_1918_4242)"/>
<mask id="path-92-inside-37_1918_4242" fill="white">
<path d="M74 97H112V135H74V97Z"/>
</mask>
<path d="M112 135V136H113V135H112ZM74 135H73V136H74V135ZM111 97V135H113V97H111ZM112 134H74V136H112V134ZM75 135V97H73V135H75Z" fill="#CBB9CF" fill-opacity="0.3" mask="url(#path-92-inside-37_1918_4242)"/>
<path d="M112 135V136H113V135H112ZM74 135H73V136H74V135ZM111 97V135H113V97H111ZM112 134H74V136H112V134ZM75 135V97H73V135H75Z" fill="#CBB9CF" fill-opacity="0.3" mask="url(#path-92-inside-37_1918_4242)"/>
<mask id="path-94-inside-38_1918_4242" fill="white">
<path d="M111 97H149V135H111V97Z"/>
</mask>
<path d="M149 135V136H150V135H149ZM111 135H110V136H111V135ZM148 97V135H150V97H148ZM149 134H111V136H149V134ZM112 135V97H110V135H112Z" fill="#CBB9CF" fill-opacity="0.3" mask="url(#path-94-inside-38_1918_4242)"/>
<path d="M149 135V136H150V135H149ZM111 135H110V136H111V135ZM148 97V135H150V97H148ZM149 134H111V136H149V134ZM112 135V97H110V135H112Z" fill="#CBB9CF" fill-opacity="0.3" mask="url(#path-94-inside-38_1918_4242)"/>
<mask id="path-96-inside-39_1918_4242" fill="white">
<path d="M148 97H186V135H148V97Z"/>
</mask>
<path d="M186 135V136H187V135H186ZM148 135H147V136H148V135ZM185 97V135H187V97H185ZM186 134H148V136H186V134ZM149 135V97H147V135H149Z" fill="#CBB9CF" fill-opacity="0.3" mask="url(#path-96-inside-39_1918_4242)"/>
<path d="M186 135V136H187V135H186ZM148 135H147V136H148V135ZM185 97V135H187V97H185ZM186 134H148V136H186V134ZM149 135V97H147V135H149Z" fill="#CBB9CF" fill-opacity="0.3" mask="url(#path-96-inside-39_1918_4242)"/>
<mask id="path-98-inside-40_1918_4242" fill="white">
<path d="M185 97H223V135H185V97Z"/>
</mask>
<path d="M223 135V136H224V135H223ZM185 135H184V136H185V135ZM222 97V135H224V97H222ZM223 134H185V136H223V134ZM186 135V97H184V135H186Z" fill="#CBB9CF" fill-opacity="0.3" mask="url(#path-98-inside-40_1918_4242)"/>
<path d="M223 135V136H224V135H223ZM185 135H184V136H185V135ZM222 97V135H224V97H222ZM223 134H185V136H223V134ZM186 135V97H184V135H186Z" fill="#CBB9CF" fill-opacity="0.3" mask="url(#path-98-inside-40_1918_4242)"/>
<mask id="path-100-inside-41_1918_4242" fill="white">
<path d="M222 97H260V135H222V97Z"/>
</mask>
<path d="M260 135V136H261V135H260ZM222 135H221V136H222V135ZM259 97V135H261V97H259ZM260 134H222V136H260V134ZM223 135V97H221V135H223Z" fill="#CBB9CF" fill-opacity="0.3" mask="url(#path-100-inside-41_1918_4242)"/>
<path d="M260 135V136H261V135H260ZM222 135H221V136H222V135ZM259 97V135H261V97H259ZM260 134H222V136H260V134ZM223 135V97H221V135H223Z" fill="#CBB9CF" fill-opacity="0.3" mask="url(#path-100-inside-41_1918_4242)"/>
<mask id="path-102-inside-42_1918_4242" fill="white">
<path d="M259 97H297V135H259V97Z"/>
</mask>
<path d="M297 135V136H298V135H297ZM259 135H258V136H259V135ZM296 97V135H298V97H296ZM297 134H259V136H297V134ZM260 135V97H258V135H260Z" fill="#CBB9CF" fill-opacity="0.3" mask="url(#path-102-inside-42_1918_4242)"/>
<path d="M297 135V136H298V135H297ZM259 135H258V136H259V135ZM296 97V135H298V97H296ZM297 134H259V136H297V134ZM260 135V97H258V135H260Z" fill="#CBB9CF" fill-opacity="0.3" mask="url(#path-102-inside-42_1918_4242)"/>
<mask id="path-104-inside-43_1918_4242" fill="white">
<path d="M296 97H334V135H296V97Z"/>
</mask>
<path d="M334 135V136H335V135H334ZM296 135H295V136H296V135ZM333 97V135H335V97H333ZM334 134H296V136H334V134ZM297 135V97H295V135H297Z" fill="#CBB9CF" fill-opacity="0.3" mask="url(#path-104-inside-43_1918_4242)"/>
<path d="M334 135V136H335V135H334ZM296 135H295V136H296V135ZM333 97V135H335V97H333ZM334 134H296V136H334V134ZM297 135V97H295V135H297Z" fill="#CBB9CF" fill-opacity="0.3" mask="url(#path-104-inside-43_1918_4242)"/>
<mask id="path-106-inside-44_1918_4242" fill="white">
<path d="M333 97H371V135H333V97Z"/>
</mask>
<path d="M371 135V136H372V135H371ZM333 135H332V136H333V135ZM370 97V135H372V97H370ZM371 134H333V136H371V134ZM334 135V97H332V135H334Z" fill="#CBB9CF" fill-opacity="0.3" mask="url(#path-106-inside-44_1918_4242)"/>
<path d="M371 135V136H372V135H371ZM333 135H332V136H333V135ZM370 97V135H372V97H370ZM371 134H333V136H371V134ZM334 135V97H332V135H334Z" fill="#CBB9CF" fill-opacity="0.3" mask="url(#path-106-inside-44_1918_4242)"/>
<mask id="path-108-inside-45_1918_4242" fill="white">
<path d="M370 97H408V135H370V97Z"/>
</mask>
<path d="M408 135V136H409V135H408ZM370 135H369V136H370V135ZM407 97V135H409V97H407ZM408 134H370V136H408V134ZM371 135V97H369V135H371Z" fill="#CBB9CF" fill-opacity="0.3" mask="url(#path-108-inside-45_1918_4242)"/>
<path d="M408 135V136H409V135H408ZM370 135H369V136H370V135ZM407 97V135H409V97H407ZM408 134H370V136H408V134ZM371 135V97H369V135H371Z" fill="#CBB9CF" fill-opacity="0.3" mask="url(#path-108-inside-45_1918_4242)"/>
<mask id="path-110-inside-46_1918_4242" fill="white">
<path d="M407 97H445V135H407V97Z"/>
</mask>
<path d="M445 135V136H446V135H445ZM407 135H406V136H407V135ZM444 97V135H446V97H444ZM445 134H407V136H445V134ZM408 135V97H406V135H408Z" fill="#CBB9CF" fill-opacity="0.3" mask="url(#path-110-inside-46_1918_4242)"/>
<path d="M445 135V136H446V135H445ZM407 135H406V136H407V135ZM444 97V135H446V97H444ZM445 134H407V136H445V134ZM408 135V97H406V135H408Z" fill="#CBB9CF" fill-opacity="0.3" mask="url(#path-110-inside-46_1918_4242)"/>
<mask id="path-112-inside-47_1918_4242" fill="white">
<path d="M444 97H482V135H444V97Z"/>
</mask>
<path d="M482 135V136H483V135H482ZM444 135H443V136H444V135ZM481 97V135H483V97H481ZM482 134H444V136H482V134ZM445 135V97H443V135H445Z" fill="#CBB9CF" fill-opacity="0.3" mask="url(#path-112-inside-47_1918_4242)"/>
<path d="M482 135V136H483V135H482ZM444 135H443V136H444V135ZM481 97V135H483V97H481ZM482 134H444V136H482V134ZM445 135V97H443V135H445Z" fill="#CBB9CF" fill-opacity="0.3" mask="url(#path-112-inside-47_1918_4242)"/>
<mask id="path-114-inside-48_1918_4242" fill="white">
<path d="M481 97H519V135H481V97Z"/>
</mask>
<path d="M519 135V136H520V135H519ZM481 135H480V136H481V135ZM518 97V135H520V97H518ZM519 134H481V136H519V134ZM482 135V97H480V135H482Z" fill="#CBB9CF" fill-opacity="0.3" mask="url(#path-114-inside-48_1918_4242)"/>
<path d="M519 135V136H520V135H519ZM481 135H480V136H481V135ZM518 97V135H520V97H518ZM519 134H481V136H519V134ZM482 135V97H480V135H482Z" fill="#CBB9CF" fill-opacity="0.3" mask="url(#path-114-inside-48_1918_4242)"/>
<mask id="path-116-inside-49_1918_4242" fill="white">
<path d="M518 97H556V135H518V97Z"/>
</mask>
<path d="M556 135V136H557V135H556ZM518 135H517V136H518V135ZM555 97V135H557V97H555ZM556 134H518V136H556V134ZM519 135V97H517V135H519Z" fill="#CBB9CF" fill-opacity="0.3" mask="url(#path-116-inside-49_1918_4242)"/>
<path d="M556 135V136H557V135H556ZM518 135H517V136H518V135ZM555 97V135H557V97H555ZM556 134H518V136H556V134ZM519 135V97H517V135H519Z" fill="#CBB9CF" fill-opacity="0.3" mask="url(#path-116-inside-49_1918_4242)"/>
<mask id="path-118-inside-50_1918_4242" fill="white">
<path d="M555 97H593V135H555V97Z"/>
</mask>
<path d="M593 135V136H594V135H593ZM555 135H554V136H555V135ZM592 97V135H594V97H592ZM593 134H555V136H593V134ZM556 135V97H554V135H556Z" fill="#CBB9CF" fill-opacity="0.3" mask="url(#path-118-inside-50_1918_4242)"/>
<path d="M593 135V136H594V135H593ZM555 135H554V136H555V135ZM592 97V135H594V97H592ZM593 134H555V136H593V134ZM556 135V97H554V135H556Z" fill="#CBB9CF" fill-opacity="0.3" mask="url(#path-118-inside-50_1918_4242)"/>
<mask id="path-120-inside-51_1918_4242" fill="white">
<path d="M592 97H630V135H592V97Z"/>
</mask>
<path d="M630 135V136H631V135H630ZM592 135H591V136H592V135ZM629 97V135H631V97H629ZM630 134H592V136H630V134ZM593 135V97H591V135H593Z" fill="#CBB9CF" fill-opacity="0.3" mask="url(#path-120-inside-51_1918_4242)"/>
<path d="M630 135V136H631V135H630ZM592 135H591V136H592V135ZM629 97V135H631V97H629ZM630 134H592V136H630V134ZM593 135V97H591V135H593Z" fill="#CBB9CF" fill-opacity="0.3" mask="url(#path-120-inside-51_1918_4242)"/>
<mask id="path-122-inside-52_1918_4242" fill="white">
<path d="M0 135H38V173H0V135Z"/>
</mask>
<path d="M38 173V174H39V173H38ZM0 173H-1V174H0V173ZM37 135V173H39V135H37ZM38 172H0V174H38V172ZM1 173V135H-1V173H1Z" fill="#CBB9CF" fill-opacity="0.3" mask="url(#path-122-inside-52_1918_4242)"/>
<path d="M38 173V174H39V173H38ZM0 173H-1V174H0V173ZM37 135V173H39V135H37ZM38 172H0V174H38V172ZM1 173V135H-1V173H1Z" fill="#CBB9CF" fill-opacity="0.3" mask="url(#path-122-inside-52_1918_4242)"/>
<mask id="path-124-inside-53_1918_4242" fill="white">
<path d="M37 135H75V173H37V135Z"/>
</mask>
<path d="M75 173V174H76V173H75ZM37 173H36V174H37V173ZM74 135V173H76V135H74ZM75 172H37V174H75V172ZM38 173V135H36V173H38Z" fill="#CBB9CF" fill-opacity="0.3" mask="url(#path-124-inside-53_1918_4242)"/>
<path d="M75 173V174H76V173H75ZM37 173H36V174H37V173ZM74 135V173H76V135H74ZM75 172H37V174H75V172ZM38 173V135H36V173H38Z" fill="#CBB9CF" fill-opacity="0.3" mask="url(#path-124-inside-53_1918_4242)"/>
<mask id="path-126-inside-54_1918_4242" fill="white">
<path d="M74 135H112V173H74V135Z"/>
</mask>
<path d="M112 173V174H113V173H112ZM74 173H73V174H74V173ZM111 135V173H113V135H111ZM112 172H74V174H112V172ZM75 173V135H73V173H75Z" fill="#CBB9CF" fill-opacity="0.3" mask="url(#path-126-inside-54_1918_4242)"/>
<path d="M112 173V174H113V173H112ZM74 173H73V174H74V173ZM111 135V173H113V135H111ZM112 172H74V174H112V172ZM75 173V135H73V173H75Z" fill="#CBB9CF" fill-opacity="0.3" mask="url(#path-126-inside-54_1918_4242)"/>
<mask id="path-128-inside-55_1918_4242" fill="white">
<path d="M111 135H149V173H111V135Z"/>
</mask>
<path d="M149 173V174H150V173H149ZM111 173H110V174H111V173ZM148 135V173H150V135H148ZM149 172H111V174H149V172ZM112 173V135H110V173H112Z" fill="#CBB9CF" fill-opacity="0.3" mask="url(#path-128-inside-55_1918_4242)"/>
<path d="M149 173V174H150V173H149ZM111 173H110V174H111V173ZM148 135V173H150V135H148ZM149 172H111V174H149V172ZM112 173V135H110V173H112Z" fill="#CBB9CF" fill-opacity="0.3" mask="url(#path-128-inside-55_1918_4242)"/>
<mask id="path-130-inside-56_1918_4242" fill="white">
<path d="M148 135H186V173H148V135Z"/>
</mask>
<path d="M186 173V174H187V173H186ZM148 173H147V174H148V173ZM185 135V173H187V135H185ZM186 172H148V174H186V172ZM149 173V135H147V173H149Z" fill="#CBB9CF" fill-opacity="0.3" mask="url(#path-130-inside-56_1918_4242)"/>
<path d="M186 173V174H187V173H186ZM148 173H147V174H148V173ZM185 135V173H187V135H185ZM186 172H148V174H186V172ZM149 173V135H147V173H149Z" fill="#CBB9CF" fill-opacity="0.3" mask="url(#path-130-inside-56_1918_4242)"/>
<mask id="path-132-inside-57_1918_4242" fill="white">
<path d="M185 135H223V173H185V135Z"/>
</mask>
<path d="M223 173V174H224V173H223ZM185 173H184V174H185V173ZM222 135V173H224V135H222ZM223 172H185V174H223V172ZM186 173V135H184V173H186Z" fill="#CBB9CF" fill-opacity="0.3" mask="url(#path-132-inside-57_1918_4242)"/>
<path d="M223 173V174H224V173H223ZM185 173H184V174H185V173ZM222 135V173H224V135H222ZM223 172H185V174H223V172ZM186 173V135H184V173H186Z" fill="#CBB9CF" fill-opacity="0.3" mask="url(#path-132-inside-57_1918_4242)"/>
<mask id="path-134-inside-58_1918_4242" fill="white">
<path d="M222 135H260V173H222V135Z"/>
</mask>
<path d="M260 173V174H261V173H260ZM222 173H221V174H222V173ZM259 135V173H261V135H259ZM260 172H222V174H260V172ZM223 173V135H221V173H223Z" fill="#CBB9CF" fill-opacity="0.3" mask="url(#path-134-inside-58_1918_4242)"/>
<path d="M260 173V174H261V173H260ZM222 173H221V174H222V173ZM259 135V173H261V135H259ZM260 172H222V174H260V172ZM223 173V135H221V173H223Z" fill="#CBB9CF" fill-opacity="0.3" mask="url(#path-134-inside-58_1918_4242)"/>
<mask id="path-136-inside-59_1918_4242" fill="white">
<path d="M259 135H297V173H259V135Z"/>
</mask>
<path d="M297 173V174H298V173H297ZM259 173H258V174H259V173ZM296 135V173H298V135H296ZM297 172H259V174H297V172ZM260 173V135H258V173H260Z" fill="#CBB9CF" fill-opacity="0.3" mask="url(#path-136-inside-59_1918_4242)"/>
<path d="M297 173V174H298V173H297ZM259 173H258V174H259V173ZM296 135V173H298V135H296ZM297 172H259V174H297V172ZM260 173V135H258V173H260Z" fill="#CBB9CF" fill-opacity="0.3" mask="url(#path-136-inside-59_1918_4242)"/>
<mask id="path-138-inside-60_1918_4242" fill="white">
<path d="M296 135H334V173H296V135Z"/>
</mask>
<path d="M334 173V174H335V173H334ZM296 173H295V174H296V173ZM333 135V173H335V135H333ZM334 172H296V174H334V172ZM297 173V135H295V173H297Z" fill="#CBB9CF" fill-opacity="0.3" mask="url(#path-138-inside-60_1918_4242)"/>
<path d="M334 173V174H335V173H334ZM296 173H295V174H296V173ZM333 135V173H335V135H333ZM334 172H296V174H334V172ZM297 173V135H295V173H297Z" fill="#CBB9CF" fill-opacity="0.3" mask="url(#path-138-inside-60_1918_4242)"/>
<mask id="path-140-inside-61_1918_4242" fill="white">
<path d="M333 135H371V173H333V135Z"/>
</mask>
<path d="M371 173V174H372V173H371ZM333 173H332V174H333V173ZM370 135V173H372V135H370ZM371 172H333V174H371V172ZM334 173V135H332V173H334Z" fill="#CBB9CF" fill-opacity="0.3" mask="url(#path-140-inside-61_1918_4242)"/>
<path d="M371 173V174H372V173H371ZM333 173H332V174H333V173ZM370 135V173H372V135H370ZM371 172H333V174H371V172ZM334 173V135H332V173H334Z" fill="#CBB9CF" fill-opacity="0.3" mask="url(#path-140-inside-61_1918_4242)"/>
<mask id="path-142-inside-62_1918_4242" fill="white">
<path d="M370 135H408V173H370V135Z"/>
</mask>
<path d="M408 173V174H409V173H408ZM370 173H369V174H370V173ZM407 135V173H409V135H407ZM408 172H370V174H408V172ZM371 173V135H369V173H371Z" fill="#CBB9CF" fill-opacity="0.3" mask="url(#path-142-inside-62_1918_4242)"/>
<path d="M408 173V174H409V173H408ZM370 173H369V174H370V173ZM407 135V173H409V135H407ZM408 172H370V174H408V172ZM371 173V135H369V173H371Z" fill="#CBB9CF" fill-opacity="0.3" mask="url(#path-142-inside-62_1918_4242)"/>
<mask id="path-144-inside-63_1918_4242" fill="white">
<path d="M407 135H445V173H407V135Z"/>
</mask>
<path d="M445 173V174H446V173H445ZM407 173H406V174H407V173ZM444 135V173H446V135H444ZM445 172H407V174H445V172ZM408 173V135H406V173H408Z" fill="#CBB9CF" fill-opacity="0.3" mask="url(#path-144-inside-63_1918_4242)"/>
<path d="M445 173V174H446V173H445ZM407 173H406V174H407V173ZM444 135V173H446V135H444ZM445 172H407V174H445V172ZM408 173V135H406V173H408Z" fill="#CBB9CF" fill-opacity="0.3" mask="url(#path-144-inside-63_1918_4242)"/>
<mask id="path-146-inside-64_1918_4242" fill="white">
<path d="M444 135H482V173H444V135Z"/>
</mask>
<path d="M482 173V174H483V173H482ZM444 173H443V174H444V173ZM481 135V173H483V135H481ZM482 172H444V174H482V172ZM445 173V135H443V173H445Z" fill="#CBB9CF" fill-opacity="0.3" mask="url(#path-146-inside-64_1918_4242)"/>
<path d="M482 173V174H483V173H482ZM444 173H443V174H444V173ZM481 135V173H483V135H481ZM482 172H444V174H482V172ZM445 173V135H443V173H445Z" fill="#CBB9CF" fill-opacity="0.3" mask="url(#path-146-inside-64_1918_4242)"/>
<mask id="path-148-inside-65_1918_4242" fill="white">
<path d="M481 135H519V173H481V135Z"/>
</mask>
<path d="M519 173V174H520V173H519ZM481 173H480V174H481V173ZM518 135V173H520V135H518ZM519 172H481V174H519V172ZM482 173V135H480V173H482Z" fill="#CBB9CF" fill-opacity="0.3" mask="url(#path-148-inside-65_1918_4242)"/>
<path d="M519 173V174H520V173H519ZM481 173H480V174H481V173ZM518 135V173H520V135H518ZM519 172H481V174H519V172ZM482 173V135H480V173H482Z" fill="#CBB9CF" fill-opacity="0.3" mask="url(#path-148-inside-65_1918_4242)"/>
<mask id="path-150-inside-66_1918_4242" fill="white">
<path d="M518 135H556V173H518V135Z"/>
</mask>
<path d="M556 173V174H557V173H556ZM518 173H517V174H518V173ZM555 135V173H557V135H555ZM556 172H518V174H556V172ZM519 173V135H517V173H519Z" fill="#CBB9CF" fill-opacity="0.3" mask="url(#path-150-inside-66_1918_4242)"/>
<path d="M556 173V174H557V173H556ZM518 173H517V174H518V173ZM555 135V173H557V135H555ZM556 172H518V174H556V172ZM519 173V135H517V173H519Z" fill="#CBB9CF" fill-opacity="0.3" mask="url(#path-150-inside-66_1918_4242)"/>
<mask id="path-152-inside-67_1918_4242" fill="white">
<path d="M555 135H593V173H555V135Z"/>
</mask>
<path d="M593 173V174H594V173H593ZM555 173H554V174H555V173ZM592 135V173H594V135H592ZM593 172H555V174H593V172ZM556 173V135H554V173H556Z" fill="#CBB9CF" fill-opacity="0.3" mask="url(#path-152-inside-67_1918_4242)"/>
<path d="M593 173V174H594V173H593ZM555 173H554V174H555V173ZM592 135V173H594V135H592ZM593 172H555V174H593V172ZM556 173V135H554V173H556Z" fill="#CBB9CF" fill-opacity="0.3" mask="url(#path-152-inside-67_1918_4242)"/>
<mask id="path-154-inside-68_1918_4242" fill="white">
<path d="M592 135H630V173H592V135Z"/>
</mask>
<path d="M630 173V174H631V173H630ZM592 173H591V174H592V173ZM629 135V173H631V135H629ZM630 172H592V174H630V172ZM593 173V135H591V173H593Z" fill="#CBB9CF" fill-opacity="0.3" mask="url(#path-154-inside-68_1918_4242)"/>
<path d="M630 173V174H631V173H630ZM592 173H591V174H592V173ZM629 135V173H631V135H629ZM630 172H592V174H630V172ZM593 173V135H591V173H593Z" fill="#CBB9CF" fill-opacity="0.3" mask="url(#path-154-inside-68_1918_4242)"/>
<mask id="path-156-inside-69_1918_4242" fill="white">
<path d="M0 173H38V211H0V173Z"/>
</mask>
<path d="M38 211V212H39V211H38ZM0 211H-1V212H0V211ZM37 173V211H39V173H37ZM38 210H0V212H38V210ZM1 211V173H-1V211H1Z" fill="#CBB9CF" fill-opacity="0.3" mask="url(#path-156-inside-69_1918_4242)"/>
<path d="M38 211V212H39V211H38ZM0 211H-1V212H0V211ZM37 173V211H39V173H37ZM38 210H0V212H38V210ZM1 211V173H-1V211H1Z" fill="#CBB9CF" fill-opacity="0.3" mask="url(#path-156-inside-69_1918_4242)"/>
<mask id="path-158-inside-70_1918_4242" fill="white">
<path d="M37 173H75V211H37V173Z"/>
</mask>
<path d="M75 211V212H76V211H75ZM37 211H36V212H37V211ZM74 173V211H76V173H74ZM75 210H37V212H75V210ZM38 211V173H36V211H38Z" fill="#CBB9CF" fill-opacity="0.3" mask="url(#path-158-inside-70_1918_4242)"/>
<path d="M75 211V212H76V211H75ZM37 211H36V212H37V211ZM74 173V211H76V173H74ZM75 210H37V212H75V210ZM38 211V173H36V211H38Z" fill="#CBB9CF" fill-opacity="0.3" mask="url(#path-158-inside-70_1918_4242)"/>
<mask id="path-160-inside-71_1918_4242" fill="white">
<path d="M74 173H112V211H74V173Z"/>
</mask>
<path d="M112 211V212H113V211H112ZM74 211H73V212H74V211ZM111 173V211H113V173H111ZM112 210H74V212H112V210ZM75 211V173H73V211H75Z" fill="#CBB9CF" fill-opacity="0.3" mask="url(#path-160-inside-71_1918_4242)"/>
<path d="M112 211V212H113V211H112ZM74 211H73V212H74V211ZM111 173V211H113V173H111ZM112 210H74V212H112V210ZM75 211V173H73V211H75Z" fill="#CBB9CF" fill-opacity="0.3" mask="url(#path-160-inside-71_1918_4242)"/>
<mask id="path-162-inside-72_1918_4242" fill="white">
<path d="M111 173H149V211H111V173Z"/>
</mask>
<path d="M149 211V212H150V211H149ZM111 211H110V212H111V211ZM148 173V211H150V173H148ZM149 210H111V212H149V210ZM112 211V173H110V211H112Z" fill="#CBB9CF" fill-opacity="0.3" mask="url(#path-162-inside-72_1918_4242)"/>
<path d="M149 211V212H150V211H149ZM111 211H110V212H111V211ZM148 173V211H150V173H148ZM149 210H111V212H149V210ZM112 211V173H110V211H112Z" fill="#CBB9CF" fill-opacity="0.3" mask="url(#path-162-inside-72_1918_4242)"/>
<mask id="path-164-inside-73_1918_4242" fill="white">
<path d="M148 173H186V211H148V173Z"/>
</mask>
<path d="M186 211V212H187V211H186ZM148 211H147V212H148V211ZM185 173V211H187V173H185ZM186 210H148V212H186V210ZM149 211V173H147V211H149Z" fill="#CBB9CF" fill-opacity="0.3" mask="url(#path-164-inside-73_1918_4242)"/>
<path d="M186 211V212H187V211H186ZM148 211H147V212H148V211ZM185 173V211H187V173H185ZM186 210H148V212H186V210ZM149 211V173H147V211H149Z" fill="#CBB9CF" fill-opacity="0.3" mask="url(#path-164-inside-73_1918_4242)"/>
<mask id="path-166-inside-74_1918_4242" fill="white">
<path d="M185 173H223V211H185V173Z"/>
</mask>
<path d="M223 211V212H224V211H223ZM185 211H184V212H185V211ZM222 173V211H224V173H222ZM223 210H185V212H223V210ZM186 211V173H184V211H186Z" fill="#CBB9CF" fill-opacity="0.3" mask="url(#path-166-inside-74_1918_4242)"/>
<path d="M223 211V212H224V211H223ZM185 211H184V212H185V211ZM222 173V211H224V173H222ZM223 210H185V212H223V210ZM186 211V173H184V211H186Z" fill="#CBB9CF" fill-opacity="0.3" mask="url(#path-166-inside-74_1918_4242)"/>
<mask id="path-168-inside-75_1918_4242" fill="white">
<path d="M222 173H260V211H222V173Z"/>
</mask>
<path d="M260 211V212H261V211H260ZM222 211H221V212H222V211ZM259 173V211H261V173H259ZM260 210H222V212H260V210ZM223 211V173H221V211H223Z" fill="#CBB9CF" fill-opacity="0.3" mask="url(#path-168-inside-75_1918_4242)"/>
<path d="M260 211V212H261V211H260ZM222 211H221V212H222V211ZM259 173V211H261V173H259ZM260 210H222V212H260V210ZM223 211V173H221V211H223Z" fill="#CBB9CF" fill-opacity="0.3" mask="url(#path-168-inside-75_1918_4242)"/>
<mask id="path-170-inside-76_1918_4242" fill="white">
<path d="M259 173H297V211H259V173Z"/>
</mask>
<path d="M297 211V212H298V211H297ZM259 211H258V212H259V211ZM296 173V211H298V173H296ZM297 210H259V212H297V210ZM260 211V173H258V211H260Z" fill="#CBB9CF" fill-opacity="0.3" mask="url(#path-170-inside-76_1918_4242)"/>
<path d="M297 211V212H298V211H297ZM259 211H258V212H259V211ZM296 173V211H298V173H296ZM297 210H259V212H297V210ZM260 211V173H258V211H260Z" fill="#CBB9CF" fill-opacity="0.3" mask="url(#path-170-inside-76_1918_4242)"/>
<mask id="path-172-inside-77_1918_4242" fill="white">
<path d="M296 173H334V211H296V173Z"/>
</mask>
<path d="M334 211V212H335V211H334ZM296 211H295V212H296V211ZM333 173V211H335V173H333ZM334 210H296V212H334V210ZM297 211V173H295V211H297Z" fill="#CBB9CF" fill-opacity="0.3" mask="url(#path-172-inside-77_1918_4242)"/>
<path d="M334 211V212H335V211H334ZM296 211H295V212H296V211ZM333 173V211H335V173H333ZM334 210H296V212H334V210ZM297 211V173H295V211H297Z" fill="#CBB9CF" fill-opacity="0.3" mask="url(#path-172-inside-77_1918_4242)"/>
<mask id="path-174-inside-78_1918_4242" fill="white">
<path d="M333 173H371V211H333V173Z"/>
</mask>
<path d="M371 211V212H372V211H371ZM333 211H332V212H333V211ZM370 173V211H372V173H370ZM371 210H333V212H371V210ZM334 211V173H332V211H334Z" fill="#CBB9CF" fill-opacity="0.3" mask="url(#path-174-inside-78_1918_4242)"/>
<path d="M371 211V212H372V211H371ZM333 211H332V212H333V211ZM370 173V211H372V173H370ZM371 210H333V212H371V210ZM334 211V173H332V211H334Z" fill="#CBB9CF" fill-opacity="0.3" mask="url(#path-174-inside-78_1918_4242)"/>
<mask id="path-176-inside-79_1918_4242" fill="white">
<path d="M370 173H408V211H370V173Z"/>
</mask>
<path d="M408 211V212H409V211H408ZM370 211H369V212H370V211ZM407 173V211H409V173H407ZM408 210H370V212H408V210ZM371 211V173H369V211H371Z" fill="#CBB9CF" fill-opacity="0.3" mask="url(#path-176-inside-79_1918_4242)"/>
<path d="M408 211V212H409V211H408ZM370 211H369V212H370V211ZM407 173V211H409V173H407ZM408 210H370V212H408V210ZM371 211V173H369V211H371Z" fill="#CBB9CF" fill-opacity="0.3" mask="url(#path-176-inside-79_1918_4242)"/>
<mask id="path-178-inside-80_1918_4242" fill="white">
<path d="M407 173H445V211H407V173Z"/>
</mask>
<path d="M445 211V212H446V211H445ZM407 211H406V212H407V211ZM444 173V211H446V173H444ZM445 210H407V212H445V210ZM408 211V173H406V211H408Z" fill="#CBB9CF" fill-opacity="0.3" mask="url(#path-178-inside-80_1918_4242)"/>
<path d="M445 211V212H446V211H445ZM407 211H406V212H407V211ZM444 173V211H446V173H444ZM445 210H407V212H445V210ZM408 211V173H406V211H408Z" fill="#CBB9CF" fill-opacity="0.3" mask="url(#path-178-inside-80_1918_4242)"/>
<mask id="path-180-inside-81_1918_4242" fill="white">
<path d="M444 173H482V211H444V173Z"/>
</mask>
<path d="M482 211V212H483V211H482ZM444 211H443V212H444V211ZM481 173V211H483V173H481ZM482 210H444V212H482V210ZM445 211V173H443V211H445Z" fill="#CBB9CF" fill-opacity="0.3" mask="url(#path-180-inside-81_1918_4242)"/>
<path d="M482 211V212H483V211H482ZM444 211H443V212H444V211ZM481 173V211H483V173H481ZM482 210H444V212H482V210ZM445 211V173H443V211H445Z" fill="#CBB9CF" fill-opacity="0.3" mask="url(#path-180-inside-81_1918_4242)"/>
<mask id="path-182-inside-82_1918_4242" fill="white">
<path d="M481 173H519V211H481V173Z"/>
</mask>
<path d="M519 211V212H520V211H519ZM481 211H480V212H481V211ZM518 173V211H520V173H518ZM519 210H481V212H519V210ZM482 211V173H480V211H482Z" fill="#CBB9CF" fill-opacity="0.3" mask="url(#path-182-inside-82_1918_4242)"/>
<path d="M519 211V212H520V211H519ZM481 211H480V212H481V211ZM518 173V211H520V173H518ZM519 210H481V212H519V210ZM482 211V173H480V211H482Z" fill="#CBB9CF" fill-opacity="0.3" mask="url(#path-182-inside-82_1918_4242)"/>
<mask id="path-184-inside-83_1918_4242" fill="white">
<path d="M518 173H556V211H518V173Z"/>
</mask>
<path d="M556 211V212H557V211H556ZM518 211H517V212H518V211ZM555 173V211H557V173H555ZM556 210H518V212H556V210ZM519 211V173H517V211H519Z" fill="#CBB9CF" fill-opacity="0.3" mask="url(#path-184-inside-83_1918_4242)"/>
<path d="M556 211V212H557V211H556ZM518 211H517V212H518V211ZM555 173V211H557V173H555ZM556 210H518V212H556V210ZM519 211V173H517V211H519Z" fill="#CBB9CF" fill-opacity="0.3" mask="url(#path-184-inside-83_1918_4242)"/>
<mask id="path-186-inside-84_1918_4242" fill="white">
<path d="M555 173H593V211H555V173Z"/>
</mask>
<path d="M593 211V212H594V211H593ZM555 211H554V212H555V211ZM592 173V211H594V173H592ZM593 210H555V212H593V210ZM556 211V173H554V211H556Z" fill="#CBB9CF" fill-opacity="0.3" mask="url(#path-186-inside-84_1918_4242)"/>
<path d="M593 211V212H594V211H593ZM555 211H554V212H555V211ZM592 173V211H594V173H592ZM593 210H555V212H593V210ZM556 211V173H554V211H556Z" fill="#CBB9CF" fill-opacity="0.3" mask="url(#path-186-inside-84_1918_4242)"/>
<mask id="path-188-inside-85_1918_4242" fill="white">
<path d="M592 173H630V211H592V173Z"/>
</mask>
<path d="M630 211V212H631V211H630ZM592 211H591V212H592V211ZM629 173V211H631V173H629ZM630 210H592V212H630V210ZM593 211V173H591V211H593Z" fill="#CBB9CF" fill-opacity="0.3" mask="url(#path-188-inside-85_1918_4242)"/>
<path d="M630 211V212H631V211H630ZM592 211H591V212H592V211ZM629 173V211H631V173H629ZM630 210H592V212H630V210ZM593 211V173H591V211H593Z" fill="#CBB9CF" fill-opacity="0.3" mask="url(#path-188-inside-85_1918_4242)"/>
<mask id="path-190-inside-86_1918_4242" fill="white">
<path d="M0 211H38V249H0V211Z"/>
</mask>
<path d="M38 249V250H39V249H38ZM0 249H-1V250H0V249ZM37 211V249H39V211H37ZM38 248H0V250H38V248ZM1 249V211H-1V249H1Z" fill="#CBB9CF" fill-opacity="0.3" mask="url(#path-190-inside-86_1918_4242)"/>
<path d="M38 249V250H39V249H38ZM0 249H-1V250H0V249ZM37 211V249H39V211H37ZM38 248H0V250H38V248ZM1 249V211H-1V249H1Z" fill="#CBB9CF" fill-opacity="0.3" mask="url(#path-190-inside-86_1918_4242)"/>
<mask id="path-192-inside-87_1918_4242" fill="white">
<path d="M37 211H75V249H37V211Z"/>
</mask>
<path d="M75 249V250H76V249H75ZM37 249H36V250H37V249ZM74 211V249H76V211H74ZM75 248H37V250H75V248ZM38 249V211H36V249H38Z" fill="#CBB9CF" fill-opacity="0.3" mask="url(#path-192-inside-87_1918_4242)"/>
<path d="M75 249V250H76V249H75ZM37 249H36V250H37V249ZM74 211V249H76V211H74ZM75 248H37V250H75V248ZM38 249V211H36V249H38Z" fill="#CBB9CF" fill-opacity="0.3" mask="url(#path-192-inside-87_1918_4242)"/>
<mask id="path-194-inside-88_1918_4242" fill="white">
<path d="M74 211H112V249H74V211Z"/>
</mask>
<path d="M112 249V250H113V249H112ZM74 249H73V250H74V249ZM111 211V249H113V211H111ZM112 248H74V250H112V248ZM75 249V211H73V249H75Z" fill="#CBB9CF" fill-opacity="0.3" mask="url(#path-194-inside-88_1918_4242)"/>
<path d="M112 249V250H113V249H112ZM74 249H73V250H74V249ZM111 211V249H113V211H111ZM112 248H74V250H112V248ZM75 249V211H73V249H75Z" fill="#CBB9CF" fill-opacity="0.3" mask="url(#path-194-inside-88_1918_4242)"/>
<mask id="path-196-inside-89_1918_4242" fill="white">
<path d="M111 211H149V249H111V211Z"/>
</mask>
<path d="M149 249V250H150V249H149ZM111 249H110V250H111V249ZM148 211V249H150V211H148ZM149 248H111V250H149V248ZM112 249V211H110V249H112Z" fill="#CBB9CF" fill-opacity="0.3" mask="url(#path-196-inside-89_1918_4242)"/>
<path d="M149 249V250H150V249H149ZM111 249H110V250H111V249ZM148 211V249H150V211H148ZM149 248H111V250H149V248ZM112 249V211H110V249H112Z" fill="#CBB9CF" fill-opacity="0.3" mask="url(#path-196-inside-89_1918_4242)"/>
<mask id="path-198-inside-90_1918_4242" fill="white">
<path d="M148 211H186V249H148V211Z"/>
</mask>
<path d="M186 249V250H187V249H186ZM148 249H147V250H148V249ZM185 211V249H187V211H185ZM186 248H148V250H186V248ZM149 249V211H147V249H149Z" fill="#CBB9CF" fill-opacity="0.3" mask="url(#path-198-inside-90_1918_4242)"/>
<path d="M186 249V250H187V249H186ZM148 249H147V250H148V249ZM185 211V249H187V211H185ZM186 248H148V250H186V248ZM149 249V211H147V249H149Z" fill="#CBB9CF" fill-opacity="0.3" mask="url(#path-198-inside-90_1918_4242)"/>
<mask id="path-200-inside-91_1918_4242" fill="white">
<path d="M185 211H223V249H185V211Z"/>
</mask>
<path d="M223 249V250H224V249H223ZM185 249H184V250H185V249ZM222 211V249H224V211H222ZM223 248H185V250H223V248ZM186 249V211H184V249H186Z" fill="#CBB9CF" fill-opacity="0.3" mask="url(#path-200-inside-91_1918_4242)"/>
<path d="M223 249V250H224V249H223ZM185 249H184V250H185V249ZM222 211V249H224V211H222ZM223 248H185V250H223V248ZM186 249V211H184V249H186Z" fill="#CBB9CF" fill-opacity="0.3" mask="url(#path-200-inside-91_1918_4242)"/>
<mask id="path-202-inside-92_1918_4242" fill="white">
<path d="M222 211H260V249H222V211Z"/>
</mask>
<path d="M260 249V250H261V249H260ZM222 249H221V250H222V249ZM259 211V249H261V211H259ZM260 248H222V250H260V248ZM223 249V211H221V249H223Z" fill="#CBB9CF" fill-opacity="0.3" mask="url(#path-202-inside-92_1918_4242)"/>
<path d="M260 249V250H261V249H260ZM222 249H221V250H222V249ZM259 211V249H261V211H259ZM260 248H222V250H260V248ZM223 249V211H221V249H223Z" fill="#CBB9CF" fill-opacity="0.3" mask="url(#path-202-inside-92_1918_4242)"/>
<mask id="path-204-inside-93_1918_4242" fill="white">
<path d="M259 211H297V249H259V211Z"/>
</mask>
<path d="M297 249V250H298V249H297ZM259 249H258V250H259V249ZM296 211V249H298V211H296ZM297 248H259V250H297V248ZM260 249V211H258V249H260Z" fill="#CBB9CF" fill-opacity="0.3" mask="url(#path-204-inside-93_1918_4242)"/>
<path d="M297 249V250H298V249H297ZM259 249H258V250H259V249ZM296 211V249H298V211H296ZM297 248H259V250H297V248ZM260 249V211H258V249H260Z" fill="#CBB9CF" fill-opacity="0.3" mask="url(#path-204-inside-93_1918_4242)"/>
<mask id="path-206-inside-94_1918_4242" fill="white">
<path d="M296 211H334V249H296V211Z"/>
</mask>
<path d="M334 249V250H335V249H334ZM296 249H295V250H296V249ZM333 211V249H335V211H333ZM334 248H296V250H334V248ZM297 249V211H295V249H297Z" fill="#CBB9CF" fill-opacity="0.3" mask="url(#path-206-inside-94_1918_4242)"/>
<path d="M334 249V250H335V249H334ZM296 249H295V250H296V249ZM333 211V249H335V211H333ZM334 248H296V250H334V248ZM297 249V211H295V249H297Z" fill="#CBB9CF" fill-opacity="0.3" mask="url(#path-206-inside-94_1918_4242)"/>
<mask id="path-208-inside-95_1918_4242" fill="white">
<path d="M333 211H371V249H333V211Z"/>
</mask>
<path d="M371 249V250H372V249H371ZM333 249H332V250H333V249ZM370 211V249H372V211H370ZM371 248H333V250H371V248ZM334 249V211H332V249H334Z" fill="#CBB9CF" fill-opacity="0.3" mask="url(#path-208-inside-95_1918_4242)"/>
<path d="M371 249V250H372V249H371ZM333 249H332V250H333V249ZM370 211V249H372V211H370ZM371 248H333V250H371V248ZM334 249V211H332V249H334Z" fill="#CBB9CF" fill-opacity="0.3" mask="url(#path-208-inside-95_1918_4242)"/>
<mask id="path-210-inside-96_1918_4242" fill="white">
<path d="M370 211H408V249H370V211Z"/>
</mask>
<path d="M408 249V250H409V249H408ZM370 249H369V250H370V249ZM407 211V249H409V211H407ZM408 248H370V250H408V248ZM371 249V211H369V249H371Z" fill="#CBB9CF" fill-opacity="0.3" mask="url(#path-210-inside-96_1918_4242)"/>
<path d="M408 249V250H409V249H408ZM370 249H369V250H370V249ZM407 211V249H409V211H407ZM408 248H370V250H408V248ZM371 249V211H369V249H371Z" fill="#CBB9CF" fill-opacity="0.3" mask="url(#path-210-inside-96_1918_4242)"/>
<mask id="path-212-inside-97_1918_4242" fill="white">
<path d="M407 211H445V249H407V211Z"/>
</mask>
<path d="M445 249V250H446V249H445ZM407 249H406V250H407V249ZM444 211V249H446V211H444ZM445 248H407V250H445V248ZM408 249V211H406V249H408Z" fill="#CBB9CF" fill-opacity="0.3" mask="url(#path-212-inside-97_1918_4242)"/>
<path d="M445 249V250H446V249H445ZM407 249H406V250H407V249ZM444 211V249H446V211H444ZM445 248H407V250H445V248ZM408 249V211H406V249H408Z" fill="#CBB9CF" fill-opacity="0.3" mask="url(#path-212-inside-97_1918_4242)"/>
<mask id="path-214-inside-98_1918_4242" fill="white">
<path d="M444 211H482V249H444V211Z"/>
</mask>
<path d="M482 249V250H483V249H482ZM444 249H443V250H444V249ZM481 211V249H483V211H481ZM482 248H444V250H482V248ZM445 249V211H443V249H445Z" fill="#CBB9CF" fill-opacity="0.3" mask="url(#path-214-inside-98_1918_4242)"/>
<path d="M482 249V250H483V249H482ZM444 249H443V250H444V249ZM481 211V249H483V211H481ZM482 248H444V250H482V248ZM445 249V211H443V249H445Z" fill="#CBB9CF" fill-opacity="0.3" mask="url(#path-214-inside-98_1918_4242)"/>
<mask id="path-216-inside-99_1918_4242" fill="white">
<path d="M481 211H519V249H481V211Z"/>
</mask>
<path d="M519 249V250H520V249H519ZM481 249H480V250H481V249ZM518 211V249H520V211H518ZM519 248H481V250H519V248ZM482 249V211H480V249H482Z" fill="#CBB9CF" fill-opacity="0.3" mask="url(#path-216-inside-99_1918_4242)"/>
<path d="M519 249V250H520V249H519ZM481 249H480V250H481V249ZM518 211V249H520V211H518ZM519 248H481V250H519V248ZM482 249V211H480V249H482Z" fill="#CBB9CF" fill-opacity="0.3" mask="url(#path-216-inside-99_1918_4242)"/>
<mask id="path-218-inside-100_1918_4242" fill="white">
<path d="M518 211H556V249H518V211Z"/>
</mask>
<path d="M556 249V250H557V249H556ZM518 249H517V250H518V249ZM555 211V249H557V211H555ZM556 248H518V250H556V248ZM519 249V211H517V249H519Z" fill="#CBB9CF" fill-opacity="0.3" mask="url(#path-218-inside-100_1918_4242)"/>
<path d="M556 249V250H557V249H556ZM518 249H517V250H518V249ZM555 211V249H557V211H555ZM556 248H518V250H556V248ZM519 249V211H517V249H519Z" fill="#CBB9CF" fill-opacity="0.3" mask="url(#path-218-inside-100_1918_4242)"/>
<mask id="path-220-inside-101_1918_4242" fill="white">
<path d="M555 211H593V249H555V211Z"/>
</mask>
<path d="M593 249V250H594V249H593ZM555 249H554V250H555V249ZM592 211V249H594V211H592ZM593 248H555V250H593V248ZM556 249V211H554V249H556Z" fill="#CBB9CF" fill-opacity="0.3" mask="url(#path-220-inside-101_1918_4242)"/>
<path d="M593 249V250H594V249H593ZM555 249H554V250H555V249ZM592 211V249H594V211H592ZM593 248H555V250H593V248ZM556 249V211H554V249H556Z" fill="#CBB9CF" fill-opacity="0.3" mask="url(#path-220-inside-101_1918_4242)"/>
<mask id="path-222-inside-102_1918_4242" fill="white">
<path d="M592 211H630V249H592V211Z"/>
</mask>
<path d="M630 249V250H631V249H630ZM592 249H591V250H592V249ZM629 211V249H631V211H629ZM630 248H592V250H630V248ZM593 249V211H591V249H593Z" fill="#CBB9CF" fill-opacity="0.3" mask="url(#path-222-inside-102_1918_4242)"/>
<path d="M630 249V250H631V249H630ZM592 249H591V250H592V249ZM629 211V249H631V211H629ZM630 248H592V250H630V248ZM593 249V211H591V249H593Z" fill="#CBB9CF" fill-opacity="0.3" mask="url(#path-222-inside-102_1918_4242)"/>
<mask id="path-224-inside-103_1918_4242" fill="white">
<path d="M0 249H38V287H0V249Z"/>
</mask>
<path d="M38 287V288H39V287H38ZM0 287H-1V288H0V287ZM37 249V287H39V249H37ZM38 286H0V288H38V286ZM1 287V249H-1V287H1Z" fill="#CBB9CF" fill-opacity="0.3" mask="url(#path-224-inside-103_1918_4242)"/>
<path d="M38 287V288H39V287H38ZM0 287H-1V288H0V287ZM37 249V287H39V249H37ZM38 286H0V288H38V286ZM1 287V249H-1V287H1Z" fill="#CBB9CF" fill-opacity="0.3" mask="url(#path-224-inside-103_1918_4242)"/>
<mask id="path-226-inside-104_1918_4242" fill="white">
<path d="M37 249H75V287H37V249Z"/>
</mask>
<path d="M75 287V288H76V287H75ZM37 287H36V288H37V287ZM74 249V287H76V249H74ZM75 286H37V288H75V286ZM38 287V249H36V287H38Z" fill="#CBB9CF" fill-opacity="0.3" mask="url(#path-226-inside-104_1918_4242)"/>
<path d="M75 287V288H76V287H75ZM37 287H36V288H37V287ZM74 249V287H76V249H74ZM75 286H37V288H75V286ZM38 287V249H36V287H38Z" fill="#CBB9CF" fill-opacity="0.3" mask="url(#path-226-inside-104_1918_4242)"/>
<mask id="path-228-inside-105_1918_4242" fill="white">
<path d="M74 249H112V287H74V249Z"/>
</mask>
<path d="M112 287V288H113V287H112ZM74 287H73V288H74V287ZM111 249V287H113V249H111ZM112 286H74V288H112V286ZM75 287V249H73V287H75Z" fill="#CBB9CF" fill-opacity="0.3" mask="url(#path-228-inside-105_1918_4242)"/>
<path d="M112 287V288H113V287H112ZM74 287H73V288H74V287ZM111 249V287H113V249H111ZM112 286H74V288H112V286ZM75 287V249H73V287H75Z" fill="#CBB9CF" fill-opacity="0.3" mask="url(#path-228-inside-105_1918_4242)"/>
<mask id="path-230-inside-106_1918_4242" fill="white">
<path d="M111 249H149V287H111V249Z"/>
</mask>
<path d="M149 287V288H150V287H149ZM111 287H110V288H111V287ZM148 249V287H150V249H148ZM149 286H111V288H149V286ZM112 287V249H110V287H112Z" fill="#CBB9CF" fill-opacity="0.3" mask="url(#path-230-inside-106_1918_4242)"/>
<path d="M149 287V288H150V287H149ZM111 287H110V288H111V287ZM148 249V287H150V249H148ZM149 286H111V288H149V286ZM112 287V249H110V287H112Z" fill="#CBB9CF" fill-opacity="0.3" mask="url(#path-230-inside-106_1918_4242)"/>
<mask id="path-232-inside-107_1918_4242" fill="white">
<path d="M148 249H186V287H148V249Z"/>
</mask>
<path d="M186 287V288H187V287H186ZM148 287H147V288H148V287ZM185 249V287H187V249H185ZM186 286H148V288H186V286ZM149 287V249H147V287H149Z" fill="#CBB9CF" fill-opacity="0.3" mask="url(#path-232-inside-107_1918_4242)"/>
<path d="M186 287V288H187V287H186ZM148 287H147V288H148V287ZM185 249V287H187V249H185ZM186 286H148V288H186V286ZM149 287V249H147V287H149Z" fill="#CBB9CF" fill-opacity="0.3" mask="url(#path-232-inside-107_1918_4242)"/>
<mask id="path-234-inside-108_1918_4242" fill="white">
<path d="M185 249H223V287H185V249Z"/>
</mask>
<path d="M223 287V288H224V287H223ZM185 287H184V288H185V287ZM222 249V287H224V249H222ZM223 286H185V288H223V286ZM186 287V249H184V287H186Z" fill="#CBB9CF" fill-opacity="0.3" mask="url(#path-234-inside-108_1918_4242)"/>
<path d="M223 287V288H224V287H223ZM185 287H184V288H185V287ZM222 249V287H224V249H222ZM223 286H185V288H223V286ZM186 287V249H184V287H186Z" fill="#CBB9CF" fill-opacity="0.3" mask="url(#path-234-inside-108_1918_4242)"/>
<mask id="path-236-inside-109_1918_4242" fill="white">
<path d="M222 249H260V287H222V249Z"/>
</mask>
<path d="M260 287V288H261V287H260ZM222 287H221V288H222V287ZM259 249V287H261V249H259ZM260 286H222V288H260V286ZM223 287V249H221V287H223Z" fill="#CBB9CF" fill-opacity="0.3" mask="url(#path-236-inside-109_1918_4242)"/>
<path d="M260 287V288H261V287H260ZM222 287H221V288H222V287ZM259 249V287H261V249H259ZM260 286H222V288H260V286ZM223 287V249H221V287H223Z" fill="#CBB9CF" fill-opacity="0.3" mask="url(#path-236-inside-109_1918_4242)"/>
<mask id="path-238-inside-110_1918_4242" fill="white">
<path d="M259 249H297V287H259V249Z"/>
</mask>
<path d="M297 287V288H298V287H297ZM259 287H258V288H259V287ZM296 249V287H298V249H296ZM297 286H259V288H297V286ZM260 287V249H258V287H260Z" fill="#CBB9CF" fill-opacity="0.3" mask="url(#path-238-inside-110_1918_4242)"/>
<path d="M297 287V288H298V287H297ZM259 287H258V288H259V287ZM296 249V287H298V249H296ZM297 286H259V288H297V286ZM260 287V249H258V287H260Z" fill="#CBB9CF" fill-opacity="0.3" mask="url(#path-238-inside-110_1918_4242)"/>
<mask id="path-240-inside-111_1918_4242" fill="white">
<path d="M296 249H334V287H296V249Z"/>
</mask>
<path d="M334 287V288H335V287H334ZM296 287H295V288H296V287ZM333 249V287H335V249H333ZM334 286H296V288H334V286ZM297 287V249H295V287H297Z" fill="#CBB9CF" fill-opacity="0.3" mask="url(#path-240-inside-111_1918_4242)"/>
<path d="M334 287V288H335V287H334ZM296 287H295V288H296V287ZM333 249V287H335V249H333ZM334 286H296V288H334V286ZM297 287V249H295V287H297Z" fill="#CBB9CF" fill-opacity="0.3" mask="url(#path-240-inside-111_1918_4242)"/>
<mask id="path-242-inside-112_1918_4242" fill="white">
<path d="M333 249H371V287H333V249Z"/>
</mask>
<path d="M371 287V288H372V287H371ZM333 287H332V288H333V287ZM370 249V287H372V249H370ZM371 286H333V288H371V286ZM334 287V249H332V287H334Z" fill="#CBB9CF" fill-opacity="0.3" mask="url(#path-242-inside-112_1918_4242)"/>
<path d="M371 287V288H372V287H371ZM333 287H332V288H333V287ZM370 249V287H372V249H370ZM371 286H333V288H371V286ZM334 287V249H332V287H334Z" fill="#CBB9CF" fill-opacity="0.3" mask="url(#path-242-inside-112_1918_4242)"/>
<mask id="path-244-inside-113_1918_4242" fill="white">
<path d="M370 249H408V287H370V249Z"/>
</mask>
<path d="M408 287V288H409V287H408ZM370 287H369V288H370V287ZM407 249V287H409V249H407ZM408 286H370V288H408V286ZM371 287V249H369V287H371Z" fill="#CBB9CF" fill-opacity="0.3" mask="url(#path-244-inside-113_1918_4242)"/>
<path d="M408 287V288H409V287H408ZM370 287H369V288H370V287ZM407 249V287H409V249H407ZM408 286H370V288H408V286ZM371 287V249H369V287H371Z" fill="#CBB9CF" fill-opacity="0.3" mask="url(#path-244-inside-113_1918_4242)"/>
<mask id="path-246-inside-114_1918_4242" fill="white">
<path d="M407 249H445V287H407V249Z"/>
</mask>
<path d="M445 287V288H446V287H445ZM407 287H406V288H407V287ZM444 249V287H446V249H444ZM445 286H407V288H445V286ZM408 287V249H406V287H408Z" fill="#CBB9CF" fill-opacity="0.3" mask="url(#path-246-inside-114_1918_4242)"/>
<path d="M445 287V288H446V287H445ZM407 287H406V288H407V287ZM444 249V287H446V249H444ZM445 286H407V288H445V286ZM408 287V249H406V287H408Z" fill="#CBB9CF" fill-opacity="0.3" mask="url(#path-246-inside-114_1918_4242)"/>
<mask id="path-248-inside-115_1918_4242" fill="white">
<path d="M444 249H482V287H444V249Z"/>
</mask>
<path d="M482 287V288H483V287H482ZM444 287H443V288H444V287ZM481 249V287H483V249H481ZM482 286H444V288H482V286ZM445 287V249H443V287H445Z" fill="#CBB9CF" fill-opacity="0.3" mask="url(#path-248-inside-115_1918_4242)"/>
<path d="M482 287V288H483V287H482ZM444 287H443V288H444V287ZM481 249V287H483V249H481ZM482 286H444V288H482V286ZM445 287V249H443V287H445Z" fill="#CBB9CF" fill-opacity="0.3" mask="url(#path-248-inside-115_1918_4242)"/>
<mask id="path-250-inside-116_1918_4242" fill="white">
<path d="M481 249H519V287H481V249Z"/>
</mask>
<path d="M519 287V288H520V287H519ZM481 287H480V288H481V287ZM518 249V287H520V249H518ZM519 286H481V288H519V286ZM482 287V249H480V287H482Z" fill="#CBB9CF" fill-opacity="0.3" mask="url(#path-250-inside-116_1918_4242)"/>
<path d="M519 287V288H520V287H519ZM481 287H480V288H481V287ZM518 249V287H520V249H518ZM519 286H481V288H519V286ZM482 287V249H480V287H482Z" fill="#CBB9CF" fill-opacity="0.3" mask="url(#path-250-inside-116_1918_4242)"/>
<mask id="path-252-inside-117_1918_4242" fill="white">
<path d="M518 249H556V287H518V249Z"/>
</mask>
<path d="M556 287V288H557V287H556ZM518 287H517V288H518V287ZM555 249V287H557V249H555ZM556 286H518V288H556V286ZM519 287V249H517V287H519Z" fill="#CBB9CF" fill-opacity="0.3" mask="url(#path-252-inside-117_1918_4242)"/>
<path d="M556 287V288H557V287H556ZM518 287H517V288H518V287ZM555 249V287H557V249H555ZM556 286H518V288H556V286ZM519 287V249H517V287H519Z" fill="#CBB9CF" fill-opacity="0.3" mask="url(#path-252-inside-117_1918_4242)"/>
<mask id="path-254-inside-118_1918_4242" fill="white">
<path d="M555 249H593V287H555V249Z"/>
</mask>
<path d="M593 287V288H594V287H593ZM555 287H554V288H555V287ZM592 249V287H594V249H592ZM593 286H555V288H593V286ZM556 287V249H554V287H556Z" fill="#CBB9CF" fill-opacity="0.3" mask="url(#path-254-inside-118_1918_4242)"/>
<path d="M593 287V288H594V287H593ZM555 287H554V288H555V287ZM592 249V287H594V249H592ZM593 286H555V288H593V286ZM556 287V249H554V287H556Z" fill="#CBB9CF" fill-opacity="0.3" mask="url(#path-254-inside-118_1918_4242)"/>
<mask id="path-256-inside-119_1918_4242" fill="white">
<path d="M592 249H630V287H592V249Z"/>
</mask>
<path d="M630 287V288H631V287H630ZM592 287H591V288H592V287ZM629 249V287H631V249H629ZM630 286H592V288H630V286ZM593 287V249H591V287H593Z" fill="#CBB9CF" fill-opacity="0.3" mask="url(#path-256-inside-119_1918_4242)"/>
<path d="M630 287V288H631V287H630ZM592 287H591V288H592V287ZM629 249V287H631V249H629ZM630 286H592V288H630V286ZM593 287V249H591V287H593Z" fill="#CBB9CF" fill-opacity="0.3" mask="url(#path-256-inside-119_1918_4242)"/>
<mask id="path-258-inside-120_1918_4242" fill="white">
<path d="M0 287H38V325H0V287Z"/>
</mask>
<path d="M38 325V326H39V325H38ZM0 325H-1V326H0V325ZM37 287V325H39V287H37ZM38 324H0V326H38V324ZM1 325V287H-1V325H1Z" fill="#CBB9CF" fill-opacity="0.3" mask="url(#path-258-inside-120_1918_4242)"/>
<path d="M38 325V326H39V325H38ZM0 325H-1V326H0V325ZM37 287V325H39V287H37ZM38 324H0V326H38V324ZM1 325V287H-1V325H1Z" fill="#CBB9CF" fill-opacity="0.3" mask="url(#path-258-inside-120_1918_4242)"/>
<mask id="path-260-inside-121_1918_4242" fill="white">
<path d="M37 287H75V325H37V287Z"/>
</mask>
<path d="M75 325V326H76V325H75ZM37 325H36V326H37V325ZM74 287V325H76V287H74ZM75 324H37V326H75V324ZM38 325V287H36V325H38Z" fill="#CBB9CF" fill-opacity="0.3" mask="url(#path-260-inside-121_1918_4242)"/>
<path d="M75 325V326H76V325H75ZM37 325H36V326H37V325ZM74 287V325H76V287H74ZM75 324H37V326H75V324ZM38 325V287H36V325H38Z" fill="#CBB9CF" fill-opacity="0.3" mask="url(#path-260-inside-121_1918_4242)"/>
<mask id="path-262-inside-122_1918_4242" fill="white">
<path d="M74 287H112V325H74V287Z"/>
</mask>
<path d="M112 325V326H113V325H112ZM74 325H73V326H74V325ZM111 287V325H113V287H111ZM112 324H74V326H112V324ZM75 325V287H73V325H75Z" fill="#CBB9CF" fill-opacity="0.3" mask="url(#path-262-inside-122_1918_4242)"/>
<path d="M112 325V326H113V325H112ZM74 325H73V326H74V325ZM111 287V325H113V287H111ZM112 324H74V326H112V324ZM75 325V287H73V325H75Z" fill="#CBB9CF" fill-opacity="0.3" mask="url(#path-262-inside-122_1918_4242)"/>
<mask id="path-264-inside-123_1918_4242" fill="white">
<path d="M111 287H149V325H111V287Z"/>
</mask>
<path d="M149 325V326H150V325H149ZM111 325H110V326H111V325ZM148 287V325H150V287H148ZM149 324H111V326H149V324ZM112 325V287H110V325H112Z" fill="#CBB9CF" fill-opacity="0.3" mask="url(#path-264-inside-123_1918_4242)"/>
<path d="M149 325V326H150V325H149ZM111 325H110V326H111V325ZM148 287V325H150V287H148ZM149 324H111V326H149V324ZM112 325V287H110V325H112Z" fill="#CBB9CF" fill-opacity="0.3" mask="url(#path-264-inside-123_1918_4242)"/>
<mask id="path-266-inside-124_1918_4242" fill="white">
<path d="M148 287H186V325H148V287Z"/>
</mask>
<path d="M186 325V326H187V325H186ZM148 325H147V326H148V325ZM185 287V325H187V287H185ZM186 324H148V326H186V324ZM149 325V287H147V325H149Z" fill="#CBB9CF" fill-opacity="0.3" mask="url(#path-266-inside-124_1918_4242)"/>
<path d="M186 325V326H187V325H186ZM148 325H147V326H148V325ZM185 287V325H187V287H185ZM186 324H148V326H186V324ZM149 325V287H147V325H149Z" fill="#CBB9CF" fill-opacity="0.3" mask="url(#path-266-inside-124_1918_4242)"/>
<mask id="path-268-inside-125_1918_4242" fill="white">
<path d="M185 287H223V325H185V287Z"/>
</mask>
<path d="M223 325V326H224V325H223ZM185 325H184V326H185V325ZM222 287V325H224V287H222ZM223 324H185V326H223V324ZM186 325V287H184V325H186Z" fill="#CBB9CF" fill-opacity="0.3" mask="url(#path-268-inside-125_1918_4242)"/>
<path d="M223 325V326H224V325H223ZM185 325H184V326H185V325ZM222 287V325H224V287H222ZM223 324H185V326H223V324ZM186 325V287H184V325H186Z" fill="#CBB9CF" fill-opacity="0.3" mask="url(#path-268-inside-125_1918_4242)"/>
<mask id="path-270-inside-126_1918_4242" fill="white">
<path d="M222 287H260V325H222V287Z"/>
</mask>
<path d="M260 325V326H261V325H260ZM222 325H221V326H222V325ZM259 287V325H261V287H259ZM260 324H222V326H260V324ZM223 325V287H221V325H223Z" fill="#CBB9CF" fill-opacity="0.3" mask="url(#path-270-inside-126_1918_4242)"/>
<path d="M260 325V326H261V325H260ZM222 325H221V326H222V325ZM259 287V325H261V287H259ZM260 324H222V326H260V324ZM223 325V287H221V325H223Z" fill="#CBB9CF" fill-opacity="0.3" mask="url(#path-270-inside-126_1918_4242)"/>
<mask id="path-272-inside-127_1918_4242" fill="white">
<path d="M259 287H297V325H259V287Z"/>
</mask>
<path d="M297 325V326H298V325H297ZM259 325H258V326H259V325ZM296 287V325H298V287H296ZM297 324H259V326H297V324ZM260 325V287H258V325H260Z" fill="#CBB9CF" fill-opacity="0.3" mask="url(#path-272-inside-127_1918_4242)"/>
<path d="M297 325V326H298V325H297ZM259 325H258V326H259V325ZM296 287V325H298V287H296ZM297 324H259V326H297V324ZM260 325V287H258V325H260Z" fill="#CBB9CF" fill-opacity="0.3" mask="url(#path-272-inside-127_1918_4242)"/>
<mask id="path-274-inside-128_1918_4242" fill="white">
<path d="M296 287H334V325H296V287Z"/>
</mask>
<path d="M334 325V326H335V325H334ZM296 325H295V326H296V325ZM333 287V325H335V287H333ZM334 324H296V326H334V324ZM297 325V287H295V325H297Z" fill="#CBB9CF" fill-opacity="0.3" mask="url(#path-274-inside-128_1918_4242)"/>
<path d="M334 325V326H335V325H334ZM296 325H295V326H296V325ZM333 287V325H335V287H333ZM334 324H296V326H334V324ZM297 325V287H295V325H297Z" fill="#CBB9CF" fill-opacity="0.3" mask="url(#path-274-inside-128_1918_4242)"/>
<mask id="path-276-inside-129_1918_4242" fill="white">
<path d="M333 287H371V325H333V287Z"/>
</mask>
<path d="M371 325V326H372V325H371ZM333 325H332V326H333V325ZM370 287V325H372V287H370ZM371 324H333V326H371V324ZM334 325V287H332V325H334Z" fill="#CBB9CF" fill-opacity="0.3" mask="url(#path-276-inside-129_1918_4242)"/>
<path d="M371 325V326H372V325H371ZM333 325H332V326H333V325ZM370 287V325H372V287H370ZM371 324H333V326H371V324ZM334 325V287H332V325H334Z" fill="#CBB9CF" fill-opacity="0.3" mask="url(#path-276-inside-129_1918_4242)"/>
<mask id="path-278-inside-130_1918_4242" fill="white">
<path d="M370 287H408V325H370V287Z"/>
</mask>
<path d="M408 325V326H409V325H408ZM370 325H369V326H370V325ZM407 287V325H409V287H407ZM408 324H370V326H408V324ZM371 325V287H369V325H371Z" fill="#CBB9CF" fill-opacity="0.3" mask="url(#path-278-inside-130_1918_4242)"/>
<path d="M408 325V326H409V325H408ZM370 325H369V326H370V325ZM407 287V325H409V287H407ZM408 324H370V326H408V324ZM371 325V287H369V325H371Z" fill="#CBB9CF" fill-opacity="0.3" mask="url(#path-278-inside-130_1918_4242)"/>
<mask id="path-280-inside-131_1918_4242" fill="white">
<path d="M407 287H445V325H407V287Z"/>
</mask>
<path d="M445 325V326H446V325H445ZM407 325H406V326H407V325ZM444 287V325H446V287H444ZM445 324H407V326H445V324ZM408 325V287H406V325H408Z" fill="#CBB9CF" fill-opacity="0.3" mask="url(#path-280-inside-131_1918_4242)"/>
<path d="M445 325V326H446V325H445ZM407 325H406V326H407V325ZM444 287V325H446V287H444ZM445 324H407V326H445V324ZM408 325V287H406V325H408Z" fill="#CBB9CF" fill-opacity="0.3" mask="url(#path-280-inside-131_1918_4242)"/>
<mask id="path-282-inside-132_1918_4242" fill="white">
<path d="M444 287H482V325H444V287Z"/>
</mask>
<path d="M482 325V326H483V325H482ZM444 325H443V326H444V325ZM481 287V325H483V287H481ZM482 324H444V326H482V324ZM445 325V287H443V325H445Z" fill="#CBB9CF" fill-opacity="0.3" mask="url(#path-282-inside-132_1918_4242)"/>
<path d="M482 325V326H483V325H482ZM444 325H443V326H444V325ZM481 287V325H483V287H481ZM482 324H444V326H482V324ZM445 325V287H443V325H445Z" fill="#CBB9CF" fill-opacity="0.3" mask="url(#path-282-inside-132_1918_4242)"/>
<mask id="path-284-inside-133_1918_4242" fill="white">
<path d="M481 287H519V325H481V287Z"/>
</mask>
<path d="M519 325V326H520V325H519ZM481 325H480V326H481V325ZM518 287V325H520V287H518ZM519 324H481V326H519V324ZM482 325V287H480V325H482Z" fill="#CBB9CF" fill-opacity="0.3" mask="url(#path-284-inside-133_1918_4242)"/>
<path d="M519 325V326H520V325H519ZM481 325H480V326H481V325ZM518 287V325H520V287H518ZM519 324H481V326H519V324ZM482 325V287H480V325H482Z" fill="#CBB9CF" fill-opacity="0.3" mask="url(#path-284-inside-133_1918_4242)"/>
<mask id="path-286-inside-134_1918_4242" fill="white">
<path d="M518 287H556V325H518V287Z"/>
</mask>
<path d="M556 325V326H557V325H556ZM518 325H517V326H518V325ZM555 287V325H557V287H555ZM556 324H518V326H556V324ZM519 325V287H517V325H519Z" fill="#CBB9CF" fill-opacity="0.3" mask="url(#path-286-inside-134_1918_4242)"/>
<path d="M556 325V326H557V325H556ZM518 325H517V326H518V325ZM555 287V325H557V287H555ZM556 324H518V326H556V324ZM519 325V287H517V325H519Z" fill="#CBB9CF" fill-opacity="0.3" mask="url(#path-286-inside-134_1918_4242)"/>
<mask id="path-288-inside-135_1918_4242" fill="white">
<path d="M555 287H593V325H555V287Z"/>
</mask>
<path d="M593 325V326H594V325H593ZM555 325H554V326H555V325ZM592 287V325H594V287H592ZM593 324H555V326H593V324ZM556 325V287H554V325H556Z" fill="#CBB9CF" fill-opacity="0.3" mask="url(#path-288-inside-135_1918_4242)"/>
<path d="M593 325V326H594V325H593ZM555 325H554V326H555V325ZM592 287V325H594V287H592ZM593 324H555V326H593V324ZM556 325V287H554V325H556Z" fill="#CBB9CF" fill-opacity="0.3" mask="url(#path-288-inside-135_1918_4242)"/>
<mask id="path-290-inside-136_1918_4242" fill="white">
<path d="M592 287H630V325H592V287Z"/>
</mask>
<path d="M630 325V326H631V325H630ZM592 325H591V326H592V325ZM629 287V325H631V287H629ZM630 324H592V326H630V324ZM593 325V287H591V325H593Z" fill="#CBB9CF" fill-opacity="0.3" mask="url(#path-290-inside-136_1918_4242)"/>
<path d="M630 325V326H631V325H630ZM592 325H591V326H592V325ZM629 287V325H631V287H629ZM630 324H592V326H630V324ZM593 325V287H591V325H593Z" fill="#CBB9CF" fill-opacity="0.3" mask="url(#path-290-inside-136_1918_4242)"/>
<mask id="path-292-inside-137_1918_4242" fill="white">
<path d="M0 325H38V363H0V325Z"/>
</mask>
<path d="M38 363V364H39V363H38ZM0 363H-1V364H0V363ZM37 325V363H39V325H37ZM38 362H0V364H38V362ZM1 363V325H-1V363H1Z" fill="#CBB9CF" fill-opacity="0.3" mask="url(#path-292-inside-137_1918_4242)"/>
<path d="M38 363V364H39V363H38ZM0 363H-1V364H0V363ZM37 325V363H39V325H37ZM38 362H0V364H38V362ZM1 363V325H-1V363H1Z" fill="#CBB9CF" fill-opacity="0.3" mask="url(#path-292-inside-137_1918_4242)"/>
<mask id="path-294-inside-138_1918_4242" fill="white">
<path d="M37 325H75V363H37V325Z"/>
</mask>
<path d="M75 363V364H76V363H75ZM37 363H36V364H37V363ZM74 325V363H76V325H74ZM75 362H37V364H75V362ZM38 363V325H36V363H38Z" fill="#CBB9CF" fill-opacity="0.3" mask="url(#path-294-inside-138_1918_4242)"/>
<path d="M75 363V364H76V363H75ZM37 363H36V364H37V363ZM74 325V363H76V325H74ZM75 362H37V364H75V362ZM38 363V325H36V363H38Z" fill="#CBB9CF" fill-opacity="0.3" mask="url(#path-294-inside-138_1918_4242)"/>
<mask id="path-296-inside-139_1918_4242" fill="white">
<path d="M74 325H112V363H74V325Z"/>
</mask>
<path d="M112 363V364H113V363H112ZM74 363H73V364H74V363ZM111 325V363H113V325H111ZM112 362H74V364H112V362ZM75 363V325H73V363H75Z" fill="#CBB9CF" fill-opacity="0.3" mask="url(#path-296-inside-139_1918_4242)"/>
<path d="M112 363V364H113V363H112ZM74 363H73V364H74V363ZM111 325V363H113V325H111ZM112 362H74V364H112V362ZM75 363V325H73V363H75Z" fill="#CBB9CF" fill-opacity="0.3" mask="url(#path-296-inside-139_1918_4242)"/>
<mask id="path-298-inside-140_1918_4242" fill="white">
<path d="M111 325H149V363H111V325Z"/>
</mask>
<path d="M149 363V364H150V363H149ZM111 363H110V364H111V363ZM148 325V363H150V325H148ZM149 362H111V364H149V362ZM112 363V325H110V363H112Z" fill="#CBB9CF" fill-opacity="0.3" mask="url(#path-298-inside-140_1918_4242)"/>
<path d="M149 363V364H150V363H149ZM111 363H110V364H111V363ZM148 325V363H150V325H148ZM149 362H111V364H149V362ZM112 363V325H110V363H112Z" fill="#CBB9CF" fill-opacity="0.3" mask="url(#path-298-inside-140_1918_4242)"/>
<mask id="path-300-inside-141_1918_4242" fill="white">
<path d="M148 325H186V363H148V325Z"/>
</mask>
<path d="M186 363V364H187V363H186ZM148 363H147V364H148V363ZM185 325V363H187V325H185ZM186 362H148V364H186V362ZM149 363V325H147V363H149Z" fill="#CBB9CF" fill-opacity="0.3" mask="url(#path-300-inside-141_1918_4242)"/>
<path d="M186 363V364H187V363H186ZM148 363H147V364H148V363ZM185 325V363H187V325H185ZM186 362H148V364H186V362ZM149 363V325H147V363H149Z" fill="#CBB9CF" fill-opacity="0.3" mask="url(#path-300-inside-141_1918_4242)"/>
<mask id="path-302-inside-142_1918_4242" fill="white">
<path d="M185 325H223V363H185V325Z"/>
</mask>
<path d="M223 363V364H224V363H223ZM185 363H184V364H185V363ZM222 325V363H224V325H222ZM223 362H185V364H223V362ZM186 363V325H184V363H186Z" fill="#CBB9CF" fill-opacity="0.3" mask="url(#path-302-inside-142_1918_4242)"/>
<path d="M223 363V364H224V363H223ZM185 363H184V364H185V363ZM222 325V363H224V325H222ZM223 362H185V364H223V362ZM186 363V325H184V363H186Z" fill="#CBB9CF" fill-opacity="0.3" mask="url(#path-302-inside-142_1918_4242)"/>
<mask id="path-304-inside-143_1918_4242" fill="white">
<path d="M222 325H260V363H222V325Z"/>
</mask>
<path d="M260 363V364H261V363H260ZM222 363H221V364H222V363ZM259 325V363H261V325H259ZM260 362H222V364H260V362ZM223 363V325H221V363H223Z" fill="#CBB9CF" fill-opacity="0.3" mask="url(#path-304-inside-143_1918_4242)"/>
<path d="M260 363V364H261V363H260ZM222 363H221V364H222V363ZM259 325V363H261V325H259ZM260 362H222V364H260V362ZM223 363V325H221V363H223Z" fill="#CBB9CF" fill-opacity="0.3" mask="url(#path-304-inside-143_1918_4242)"/>
<mask id="path-306-inside-144_1918_4242" fill="white">
<path d="M259 325H297V363H259V325Z"/>
</mask>
<path d="M297 363V364H298V363H297ZM259 363H258V364H259V363ZM296 325V363H298V325H296ZM297 362H259V364H297V362ZM260 363V325H258V363H260Z" fill="#CBB9CF" fill-opacity="0.3" mask="url(#path-306-inside-144_1918_4242)"/>
<path d="M297 363V364H298V363H297ZM259 363H258V364H259V363ZM296 325V363H298V325H296ZM297 362H259V364H297V362ZM260 363V325H258V363H260Z" fill="#CBB9CF" fill-opacity="0.3" mask="url(#path-306-inside-144_1918_4242)"/>
<mask id="path-308-inside-145_1918_4242" fill="white">
<path d="M296 325H334V363H296V325Z"/>
</mask>
<path d="M334 363V364H335V363H334ZM296 363H295V364H296V363ZM333 325V363H335V325H333ZM334 362H296V364H334V362ZM297 363V325H295V363H297Z" fill="#CBB9CF" fill-opacity="0.3" mask="url(#path-308-inside-145_1918_4242)"/>
<path d="M334 363V364H335V363H334ZM296 363H295V364H296V363ZM333 325V363H335V325H333ZM334 362H296V364H334V362ZM297 363V325H295V363H297Z" fill="#CBB9CF" fill-opacity="0.3" mask="url(#path-308-inside-145_1918_4242)"/>
<mask id="path-310-inside-146_1918_4242" fill="white">
<path d="M333 325H371V363H333V325Z"/>
</mask>
<path d="M371 363V364H372V363H371ZM333 363H332V364H333V363ZM370 325V363H372V325H370ZM371 362H333V364H371V362ZM334 363V325H332V363H334Z" fill="#CBB9CF" fill-opacity="0.3" mask="url(#path-310-inside-146_1918_4242)"/>
<path d="M371 363V364H372V363H371ZM333 363H332V364H333V363ZM370 325V363H372V325H370ZM371 362H333V364H371V362ZM334 363V325H332V363H334Z" fill="#CBB9CF" fill-opacity="0.3" mask="url(#path-310-inside-146_1918_4242)"/>
<mask id="path-312-inside-147_1918_4242" fill="white">
<path d="M370 325H408V363H370V325Z"/>
</mask>
<path d="M408 363V364H409V363H408ZM370 363H369V364H370V363ZM407 325V363H409V325H407ZM408 362H370V364H408V362ZM371 363V325H369V363H371Z" fill="#CBB9CF" fill-opacity="0.3" mask="url(#path-312-inside-147_1918_4242)"/>
<path d="M408 363V364H409V363H408ZM370 363H369V364H370V363ZM407 325V363H409V325H407ZM408 362H370V364H408V362ZM371 363V325H369V363H371Z" fill="#CBB9CF" fill-opacity="0.3" mask="url(#path-312-inside-147_1918_4242)"/>
<mask id="path-314-inside-148_1918_4242" fill="white">
<path d="M407 325H445V363H407V325Z"/>
</mask>
<path d="M445 363V364H446V363H445ZM407 363H406V364H407V363ZM444 325V363H446V325H444ZM445 362H407V364H445V362ZM408 363V325H406V363H408Z" fill="#CBB9CF" fill-opacity="0.3" mask="url(#path-314-inside-148_1918_4242)"/>
<path d="M445 363V364H446V363H445ZM407 363H406V364H407V363ZM444 325V363H446V325H444ZM445 362H407V364H445V362ZM408 363V325H406V363H408Z" fill="#CBB9CF" fill-opacity="0.3" mask="url(#path-314-inside-148_1918_4242)"/>
<mask id="path-316-inside-149_1918_4242" fill="white">
<path d="M444 325H482V363H444V325Z"/>
</mask>
<path d="M482 363V364H483V363H482ZM444 363H443V364H444V363ZM481 325V363H483V325H481ZM482 362H444V364H482V362ZM445 363V325H443V363H445Z" fill="#CBB9CF" fill-opacity="0.3" mask="url(#path-316-inside-149_1918_4242)"/>
<path d="M482 363V364H483V363H482ZM444 363H443V364H444V363ZM481 325V363H483V325H481ZM482 362H444V364H482V362ZM445 363V325H443V363H445Z" fill="#CBB9CF" fill-opacity="0.3" mask="url(#path-316-inside-149_1918_4242)"/>
<mask id="path-318-inside-150_1918_4242" fill="white">
<path d="M481 325H519V363H481V325Z"/>
</mask>
<path d="M519 363V364H520V363H519ZM481 363H480V364H481V363ZM518 325V363H520V325H518ZM519 362H481V364H519V362ZM482 363V325H480V363H482Z" fill="#CBB9CF" fill-opacity="0.3" mask="url(#path-318-inside-150_1918_4242)"/>
<path d="M519 363V364H520V363H519ZM481 363H480V364H481V363ZM518 325V363H520V325H518ZM519 362H481V364H519V362ZM482 363V325H480V363H482Z" fill="#CBB9CF" fill-opacity="0.3" mask="url(#path-318-inside-150_1918_4242)"/>
<mask id="path-320-inside-151_1918_4242" fill="white">
<path d="M518 325H556V363H518V325Z"/>
</mask>
<path d="M556 363V364H557V363H556ZM518 363H517V364H518V363ZM555 325V363H557V325H555ZM556 362H518V364H556V362ZM519 363V325H517V363H519Z" fill="#CBB9CF" fill-opacity="0.3" mask="url(#path-320-inside-151_1918_4242)"/>
<path d="M556 363V364H557V363H556ZM518 363H517V364H518V363ZM555 325V363H557V325H555ZM556 362H518V364H556V362ZM519 363V325H517V363H519Z" fill="#CBB9CF" fill-opacity="0.3" mask="url(#path-320-inside-151_1918_4242)"/>
<mask id="path-322-inside-152_1918_4242" fill="white">
<path d="M555 325H593V363H555V325Z"/>
</mask>
<path d="M593 363V364H594V363H593ZM555 363H554V364H555V363ZM592 325V363H594V325H592ZM593 362H555V364H593V362ZM556 363V325H554V363H556Z" fill="#CBB9CF" fill-opacity="0.3" mask="url(#path-322-inside-152_1918_4242)"/>
<path d="M593 363V364H594V363H593ZM555 363H554V364H555V363ZM592 325V363H594V325H592ZM593 362H555V364H593V362ZM556 363V325H554V363H556Z" fill="#CBB9CF" fill-opacity="0.3" mask="url(#path-322-inside-152_1918_4242)"/>
<mask id="path-324-inside-153_1918_4242" fill="white">
<path d="M592 325H630V363H592V325Z"/>
</mask>
<path d="M630 363V364H631V363H630ZM592 363H591V364H592V363ZM629 325V363H631V325H629ZM630 362H592V364H630V362ZM593 363V325H591V363H593Z" fill="#CBB9CF" fill-opacity="0.3" mask="url(#path-324-inside-153_1918_4242)"/>
<path d="M630 363V364H631V363H630ZM592 363H591V364H592V363ZM629 325V363H631V325H629ZM630 362H592V364H630V362ZM593 363V325H591V363H593Z" fill="#CBB9CF" fill-opacity="0.3" mask="url(#path-324-inside-153_1918_4242)"/>
<mask id="path-326-inside-154_1918_4242" fill="white">
<path d="M0 363H38V401H0V363Z"/>
</mask>
<path d="M38 401V402H39V401H38ZM0 401H-1V402H0V401ZM37 363V401H39V363H37ZM38 400H0V402H38V400ZM1 401V363H-1V401H1Z" fill="#CBB9CF" fill-opacity="0.3" mask="url(#path-326-inside-154_1918_4242)"/>
<path d="M38 401V402H39V401H38ZM0 401H-1V402H0V401ZM37 363V401H39V363H37ZM38 400H0V402H38V400ZM1 401V363H-1V401H1Z" fill="#CBB9CF" fill-opacity="0.3" mask="url(#path-326-inside-154_1918_4242)"/>
<mask id="path-328-inside-155_1918_4242" fill="white">
<path d="M37 363H75V401H37V363Z"/>
</mask>
<path d="M75 401V402H76V401H75ZM37 401H36V402H37V401ZM74 363V401H76V363H74ZM75 400H37V402H75V400ZM38 401V363H36V401H38Z" fill="#CBB9CF" fill-opacity="0.3" mask="url(#path-328-inside-155_1918_4242)"/>
<path d="M75 401V402H76V401H75ZM37 401H36V402H37V401ZM74 363V401H76V363H74ZM75 400H37V402H75V400ZM38 401V363H36V401H38Z" fill="#CBB9CF" fill-opacity="0.3" mask="url(#path-328-inside-155_1918_4242)"/>
<mask id="path-330-inside-156_1918_4242" fill="white">
<path d="M74 363H112V401H74V363Z"/>
</mask>
<path d="M112 401V402H113V401H112ZM74 401H73V402H74V401ZM111 363V401H113V363H111ZM112 400H74V402H112V400ZM75 401V363H73V401H75Z" fill="#CBB9CF" fill-opacity="0.3" mask="url(#path-330-inside-156_1918_4242)"/>
<path d="M112 401V402H113V401H112ZM74 401H73V402H74V401ZM111 363V401H113V363H111ZM112 400H74V402H112V400ZM75 401V363H73V401H75Z" fill="#CBB9CF" fill-opacity="0.3" mask="url(#path-330-inside-156_1918_4242)"/>
<mask id="path-332-inside-157_1918_4242" fill="white">
<path d="M111 363H149V401H111V363Z"/>
</mask>
<path d="M149 401V402H150V401H149ZM111 401H110V402H111V401ZM148 363V401H150V363H148ZM149 400H111V402H149V400ZM112 401V363H110V401H112Z" fill="#CBB9CF" fill-opacity="0.3" mask="url(#path-332-inside-157_1918_4242)"/>
<path d="M149 401V402H150V401H149ZM111 401H110V402H111V401ZM148 363V401H150V363H148ZM149 400H111V402H149V400ZM112 401V363H110V401H112Z" fill="#CBB9CF" fill-opacity="0.3" mask="url(#path-332-inside-157_1918_4242)"/>
<mask id="path-334-inside-158_1918_4242" fill="white">
<path d="M148 363H186V401H148V363Z"/>
</mask>
<path d="M186 401V402H187V401H186ZM148 401H147V402H148V401ZM185 363V401H187V363H185ZM186 400H148V402H186V400ZM149 401V363H147V401H149Z" fill="#CBB9CF" fill-opacity="0.3" mask="url(#path-334-inside-158_1918_4242)"/>
<path d="M186 401V402H187V401H186ZM148 401H147V402H148V401ZM185 363V401H187V363H185ZM186 400H148V402H186V400ZM149 401V363H147V401H149Z" fill="#CBB9CF" fill-opacity="0.3" mask="url(#path-334-inside-158_1918_4242)"/>
<mask id="path-336-inside-159_1918_4242" fill="white">
<path d="M185 363H223V401H185V363Z"/>
</mask>
<path d="M223 401V402H224V401H223ZM185 401H184V402H185V401ZM222 363V401H224V363H222ZM223 400H185V402H223V400ZM186 401V363H184V401H186Z" fill="#CBB9CF" fill-opacity="0.3" mask="url(#path-336-inside-159_1918_4242)"/>
<path d="M223 401V402H224V401H223ZM185 401H184V402H185V401ZM222 363V401H224V363H222ZM223 400H185V402H223V400ZM186 401V363H184V401H186Z" fill="#CBB9CF" fill-opacity="0.3" mask="url(#path-336-inside-159_1918_4242)"/>
<mask id="path-338-inside-160_1918_4242" fill="white">
<path d="M222 363H260V401H222V363Z"/>
</mask>
<path d="M260 401V402H261V401H260ZM222 401H221V402H222V401ZM259 363V401H261V363H259ZM260 400H222V402H260V400ZM223 401V363H221V401H223Z" fill="#CBB9CF" fill-opacity="0.3" mask="url(#path-338-inside-160_1918_4242)"/>
<path d="M260 401V402H261V401H260ZM222 401H221V402H222V401ZM259 363V401H261V363H259ZM260 400H222V402H260V400ZM223 401V363H221V401H223Z" fill="#CBB9CF" fill-opacity="0.3" mask="url(#path-338-inside-160_1918_4242)"/>
<mask id="path-340-inside-161_1918_4242" fill="white">
<path d="M259 363H297V401H259V363Z"/>
</mask>
<path d="M297 401V402H298V401H297ZM259 401H258V402H259V401ZM296 363V401H298V363H296ZM297 400H259V402H297V400ZM260 401V363H258V401H260Z" fill="#CBB9CF" fill-opacity="0.3" mask="url(#path-340-inside-161_1918_4242)"/>
<path d="M297 401V402H298V401H297ZM259 401H258V402H259V401ZM296 363V401H298V363H296ZM297 400H259V402H297V400ZM260 401V363H258V401H260Z" fill="#CBB9CF" fill-opacity="0.3" mask="url(#path-340-inside-161_1918_4242)"/>
<mask id="path-342-inside-162_1918_4242" fill="white">
<path d="M296 363H334V401H296V363Z"/>
</mask>
<path d="M334 401V402H335V401H334ZM296 401H295V402H296V401ZM333 363V401H335V363H333ZM334 400H296V402H334V400ZM297 401V363H295V401H297Z" fill="#CBB9CF" fill-opacity="0.3" mask="url(#path-342-inside-162_1918_4242)"/>
<path d="M334 401V402H335V401H334ZM296 401H295V402H296V401ZM333 363V401H335V363H333ZM334 400H296V402H334V400ZM297 401V363H295V401H297Z" fill="#CBB9CF" fill-opacity="0.3" mask="url(#path-342-inside-162_1918_4242)"/>
<mask id="path-344-inside-163_1918_4242" fill="white">
<path d="M333 363H371V401H333V363Z"/>
</mask>
<path d="M371 401V402H372V401H371ZM333 401H332V402H333V401ZM370 363V401H372V363H370ZM371 400H333V402H371V400ZM334 401V363H332V401H334Z" fill="#CBB9CF" fill-opacity="0.3" mask="url(#path-344-inside-163_1918_4242)"/>
<path d="M371 401V402H372V401H371ZM333 401H332V402H333V401ZM370 363V401H372V363H370ZM371 400H333V402H371V400ZM334 401V363H332V401H334Z" fill="#CBB9CF" fill-opacity="0.3" mask="url(#path-344-inside-163_1918_4242)"/>
<mask id="path-346-inside-164_1918_4242" fill="white">
<path d="M370 363H408V401H370V363Z"/>
</mask>
<path d="M408 401V402H409V401H408ZM370 401H369V402H370V401ZM407 363V401H409V363H407ZM408 400H370V402H408V400ZM371 401V363H369V401H371Z" fill="#CBB9CF" fill-opacity="0.3" mask="url(#path-346-inside-164_1918_4242)"/>
<path d="M408 401V402H409V401H408ZM370 401H369V402H370V401ZM407 363V401H409V363H407ZM408 400H370V402H408V400ZM371 401V363H369V401H371Z" fill="#CBB9CF" fill-opacity="0.3" mask="url(#path-346-inside-164_1918_4242)"/>
<mask id="path-348-inside-165_1918_4242" fill="white">
<path d="M407 363H445V401H407V363Z"/>
</mask>
<path d="M445 401V402H446V401H445ZM407 401H406V402H407V401ZM444 363V401H446V363H444ZM445 400H407V402H445V400ZM408 401V363H406V401H408Z" fill="#CBB9CF" fill-opacity="0.3" mask="url(#path-348-inside-165_1918_4242)"/>
<path d="M445 401V402H446V401H445ZM407 401H406V402H407V401ZM444 363V401H446V363H444ZM445 400H407V402H445V400ZM408 401V363H406V401H408Z" fill="#CBB9CF" fill-opacity="0.3" mask="url(#path-348-inside-165_1918_4242)"/>
<mask id="path-350-inside-166_1918_4242" fill="white">
<path d="M444 363H482V401H444V363Z"/>
</mask>
<path d="M482 401V402H483V401H482ZM444 401H443V402H444V401ZM481 363V401H483V363H481ZM482 400H444V402H482V400ZM445 401V363H443V401H445Z" fill="#CBB9CF" fill-opacity="0.3" mask="url(#path-350-inside-166_1918_4242)"/>
<path d="M482 401V402H483V401H482ZM444 401H443V402H444V401ZM481 363V401H483V363H481ZM482 400H444V402H482V400ZM445 401V363H443V401H445Z" fill="#CBB9CF" fill-opacity="0.3" mask="url(#path-350-inside-166_1918_4242)"/>
<mask id="path-352-inside-167_1918_4242" fill="white">
<path d="M481 363H519V401H481V363Z"/>
</mask>
<path d="M519 401V402H520V401H519ZM481 401H480V402H481V401ZM518 363V401H520V363H518ZM519 400H481V402H519V400ZM482 401V363H480V401H482Z" fill="#CBB9CF" fill-opacity="0.3" mask="url(#path-352-inside-167_1918_4242)"/>
<path d="M519 401V402H520V401H519ZM481 401H480V402H481V401ZM518 363V401H520V363H518ZM519 400H481V402H519V400ZM482 401V363H480V401H482Z" fill="#CBB9CF" fill-opacity="0.3" mask="url(#path-352-inside-167_1918_4242)"/>
<mask id="path-354-inside-168_1918_4242" fill="white">
<path d="M518 363H556V401H518V363Z"/>
</mask>
<path d="M556 401V402H557V401H556ZM518 401H517V402H518V401ZM555 363V401H557V363H555ZM556 400H518V402H556V400ZM519 401V363H517V401H519Z" fill="#CBB9CF" fill-opacity="0.3" mask="url(#path-354-inside-168_1918_4242)"/>
<path d="M556 401V402H557V401H556ZM518 401H517V402H518V401ZM555 363V401H557V363H555ZM556 400H518V402H556V400ZM519 401V363H517V401H519Z" fill="#CBB9CF" fill-opacity="0.3" mask="url(#path-354-inside-168_1918_4242)"/>
<mask id="path-356-inside-169_1918_4242" fill="white">
<path d="M555 363H593V401H555V363Z"/>
</mask>
<path d="M593 401V402H594V401H593ZM555 401H554V402H555V401ZM592 363V401H594V363H592ZM593 400H555V402H593V400ZM556 401V363H554V401H556Z" fill="#CBB9CF" fill-opacity="0.3" mask="url(#path-356-inside-169_1918_4242)"/>
<path d="M593 401V402H594V401H593ZM555 401H554V402H555V401ZM592 363V401H594V363H592ZM593 400H555V402H593V400ZM556 401V363H554V401H556Z" fill="#CBB9CF" fill-opacity="0.3" mask="url(#path-356-inside-169_1918_4242)"/>
<mask id="path-358-inside-170_1918_4242" fill="white">
<path d="M592 363H630V401H592V363Z"/>
</mask>
<path d="M630 401V402H631V401H630ZM592 401H591V402H592V401ZM629 363V401H631V363H629ZM630 400H592V402H630V400ZM593 401V363H591V401H593Z" fill="#CBB9CF" fill-opacity="0.3" mask="url(#path-358-inside-170_1918_4242)"/>
<path d="M630 401V402H631V401H630ZM592 401H591V402H592V401ZM629 363V401H631V363H629ZM630 400H592V402H630V400ZM593 401V363H591V401H593Z" fill="#CBB9CF" fill-opacity="0.3" mask="url(#path-358-inside-170_1918_4242)"/>
<mask id="path-360-inside-171_1918_4242" fill="white">
<path d="M0 401H38V439H0V401Z"/>
</mask>
<path d="M38 439V440H39V439H38ZM0 439H-1V440H0V439ZM37 401V439H39V401H37ZM38 438H0V440H38V438ZM1 439V401H-1V439H1Z" fill="#CBB9CF" fill-opacity="0.3" mask="url(#path-360-inside-171_1918_4242)"/>
<path d="M38 439V440H39V439H38ZM0 439H-1V440H0V439ZM37 401V439H39V401H37ZM38 438H0V440H38V438ZM1 439V401H-1V439H1Z" fill="#CBB9CF" fill-opacity="0.3" mask="url(#path-360-inside-171_1918_4242)"/>
<mask id="path-362-inside-172_1918_4242" fill="white">
<path d="M37 401H75V439H37V401Z"/>
</mask>
<path d="M75 439V440H76V439H75ZM37 439H36V440H37V439ZM74 401V439H76V401H74ZM75 438H37V440H75V438ZM38 439V401H36V439H38Z" fill="#CBB9CF" fill-opacity="0.3" mask="url(#path-362-inside-172_1918_4242)"/>
<path d="M75 439V440H76V439H75ZM37 439H36V440H37V439ZM74 401V439H76V401H74ZM75 438H37V440H75V438ZM38 439V401H36V439H38Z" fill="#CBB9CF" fill-opacity="0.3" mask="url(#path-362-inside-172_1918_4242)"/>
<mask id="path-364-inside-173_1918_4242" fill="white">
<path d="M74 401H112V439H74V401Z"/>
</mask>
<path d="M112 439V440H113V439H112ZM74 439H73V440H74V439ZM111 401V439H113V401H111ZM112 438H74V440H112V438ZM75 439V401H73V439H75Z" fill="#CBB9CF" fill-opacity="0.3" mask="url(#path-364-inside-173_1918_4242)"/>
<path d="M112 439V440H113V439H112ZM74 439H73V440H74V439ZM111 401V439H113V401H111ZM112 438H74V440H112V438ZM75 439V401H73V439H75Z" fill="#CBB9CF" fill-opacity="0.3" mask="url(#path-364-inside-173_1918_4242)"/>
<mask id="path-366-inside-174_1918_4242" fill="white">
<path d="M111 401H149V439H111V401Z"/>
</mask>
<path d="M149 439V440H150V439H149ZM111 439H110V440H111V439ZM148 401V439H150V401H148ZM149 438H111V440H149V438ZM112 439V401H110V439H112Z" fill="#CBB9CF" fill-opacity="0.3" mask="url(#path-366-inside-174_1918_4242)"/>
<path d="M149 439V440H150V439H149ZM111 439H110V440H111V439ZM148 401V439H150V401H148ZM149 438H111V440H149V438ZM112 439V401H110V439H112Z" fill="#CBB9CF" fill-opacity="0.3" mask="url(#path-366-inside-174_1918_4242)"/>
<mask id="path-368-inside-175_1918_4242" fill="white">
<path d="M148 401H186V439H148V401Z"/>
</mask>
<path d="M186 439V440H187V439H186ZM148 439H147V440H148V439ZM185 401V439H187V401H185ZM186 438H148V440H186V438ZM149 439V401H147V439H149Z" fill="#CBB9CF" fill-opacity="0.3" mask="url(#path-368-inside-175_1918_4242)"/>
<path d="M186 439V440H187V439H186ZM148 439H147V440H148V439ZM185 401V439H187V401H185ZM186 438H148V440H186V438ZM149 439V401H147V439H149Z" fill="#CBB9CF" fill-opacity="0.3" mask="url(#path-368-inside-175_1918_4242)"/>
<mask id="path-370-inside-176_1918_4242" fill="white">
<path d="M185 401H223V439H185V401Z"/>
</mask>
<path d="M223 439V440H224V439H223ZM185 439H184V440H185V439ZM222 401V439H224V401H222ZM223 438H185V440H223V438ZM186 439V401H184V439H186Z" fill="#CBB9CF" fill-opacity="0.3" mask="url(#path-370-inside-176_1918_4242)"/>
<path d="M223 439V440H224V439H223ZM185 439H184V440H185V439ZM222 401V439H224V401H222ZM223 438H185V440H223V438ZM186 439V401H184V439H186Z" fill="#CBB9CF" fill-opacity="0.3" mask="url(#path-370-inside-176_1918_4242)"/>
<mask id="path-372-inside-177_1918_4242" fill="white">
<path d="M222 401H260V439H222V401Z"/>
</mask>
<path d="M260 439V440H261V439H260ZM222 439H221V440H222V439ZM259 401V439H261V401H259ZM260 438H222V440H260V438ZM223 439V401H221V439H223Z" fill="#CBB9CF" fill-opacity="0.3" mask="url(#path-372-inside-177_1918_4242)"/>
<path d="M260 439V440H261V439H260ZM222 439H221V440H222V439ZM259 401V439H261V401H259ZM260 438H222V440H260V438ZM223 439V401H221V439H223Z" fill="#CBB9CF" fill-opacity="0.3" mask="url(#path-372-inside-177_1918_4242)"/>
<mask id="path-374-inside-178_1918_4242" fill="white">
<path d="M259 401H297V439H259V401Z"/>
</mask>
<path d="M297 439V440H298V439H297ZM259 439H258V440H259V439ZM296 401V439H298V401H296ZM297 438H259V440H297V438ZM260 439V401H258V439H260Z" fill="#CBB9CF" fill-opacity="0.3" mask="url(#path-374-inside-178_1918_4242)"/>
<path d="M297 439V440H298V439H297ZM259 439H258V440H259V439ZM296 401V439H298V401H296ZM297 438H259V440H297V438ZM260 439V401H258V439H260Z" fill="#CBB9CF" fill-opacity="0.3" mask="url(#path-374-inside-178_1918_4242)"/>
<mask id="path-376-inside-179_1918_4242" fill="white">
<path d="M296 401H334V439H296V401Z"/>
</mask>
<path d="M334 439V440H335V439H334ZM296 439H295V440H296V439ZM333 401V439H335V401H333ZM334 438H296V440H334V438ZM297 439V401H295V439H297Z" fill="#CBB9CF" fill-opacity="0.3" mask="url(#path-376-inside-179_1918_4242)"/>
<path d="M334 439V440H335V439H334ZM296 439H295V440H296V439ZM333 401V439H335V401H333ZM334 438H296V440H334V438ZM297 439V401H295V439H297Z" fill="#CBB9CF" fill-opacity="0.3" mask="url(#path-376-inside-179_1918_4242)"/>
<mask id="path-378-inside-180_1918_4242" fill="white">
<path d="M333 401H371V439H333V401Z"/>
</mask>
<path d="M371 439V440H372V439H371ZM333 439H332V440H333V439ZM370 401V439H372V401H370ZM371 438H333V440H371V438ZM334 439V401H332V439H334Z" fill="#CBB9CF" fill-opacity="0.3" mask="url(#path-378-inside-180_1918_4242)"/>
<path d="M371 439V440H372V439H371ZM333 439H332V440H333V439ZM370 401V439H372V401H370ZM371 438H333V440H371V438ZM334 439V401H332V439H334Z" fill="#CBB9CF" fill-opacity="0.3" mask="url(#path-378-inside-180_1918_4242)"/>
<mask id="path-380-inside-181_1918_4242" fill="white">
<path d="M370 401H408V439H370V401Z"/>
</mask>
<path d="M408 439V440H409V439H408ZM370 439H369V440H370V439ZM407 401V439H409V401H407ZM408 438H370V440H408V438ZM371 439V401H369V439H371Z" fill="#CBB9CF" fill-opacity="0.3" mask="url(#path-380-inside-181_1918_4242)"/>
<path d="M408 439V440H409V439H408ZM370 439H369V440H370V439ZM407 401V439H409V401H407ZM408 438H370V440H408V438ZM371 439V401H369V439H371Z" fill="#CBB9CF" fill-opacity="0.3" mask="url(#path-380-inside-181_1918_4242)"/>
<mask id="path-382-inside-182_1918_4242" fill="white">
<path d="M407 401H445V439H407V401Z"/>
</mask>
<path d="M445 439V440H446V439H445ZM407 439H406V440H407V439ZM444 401V439H446V401H444ZM445 438H407V440H445V438ZM408 439V401H406V439H408Z" fill="#CBB9CF" fill-opacity="0.3" mask="url(#path-382-inside-182_1918_4242)"/>
<path d="M445 439V440H446V439H445ZM407 439H406V440H407V439ZM444 401V439H446V401H444ZM445 438H407V440H445V438ZM408 439V401H406V439H408Z" fill="#CBB9CF" fill-opacity="0.3" mask="url(#path-382-inside-182_1918_4242)"/>
<mask id="path-384-inside-183_1918_4242" fill="white">
<path d="M444 401H482V439H444V401Z"/>
</mask>
<path d="M482 439V440H483V439H482ZM444 439H443V440H444V439ZM481 401V439H483V401H481ZM482 438H444V440H482V438ZM445 439V401H443V439H445Z" fill="#CBB9CF" fill-opacity="0.3" mask="url(#path-384-inside-183_1918_4242)"/>
<path d="M482 439V440H483V439H482ZM444 439H443V440H444V439ZM481 401V439H483V401H481ZM482 438H444V440H482V438ZM445 439V401H443V439H445Z" fill="#CBB9CF" fill-opacity="0.3" mask="url(#path-384-inside-183_1918_4242)"/>
<mask id="path-386-inside-184_1918_4242" fill="white">
<path d="M481 401H519V439H481V401Z"/>
</mask>
<path d="M519 439V440H520V439H519ZM481 439H480V440H481V439ZM518 401V439H520V401H518ZM519 438H481V440H519V438ZM482 439V401H480V439H482Z" fill="#CBB9CF" fill-opacity="0.3" mask="url(#path-386-inside-184_1918_4242)"/>
<path d="M519 439V440H520V439H519ZM481 439H480V440H481V439ZM518 401V439H520V401H518ZM519 438H481V440H519V438ZM482 439V401H480V439H482Z" fill="#CBB9CF" fill-opacity="0.3" mask="url(#path-386-inside-184_1918_4242)"/>
<mask id="path-388-inside-185_1918_4242" fill="white">
<path d="M518 401H556V439H518V401Z"/>
</mask>
<path d="M556 439V440H557V439H556ZM518 439H517V440H518V439ZM555 401V439H557V401H555ZM556 438H518V440H556V438ZM519 439V401H517V439H519Z" fill="#CBB9CF" fill-opacity="0.3" mask="url(#path-388-inside-185_1918_4242)"/>
<path d="M556 439V440H557V439H556ZM518 439H517V440H518V439ZM555 401V439H557V401H555ZM556 438H518V440H556V438ZM519 439V401H517V439H519Z" fill="#CBB9CF" fill-opacity="0.3" mask="url(#path-388-inside-185_1918_4242)"/>
<mask id="path-390-inside-186_1918_4242" fill="white">
<path d="M555 401H593V439H555V401Z"/>
</mask>
<path d="M593 439V440H594V439H593ZM555 439H554V440H555V439ZM592 401V439H594V401H592ZM593 438H555V440H593V438ZM556 439V401H554V439H556Z" fill="#CBB9CF" fill-opacity="0.3" mask="url(#path-390-inside-186_1918_4242)"/>
<path d="M593 439V440H594V439H593ZM555 439H554V440H555V439ZM592 401V439H594V401H592ZM593 438H555V440H593V438ZM556 439V401H554V439H556Z" fill="#CBB9CF" fill-opacity="0.3" mask="url(#path-390-inside-186_1918_4242)"/>
<mask id="path-392-inside-187_1918_4242" fill="white">
<path d="M592 401H630V439H592V401Z"/>
</mask>
<path d="M630 439V440H631V439H630ZM592 439H591V440H592V439ZM629 401V439H631V401H629ZM630 438H592V440H630V438ZM593 439V401H591V439H593Z" fill="#CBB9CF" fill-opacity="0.3" mask="url(#path-392-inside-187_1918_4242)"/>
<path d="M630 439V440H631V439H630ZM592 439H591V440H592V439ZM629 401V439H631V401H629ZM630 438H592V440H630V438ZM593 439V401H591V439H593Z" fill="#CBB9CF" fill-opacity="0.3" mask="url(#path-392-inside-187_1918_4242)"/>
</g>
<!-- <rect x="0.5" y="0.5" width="629.5" height="432" stroke="#25222C"/> -->
<defs>
<clipPath id="clip0_1918_4242">
<rect width="630.5" height="433" fill="white"/>
</clipPath>
</defs>
</svg>
