<svg version="1.1" id="Layer_1" xmlns="http://www.w3.org/2000/svg" xmlns:xlink="http://www.w3.org/1999/xlink" x="0px" y="0px"
	 width="100%" viewBox="0 0 192 192" enable-background="new 0 0 192 192" xml:space="preserve">
<path fill="#353535" opacity="1.000000" stroke="none" 
	d="
M1.000000,171.000000 
	C1.000000,121.979103 1.000000,72.958206 1.231874,23.210903 
	C5.267193,11.939555 12.940711,5.274018 23.000000,1.000000 
	C72.020897,1.000000 121.041786,1.000000 170.787140,1.234398 
	C182.066315,5.260704 188.722610,12.943270 193.000000,23.000000 
	C193.000000,72.020897 193.000000,121.041786 192.768127,170.789093 
	C188.733047,182.060684 181.059875,188.726562 171.000000,193.000000 
	C121.979103,193.000000 72.958206,193.000000 23.212851,192.765594 
	C11.933841,188.739136 5.276961,181.057159 1.000000,171.000000 
M135.152405,84.879265 
	C139.091736,96.187508 143.040314,107.492538 146.967041,118.805168 
	C149.446014,125.946922 152.823608,127.155800 159.352234,123.073456 
	C163.930939,120.210403 166.295670,115.993568 166.350067,110.588188 
	C166.418732,103.764786 166.388763,96.940361 166.394073,90.116371 
	C166.399216,83.497215 166.395172,76.878052 166.395172,70.244568 
	C163.270279,70.244568 160.722321,70.244568 157.734207,70.244568 
	C157.734207,84.506477 157.734207,98.374123 157.734207,112.241768 
	C156.137161,111.081085 155.442581,109.704559 154.860336,108.282051 
	C150.134460,96.736397 145.502213,85.151352 140.631470,73.667366 
	C139.983871,72.140503 138.274323,70.211670 136.854965,70.028160 
	C132.968491,69.525673 128.974472,69.855026 124.922623,69.855026 
	C124.922623,88.566826 124.922623,106.744911 124.922623,125.007973 
	C127.950256,125.007973 130.550919,125.007973 133.728592,125.007973 
	C133.728592,122.955505 133.727081,121.167160 133.728851,119.378815 
	C133.739090,109.059525 133.710464,98.739861 133.807892,88.421387 
	C133.820999,87.032936 134.470322,85.650497 135.152405,84.879265 
M48.421051,75.038910 
	C41.878654,71.598404 35.023087,69.601242 27.348612,70.013000 
	C27.348612,88.890045 27.348612,107.271652 27.348612,126.123123 
	C36.177776,126.215691 44.011681,124.059608 51.095356,119.307419 
	C57.255901,115.174515 61.847450,109.759094 63.106709,102.249687 
	C65.185905,89.850670 58.944141,81.630646 48.421051,75.038910 
M102.911545,101.130447 
	C102.524513,102.051430 102.210152,103.011627 101.737923,103.886627 
	C99.650269,107.754951 97.450256,111.886322 92.384926,111.840645 
	C87.100822,111.792984 84.265846,107.680862 83.004349,103.364853 
	C81.157967,97.047852 80.047821,90.462814 79.229736,83.916298 
	C78.664154,79.390381 79.121056,74.736694 79.121056,70.267448 
	C75.629921,70.267448 72.903450,70.267448 68.767715,70.267448 
	C69.988380,81.036270 70.346977,91.410858 72.580772,101.364609 
	C74.063416,107.971214 77.409340,114.562958 81.385201,120.112480 
	C87.386086,128.488525 96.532578,128.495300 102.867981,120.378410 
	C114.469780,105.514214 115.228752,88.050087 114.307983,70.064377 
	C111.132645,70.064377 108.684410,70.064377 106.840302,70.064377 
	C105.584045,80.365547 104.364105,90.368904 102.911545,101.130447 
z"/>
<path fill="#47704C" opacity="1.000000" stroke="none" 
	d="
M22.531218,1.000000 
	C12.940711,5.274018 5.267193,11.939555 1.231874,22.742245 
	C1.000000,15.740432 1.000000,8.480865 1.000000,1.000000 
	C8.019269,1.000000 15.040852,1.000000 22.531218,1.000000 
z"/>
<path fill="#47704C" opacity="1.000000" stroke="none" 
	d="
M193.000000,22.531218 
	C188.722610,12.943270 182.066315,5.260704 171.255798,1.234398 
	C178.259567,1.000000 185.519135,1.000000 193.000000,1.000000 
	C193.000000,8.019269 193.000000,15.040852 193.000000,22.531218 
z"/>
<path fill="#47704C" opacity="1.000000" stroke="none" 
	d="
M1.000000,171.468781 
	C5.276961,181.057159 11.933841,188.739136 22.744194,192.765594 
	C15.740432,193.000000 8.480864,193.000000 1.000000,193.000000 
	C1.000000,185.980728 1.000000,178.959152 1.000000,171.468781 
z"/>
<path fill="#47704C" opacity="1.000000" stroke="none" 
	d="
M171.468781,193.000000 
	C181.059875,188.726562 188.733047,182.060684 192.768127,171.257751 
	C193.000000,178.259567 193.000000,185.519135 193.000000,193.000000 
	C185.980728,193.000000 178.959152,193.000000 171.468781,193.000000 
z"/>
<path fill="#B9AEFA" opacity="1.000000" stroke="none" 
	d="
M134.988724,84.572266 
	C134.470322,85.650497 133.820999,87.032936 133.807892,88.421387 
	C133.710464,98.739861 133.739090,109.059525 133.728851,119.378815 
	C133.727081,121.167160 133.728592,122.955505 133.728592,125.007973 
	C130.550919,125.007973 127.950256,125.007973 124.922623,125.007973 
	C124.922623,106.744911 124.922623,88.566826 124.922623,69.855026 
	C128.974472,69.855026 132.968491,69.525673 136.854965,70.028160 
	C138.274323,70.211670 139.983871,72.140503 140.631470,73.667366 
	C145.502213,85.151352 150.134460,96.736397 154.860336,108.282051 
	C155.442581,109.704559 156.137161,111.081085 157.734207,112.241768 
	C157.734207,98.374123 157.734207,84.506477 157.734207,70.244568 
	C160.722321,70.244568 163.270279,70.244568 166.395172,70.244568 
	C166.395172,76.878052 166.399216,83.497215 166.394073,90.116371 
	C166.388763,96.940361 166.418732,103.764786 166.350067,110.588188 
	C166.295670,115.993568 163.930939,120.210403 159.352234,123.073456 
	C152.823608,127.155800 149.446014,125.946922 146.967041,118.805168 
	C143.040314,107.492538 139.091736,96.187508 134.988724,84.572266 
z"/>
<path fill="#B8ADF9" opacity="1.000000" stroke="none" 
	d="
M48.740242,75.219635 
	C58.944141,81.630646 65.185905,89.850670 63.106709,102.249687 
	C61.847450,109.759094 57.255901,115.174515 51.095356,119.307419 
	C44.011681,124.059608 36.177776,126.215691 27.348612,126.123123 
	C27.348612,107.271652 27.348612,88.890045 27.348612,70.013000 
	C35.023087,69.601242 41.878654,71.598404 48.740242,75.219635 
M39.893063,110.323410 
	C41.783600,109.748093 43.793732,109.415955 45.543919,108.555244 
	C53.011806,104.882668 55.094849,97.062721 50.086739,91.384369 
	C46.761673,87.614319 42.496552,85.782326 36.884136,86.146034 
	C36.884136,93.748375 36.830425,101.166702 36.980236,108.580917 
	C36.993015,109.213303 38.361267,109.818291 39.893063,110.323410 
z"/>
<path fill="#B8AEF9" opacity="1.000000" stroke="none" 
	d="
M103.027855,100.751350 
	C104.364105,90.368904 105.584045,80.365547 106.840302,70.064377 
	C108.684410,70.064377 111.132645,70.064377 114.307983,70.064377 
	C115.228752,88.050087 114.469780,105.514214 102.867981,120.378410 
	C96.532578,128.495300 87.386086,128.488525 81.385201,120.112480 
	C77.409340,114.562958 74.063416,107.971214 72.580772,101.364609 
	C70.346977,91.410858 69.988380,81.036270 68.767715,70.267448 
	C72.903450,70.267448 75.629921,70.267448 79.121056,70.267448 
	C79.121056,74.736694 78.664154,79.390381 79.229736,83.916298 
	C80.047821,90.462814 81.157967,97.047852 83.004349,103.364853 
	C84.265846,107.680862 87.100822,111.792984 92.384926,111.840645 
	C97.450256,111.886322 99.650269,107.754951 101.737923,103.886627 
	C102.210152,103.011627 102.524513,102.051430 103.027855,100.751350 
z"/>
<path fill="#38373A" opacity="1.000000" stroke="none" 
	d="
M39.496449,110.379700 
	C38.361267,109.818291 36.993015,109.213303 36.980236,108.580917 
	C36.830425,101.166702 36.884136,93.748375 36.884136,86.146034 
	C42.496552,85.782326 46.761673,87.614319 50.086739,91.384369 
	C55.094849,97.062721 53.011806,104.882668 45.543919,108.555244 
	C43.793732,109.415955 41.783600,109.748093 39.496449,110.379700 
z"/>
</svg>