<svg width="148" height="141" viewBox="0 0 148 141" fill="none" xmlns="http://www.w3.org/2000/svg">
<path d="M79.1623 122.554C83.8362 122.554 88.5102 122.554 93.1841 122.554C96.0225 122.554 95.5101 117.408 93.8214 116.117C92.0309 114.747 85.0472 106.983 82.3172 109.106C79.8105 111.055 79.7359 113.923 79.7359 116.818C79.7359 117.767 80.1099 119.312 79.1623 119.813C76.627 121.156 72.7931 121.4 69.9844 121.853C65.2442 122.617 60.1224 122.853 55.3253 122.522C51.7775 122.277 50.6551 120.326 49.0474 117.646C46.6186 113.598 46.3017 108.787 40.2838 108.787C36.9528 108.787 27.2488 115.463 32.1257 118.985C34.3116 120.564 37.7645 121.476 40.4113 121.98C41.4827 122.184 42.8359 122.917 43.853 122.172C44.5021 121.695 44.6996 120.688 45.3189 120.259C53.9044 114.321 66.1184 110.217 75.4019 106.301C83.7494 102.781 94.6695 98.1948 103.637 95.2753C107.166 94.1262 109.024 93.5771 112.241 94.7016C115.672 95.9007 118.773 98.1534 120.781 101.203C123.053 104.652 124.615 112.068 122.757 115.989C120.637 120.465 115.242 118.434 113.006 115.639C109.296 111.002 106.654 105.676 102.713 101.107C97.2376 94.7611 88.9493 90.1328 80.6282 88.7743C75.4338 87.9262 68.6282 87.0817 63.8021 89.6028C60.6459 91.2516 56.3082 93.9014 55.7715 97.8884C55.0448 103.287 65.6397 105.738 69.1559 107.066C75.0465 109.292 81.0106 111.478 86.7468 114.077C93.6833 117.22 89.7378 123.281 84.6117 125.709C81.4903 127.187 78.031 127.717 74.5734 127.717C70.0231 127.717 68.9804 123.567 68.0405 119.495C65.256 107.429 55.4161 99.4897 43.6618 96.0401C39.0818 94.696 33.1487 94.04 29.0664 96.9961C26.6512 98.745 23.2254 101.641 22.9797 104.836C22.4863 111.249 29.1944 116.893 32.4444 121.725C35.083 125.649 38.209 133.822 43.4706 135.046C46.3853 135.724 47.4037 134.782 48.5056 132.114C50.4159 127.489 52.9531 123.304 55.5803 119.049C59.9317 112 64.672 104.923 70.8767 99.3543C74.2756 96.3041 77.5018 96.1676 81.8711 96.1676C93.2625 96.1676 105.838 95.1786 108.735 109.233C110.282 116.735 108.538 125.422 99.2071 125.422C93.1817 125.422 91.3318 121.976 88.5633 117.041C87.1274 114.481 85.799 111.968 84.5798 109.297C83.8513 107.701 83.1573 106.075 82.3491 104.517C81.6966 103.259 79.1611 99.9589 80.3096 100.788C82.9302 102.681 85.1042 105.127 87.4479 107.353C90.9844 110.713 95.5999 114.328 98.2829 118.539C99.2952 120.127 99.5185 122.889 99.1115 124.721C98.3411 128.188 94.1143 127.765 91.4632 127.717C84.7483 127.594 81.1056 118.879 78.6843 113.822C74.6822 105.465 69.1164 95.711 59.9143 92.2797C53.8855 90.0317 45.9586 89.6194 40.0926 92.4709C35.3995 94.7523 37.3234 103.169 38.1168 107.066C39.07 111.748 41.4836 118.885 46.7848 120.132C48.7905 120.604 48.2377 118.059 48.187 116.69C48.0413 112.756 38.0792 110.471 35.408 109.456C28.9253 106.995 22.4895 104.772 15.5226 104.772C10.9637 104.772 9.11403 106.583 5.48431 109.042C3.93012 110.095 1.72394 111.097 1.72394 113.089C1.72394 113.961 1.43607 115.46 1.85141 116.244C2.54464 117.554 7.72643 116.929 8.86229 116.69C11.8604 116.059 14.8742 114.311 17.7852 113.249C24.9616 110.63 32.2172 108.348 39.4552 105.919C47.0541 103.369 57.4328 101.003 65.4911 102.382C73.2583 103.71 82.5974 111.453 87.1292 117.646C89.991 121.557 90.6688 124.879 91.6544 129.437C92.297 132.409 91.5991 132.879 95.2236 132.879C100.96 132.879 106.46 131.359 111.508 128.577C115.202 126.541 119.953 124.52 121.897 120.483C123.38 117.403 130.948 104.417 125.817 102.159C120.774 99.9397 114.1 100.425 108.735 100.884C104.392 101.255 98.7387 103.129 95.0961 105.6C91.2122 108.236 95.074 114.727 91.6863 118.284C88.3808 121.754 83.5605 121.717 79.1623 122.108C76.8415 122.314 73.8838 123.099 71.5778 122.426C70.0935 121.994 69.0478 119.834 68.3273 118.857C63.2111 111.922 57.7805 105.262 52.3298 98.5895C51.9533 98.1287 46.1415 92.6186 50.0353 94.1599C51.7654 94.8447 53.553 95.3604 55.2616 96.1038C60.5082 98.3867 65.811 101.158 70.6218 104.262C77.6097 108.77 85.0603 114.501 90.3797 121.024C92.5962 123.743 92.5242 128.834 89.9655 131.222C86.093 134.836 82.1545 135.747 76.9316 135.747C71.0681 135.747 68.2777 134.465 65.268 128.927C61.9996 122.914 58.3518 117.054 53.7957 111.91C46.3145 103.464 33.6536 105.028 26.1664 112.516C12.4446 126.238 42.7298 136.026 52.4572 137.086C59.4841 137.851 69.8899 139.081 76.358 135.301C82.0667 131.965 86.7733 126.66 90.5709 121.343C95.0701 115.044 98.1254 107.517 103.127 101.585C105.881 98.3187 110.921 98.6954 114.79 99.1631C126.014 100.52 131.404 112.524 130.151 122.554C130.036 123.466 127.544 129.268 125.88 127.302C122.239 122.999 121.085 115.441 120.495 110.126C119.797 103.849 119.955 97.6309 119.889 91.3237C119.846 87.1688 118.083 83.3832 113.771 82.4007C110.062 81.5558 104.92 81.8035 102.713 85.5556C100.283 89.6864 102.003 93.6648 103.955 97.5697C109.849 109.357 115.565 127.18 132.254 123.128C136.207 122.168 139.917 120.068 143.599 118.411C147.906 116.473 146.931 110.931 146.849 107.066C146.777 103.661 146.552 99.333 144.14 96.6456C141.128 93.2885 134.92 93.3632 130.852 93.3632C123.497 93.3632 112.976 95.6871 107.525 101.139C103.53 105.134 99.3631 111.235 97.9005 116.69C97.3335 118.805 92.7097 136.798 90.316 129.947C88.4516 124.611 88.7901 118.669 87.0655 113.249C84.4151 104.919 80.9281 99.3919 72.4064 96.0082C65.1361 93.1215 53.4656 92.2581 46.0837 95.3071C41.3912 97.2453 41.757 100.522 45.2233 103.784C51.2341 109.441 58.924 115.815 60.6791 124.37C61.6733 129.217 56.1406 131.85 52.2023 132.178C43.9423 132.866 38.7828 131.55 35.5674 123.574C31.7402 114.079 30.9501 103.112 20.8764 97.8884C13.0824 93.847 9.01465 98.1949 6.56783 105.664C4.93204 110.658 5.37852 114.403 9.37218 117.71C15.745 122.988 24.7497 124.753 32.763 125.295C40.6074 125.825 51.5091 127.075 58.6714 123.414C64.6548 120.356 69.5541 115.645 74.6052 111.337C80.0421 106.699 85.469 104.457 92.8654 105.728C102.489 107.382 113.348 118.055 114.089 127.876C114.459 132.774 112.506 137.304 107.525 138.934C102.335 140.632 93.6012 140.806 88.4677 138.934C82.3197 136.692 80.6899 130.992 76.0393 127.143C68.037 120.52 58.9217 117.122 48.7606 115.671" stroke="#5F5858" stroke-linecap="round"/>
<path d="M99.9058 78.3305C99.7581 78.0802 99.7442 77.5792 99.9058 76.7711V78.3305C100.846 79.9245 107.211 71.3625 108.24 67.2467C109.43 62.4845 112.063 48.9198 103.478 44.6276C91.5723 38.6757 105.227 32.9052 111.812 35.1021C115.383 36.2934 118.673 38.7413 121.336 49.3907C122.527 54.1528 122.527 68.4382 117.764 73.2018C113.452 77.5147 103.874 81.9325 99.9058 83.9167V78.3305Z" fill="#D9D9D9"/>
<path d="M99.9058 76.7711C98.7153 82.7239 107.049 72.0089 108.24 67.2467C109.43 62.4845 112.063 48.9198 103.478 44.6276C91.5723 38.6757 105.227 32.9052 111.812 35.1021C115.383 36.2934 118.673 38.7413 121.336 49.3907C122.527 54.1528 122.527 68.4382 117.764 73.2018C113.452 77.5147 103.874 81.9325 99.9058 83.9167V76.7711Z" stroke="#25222C" stroke-width="2.3811"/>
<path d="M97.3426 25.5395L79.8506 23.2073L85.8033 27.9695L91.7561 35.1128L97.513 25.9018C97.6048 25.755 97.5142 25.5624 97.3426 25.5395Z" fill="#D9D9D9" stroke="#25222C" stroke-width="2.3811"/>
<path d="M38.551 26.7287L56.043 24.3965L50.0902 29.1587L44.1374 36.302L38.3805 27.091C38.2888 26.9442 38.3794 26.7516 38.551 26.7287Z" fill="#D9D9D9" stroke="#25222C" stroke-width="2.3811"/>
<path d="M84.6158 107.724C79.8535 108.676 61.2016 108.121 52.4709 107.724C44.8553 107.378 40.6256 102.516 39.3748 99.3898C36.9931 93.437 38.1842 87.4832 39.3748 79.1493C40.5653 70.8155 40.9628 49.3866 44.137 39.8611C48.0451 28.1332 55.4829 22.0039 69.1385 22.0039C83.4251 22.0039 90.3982 30.3359 94.1402 43.4339C95.4886 48.1538 100.093 86.2937 100.093 89.8654C100.093 93.4371 98.9024 99.3898 96.5213 101.771C94.1402 104.152 90.5685 106.533 84.6158 107.724Z" fill="#D9D9D9" stroke="#25222C" stroke-width="2.3811"/>
<path d="M54.1005 65.29C62.2823 69.4051 67.4549 78.783 62.9357 79.5217C59.3204 80.1127 52.5299 75.543 49.5866 73.1842" stroke="#25222C" stroke-width="1.29509" stroke-linecap="round"/>
<path d="M76.6787 68.4226C68.497 72.5377 63.3244 81.9155 67.8435 82.6543C71.4589 83.2452 78.2494 78.6755 81.1927 76.3168" stroke="#25222C" stroke-width="1.29509" stroke-linecap="round"/>
<path d="M66.5 62.5059C66.5 60.0798 68.1481 58.9475 69.845 58.9387M73.5 62.5009C73.5 60.1846 71.6451 58.9294 69.845 58.9387M69.845 58.9387V57.2656" stroke="#25222C" stroke-width="0.5"/>
<path d="M45.0374 90.7157C54.2065 96.62 59.1842 106.536 53.7556 106.023C49.4127 105.612 42.7644 102.742 39.5721 99.8165" stroke="#25222C" stroke-width="1.18155" stroke-linecap="round"/>
<path d="M91.3199 95C81.8675 97.3631 74.7781 104.452 79.5044 105.634C83.2853 106.579 91.3201 103.665 94.8648 102.089" stroke="#25222C" stroke-width="1.18155" stroke-linecap="round"/>
<path d="M69.8917 56.9317C69.389 56.9317 68.9695 56.5727 68.5453 56.328C68.0682 56.0527 67.4978 55.6768 67.1509 55.2381C67.0255 55.0795 66.9208 54.9118 66.8116 54.7412C66.3666 54.0458 66.9073 53.1855 67.5275 52.7591C67.7964 52.5743 68.4096 52.3734 68.727 52.5774C68.9866 52.7444 69.2922 53.0542 69.4081 53.3441C69.4293 53.3969 69.4518 53.2376 69.4589 53.1812C69.4671 53.1153 69.5573 53.016 69.6032 52.9675C70.1012 52.4401 70.7119 52.2676 71.433 52.2676C72.8211 52.2676 72.7758 54.5783 71.9138 55.2247C71.691 55.3919 71.4324 55.5833 71.238 55.7777C71.0538 55.9618 70.9157 56.1961 70.7331 56.3787C70.5746 56.5372 70.3879 56.6759 70.2282 56.8355C70.1658 56.8979 69.8505 57.0613 69.7829 56.9261" stroke="#25222C" stroke-width="1.19055" stroke-linecap="round"/>
<path d="M68.8141 53.6448C68.6729 53.6448 68.5316 53.6448 68.3903 53.6448C68.2619 53.6448 68.2327 53.7955 68.1876 53.8922C68.1624 53.9461 68.1744 54.0174 68.1744 54.0752C68.1744 54.2546 68.1784 54.4411 68.2323 54.6136C68.2883 54.7926 68.3624 54.9621 68.4429 55.1309C68.4586 55.1636 68.4811 55.2742 68.5298 55.2797C68.6907 55.2975 68.3754 54.9062 68.3508 54.8769C68.2385 54.7434 68.1076 54.5868 67.9612 54.4899C67.8915 54.4437 67.806 54.4224 67.7374 54.3767C67.4782 54.2039 67.7481 53.8144 67.8782 53.6553C67.9463 53.5721 67.9742 53.4353 68.0612 53.3657C68.0886 53.3438 68.2532 53.8714 68.2692 53.9238C68.4289 54.4485 68.758 55.0075 69.2196 55.327C69.3612 55.4251 69.5239 55.5699 69.6855 55.6298C69.8587 55.6939 69.5458 55.5031 69.5065 55.4745C69.3586 55.3664 69.1933 55.2525 69.0616 55.1243C69.032 55.0955 68.9661 54.998 68.9221 54.998C68.8865 54.998 68.9596 55.1802 68.9668 55.1954C69.0321 55.3333 69.0964 55.4709 69.1722 55.6035C69.2255 55.6968 69.2556 55.8132 69.3328 55.8904C69.4063 55.964 69.5052 56.103 69.596 56.1511C69.6419 56.1753 69.6062 55.9427 69.6053 55.9352C69.5691 55.6623 69.4927 55.3961 69.4315 55.1283C69.3752 54.882 69.3588 54.6182 69.288 54.3767C69.2339 54.1922 69.509 54.5933 69.5355 54.6373C69.5556 54.6706 69.692 54.969 69.7487 54.969C69.83 54.969 69.7856 54.2611 69.7856 54.1897C69.7856 54.0705 69.7641 53.9307 69.804 53.8159C69.8298 53.7417 69.8389 53.9691 69.8593 54.0449C69.9336 54.3216 70.0198 54.5956 70.1173 54.8637C70.1838 55.0465 70.1864 54.5703 70.1884 54.5478C70.2264 54.1273 70.3069 53.6878 70.3069 53.2657C70.3069 53.1834 70.296 53.1094 70.2845 53.0287C70.2642 52.8865 70.2204 53.128 70.2121 53.1696C70.0953 53.7534 70.2358 54.384 70.2358 54.9769C70.2358 55.0077 70.2172 55.135 70.2595 55.1375C70.3218 55.1412 70.354 55.0905 70.3779 55.0427" stroke="#25222C" stroke-width="1.19055" stroke-linecap="round"/>
<path d="M71.0638 53.1092C71.1758 53.1092 71.4255 53.0552 71.5245 53.1118C71.5589 53.1315 71.6033 53.2967 71.6074 53.3356C71.6196 53.4512 71.6087 53.5733 71.6087 53.6897C71.6087 53.9417 71.4276 54.2596 71.2665 54.4465C71.1718 54.5564 71.0807 54.6705 70.9822 54.7769C70.937 54.8257 70.8544 54.886 70.8268 54.9481C70.7746 55.0656 70.733 55.1801 70.6689 55.2943C70.6253 55.3719 70.5404 55.5174 70.4925 55.5944C70.4869 55.6033 70.4139 55.7351 70.4372 55.6418C70.459 55.5544 70.4896 55.4688 70.5188 55.3838C70.5524 55.2858 70.5921 55.1974 70.6557 55.1179C70.707 55.0538 70.7122 54.8803 70.7321 54.802C70.7882 54.5803 70.8268 54.3843 70.8268 54.1517C70.8268 54.0773 70.868 53.805 70.8031 53.7726" stroke="#25222C" stroke-width="1.19055" stroke-linecap="round"/>
<circle cx="62.9994" cy="42.2513" r="3.57166" fill="#25222C"/>
<path d="M64.4262 43.2644C64.5283 43.4711 64.2758 43.8041 63.8623 44.0082C63.4488 44.2122 63.0309 44.21 62.9289 44.0033C62.8268 43.7965 63.0793 43.4635 63.4928 43.2595C63.9063 43.0554 64.3242 43.0576 64.4262 43.2644Z" fill="white"/>
<path d="M64.156 40.5096C64.3969 40.9976 63.8008 41.7837 62.8247 42.2653C61.8487 42.747 60.8622 42.7418 60.6213 42.2538C60.3805 41.7657 60.8355 40.3534 61.8116 39.8718C62.7877 39.3901 63.9152 40.0215 64.156 40.5096Z" fill="white"/>
<circle cx="72.5248" cy="42.2513" r="3.57166" fill="#25222C"/>
<path d="M73.9497 43.2644C74.0517 43.4711 73.7992 43.8041 73.3857 44.0082C72.9722 44.2122 72.5543 44.21 72.4523 44.0033C72.3503 43.7965 72.6028 43.4635 73.0163 43.2595C73.4298 43.0554 73.8477 43.0576 73.9497 43.2644Z" fill="white"/>
<path d="M73.6814 40.5096C73.9223 40.9976 73.3262 41.7837 72.3501 42.2653C71.374 42.747 70.3875 42.7418 70.1467 42.2538C69.9059 41.7657 70.3609 40.3534 71.337 39.8718C72.3131 39.3901 73.4406 40.0215 73.6814 40.5096Z" fill="white"/>
</svg>
