<svg width="760" height="49" viewBox="0 0 760 49" fill="none" xmlns="http://www.w3.org/2000/svg">
<mask id="path-1-inside-1_7414_7708" fill="white">
<path d="M0 0.441406H567V48.4414H0V0.441406Z"/>
</mask>
<path d="M0 0.441406H567V48.4414H0V0.441406Z" fill="white"/>
<path d="M0 1.44141H567V-0.558594H0V1.44141Z" fill="#343434" mask="url(#path-1-inside-1_7414_7708)"/>
<path fill-rule="evenodd" clip-rule="evenodd" d="M206.04 22.7038C206.04 21.8884 205.967 21.1043 205.831 20.3516H195V24.8H201.189C200.922 26.2375 200.112 27.4554 198.894 28.2709V31.1563H202.611C204.785 29.1543 206.04 26.2061 206.04 22.7038Z" fill="#4285F4"/>
<path fill-rule="evenodd" clip-rule="evenodd" d="M194.999 33.94C198.104 33.94 200.708 32.9102 202.61 31.1539L198.894 28.2684C197.864 28.9584 196.547 29.3661 194.999 29.3661C192.004 29.3661 189.469 27.3432 188.565 24.625H184.723V27.6045C186.615 31.363 190.504 33.94 194.999 33.94Z" fill="#34A853"/>
<path fill-rule="evenodd" clip-rule="evenodd" d="M188.565 24.6269C188.335 23.9369 188.205 23.1998 188.205 22.4419C188.205 21.6839 188.335 20.9469 188.565 20.2569V17.2773H184.723C183.944 18.8298 183.5 20.5862 183.5 22.4419C183.5 24.2976 183.944 26.0539 184.723 27.6064L188.565 24.6269Z" fill="#FBBC05"/>
<path fill-rule="evenodd" clip-rule="evenodd" d="M194.999 15.5153C196.688 15.5153 198.204 16.0955 199.396 17.235L202.694 13.9366C200.702 12.081 198.099 10.9414 194.999 10.9414C190.504 10.9414 186.615 13.5185 184.723 17.2769L188.565 20.2564C189.469 17.5382 192.004 15.5153 194.999 15.5153Z" fill="#EA4335"/>
<path d="M226.462 19.3664C225.673 19.2031 224.85 19.1214 223.991 19.1214C223.426 19.1214 222.995 19.1541 222.696 19.2194C222.402 19.2847 222.192 19.3711 222.066 19.4784C221.977 19.5484 221.907 19.6371 221.856 19.7444C221.805 19.8471 221.779 19.9777 221.779 20.1364C221.779 20.3837 221.856 20.6077 222.01 20.8084C222.169 21.0044 222.374 21.1817 222.626 21.3404C222.883 21.4944 223.223 21.6717 223.648 21.8724C223.718 21.9004 223.783 21.9307 223.844 21.9634C223.905 21.9867 223.965 22.0147 224.026 22.0474C224.647 22.3321 225.13 22.5817 225.475 22.7964C225.825 23.0064 226.117 23.2864 226.35 23.6364C226.588 23.9817 226.719 24.4181 226.742 24.9454C226.742 25.5801 226.572 26.1331 226.231 26.6044C225.895 27.0757 225.412 27.4397 224.782 27.6964C224.152 27.9531 223.412 28.0814 222.563 28.0814C222.101 28.0814 221.655 28.0394 221.226 27.9554C220.797 27.8761 220.386 27.7734 219.994 27.6474L219.938 26.0444C220.419 26.2077 220.941 26.3337 221.506 26.4224C222.075 26.5064 222.633 26.5484 223.179 26.5484C223.58 26.5484 223.902 26.5204 224.145 26.4644C224.388 26.4084 224.574 26.3244 224.705 26.2124C224.794 26.1377 224.864 26.0397 224.915 25.9184C224.971 25.7971 224.999 25.6524 224.999 25.4844C224.999 25.2231 224.938 25.0061 224.817 24.8334C224.7 24.6561 224.509 24.4857 224.243 24.3224C223.982 24.1591 223.571 23.9421 223.011 23.6714L222.661 23.5034C222.082 23.2234 221.613 22.9551 221.254 22.6984C220.895 22.4371 220.617 22.1337 220.421 21.7884C220.225 21.4431 220.127 21.0277 220.127 20.5424C220.127 19.8284 220.33 19.2474 220.736 18.7994C221.147 18.3514 221.679 18.0294 222.332 17.8334C222.985 17.6374 223.702 17.5394 224.481 17.5394C224.798 17.5394 225.113 17.5581 225.426 17.5954C225.739 17.6281 226.056 17.6794 226.378 17.7494L226.462 19.3664ZM232.974 20.5704V27.9414H231.147V21.6904L231.462 22.0054H228.718L228.858 20.5704H232.974ZM228.669 26.4994H235.452L235.312 27.9414H228.809L228.669 26.4994ZM231.756 19.1354C231.518 19.1354 231.308 19.0911 231.126 19.0024C230.944 18.9091 230.801 18.7784 230.699 18.6104C230.596 18.4377 230.545 18.2394 230.545 18.0154C230.545 17.6747 230.654 17.4064 230.874 17.2104C231.098 17.0097 231.392 16.9094 231.756 16.9094C232.12 16.9094 232.411 17.0097 232.631 17.2104C232.855 17.4064 232.967 17.6747 232.967 18.0154C232.967 18.3561 232.855 18.6291 232.631 18.8344C232.411 19.0351 232.12 19.1354 231.756 19.1354ZM240.094 25.3024C239.511 25.3024 238.991 25.1997 238.533 24.9944C238.076 24.7844 237.719 24.4997 237.462 24.1404C237.206 23.7811 237.077 23.3844 237.077 22.9504C237.077 22.4464 237.231 22.0007 237.539 21.6134C237.847 21.2214 238.26 20.9204 238.778 20.7104C239.296 20.4957 239.866 20.3884 240.486 20.3884C240.962 20.3884 241.396 20.4537 241.788 20.5844C242.18 20.7151 242.516 20.9017 242.796 21.1444L242.859 21.4804C242.878 21.4897 242.894 21.5014 242.908 21.5154C243.104 21.6787 243.261 21.8701 243.377 22.0894C243.499 22.3087 243.559 22.5654 243.559 22.8594C243.559 23.3447 243.401 23.7741 243.083 24.1474C242.771 24.5161 242.351 24.8007 241.823 25.0014C241.296 25.2021 240.72 25.3024 240.094 25.3024ZM242.355 20.9764C242.654 20.8177 242.985 20.6731 243.349 20.5424C243.718 20.4071 244.077 20.3301 244.427 20.3114L244.672 21.4874L242.719 21.6134L242.355 20.9764ZM239.982 24.9524L239.744 25.7364C239.712 25.8671 239.705 25.9697 239.723 26.0444C239.742 26.1144 239.777 26.1657 239.828 26.1984C239.884 26.2311 239.964 26.2591 240.066 26.2824L240.115 26.2894L242.649 26.7444L242.705 26.7514C243.06 26.8167 243.366 26.8984 243.622 26.9964C243.879 27.0944 244.098 27.2577 244.28 27.4864C244.467 27.7104 244.56 28.0114 244.56 28.3894C244.56 28.9447 244.355 29.4184 243.944 29.8104C243.534 30.2024 242.983 30.4987 242.292 30.6994C241.606 30.9001 240.853 31.0004 240.031 31.0004C239.406 31.0004 238.839 30.9374 238.33 30.8114C237.826 30.6901 237.425 30.5011 237.126 30.2444C236.832 29.9924 236.685 29.6751 236.685 29.2924C236.685 29.0171 236.769 28.7604 236.937 28.5224C237.105 28.2844 237.376 28.0511 237.749 27.8224L238.981 27.0664L239.681 27.5494C239.597 27.5961 239.499 27.6521 239.387 27.7174C239.196 27.8341 239.033 27.9484 238.897 28.0604C238.767 28.1724 238.657 28.3007 238.568 28.4454C238.484 28.5947 238.442 28.7557 238.442 28.9284C238.442 29.1431 238.524 29.3181 238.687 29.4534C238.855 29.5934 239.082 29.6914 239.366 29.7474C239.651 29.8081 239.987 29.8384 240.374 29.8384C240.864 29.8384 241.301 29.7964 241.683 29.7124C242.066 29.6284 242.365 29.5094 242.579 29.3554C242.799 29.2061 242.908 29.0334 242.908 28.8374C242.908 28.6601 242.82 28.5224 242.642 28.4244C242.465 28.3264 242.171 28.2377 241.76 28.1584L239.835 27.8014C239.532 27.7407 239.268 27.6591 239.044 27.5564C238.82 27.4491 238.648 27.3254 238.526 27.1854C238.405 27.0407 238.344 26.8844 238.344 26.7164C238.344 26.5857 238.368 26.4481 238.414 26.3034C238.461 26.1541 238.526 25.9884 238.61 25.8064C238.662 25.7037 238.697 25.6267 238.715 25.5754L239.037 24.8054L239.982 24.9524ZM241.872 23.0484C241.872 22.5864 241.737 22.2294 241.466 21.9774C241.2 21.7207 240.748 21.5924 240.108 21.5924C239.828 21.5924 239.604 21.6134 239.436 21.6554C239.273 21.6974 239.147 21.7534 239.058 21.8234C238.974 21.8934 238.909 21.9961 238.862 22.1314C238.82 22.2621 238.799 22.4487 238.799 22.6914C238.799 23.1534 238.932 23.5127 239.198 23.7694C239.469 24.0214 239.924 24.1474 240.563 24.1474C240.843 24.1474 241.065 24.1264 241.228 24.0844C241.396 24.0424 241.525 23.9864 241.613 23.9164C241.697 23.8464 241.76 23.7461 241.802 23.6154C241.849 23.4801 241.872 23.2911 241.872 23.0484ZM247.929 27.9414H246.109V20.5634H247.831V21.9144L247.929 22.0124V27.9414ZM250.82 27.9414V22.8664C250.82 22.6097 250.776 22.4067 250.687 22.2574C250.603 22.1034 250.482 21.9937 250.323 21.9284C250.164 21.8584 249.968 21.8234 249.735 21.8234C249.334 21.8234 248.944 21.9121 248.566 22.0894C248.188 22.2621 247.833 22.4977 247.502 22.7964L247.642 21.5714H247.922C248.225 21.2121 248.61 20.9297 249.077 20.7244C249.544 20.5144 250.038 20.4094 250.561 20.4094C251.219 20.4094 251.728 20.5821 252.087 20.9274C252.446 21.2727 252.628 21.7511 252.633 22.3624L252.661 27.9414H250.82ZM268.204 20.5704H270.024V27.9484H268.302V26.5904L268.204 26.4924V20.5704ZM265.313 20.5704V25.6454C265.313 25.8974 265.355 26.1004 265.439 26.2544C265.528 26.4084 265.652 26.5204 265.81 26.5904C265.969 26.6557 266.165 26.6884 266.398 26.6884C266.8 26.6884 267.189 26.5997 267.567 26.4224C267.945 26.2451 268.3 26.0094 268.631 25.7154L268.491 26.9334H268.211C267.908 27.2974 267.523 27.5844 267.056 27.7944C266.59 27.9997 266.095 28.1024 265.572 28.1024C264.914 28.1024 264.406 27.9297 264.046 27.5844C263.687 27.2391 263.505 26.7584 263.5 26.1424L263.472 20.5704H265.313ZM273.827 30.5244H272V20.5634H273.729V21.8794L273.827 21.9774V30.5244ZM279.126 23.8604C279.126 24.7891 278.946 25.5731 278.587 26.2124C278.228 26.8471 277.74 27.3207 277.124 27.6334C276.513 27.9461 275.824 28.1024 275.059 28.1024C274.578 28.1024 274.116 28.0417 273.673 27.9204C273.23 27.7944 272.803 27.6101 272.392 27.3674L273.211 26.1074C273.575 26.3267 273.932 26.4924 274.282 26.6044C274.632 26.7117 274.996 26.7654 275.374 26.7654C275.603 26.7654 275.806 26.7421 275.983 26.6954C276.165 26.6487 276.34 26.5717 276.508 26.4644C276.718 26.3291 276.888 26.0981 277.019 25.7714C277.154 25.4401 277.222 24.9477 277.222 24.2944C277.222 23.5477 277.094 22.9457 276.837 22.4884C276.58 22.0311 276.111 21.8024 275.43 21.8024C275.103 21.8024 274.753 21.8607 274.38 21.9774C274.011 22.0894 273.622 22.2481 273.211 22.4534L273.652 21.3684H273.932C274.254 21.0651 274.604 20.8294 274.982 20.6614C275.365 20.4934 275.792 20.4094 276.263 20.4094C276.86 20.4094 277.374 20.5447 277.803 20.8154C278.232 21.0861 278.559 21.4804 278.783 21.9984C279.012 22.5117 279.126 23.1324 279.126 23.8604ZM294.613 27.9344C294.081 26.6184 293.626 25.2301 293.248 23.7694H293.101C292.91 24.4834 292.695 25.1904 292.457 25.8904C292.219 26.5857 291.955 27.2671 291.666 27.9344H290.602C290.061 26.7257 289.622 25.5147 289.286 24.3014C288.955 23.0881 288.728 21.8444 288.607 20.5704H290.378C290.457 21.3684 290.583 22.1641 290.756 22.9574C290.929 23.7461 291.141 24.5347 291.393 25.3234H291.54C291.778 24.7727 291.983 24.2361 292.156 23.7134C292.329 23.1907 292.506 22.6074 292.688 21.9634L292.737 21.7954H293.801C293.838 21.9214 293.873 22.0474 293.906 22.1734C294.055 22.7661 294.205 23.3097 294.354 23.8044C294.508 24.2991 294.685 24.8054 294.886 25.3234H295.047C295.304 24.5301 295.525 23.7344 295.712 22.9364C295.899 22.1384 296.034 21.3497 296.118 20.5704H297.77C297.658 21.8397 297.432 23.0811 297.091 24.2944C296.75 25.5031 296.305 26.7164 295.754 27.9344H294.613ZM303.106 20.5704V27.9414H301.286V21.7464L301.601 21.9774H299.48L299.564 20.5704H303.106ZM299.494 26.4994H304.989L304.905 27.9414H299.578L299.494 26.4994ZM301.881 19.1914C301.643 19.1914 301.433 19.1471 301.251 19.0584C301.069 18.9651 300.926 18.8344 300.824 18.6664C300.726 18.4937 300.677 18.2954 300.677 18.0714C300.677 17.7307 300.786 17.4624 301.006 17.2664C301.23 17.0657 301.521 16.9654 301.881 16.9654C302.245 16.9654 302.536 17.0657 302.756 17.2664C302.98 17.4624 303.092 17.7307 303.092 18.0714C303.092 18.4121 302.98 18.6851 302.756 18.8904C302.536 19.0911 302.245 19.1914 301.881 19.1914ZM310.219 20.9274V25.6314C310.219 25.8601 310.254 26.0444 310.324 26.1844C310.399 26.3244 310.532 26.4317 310.723 26.5064C310.915 26.5764 311.183 26.6114 311.528 26.6114C311.799 26.6114 312.091 26.5904 312.403 26.5484C312.721 26.5017 313.024 26.4457 313.313 26.3804L313.18 27.7454C312.849 27.8574 312.501 27.9437 312.137 28.0044C311.773 28.0697 311.377 28.1024 310.947 28.1024C310.359 28.1024 309.879 28.0347 309.505 27.8994C309.137 27.7641 308.859 27.5447 308.672 27.2414C308.49 26.9381 308.399 26.5321 308.399 26.0234V20.9274H310.219ZM313.439 20.5704L313.166 21.9704H306.446V21.1304L309.582 18.8414H310.163V21.1864L309.659 20.5704H313.439ZM317.382 27.9414H315.562V17.2314H317.382V21.9144V22.0124V27.9414ZM320.273 27.9414V22.8664C320.273 22.6097 320.229 22.4067 320.14 22.2574C320.056 22.1034 319.935 21.9937 319.776 21.9284C319.617 21.8584 319.421 21.8234 319.188 21.8234C318.787 21.8234 318.397 21.9121 318.019 22.0894C317.641 22.2621 317.286 22.4977 316.955 22.7964L317.179 21.5714H317.459C317.767 21.2074 318.14 20.9227 318.579 20.7174C319.022 20.5121 319.501 20.4094 320.014 20.4094C320.672 20.4094 321.181 20.5821 321.54 20.9274C321.899 21.2727 322.081 21.7511 322.086 22.3624L322.114 27.9414H320.273ZM339.617 19.3874C339.272 19.3314 338.929 19.2871 338.588 19.2544C338.252 19.2171 337.891 19.1984 337.503 19.1984C337.083 19.1984 336.736 19.2171 336.46 19.2544C336.185 19.2917 335.956 19.3454 335.774 19.4154C335.597 19.4854 335.441 19.5787 335.305 19.6954C335.067 19.8914 334.878 20.2111 334.738 20.6544C334.598 21.0931 334.528 21.7114 334.528 22.5094C334.528 23.5547 334.643 24.3854 334.871 25.0014C335.1 25.6127 335.415 26.0444 335.816 26.2964C336.218 26.5484 336.696 26.6744 337.251 26.6744C337.615 26.6744 337.996 26.6301 338.392 26.5414L338.126 27.0384V23.4054L338.476 23.8114H336.46L336.635 22.3834H339.68L339.687 27.7874C339.3 27.8807 338.915 27.9577 338.532 28.0184C338.15 28.0791 337.741 28.1094 337.307 28.1094C336.332 28.1094 335.504 27.9367 334.822 27.5914C334.141 27.2461 333.614 26.6931 333.24 25.9324C332.867 25.1671 332.68 24.1684 332.68 22.9364C332.68 21.7651 332.86 20.7827 333.219 19.9894C333.583 19.1961 334.155 18.5941 334.934 18.1834C335.714 17.7681 336.731 17.5604 337.986 17.5604C338.285 17.5604 338.563 17.5744 338.819 17.6024C339.081 17.6257 339.328 17.6607 339.561 17.7074L339.617 19.3874ZM344.813 28.1094C344.127 28.1094 343.513 27.9624 342.972 27.6684C342.435 27.3744 342.013 26.9404 341.705 26.3664C341.402 25.7924 341.25 25.0994 341.25 24.2874C341.25 23.3961 341.43 22.6587 341.789 22.0754C342.148 21.4921 342.61 21.0674 343.175 20.8014C343.744 20.5354 344.351 20.4024 344.995 20.4024C345.667 20.4024 346.267 20.5494 346.794 20.8434C347.321 21.1327 347.734 21.5667 348.033 22.1454C348.332 22.7194 348.481 23.4124 348.481 24.2244C348.481 25.1204 348.306 25.8601 347.956 26.4434C347.606 27.0221 347.153 27.4444 346.598 27.7104C346.047 27.9764 345.452 28.1094 344.813 28.1094ZM344.967 26.7864C345.233 26.7864 345.459 26.7631 345.646 26.7164C345.833 26.6697 345.991 26.5997 346.122 26.5064C346.285 26.3944 346.423 26.1821 346.535 25.8694C346.647 25.5521 346.703 25.1367 346.703 24.6234C346.703 24.0261 346.656 23.5197 346.563 23.1044C346.474 22.6891 346.288 22.3531 346.003 22.0964C345.718 21.8397 345.305 21.7114 344.764 21.7114C344.503 21.7114 344.279 21.7347 344.092 21.7814C343.905 21.8234 343.742 21.8887 343.602 21.9774C343.499 22.0474 343.406 22.1617 343.322 22.3204C343.238 22.4744 343.168 22.6821 343.112 22.9434C343.056 23.2001 343.028 23.5057 343.028 23.8604C343.028 24.4671 343.072 24.9781 343.161 25.3934C343.254 25.8041 343.443 26.1401 343.728 26.4014C344.013 26.6581 344.426 26.7864 344.967 26.7864ZM353.495 28.1094C352.809 28.1094 352.195 27.9624 351.654 27.6684C351.117 27.3744 350.695 26.9404 350.387 26.3664C350.083 25.7924 349.932 25.0994 349.932 24.2874C349.932 23.3961 350.111 22.6587 350.471 22.0754C350.83 21.4921 351.292 21.0674 351.857 20.8014C352.426 20.5354 353.033 20.4024 353.677 20.4024C354.349 20.4024 354.948 20.5494 355.476 20.8434C356.003 21.1327 356.416 21.5667 356.715 22.1454C357.013 22.7194 357.163 23.4124 357.163 24.2244C357.163 25.1204 356.988 25.8601 356.638 26.4434C356.288 27.0221 355.835 27.4444 355.28 27.7104C354.729 27.9764 354.134 28.1094 353.495 28.1094ZM353.649 26.7864C353.915 26.7864 354.141 26.7631 354.328 26.7164C354.514 26.6697 354.673 26.5997 354.804 26.5064C354.967 26.3944 355.105 26.1821 355.217 25.8694C355.329 25.5521 355.385 25.1367 355.385 24.6234C355.385 24.0261 355.338 23.5197 355.245 23.1044C355.156 22.6891 354.969 22.3531 354.685 22.0964C354.4 21.8397 353.987 21.7114 353.446 21.7114C353.184 21.7114 352.96 21.7347 352.774 21.7814C352.587 21.8234 352.424 21.8887 352.284 21.9774C352.181 22.0474 352.088 22.1617 352.004 22.3204C351.92 22.4744 351.85 22.6821 351.794 22.9434C351.738 23.2001 351.71 23.5057 351.71 23.8604C351.71 24.4671 351.754 24.9781 351.843 25.3934C351.936 25.8041 352.125 26.1401 352.41 26.4014C352.694 26.6581 353.107 26.7864 353.649 26.7864ZM361.637 25.3024C361.054 25.3024 360.534 25.1997 360.076 24.9944C359.619 24.7844 359.262 24.4997 359.005 24.1404C358.749 23.7811 358.62 23.3844 358.62 22.9504C358.62 22.4464 358.774 22.0007 359.082 21.6134C359.39 21.2214 359.803 20.9204 360.321 20.7104C360.839 20.4957 361.409 20.3884 362.029 20.3884C362.505 20.3884 362.939 20.4537 363.331 20.5844C363.723 20.7151 364.059 20.9017 364.339 21.1444L364.402 21.4804C364.421 21.4897 364.437 21.5014 364.451 21.5154C364.647 21.6787 364.804 21.8701 364.92 22.0894C365.042 22.3087 365.102 22.5654 365.102 22.8594C365.102 23.3447 364.944 23.7741 364.626 24.1474C364.314 24.5161 363.894 24.8007 363.366 25.0014C362.839 25.2021 362.263 25.3024 361.637 25.3024ZM363.898 20.9764C364.197 20.8177 364.528 20.6731 364.892 20.5424C365.261 20.4071 365.62 20.3301 365.97 20.3114L366.215 21.4874L364.262 21.6134L363.898 20.9764ZM361.525 24.9524L361.287 25.7364C361.255 25.8671 361.248 25.9697 361.266 26.0444C361.285 26.1144 361.32 26.1657 361.371 26.1984C361.427 26.2311 361.507 26.2591 361.609 26.2824L361.658 26.2894L364.192 26.7444L364.248 26.7514C364.603 26.8167 364.909 26.8984 365.165 26.9964C365.422 27.0944 365.641 27.2577 365.823 27.4864C366.01 27.7104 366.103 28.0114 366.103 28.3894C366.103 28.9447 365.898 29.4184 365.487 29.8104C365.077 30.2024 364.526 30.4987 363.835 30.6994C363.149 30.9001 362.396 31.0004 361.574 31.0004C360.949 31.0004 360.382 30.9374 359.873 30.8114C359.369 30.6901 358.968 30.5011 358.669 30.2444C358.375 29.9924 358.228 29.6751 358.228 29.2924C358.228 29.0171 358.312 28.7604 358.48 28.5224C358.648 28.2844 358.919 28.0511 359.292 27.8224L360.524 27.0664L361.224 27.5494C361.14 27.5961 361.042 27.6521 360.93 27.7174C360.739 27.8341 360.576 27.9484 360.44 28.0604C360.31 28.1724 360.2 28.3007 360.111 28.4454C360.027 28.5947 359.985 28.7557 359.985 28.9284C359.985 29.1431 360.067 29.3181 360.23 29.4534C360.398 29.5934 360.625 29.6914 360.909 29.7474C361.194 29.8081 361.53 29.8384 361.917 29.8384C362.407 29.8384 362.844 29.7964 363.226 29.7124C363.609 29.6284 363.908 29.5094 364.122 29.3554C364.342 29.2061 364.451 29.0334 364.451 28.8374C364.451 28.6601 364.363 28.5224 364.185 28.4244C364.008 28.3264 363.714 28.2377 363.303 28.1584L361.378 27.8014C361.075 27.7407 360.811 27.6591 360.587 27.5564C360.363 27.4491 360.191 27.3254 360.069 27.1854C359.948 27.0407 359.887 26.8844 359.887 26.7164C359.887 26.5857 359.911 26.4481 359.957 26.3034C360.004 26.1541 360.069 25.9884 360.153 25.8064C360.205 25.7037 360.24 25.6267 360.258 25.5754L360.58 24.8054L361.525 24.9524ZM363.415 23.0484C363.415 22.5864 363.28 22.2294 363.009 21.9774C362.743 21.7207 362.291 21.5924 361.651 21.5924C361.371 21.5924 361.147 21.6134 360.979 21.6554C360.816 21.6974 360.69 21.7534 360.601 21.8234C360.517 21.8934 360.452 21.9961 360.405 22.1314C360.363 22.2621 360.342 22.4487 360.342 22.6914C360.342 23.1534 360.475 23.5127 360.741 23.7694C361.012 24.0214 361.467 24.1474 362.106 24.1474C362.386 24.1474 362.608 24.1264 362.771 24.0844C362.939 24.0424 363.068 23.9864 363.156 23.9164C363.24 23.8464 363.303 23.7461 363.345 23.6154C363.392 23.4801 363.415 23.2911 363.415 23.0484ZM370.004 27.9414V18.3584L370.319 18.6734H367.624L367.764 17.2314H371.831V27.9414H370.004ZM367.575 26.4994H374.267L374.127 27.9414H367.715L367.575 26.4994ZM378.623 22.0124C378.441 22.1524 378.284 22.3624 378.154 22.6424C378.028 22.9177 377.965 23.2911 377.965 23.7624C377.965 24.3971 378.032 24.9221 378.168 25.3374C378.308 25.7527 378.571 26.0817 378.959 26.3244C379.346 26.5624 379.901 26.6814 380.625 26.6814C381.003 26.6814 381.369 26.6511 381.724 26.5904C382.083 26.5251 382.414 26.4434 382.718 26.3454L382.676 27.6754C382.321 27.8014 381.929 27.9041 381.5 27.9834C381.07 28.0674 380.608 28.1094 380.114 28.1094C379.26 28.1094 378.541 27.9717 377.958 27.6964C377.374 27.4211 376.933 27.0127 376.635 26.4714C376.336 25.9301 376.187 25.2604 376.187 24.4624C376.187 23.5477 376.371 22.7871 376.74 22.1804C377.113 21.5691 377.598 21.1211 378.196 20.8364C378.793 20.5471 379.439 20.4024 380.135 20.4024C380.797 20.4024 381.343 20.5307 381.773 20.7874C382.207 21.0394 382.524 21.3987 382.725 21.8654C382.925 22.3274 383.026 22.8734 383.026 23.5034V24.4344H377.678V23.4194H381.675L381.241 24.0074C381.278 23.8907 381.306 23.7717 381.325 23.6504C381.343 23.5291 381.353 23.3937 381.353 23.2444C381.353 22.8897 381.292 22.5981 381.171 22.3694C381.054 22.1407 380.877 21.9704 380.639 21.8584C380.405 21.7464 380.111 21.6904 379.757 21.6904C379.491 21.6904 379.264 21.7207 379.078 21.7814C378.896 21.8374 378.744 21.9144 378.623 22.0124Z" fill="#343434"/>
</svg>
