<svg width="229" height="197" viewBox="0 0 229 197" fill="none" xmlns="http://www.w3.org/2000/svg">
<mask id="mask0_7396_40457" style="mask-type:luminance" maskUnits="userSpaceOnUse" x="1" y="9" width="211" height="186">
<path d="M211.937 9.61523H1.38379V194.395H211.937V9.61523Z" fill="white"/>
</mask>
<g mask="url(#mask0_7396_40457)">
<path d="M10.5494 159.66C2.67664 151.75 1.1021 132.763 10.5494 107.449C19.9968 82.1359 42.4363 70.8902 71.9575 63.1529C108.172 53.6613 149.38 70.832 153.834 72.6454C162.493 76.1706 175.877 89.0991 180.602 94.7945L186.331 100.552C188.895 103.109 191.397 105.603 191.623 105.87C199.973 115.67 213.714 127.829 208.944 147.004C202.645 172.317 163.282 189.72 111.321 192.884C59.361 196.048 18.4222 167.571 10.5494 159.66Z" fill="#EDEBF3"/>
<path d="M180.602 94.7945C181.02 95.299 191.155 105.32 191.623 105.87M180.602 94.7945L191.623 105.87M180.602 94.7945C175.877 89.0991 162.493 76.1706 153.834 72.6454C149.38 70.832 108.172 53.6613 71.9575 63.1529C42.4363 70.8902 19.9968 82.1359 10.5494 107.449C1.1021 132.763 2.67664 151.75 10.5494 159.66C18.4222 167.571 59.361 196.048 111.321 192.884C163.282 189.72 202.645 172.317 208.944 147.004C213.714 127.829 199.973 115.67 191.623 105.87" stroke="#595561" stroke-width="1.5"/>
<path d="M45.4453 144.567C49.2356 144.567 54.7471 143.532 58.1648 145.147C60.0606 146.044 62.5704 146.42 64.2033 147.761C65.6082 148.917 67.4108 150.687 68.8928 151.537C73.7299 154.314 74.9313 159.1 74.9313 164.318" stroke="#C1B9CF" stroke-linecap="round"/>
<path d="M157.075 128.232C160.404 124.887 164.243 124.747 168.863 124.747C172.502 124.747 175.886 124.322 179.046 125.909" stroke="#C1B9CF" stroke-linecap="round"/>
<path d="M139.76 38.7738L138.192 62.115L133.582 53.1051L126.784 44.615L139.308 38.4681C139.526 38.3613 139.776 38.531 139.76 38.7738Z" fill="#E0D5D1" stroke="#25222C" stroke-width="1.5"/>
<path d="M70.8324 40.3613L72.9504 63.7037L76.9359 54.6873L83.7171 46.5218L71.291 40.0517C71.0701 39.9366 70.8099 40.1124 70.8324 40.3613Z" fill="#E0D5D1" stroke="#25222C" stroke-width="1.5"/>
<path d="M127.312 153.332C121.013 154.597 96.3453 153.859 84.7987 153.332C74.7268 152.872 69.1329 146.413 67.4785 142.257C64.3288 134.347 65.904 126.435 67.4786 115.361C69.0531 104.286 69.5789 75.8099 73.7767 63.1517C78.9454 47.5669 88.7822 39.4219 106.842 39.4219C125.737 39.4219 134.96 50.494 139.908 67.8995C141.692 74.1717 147.781 124.855 147.781 129.601C147.781 134.347 146.206 142.257 143.057 145.422C139.908 148.586 135.184 151.75 127.312 153.332Z" fill="#E0D5D1" stroke="#25222C" stroke-width="1.5"/>
<path d="M107.994 91.2934V85.9375" stroke="#25222C" stroke-width="0.6"/>
<path d="M113.283 65.3848C113.283 65.8989 113.283 66.4133 113.283 66.9274C113.283 67.862 113.513 68.5027 114.078 69.2684C114.988 70.503 116.556 71.0028 118.036 71.0028C119.219 71.0028 120.135 70.5665 120.792 69.5582C121.162 68.9903 121.387 68.3663 121.71 67.7881C121.782 67.6607 121.906 67.4437 121.91 67.2931C121.917 67.029 122.071 66.0677 121.83 65.9465" stroke="#25222C" stroke-width="0.6" stroke-linecap="round"/>
<path d="M90.8535 66.1068C90.9341 66.6146 91.0145 67.1225 91.0951 67.6303C91.2414 68.5532 91.5687 69.1496 92.2461 69.8165C93.3382 70.8918 94.9649 71.1377 96.4267 70.9037C97.5948 70.7167 98.4311 70.1411 98.9219 69.0414C99.1984 68.422 99.3228 67.7702 99.552 67.1481C99.6024 67.0109 99.6913 66.777 99.6717 66.6277C99.6371 66.3659 99.6392 65.3921 99.3819 65.3105" stroke="#25222C" stroke-width="0.6" stroke-linecap="round"/>
<path d="M149.112 90.0484C149.112 101.123 150.686 102.708 145.963 110.616L148.318 129.251C153.041 124.504 156.984 102.708 158.559 90.0484C158.95 86.9059 158.559 78.9816 168.007 78.9765C174.305 78.9732 177.453 83.7195 179.028 86.887C180.6 90.0491 182.177 94.7941 179.028 97.9615C176.54 100.464 171.513 93.8319 166.432 96.3795C163.282 97.9582 161.873 101.46 163.282 104.29C164.856 107.451 174.305 113.782 182.177 107.454C190.05 101.126 190.05 96.3795 190.05 93.2153C190.05 85.1449 185.326 75.8096 179.028 71.0633C172.73 66.3171 162.958 68.0595 156.984 71.0622C153.835 72.6453 149.112 78.0677 149.112 90.0484Z" fill="#E0D5D1" stroke="#25222C" stroke-width="1.5"/>
<path d="M101.332 89.2852C101.332 94.1055 105.774 92.6326 107.995 91.2935C109.994 92.6326 113.992 94.1055 113.992 89.2852" stroke="#25222C" stroke-width="0.6"/>
<path d="M89.8107 106.904C95.3184 106.087 89.2067 94.5344 79.3379 89.3535L73.7021 98.9105C77.2359 101.847 85.4048 107.557 89.8107 106.904Z" fill="#E0D5D1"/>
<path d="M79.3389 96.9902C89.2076 102.171 95.3193 113.724 89.8117 114.541C85.4056 115.194 77.2367 109.484 73.7031 106.547" stroke="#25222C" stroke-linecap="round"/>
<path d="M123.448 106.686C117.953 105.786 124.236 94.3266 134.181 89.2949L139.673 98.9358C136.096 101.819 127.844 107.405 123.448 106.686Z" fill="#E0D5D1"/>
<path d="M134.181 94.3848C124.236 99.4165 117.953 110.876 123.448 111.775C127.844 112.495 136.096 106.909 139.673 104.026" stroke="#25222C" stroke-linecap="round"/>
<path d="M96.4812 162.433C105.091 163.943 98.5698 150.864 84.7603 142.074L73.8271 148.512C78.5086 152.648 89.5935 161.224 96.4812 162.433Z" fill="#E0D5D1"/>
<path d="M84.7576 142.043C98.5671 150.831 104.288 164.252 95.678 162.741C88.7902 161.534 77.4737 152.871 72.9502 148.976" stroke="#25222C" stroke-linecap="round"/>
<path d="M122.348 162.658C114.119 165.617 118.332 151.613 130.453 140.594L142.316 145.069C138.403 149.944 128.931 160.289 122.348 162.658Z" fill="#E0D5D1"/>
<path d="M130.449 140.562C118.328 151.583 114.67 165.785 122.899 162.825C129.482 160.458 139.059 149.362 142.858 144.75" stroke="#25222C" stroke-linecap="round"/>
<path d="M75.6911 129.889H127.59C128.132 129.889 128.648 130.122 129.009 130.528L140.288 143.255C141.379 144.486 140.51 146.434 138.87 146.434H83.834C83.1875 146.434 82.5854 146.103 82.2358 145.557L74.093 132.83C73.28 131.56 74.188 129.889 75.6911 129.889Z" fill="#A2A9B8" stroke="#444749"/>
<path d="M140.717 106.979H84.984C83.9346 106.979 83.084 107.833 83.084 108.888V144.524C83.084 145.578 83.9346 146.433 84.984 146.433H140.717C141.767 146.433 142.617 145.578 142.617 144.524V108.888C142.617 107.833 141.767 106.979 140.717 106.979Z" fill="#A2A9B8"/>
<path d="M140.717 106.979H84.984C83.9346 106.979 83.084 107.833 83.084 108.888V144.524C83.084 145.578 83.9346 146.433 84.984 146.433H140.717C141.767 146.433 142.617 145.578 142.617 144.524V108.888C142.617 107.833 141.767 106.979 140.717 106.979Z" stroke="#444749"/>
<path d="M116.276 128.165C115.898 127.633 115.573 127.042 115.328 126.438L114.998 125.629C114.785 125.101 114.317 124.734 113.774 124.635C113.765 123.736 114.62 123.302 114.958 123.123C115.128 123.033 115.203 122.832 115.119 122.662C115.034 122.488 114.834 122.425 114.66 122.501C114.393 122.622 114.023 122.841 113.72 123.195C113.689 122.725 113.453 122.018 112.264 122.067C112.264 122.067 111.792 123.347 113.48 123.584C113.48 123.584 113.244 124.018 113.262 124.626C112.687 124.707 112.193 125.083 111.975 125.624L111.645 126.434C111.396 127.047 111.08 127.624 110.697 128.161C110.394 128.59 110.251 129.217 110.416 130.04C110.688 131.441 111.703 132.622 112.749 132.622C113.066 132.622 113.302 132.519 113.484 132.331C113.662 132.514 113.903 132.622 114.215 132.622C115.266 132.622 116.276 131.441 116.553 130.045C116.717 129.222 116.579 128.595 116.276 128.165Z" fill="white"/>
<path d="M115.384 129.405C115.384 127.979 116.087 127.979 116.65 127.979V130.476C116.369 130.594 115.384 130.581 115.384 129.405Z" fill="#A2A9B8"/>
<path d="M106.058 85.0227C106.619 85.3479 107.173 85.8249 107.838 85.8249C107.928 86.0045 108.201 85.78 108.283 85.6971C108.494 85.4849 108.741 85.3006 108.951 85.09C109.193 84.8474 109.375 84.5361 109.619 84.2914C109.876 84.033 110.218 83.7787 110.513 83.5565C111.653 82.6975 111.712 79.627 109.877 79.627C108.923 79.627 108.115 79.8562 107.457 80.5569C107.396 80.6216 107.277 80.7534 107.266 80.841C107.256 80.916 107.227 81.1276 107.199 81.0575C107.045 80.6722 106.641 80.2605 106.298 80.0387C105.878 79.7676 105.067 80.0345 104.711 80.2801C103.891 80.8467 103.176 81.9899 103.765 82.914C103.909 83.1407 104.048 83.3636 104.213 83.5743C104.672 84.1572 105.426 84.6568 106.058 85.0227Z" stroke="#25222C" stroke-width="1.24307" stroke-linecap="round"/>
<path d="M106.413 81.4675C106.226 81.4675 106.039 81.4675 105.853 81.4675C105.683 81.4675 105.644 81.6677 105.585 81.7962C105.551 81.8679 105.567 81.9627 105.567 82.0395C105.567 82.2778 105.572 82.5256 105.644 82.7549C105.718 82.9927 105.816 83.218 105.922 83.4423C105.943 83.4858 105.973 83.6328 106.037 83.6399C106.25 83.6637 105.833 83.1437 105.8 83.1047C105.652 82.9273 105.479 82.7194 105.285 82.5904C105.193 82.5291 105.08 82.5008 104.989 82.44C104.646 82.2104 105.003 81.6928 105.175 81.4815C105.266 81.3709 105.302 81.1892 105.417 81.0966C105.454 81.0675 105.671 81.7686 105.693 81.8382C105.904 82.5356 106.339 83.2783 106.949 83.7029C107.137 83.8332 107.352 84.0257 107.566 84.1052C107.795 84.1905 107.381 83.937 107.329 83.8989C107.133 83.7554 106.915 83.6039 106.741 83.4336C106.701 83.3953 106.614 83.2656 106.556 83.2656C106.509 83.2656 106.606 83.5078 106.615 83.528C106.701 83.7113 106.787 83.8942 106.887 84.0702C106.957 84.1942 106.997 84.3489 107.099 84.4517C107.196 84.5494 107.327 84.7341 107.447 84.798C107.508 84.8302 107.461 84.5212 107.46 84.5111C107.412 84.1485 107.311 83.7947 107.23 83.4388C107.155 83.1116 107.134 82.761 107.04 82.44C106.968 82.1949 107.332 82.7279 107.367 82.7863C107.394 82.8306 107.574 83.2272 107.649 83.2272C107.757 83.2272 107.698 82.2865 107.698 82.1917C107.698 82.0332 107.67 81.8474 107.722 81.6948C107.757 81.5963 107.769 81.8984 107.795 81.9992C107.894 82.3668 108.008 82.7309 108.137 83.0872C108.225 83.3301 108.228 82.6973 108.231 82.6674C108.281 82.1087 108.387 81.5246 108.387 80.9636C108.387 80.8544 108.373 80.7559 108.358 80.6488C108.331 80.4599 108.273 80.7807 108.262 80.836C108.108 81.6118 108.293 82.4498 108.293 83.2376C108.293 83.2786 108.269 83.4477 108.325 83.451C108.407 83.4559 108.45 83.3887 108.481 83.3252" stroke="#25222C" stroke-width="1.24307" stroke-linecap="round"/>
<path d="M109.391 80.7477C109.54 80.7477 109.87 80.6759 110.001 80.7511C110.046 80.7774 110.105 80.9969 110.11 81.0486C110.127 81.2022 110.112 81.3643 110.112 81.5191C110.112 81.8541 109.873 82.2765 109.659 82.5249C109.534 82.6709 109.414 82.8225 109.283 82.9639C109.224 83.0287 109.114 83.1089 109.078 83.1913C109.009 83.3475 108.954 83.4997 108.869 83.6514C108.811 83.7546 108.699 83.948 108.636 84.0502C108.629 84.062 108.532 84.2371 108.563 84.1132C108.592 83.9971 108.632 83.8833 108.671 83.7703C108.715 83.6401 108.768 83.5226 108.852 83.417C108.919 83.3319 108.926 83.1012 108.953 82.9971C109.027 82.7026 109.078 82.4421 109.078 82.1331C109.078 82.0342 109.132 81.6723 109.047 81.6293" stroke="#25222C" stroke-width="1.24307" stroke-linecap="round"/>
<path d="M28.1797 121.131C32.0708 121.131 35.9617 121.131 39.8528 121.131C43.6057 121.131 47.69 120.44 50.9359 122.656C52.9519 124.032 56.2456 127.94 56.2456 130.659" stroke="#C1B9CF" stroke-linecap="round"/>
<path d="M10.2503 158.525C0.750452 145.16 7.08354 120.979 7.08354 120.979C7.08354 120.979 24.0115 152.958 49.9134 169.156C78.2553 186.88 145.961 173.904 145.961 173.904C166.051 169.156 195.612 154.268 207.851 147.071C201.553 172.384 163.606 189.733 109.051 192.253C62.1839 194.417 16.7213 167.629 10.2503 158.525Z" fill="#C1B9CF"/>
<path d="M131.952 162.62C131.952 158.259 139.01 154.225 142.616 152.776C147.475 150.823 152.33 149.648 157.391 148.548C164.549 146.993 170.067 148.546 172.423 155.648" stroke="#C1B9CF" stroke-linecap="round"/>
<path d="M206.584 9.61523H168.584C165.786 9.61523 163.518 11.8945 163.518 14.7061V52.888C163.518 55.6996 165.786 57.9789 168.584 57.9789H206.584C209.382 57.9789 211.651 55.6996 211.651 52.888V14.7061C211.651 11.8945 209.382 9.61523 206.584 9.61523Z" fill="#343434"/>
<path fill-rule="evenodd" clip-rule="evenodd" d="M197.533 27.4336L201.935 38.2796L201.94 27.4336H204.062V37.2876C204.062 39.2231 202.5 40.7923 200.573 40.7923H199.986L196.246 29.9439L196.243 40.7923H194.007V27.4336H197.533Z" fill="#BCB1FF"/>
<path fill-rule="evenodd" clip-rule="evenodd" d="M186.517 40.7923C189.42 40.7256 191.765 35.7506 191.765 29.6233C191.765 28.8738 191.729 28.1416 191.663 27.4336H181.253C181.187 28.1416 181.151 28.8738 181.151 29.6233C181.151 35.7506 183.495 40.7256 186.399 40.7923H186.517ZM189.643 27.4336H183.387V30.8533V30.9136C183.402 34.4901 184.778 37.3842 186.48 37.4232H186.55C188.252 37.3842 189.628 34.4901 189.643 30.9136V30.8533V27.4336Z" fill="#BCB1FF"/>
<path fill-rule="evenodd" clip-rule="evenodd" d="M173.449 37.1927V31.3252C173.459 31.3251 173.469 31.3251 173.479 31.3251C175.549 31.3251 177.226 32.6387 177.226 34.259C177.226 35.8793 175.549 37.1929 173.479 37.1929C173.469 37.1929 173.459 37.1929 173.449 37.1927ZM171.122 40.792V27.4338C171.146 27.4337 171.17 27.4336 171.193 27.4336C175.905 27.4336 179.724 30.424 179.724 34.1129C179.724 37.8019 175.905 40.7923 171.193 40.7923C171.17 40.7923 171.146 40.7921 171.122 40.792Z" fill="#BCB1FF"/>
</g>
</svg>
