<svg width="248" height="197" viewBox="0 0 248 197" fill="none" xmlns="http://www.w3.org/2000/svg">
<g id="Cat-50tabs" clip-path="url(#clip0_7396_40384)">
<path id="Vector" d="M111.489 170.623H159.15C159.649 170.623 160.123 170.837 160.453 171.21L170.812 182.899C171.814 184.029 171.016 185.818 169.51 185.818H118.967C118.373 185.818 117.82 185.514 117.499 185.013L110.021 173.325C109.275 172.158 110.108 170.623 111.489 170.623Z" fill="#A2A9B8" stroke="#444749" stroke-width="0.918367"/>
<path id="Vector_2" d="M171.208 149.586H120.024C119.061 149.586 118.279 150.371 118.279 151.339V184.066C118.279 185.035 119.061 185.82 120.024 185.82H171.208C172.172 185.82 172.953 185.035 172.953 184.066V151.339C172.953 150.371 172.172 149.586 171.208 149.586Z" fill="#A2A9B8"/>
<path id="Vector_3" d="M171.208 149.586H120.024C119.061 149.586 118.279 150.371 118.279 151.339V184.066C118.279 185.035 119.061 185.82 120.024 185.82H171.208C172.172 185.82 172.953 185.035 172.953 184.066V151.339C172.953 150.371 172.172 149.586 171.208 149.586Z" stroke="#444749" stroke-width="0.918367"/>
<g id="Clip path group">
<mask id="mask0_7396_40384" style="mask-type:luminance" maskUnits="userSpaceOnUse" x="140" y="163" width="12" height="11">
<g id="clip0_3311_106766">
<path id="Vector_4" d="M151.432 163.027H140.963V173.547H151.432V163.027Z" fill="white"/>
</g>
</mask>
<g mask="url(#mask0_7396_40384)">
<g id="Group">
<path id="Vector_5" d="M148.762 169.043C148.415 168.554 148.116 168.011 147.89 167.456L147.588 166.713C147.391 166.228 146.962 165.89 146.463 165.8C146.455 164.974 147.241 164.576 147.551 164.411C147.707 164.329 147.776 164.144 147.699 163.988C147.621 163.829 147.437 163.77 147.277 163.84C147.032 163.951 146.692 164.153 146.415 164.478C146.386 164.046 146.169 163.397 145.077 163.442C145.077 163.442 144.644 164.616 146.193 164.835C146.193 164.835 145.977 165.234 145.993 165.792C145.466 165.866 145.011 166.211 144.811 166.709L144.508 167.452C144.279 168.016 143.989 168.545 143.637 169.038C143.36 169.432 143.229 170.008 143.38 170.765C143.629 172.05 144.562 173.135 145.523 173.135C145.813 173.135 146.03 173.041 146.198 172.869C146.362 173.037 146.582 173.135 146.868 173.135C147.833 173.135 148.762 172.05 149.015 170.769C149.167 170.013 149.041 169.437 148.762 169.043Z" fill="white"/>
<path id="Vector_6" d="M147.943 170.181C147.943 168.871 148.589 168.871 149.106 168.871V171.165C148.848 171.273 147.943 171.261 147.943 170.181Z" fill="#A2A9B8"/>
</g>
</g>
</g>
<path id="Vector_7" d="M109.583 93.8145C106.956 94.2735 103.625 94.8167 101.556 96.7728C100.688 97.593 99.9007 98.5035 99.0136 99.302C96.6129 101.463 94.3881 103.801 91.9675 105.964C89.0914 108.534 86.1426 109.112 82.6246 110.3C81.6277 110.636 79.246 110.808 78.6333 111.925C77.7058 113.616 78.0749 116.242 78.1651 118.068C78.3281 121.369 79.8961 125.678 82.6469 127.688C87.9269 131.544 96.7365 130.545 102.804 130.623C108.205 130.693 114.275 130.708 118.547 134.282C120.821 136.185 123.023 138.84 125.704 140.153C129.161 141.847 133.013 142.782 136.832 143.134C149.502 144.301 160.342 136.569 172.776 135.592C178.04 135.178 183.512 136.208 188.674 134.846C193.233 133.644 197.375 130.93 201.183 128.185C204.213 126.001 206.832 121.977 208.676 118.745C212.64 111.794 207.182 102.796 200.469 99.8214C193.944 96.9305 187.419 94.9103 180.268 94.8533C174.371 94.8064 169.165 96.6588 163.835 99.1439C157.941 101.892 153.397 105.262 146.598 104.835C137.056 104.235 128.006 101.767 118.926 98.9182C116.999 98.3136 109.645 96.2719 111.857 92.9113C112.839 91.4207 114.624 90.6904 116.272 90.7886C117.346 90.8525 120.11 97.5521 120.687 98.602C123.726 104.123 124.693 110.107 125.727 116.239C126.611 121.481 126.719 126.142 130.32 130.398C130.981 131.178 131.947 131.894 132.906 132.249C136.58 133.607 140.818 134.146 144.613 134.846C149.368 135.724 154.265 136.936 159.085 135.726C161.765 135.054 167.766 133.432 169.431 130.826C170.452 129.229 170.098 126.572 170.011 124.797C169.713 118.762 167.469 114.039 163.723 109.487C162.392 107.869 161.632 107.638 159.976 106.799C155.329 104.446 149.659 100.817 149.207 95.0791C148.99 92.3383 151.867 92.7324 154.134 92.4145C159.352 91.6828 164.657 91.4546 169.899 90.9919C174.243 90.6084 178.58 89.9756 182.943 89.9756C187.611 89.9756 192.774 89.3425 197.348 90.4725C198.835 90.8396 200.183 91.3724 201.139 92.6178C202.192 93.9888 203.618 94.6209 204.973 95.7566C206.422 96.9694 207.598 98.4802 209.01 99.7311C210.834 101.347 213.609 102.149 215.721 103.299C219.123 105.151 219.824 106.094 219.824 109.983C219.824 114.502 220.562 119.056 216.814 122.268C214.501 124.25 214.361 124.526 211.151 124.526C209.109 124.526 207.094 124.533 205.063 124.255C202.999 123.973 199.48 123.912 197.75 122.494C197.088 121.952 196.16 121.511 195.342 121.274C190.967 120.009 187.642 120.463 183.301 121.861C177.919 123.596 172.358 124.705 166.844 125.926C154.975 128.556 143.182 130.623 130.989 130.623C119.198 130.623 107.515 128.193 96.2487 124.707C93.8845 123.975 91.6818 123.041 89.2025 122.584C87.3718 122.247 85.3749 122.126 84.9659 120.055" stroke="#A0A0A0" stroke-width="0.918367" stroke-linecap="round"/>
<path id="Vector_8" d="M78.871 98.8694C78.3876 98.7693 78.21 98.1199 78.4857 96.7355L78.871 98.8694C81.0318 99.3165 89.305 88.7822 90.5369 83.8313C92.0442 77.7728 95.3778 60.5157 84.5075 55.0554C69.4336 47.4833 86.7218 40.1422 95.0596 42.9371C99.5806 44.4525 103.747 47.5669 107.119 61.1149C108.626 67.1732 108.626 85.347 102.596 91.4072C97.137 96.8941 85.0098 102.514 79.985 105.039L78.871 98.8694Z" fill="#E0D5D1"/>
<path id="Vector_9" d="M78.4857 96.7355C76.9782 104.309 89.0294 89.8898 90.5368 83.8313C92.0442 77.7728 95.3778 60.5157 84.5075 55.0554C69.4335 47.4833 86.7218 40.1422 95.0596 42.9371C99.5806 44.4525 103.747 47.5669 107.119 61.1149C108.626 67.1732 108.626 85.347 102.596 91.4072C97.1369 96.8941 85.0097 102.514 79.985 105.039L78.4857 96.7355Z" stroke="#25222C" stroke-width="1.37755"/>
<path id="Vector_10" d="M76.7263 30.7807L54.6387 28.3574L62.1297 33.8623L69.6668 42.95L76.9492 31.2423C77.067 31.0529 76.9472 30.8049 76.7263 30.7807Z" fill="#E0D5D1" stroke="#25222C" stroke-width="1.37755"/>
<path id="Vector_11" d="M2.31175 32.2822L24.4496 29.3164L16.9125 35.3748L9.85418 44.7201L2.09892 32.7478C1.97805 32.5611 2.09211 32.3116 2.31175 32.2822Z" fill="#E0D5D1" stroke="#25222C" stroke-width="1.37755"/>
<path id="Vector_12" d="M60.6256 135.324C54.596 136.536 30.9801 135.829 19.9258 135.324C10.2834 134.884 4.92814 128.699 3.34436 124.722C0.328928 117.149 1.837 109.574 3.34441 98.9718C4.85181 88.3695 5.3551 61.1077 9.37401 48.9894C14.3222 34.0691 23.7395 26.2715 41.0292 26.2715C59.1181 26.2715 67.947 36.8714 72.6848 53.5347C74.3921 59.5394 80.2218 108.061 80.2218 112.605C80.2218 117.149 78.7143 124.722 75.6996 127.751C72.6848 130.78 68.1626 133.809 60.6256 135.324Z" fill="#E0D5D1" stroke="#25222C" stroke-width="1.37755"/>
<path id="Vector_13" d="M21.9896 81.3379C32.3488 86.5731 38.8981 98.5036 33.1762 99.4433C28.5987 100.195 20.0009 94.3817 16.2744 91.3809" stroke="#25222C" stroke-width="0.918367" stroke-linecap="round"/>
<path id="Vector_14" d="M50.577 85.3262C40.2177 90.5614 33.6685 102.492 39.3904 103.432C43.9679 104.184 52.5655 98.37 56.2922 95.3691" stroke="#25222C" stroke-width="0.918367" stroke-linecap="round"/>
<path id="Vector_15" d="M37.6885 77.7995C37.6885 74.713 39.7753 73.2725 41.9237 73.2613M41.9237 73.2613C44.2028 73.2495 46.5515 74.8463 46.5515 77.7931M41.9237 73.2613V71.1328" stroke="#25222C" stroke-width="0.55102"/>
<path id="Vector_16" d="M55.2436 134.381C48.8928 133.288 57.2386 122.335 69.3105 117.805L74.9003 127.439C70.465 130.117 60.3242 135.255 55.2436 134.381Z" fill="#E0D5D1"/>
<path id="Vector_17" d="M54.1117 117.805C42.0396 122.335 33.7892 133.557 40.14 134.649C45.2206 135.523 55.9426 130.385 60.3779 127.707" stroke="#25222C" stroke-width="0.918367" stroke-linecap="round"/>
<path id="Vector_18" d="M29.475 137.674C36.4425 136.98 28.655 126.903 16.1406 122.361L9.0498 130.664C13.5356 133.232 23.9009 138.229 29.475 137.674Z" fill="#E0D5D1"/>
<path id="Vector_19" d="M16.6296 122.543C28.8589 127.051 35.8948 137.595 29.0698 138.305C23.6098 138.874 12.8991 133.59 8.68848 131.211" stroke="#25222C" stroke-width="0.918367" stroke-linecap="round"/>
<path id="Vector_20" d="M33.8426 55.1598C33.5377 55.7806 33.9948 56.6332 34.8637 57.064C35.7325 57.4947 36.6841 57.3407 36.989 56.7197C37.294 56.0989 37.0661 54.4749 36.1973 54.0441C35.3284 53.6133 34.1476 54.5389 33.8426 55.1598Z" fill="black"/>
<path id="Vector_21" d="M34.9848 58.0495C33.6502 58.2631 32.1651 58.0387 31.1681 57.0569C30.2532 56.1561 30.0742 55.1695 29.8848 53.9754C29.8732 50.7945 31.5114 50.3002 32.7878 50.0936C33.9325 49.9084 37.0259 50.8254 37.6827 52.9432C38.0551 54.1439 37.7693 55.2144 37.2628 56.3493C36.8146 57.3532 36.0512 57.8787 34.9848 58.0495Z" stroke="#25222C" stroke-width="0.55102" stroke-linecap="round"/>
<path id="Vector_22" d="M47.4432 55.4723C47.1382 56.0931 47.5953 56.9457 48.4643 57.3765C49.3331 57.8072 50.2846 57.6532 50.5895 57.0322C50.8945 56.4114 50.6666 54.7874 49.7978 54.3566C48.929 53.9258 47.7481 54.8514 47.4432 55.4723Z" fill="black"/>
<path id="Vector_23" d="M48.8607 58.0495C47.5262 58.2631 46.0411 58.0387 45.0441 57.0569C44.1292 56.1561 43.9502 55.1695 43.7608 53.9754C43.7492 50.7945 45.3873 50.3002 46.6638 50.0936C47.8084 49.9084 50.9019 50.8254 51.5587 52.9432C51.9309 54.1439 51.6453 55.2144 51.1388 56.3493C50.6906 57.3532 49.9272 57.8787 48.8607 58.0495Z" stroke="#25222C" stroke-width="0.55102" stroke-linecap="round"/>
<path id="Vector_24" d="M41.9833 70.707C41.3468 70.707 40.8158 70.2504 40.2786 69.9391C39.6745 69.5888 38.9523 69.1106 38.5131 68.5524C38.3544 68.3507 38.2218 68.1374 38.0836 67.9204C37.5201 67.0356 38.2047 65.9412 38.99 65.3987C39.3304 65.1637 40.1068 64.9081 40.5086 65.1676C40.8375 65.38 41.2243 65.7742 41.3711 66.143C41.3978 66.2102 41.4265 66.0075 41.4353 65.9357C41.4458 65.8519 41.56 65.7257 41.618 65.6638C42.2487 64.993 43.0218 64.7734 43.9348 64.7734C45.6925 64.7734 45.635 67.7131 44.5437 68.5355C44.2615 68.7482 43.9341 68.9916 43.688 69.2389C43.4548 69.4732 43.2799 69.7713 43.0487 70.0036C42.848 70.2053 42.6116 70.3817 42.4095 70.5847C42.3305 70.6641 41.9311 70.872 41.8456 70.7" stroke="#25222C" stroke-width="1.19006" stroke-linecap="round"/>
<path id="Vector_25" d="M40.6179 66.5257C40.439 66.5257 40.26 66.5257 40.0812 66.5257C39.9187 66.5257 39.8817 66.7174 39.8246 66.8406C39.7926 66.9091 39.8078 66.9998 39.8078 67.0734C39.8078 67.3016 39.8129 67.5388 39.8812 67.7582C39.952 67.986 40.0458 68.2016 40.1478 68.4164C40.1676 68.4581 40.1962 68.5987 40.2579 68.6056C40.4616 68.6284 40.0624 68.1305 40.0311 68.0932C39.889 67.9234 39.7233 67.7242 39.5379 67.6008C39.4496 67.5421 39.3414 67.515 39.2546 67.4568C38.9264 67.237 39.2681 66.7414 39.4329 66.5391C39.519 66.4333 39.5544 66.2593 39.6646 66.1708C39.6992 66.1429 39.9076 66.8141 39.9278 66.8808C40.1301 67.5482 40.5468 68.2594 41.1311 68.6659C41.3105 68.7907 41.5164 68.975 41.7211 69.0511C41.9404 69.1326 41.5442 68.8899 41.4945 68.8534C41.3072 68.7161 41.0979 68.5711 40.9311 68.408C40.8937 68.3714 40.8103 68.2472 40.7545 68.2472C40.7094 68.2472 40.802 68.4791 40.8112 68.4984C40.8937 68.674 40.9753 68.849 41.0712 69.0176C41.1387 69.1362 41.1767 69.2844 41.2745 69.3826C41.3676 69.4763 41.4928 69.6531 41.6079 69.7143C41.6659 69.7451 41.6208 69.4492 41.6195 69.4396C41.5738 69.0924 41.477 68.7538 41.3995 68.413C41.3282 68.0997 41.3074 67.7642 41.2179 67.4568C41.1494 67.2222 41.4976 67.7324 41.5311 67.7884C41.5566 67.8308 41.7292 68.2104 41.8012 68.2104C41.904 68.2104 41.8478 67.3098 41.8478 67.219C41.8478 67.0674 41.8206 66.8896 41.8711 66.7435C41.9038 66.649 41.9153 66.9383 41.9412 67.0348C42.0353 67.3867 42.1443 67.7353 42.2678 68.0764C42.3519 68.3089 42.3552 67.7031 42.3579 67.6745C42.406 67.1397 42.5079 66.5804 42.5079 66.0435C42.5079 65.9389 42.4941 65.8446 42.4795 65.742C42.4538 65.5611 42.3984 65.8682 42.3878 65.9212C42.24 66.6639 42.4178 67.4663 42.4178 68.2205C42.4178 68.2597 42.3942 68.4216 42.4478 68.4248C42.5269 68.4295 42.5675 68.3651 42.5978 68.3042" stroke="#25222C" stroke-width="1.19006" stroke-linecap="round"/>
<path id="Vector_26" d="M43.4671 65.844C43.609 65.844 43.925 65.7753 44.0504 65.8473C44.094 65.8724 44.1502 66.0827 44.1554 66.1321C44.1708 66.2792 44.1571 66.4345 44.1571 66.5825C44.1571 66.9032 43.9278 67.3076 43.7237 67.5454C43.6038 67.6852 43.4885 67.8304 43.3638 67.9657C43.3066 68.0278 43.202 68.1045 43.167 68.1834C43.1009 68.333 43.0482 68.4787 42.967 68.6239C42.9118 68.7227 42.8044 68.9078 42.7437 69.0056C42.7368 69.0171 42.6442 69.1847 42.6738 69.0659C42.7014 68.9548 42.7402 68.8459 42.777 68.7377C42.8196 68.6131 42.8699 68.5006 42.9504 68.3994C43.0153 68.318 43.0219 68.0973 43.0471 67.9975C43.1183 67.7156 43.167 67.4661 43.167 67.1704C43.167 67.0757 43.2191 66.7292 43.137 66.688" stroke="#25222C" stroke-width="1.19006" stroke-linecap="round"/>
<g id="Clip path group_2">
<mask id="mask1_7396_40384" style="mask-type:luminance" maskUnits="userSpaceOnUse" x="109" y="122" width="27" height="27">
<g id="clip1_3311_106766">
<path id="Vector_27" d="M135.282 122.752H109.711V148.445H135.282V122.752Z" fill="white"/>
</g>
</mask>
<g mask="url(#mask1_7396_40384)">
<g id="Group_2">
<path id="Vector_28" d="M132.958 125.504H121.964C121.964 126.827 122.487 128.095 123.418 129.03C124.348 129.965 125.611 130.491 126.928 130.491H128.953V132.456C128.954 135.208 131.173 137.437 133.912 137.44V126.462C133.912 125.933 133.485 125.504 132.958 125.504Z" fill="#2684FF"/>
<path id="Vector_29" d="M127.519 131.01H116.524C116.526 133.761 118.746 135.991 121.484 135.994H123.51V137.964C123.513 140.716 125.734 142.945 128.472 142.945V131.968C128.472 131.439 128.046 131.01 127.519 131.01Z" fill="url(#paint0_linear_7396_40384)"/>
<path id="Vector_30" d="M122.075 136.512H111.08C111.08 139.266 113.302 141.498 116.043 141.498H118.075V143.463C118.077 146.212 120.292 148.442 123.029 148.447V137.47C123.029 136.941 122.602 136.512 122.075 136.512Z" fill="url(#paint1_linear_7396_40384)"/>
</g>
</g>
</g>
<g id="Clip path group_3">
<mask id="mask2_7396_40384" style="mask-type:luminance" maskUnits="userSpaceOnUse" x="144" y="84" width="27" height="27">
<g id="clip2_3311_106766">
<path id="Vector_31" d="M170.273 84.8926H144.702V110.586H170.273V84.8926Z" fill="white"/>
</g>
</mask>
<g mask="url(#mask2_7396_40384)">
<g id="Group_3">
<path id="Vector_32" d="M153.84 85.6956C149.675 85.9866 146.135 86.2541 145.969 86.2855C145.501 86.3641 145.077 86.6629 144.878 87.0563L144.702 87.4025L144.72 95.6518L144.744 103.901L145.011 104.413C145.161 104.695 146.177 106.017 147.285 107.377C149.476 110.058 149.633 110.208 150.467 110.287C150.709 110.31 152.524 110.232 154.49 110.122C156.464 110.004 159.629 109.823 161.529 109.721C169.642 109.256 169.225 109.295 169.691 108.918C170.274 108.462 170.232 109.209 170.257 99.1822C170.274 90.6813 170.265 90.1232 170.132 89.8637C169.973 89.5727 169.691 89.3683 165.992 86.9147C163.518 85.2789 163.344 85.1924 162.235 85.1765C161.778 85.1611 157.996 85.3968 153.84 85.6956ZM163.202 86.7729C163.551 86.922 166.109 88.605 166.484 88.9277C166.584 89.0222 166.617 89.1008 166.567 89.148C166.451 89.2425 150.624 90.1312 150.167 90.0681C149.959 90.0367 149.65 89.9188 149.475 89.8085C148.75 89.3444 146.952 87.9524 146.952 87.8505C146.952 87.583 146.893 87.583 153.949 87.1035C155.298 87.017 157.513 86.8599 158.863 86.7575C161.786 86.5372 162.661 86.5451 163.202 86.7729ZM168.233 91.0746C168.35 91.1845 168.45 91.3968 168.483 91.6012C168.508 91.7902 168.524 95.3131 168.508 99.4181C168.483 106.464 168.475 106.905 168.333 107.109C168.249 107.235 168.084 107.369 167.958 107.408C167.609 107.542 151.024 108.43 150.683 108.336C150.525 108.296 150.308 108.171 150.192 108.061L149.992 107.856L149.966 100.26C149.95 94.9283 149.966 92.569 150.034 92.3567C150.084 92.1995 150.208 92.0105 150.317 91.9479C150.467 91.8534 151.45 91.7748 154.832 91.5863C157.205 91.4605 160.879 91.2482 162.986 91.1303C168 90.8389 167.983 90.8389 168.233 91.0746Z" fill="black"/>
<path id="Vector_33" d="M163.777 93.6807C162.878 93.7359 162.079 93.8145 161.986 93.8617C161.711 93.9955 161.545 94.2158 161.512 94.4674C161.487 94.727 161.571 94.7583 162.47 94.8608L162.861 94.908V98.2658C162.861 100.263 162.827 101.584 162.785 101.545C162.745 101.498 161.562 99.7996 160.153 97.7706C158.746 95.7341 157.581 94.0586 157.563 94.0432C157.546 94.0273 156.631 94.0745 155.531 94.1456C154.181 94.2322 153.44 94.3108 153.29 94.3894C153.049 94.5072 152.781 94.9239 152.781 95.1995C152.781 95.3645 153.098 95.4511 153.764 95.4511H154.115V105.108L153.548 105.273C153.107 105.399 152.956 105.477 152.881 105.635C152.748 105.902 152.757 106.146 152.89 106.146C152.941 106.146 153.882 106.091 154.964 106.028C157.104 105.91 157.346 105.855 157.571 105.438C157.638 105.312 157.696 105.179 157.696 105.139C157.696 105.108 157.405 105.013 157.054 104.935C156.697 104.856 156.338 104.778 156.263 104.762C156.121 104.723 156.113 104.479 156.113 101.097V97.4717L158.645 101.223C161.302 105.155 161.635 105.603 162.044 105.8C162.552 106.051 163.843 105.878 164.493 105.477L164.693 105.36L164.709 99.9965L164.735 94.6256L165.176 94.5471C165.7 94.4525 165.942 94.2248 165.942 93.8314C165.942 93.5798 165.925 93.5639 165.676 93.5718C165.526 93.5783 164.669 93.6255 163.777 93.6807Z" fill="black"/>
</g>
</g>
</g>
<path id="Vector_34" d="M111.44 88.494L118.459 92.9871L111.391 97.5117L104.328 92.9905L97.2647 97.5117L90.1963 92.9871L97.2152 88.4941L90.1963 84.0011L97.2648 79.4766L104.328 83.9978L111.391 79.4766L118.459 84.0011L111.44 88.494ZM111.341 88.4941L104.328 84.0045L97.3141 88.494L104.328 92.9836L111.341 88.4941ZM97.3101 99.0111L104.378 94.487L111.447 99.0111L104.378 103.536L97.3101 99.0111Z" fill="#295FF1"/>
<path id="Vector_35" d="M69.0281 121.978C69.0281 123.381 67.887 124.528 66.4902 124.528C65.0933 124.528 63.9521 123.381 63.9521 121.978C63.9521 120.574 65.0933 119.427 66.4902 119.427H69.0281V121.978ZM70.307 121.978C70.307 120.574 71.448 119.427 72.8449 119.427C74.2419 119.427 75.3829 120.574 75.3829 121.978V128.363C75.3829 129.766 74.2419 130.913 72.8449 130.913C71.448 130.913 70.307 129.766 70.307 128.363V121.978ZM72.8449 111.628C71.448 111.628 70.307 110.481 70.307 109.078C70.307 107.674 71.448 106.527 72.8449 106.527C74.2419 106.527 75.3829 107.674 75.3829 109.078V111.628H72.8449ZM72.8449 112.913C74.2419 112.913 75.3829 114.059 75.3829 115.463C75.3829 116.866 74.2419 118.013 72.8449 118.013H66.4902C65.0933 118.013 63.9521 116.866 63.9521 115.463C63.9521 114.059 65.0933 112.913 66.4902 112.913H72.8449ZM83.1457 115.463C83.1457 114.059 84.2867 112.913 85.6835 112.913C87.0805 112.913 88.2215 114.059 88.2215 115.463C88.2215 116.866 87.0805 118.013 85.6835 118.013H83.1457V115.463ZM81.8667 115.463C81.8667 116.866 80.7256 118.013 79.3287 118.013C77.9318 118.013 76.7907 116.866 76.7907 115.463V109.078C76.7907 107.674 77.9318 106.527 79.3287 106.527C80.7256 106.527 81.8667 107.674 81.8667 109.078V115.463ZM79.3287 125.813C80.7256 125.813 81.8667 126.959 81.8667 128.363C81.8667 129.766 80.7256 130.913 79.3287 130.913C77.9318 130.913 76.7907 129.766 76.7907 128.363V125.813H79.3287ZM79.3287 124.528C77.9318 124.528 76.7907 123.381 76.7907 121.978C76.7907 120.574 77.9318 119.427 79.3287 119.427H85.6835C87.0805 119.427 88.2215 120.574 88.2215 121.978C88.2215 123.381 87.0805 124.528 85.6835 124.528H79.3287Z" fill="url(#paint2_radial_7396_40384)"/>
<g id="Clip path group_4">
<mask id="mask3_7396_40384" style="mask-type:luminance" maskUnits="userSpaceOnUse" x="193" y="75" width="19" height="27">
<g id="clip3_3311_106766">
<path id="Vector_36" d="M211.995 75.4258H193.153V101.119H211.995V75.4258Z" fill="white"/>
</g>
</mask>
<g mask="url(#mask3_7396_40384)">
<g id="Group_4">
<path id="Vector_37" d="M204.931 75.4258H194.92C193.979 75.4258 193.153 76.2429 193.153 77.1781V99.3679C193.153 100.302 193.978 101.12 194.92 101.12H210.229C211.172 101.12 211.996 100.303 211.996 99.3679V82.4329L207.876 79.5131L204.931 75.4258Z" fill="#4285F4"/>
<path id="Vector_38" d="M197.864 94.111H207.286V92.9435H197.866L197.864 94.111ZM197.864 96.4471H204.93V95.2796H197.864V96.4471ZM197.864 88.2715V89.439H207.286V88.2715H197.864ZM197.864 91.775H207.286V90.6075H197.866L197.864 91.775Z" fill="#F1F1F1"/>
<path id="Vector_39" d="M204.93 75.4258V80.6816C204.93 81.6158 205.754 82.4329 206.695 82.4329H211.995L204.93 75.4258Z" fill="#A1C2FA"/>
</g>
</g>
</g>
<g id="Clip path group_5">
<mask id="mask4_7396_40384" style="mask-type:luminance" maskUnits="userSpaceOnUse" x="170" y="124" width="25" height="25">
<g id="clip4_3311_106766">
<path id="Vector_40" d="M194.5 124.107H170.274V148.448H194.5V124.107Z" fill="white"/>
</g>
</mask>
<g mask="url(#mask4_7396_40384)">
<g id="Group_5">
<path id="Vector_41" d="M192.133 124.107H172.641C171.333 124.107 170.274 125.172 170.274 126.484V146.071C170.274 147.384 171.333 148.448 172.641 148.448H192.133C193.44 148.448 194.499 147.384 194.499 146.071V126.484C194.499 125.172 193.44 124.107 192.133 124.107Z" fill="url(#paint3_linear_7396_40384)"/>
<path id="Vector_42" d="M190.214 127.271H185.097C184.47 127.271 183.962 127.782 183.962 128.412V136.78C183.962 137.41 184.47 137.921 185.097 137.921H190.214C190.841 137.921 191.35 137.41 191.35 136.78V128.412C191.35 127.782 190.841 127.271 190.214 127.271Z" fill="white"/>
<path id="Vector_43" d="M179.677 127.271H174.56C173.933 127.271 173.424 127.782 173.424 128.412V142.864C173.424 143.496 173.933 144.006 174.56 144.006H179.677C180.304 144.006 180.812 143.496 180.812 142.864V128.412C180.812 127.782 180.304 127.271 179.677 127.271Z" fill="white"/>
</g>
</g>
</g>
<g id="Clip path group_6">
<mask id="mask5_7396_40384" style="mask-type:luminance" maskUnits="userSpaceOnUse" x="213" y="106" width="28" height="28">
<g id="clip5_3311_106766">
<path id="Vector_44" d="M240.258 106.527H213.341V133.573H240.258V106.527Z" fill="white"/>
</g>
</mask>
<g mask="url(#mask5_7396_40384)">
<g id="Group_6">
<path id="Vector_45" d="M215.176 130.6H219.459V120.151L213.341 115.541V128.757C213.341 129.775 214.162 130.6 215.176 130.6Z" fill="#4285F4"/>
<path id="Vector_46" d="M234.141 130.6H238.423C239.437 130.6 240.257 129.775 240.257 128.757V115.541L234.141 120.151V130.6Z" fill="#34A853"/>
<path id="Vector_47" d="M234.141 112.158V120.148L240.257 115.538V113.08C240.257 110.801 237.668 109.499 235.853 110.867L234.141 112.158Z" fill="#FBBC04"/>
<path id="Vector_48" fill-rule="evenodd" clip-rule="evenodd" d="M219.458 120.151V112.16L226.8 117.692L234.14 112.16V120.151L226.8 125.683L219.458 120.151Z" fill="#EA4335"/>
<path id="Vector_49" d="M213.341 113.08V115.538L219.459 120.148V112.158L217.745 110.867C215.93 109.499 213.341 110.801 213.341 113.08Z" fill="#C5221F"/>
</g>
</g>
</g>
</g>
<defs>
<linearGradient id="paint0_linear_7396_40384" x1="3107.18" y1="136.504" x2="1914.54" y2="1523.64" gradientUnits="userSpaceOnUse">
<stop offset="0.18" stop-color="#0052CC"/>
<stop offset="1" stop-color="#2684FF"/>
</linearGradient>
<linearGradient id="paint1_linear_7396_40384" x1="3182.1" y1="152.041" x2="1802.91" y2="1664.55" gradientUnits="userSpaceOnUse">
<stop offset="0.18" stop-color="#0052CC"/>
<stop offset="1" stop-color="#2684FF"/>
</linearGradient>
<radialGradient id="paint2_radial_7396_40384" cx="0" cy="0" r="1" gradientUnits="userSpaceOnUse" gradientTransform="translate(76.0868 118.72) rotate(180) scale(12.1347 12.1928)">
<stop stop-color="#35C5F0"/>
<stop offset="0.485" stop-color="#2EB67F"/>
<stop offset="0.4851" stop-color="#ECB22E"/>
<stop offset="1" stop-color="#E01E5A"/>
</radialGradient>
<linearGradient id="paint3_linear_7396_40384" x1="1381.53" y1="124.107" x2="1381.53" y2="2558.22" gradientUnits="userSpaceOnUse">
<stop stop-color="#0091E6"/>
<stop offset="1" stop-color="#0079BF"/>
</linearGradient>
<clipPath id="clip0_7396_40384">
<rect width="247" height="196" fill="white" transform="translate(0.75 0.707031)"/>
</clipPath>
</defs>
</svg>
