<svg width="870" height="760" viewBox="0 0 870 760" fill="none" xmlns="http://www.w3.org/2000/svg">
<g filter="url(#filter0_df_7396_28980)">
<path d="M365.137 37.8214C338.687 -6.64556 313.819 -52.1186 288.177 -97.0594C302.501 -105.232 268.445 -131.642 263.325 -140.615C255.489 -154.349 250.309 -170.045 242.926 -182.986C219.959 -223.238 201.166 -268.142 175.159 -308.006C168.116 -318.8 160.527 -329.44 152.584 -339.891C155.567 -313.031 163.435 -285.696 168.781 -267.124L169.297 -265.332C170.603 -260.789 171.963 -256.253 173.375 -251.723C226.644 -149.859 286.193 -36.8162 269.226 -54.1599C252.252 -71.5116 241.184 -95.6593 230.084 -116.877C207.69 -159.685 187.835 -205.321 173.375 -251.723C128.253 -338.005 87.6363 -416.266 101.839 -400.473C119.145 -381.229 136.583 -360.943 152.584 -339.891C149.814 -364.829 151.255 -389.359 162.835 -406.086C174.422 -422.824 200.88 -431.972 216.121 -445.802C242.027 -469.309 260.827 -497.142 275.076 -528.898C292.522 -567.778 295.475 -612.83 323.29 -646.632C360.595 -691.967 413.56 -727.937 464.304 -756.89L629.857 -851.351C675.255 -877.254 722.087 -911.358 773.966 -921.988C847.939 -937.145 927.972 -919.435 999.517 -902.102C1064.77 -886.293 1153.65 -866.552 1198.43 -811.973C1220.23 -785.411 1236.04 -753.289 1256.88 -725.713C1266.23 -713.346 1275.25 -700.897 1283.84 -688.164C1239.34 -760.39 1144.57 -915.128 1100.68 -986.361C1092.73 -998.234 1085.06 -1010.31 1077.93 -1022.8C1075.25 -1027.49 1084.52 -1012.59 1100.68 -986.361C1120 -957.475 1140.88 -929.792 1159.16 -900.288C1162.48 -894.931 1163.76 -896.22 1168.87 -893.203C1178.34 -887.603 1183.88 -877.051 1191.76 -869.635C1200.97 -860.957 1208.86 -852.901 1215.09 -841.976C1274.82 -737.29 1339.78 -632.889 1404.19 -530.413C1543.56 -308.694 1691.41 -88.9378 1810.43 144.798C1847.66 217.911 1876.93 291.045 1905.24 367.584C1911.92 385.664 1916.87 407.835 1926.44 424.602C1945.2 457.472 1887.75 480.476 1864.86 485.813L1863.63 486.1C1837.68 492.154 1812.1 498.121 1785.19 495.47C1755.56 492.551 1729.99 481.975 1701.65 474.436C1682.67 469.387 1657.5 456.813 1638.27 466.313C1620.77 474.958 1604.02 485.648 1587.06 495.326C1562.83 509.15 1524.29 542.406 1494.8 528.514C1457.93 511.142 1419.42 491.446 1385.27 468.918C1354.3 448.487 1319.72 421.793 1282.66 417.786C1258.16 415.136 1228.07 412.159 1203.9 416.164C1119.16 430.208 1056.18 383.991 996.75 332.185C983.241 320.409 965.128 299.938 945.198 299.931C915.135 299.921 885.727 306.678 855.369 306.487C826.979 306.309 793.763 306.947 767.386 296.056C727.179 279.456 704.649 249.066 679.753 215.274C645.907 169.333 618.371 123.293 573.876 86.338C555.151 70.7865 525.363 53.0655 499.433 61.7658C457.786 75.7402 390.479 80.4259 365.137 37.8214Z" fill="#EBEEFF"/>
</g>
<g filter="url(#filter1_f_7396_28980)">
<path d="M369.07 -11.3188C343.383 -54.3372 319.376 -98.4133 294.545 -141.932C309.705 -150.582 275.437 -175.421 270.479 -184.11C262.891 -197.41 258.131 -212.756 250.982 -225.286C228.741 -264.265 211.007 -308.014 185.601 -346.489C178.721 -356.909 171.269 -367.153 163.443 -377.196C165.494 -350.708 172.588 -323.939 177.408 -305.75L177.873 -303.995C179.05 -299.546 180.284 -295.105 181.571 -290.674C232.826 -191.845 290.154 -82.1863 273.244 -98.7074C256.327 -115.236 245.793 -138.725 235.113 -159.31C213.565 -200.843 194.758 -245.274 181.571 -290.674C138.156 -374.385 99.0984 -450.327 113.205 -435.234C130.392 -416.845 147.677 -397.428 163.443 -377.196C161.539 -401.79 163.982 -426.141 176.63 -443.158C189.286 -460.185 217.058 -470.271 233.388 -484.56C261.145 -508.847 281.705 -537.143 297.701 -569.149C317.286 -608.334 322.092 -653.071 352.225 -687.629C392.641 -733.978 448.92 -771.657 502.626 -802.3L677.844 -902.275C725.893 -929.691 775.744 -965.284 829.917 -977.823C907.161 -995.702 989.41 -981.262 1062.88 -966.866C1129.89 -953.736 1221.22 -937.627 1265.52 -885.303C1287.07 -859.839 1302.21 -828.636 1322.74 -802.13C1331.95 -790.242 1340.82 -778.262 1349.23 -765.983C1305.91 -835.797 1213.7 -985.388 1170.97 -1054.24C1163.2 -1065.69 1155.71 -1077.36 1148.81 -1089.45C1146.22 -1094 1155.24 -1079.59 1170.97 -1054.24C1189.88 -1026.38 1210.44 -999.769 1228.24 -971.255C1231.47 -966.078 1232.86 -967.404 1238.03 -964.614C1247.62 -959.434 1252.96 -949.197 1260.83 -942.157C1270.05 -933.919 1277.91 -926.245 1283.94 -915.665C1341.78 -814.291 1405.05 -713.402 1467.83 -614.398C1603.66 -400.192 1748.36 -188.259 1862.64 38.6387C1898.39 109.612 1925.88 180.915 1952.25 255.628C1958.48 273.277 1962.75 295.044 1972.02 311.281C1990.18 343.112 1929.75 368.122 1905.83 374.295L1904.55 374.626C1877.42 381.628 1850.68 388.53 1822.9 386.947C1792.3 385.204 1766.21 375.719 1737.14 369.35C1717.67 365.084 1692.08 353.606 1671.78 363.76C1653.31 373.001 1635.54 384.238 1617.59 394.481C1591.94 409.112 1550.71 443.544 1520.7 430.927C1483.16 415.149 1444.02 397.134 1409.5 376.143C1378.2 357.107 1343.4 332.007 1305.16 329.474C1279.86 327.799 1248.8 326.017 1223.6 330.919C1161.91 342.924 1104.49 320.947 1048.2 282.396C1029.23 265.91 992.912 224.599 960.015 225.818C928.861 226.972 898.125 234.805 866.673 235.792C837.261 236.716 802.815 238.635 775.903 228.87C734.881 213.985 712.711 184.758 688.222 152.252C654.928 108.061 628.177 63.5262 583.5 28.6477C564.699 13.9698 534.517 -2.42812 507.31 7.19392C463.61 22.6489 393.681 29.8979 369.07 -11.3188Z" fill="#D8DDF6"/>
</g>
<defs>
<filter id="filter0_df_7396_28980" x="91.844" y="-1030.77" width="1845.41" height="1586.33" filterUnits="userSpaceOnUse" color-interpolation-filters="sRGB">
<feFlood flood-opacity="0" result="BackgroundImageFix"/>
<feColorMatrix in="SourceAlpha" type="matrix" values="0 0 0 0 0 0 0 0 0 0 0 0 0 0 0 0 0 0 127 0" result="hardAlpha"/>
<feOffset dy="18.9731"/>
<feGaussianBlur stdDeviation="2.37164"/>
<feComposite in2="hardAlpha" operator="out"/>
<feColorMatrix type="matrix" values="0 0 0 0 1 0 0 0 0 1 0 0 0 0 1 0 0 0 0.4 0"/>
<feBlend mode="normal" in2="BackgroundImageFix" result="effect1_dropShadow_7396_28980"/>
<feBlend mode="normal" in="SourceGraphic" in2="effect1_dropShadow_7396_28980" result="shape"/>
<feGaussianBlur stdDeviation="3.55747" result="effect2_foregroundBlur_7396_28980"/>
</filter>
<filter id="filter1_f_7396_28980" x="103.157" y="-1097.4" width="1879.33" height="1538.17" filterUnits="userSpaceOnUse" color-interpolation-filters="sRGB">
<feFlood flood-opacity="0" result="BackgroundImageFix"/>
<feBlend mode="normal" in="SourceGraphic" in2="BackgroundImageFix" result="shape"/>
<feGaussianBlur stdDeviation="3.55747" result="effect1_foregroundBlur_7396_28980"/>
</filter>
</defs>
</svg>
