<svg width="1270" height="761" viewBox="0 0 1270 761" fill="none" xmlns="http://www.w3.org/2000/svg">
<g clip-path="url(#clip0_7396_39129)">
<rect width="1269.5" height="760" transform="translate(0.5 0.705078)" fill="#FAF9F6"/>
<line y1="-0.5" x2="1211" y2="-0.5" transform="matrix(0 1 -0.999984 -0.00571133 -0.0546875 -244.799)" stroke="#E2D2B2" stroke-opacity="0.5"/>
<line y1="-0.5" x2="1211" y2="-0.5" transform="matrix(0 1 -0.999984 -0.00571133 34.1367 -244.799)" stroke="#E2D2B2" stroke-opacity="0.5"/>
<line y1="-0.5" x2="1211" y2="-0.5" transform="matrix(0 1 -0.999984 -0.00571133 130.488 -244.799)" stroke="#E2D2B2" stroke-opacity="0.5"/>
<line y1="-0.5" x2="1211" y2="-0.5" transform="matrix(0 1 -0.999984 -0.00571133 164.676 -244.799)" stroke="#E2D2B2" stroke-opacity="0.5"/>
<line y1="-0.5" x2="1211" y2="-0.5" transform="matrix(0 1 -0.999984 -0.00571133 261.027 -244.799)" stroke="#E2D2B2" stroke-opacity="0.5"/>
<line y1="-0.5" x2="1211" y2="-0.5" transform="matrix(0 1 -0.999984 -0.00571133 295.219 -244.799)" stroke="#E2D2B2" stroke-opacity="0.5"/>
<line y1="-0.5" x2="1211" y2="-0.5" transform="matrix(0 1 -0.999984 -0.00571133 391.566 -244.799)" stroke="#E2D2B2" stroke-opacity="0.5"/>
<line y1="-0.5" x2="1211" y2="-0.5" transform="matrix(0 1 -0.999984 -0.00571133 425.758 -244.799)" stroke="#E2D2B2" stroke-opacity="0.5"/>
<line y1="-0.5" x2="1211" y2="-0.5" transform="matrix(0 1 -0.999984 -0.00571133 522.105 -244.799)" stroke="#E2D2B2" stroke-opacity="0.5"/>
<line y1="-0.5" x2="1211" y2="-0.5" transform="matrix(0 1 -0.999984 -0.00571133 556.301 -244.799)" stroke="#E2D2B2" stroke-opacity="0.5"/>
<line y1="-0.5" x2="1211" y2="-0.5" transform="matrix(0 1 -0.999984 -0.00571133 652.648 -244.799)" stroke="#E2D2B2" stroke-opacity="0.5"/>
<line y1="-0.5" x2="1211" y2="-0.5" transform="matrix(0 1 -0.999984 -0.00571133 686.844 -244.799)" stroke="#E2D2B2" stroke-opacity="0.5"/>
<line y1="-0.5" x2="1211" y2="-0.5" transform="matrix(0 1 -0.999984 -0.00571133 783.188 -244.799)" stroke="#E2D2B2" stroke-opacity="0.5"/>
<line y1="-0.5" x2="1211" y2="-0.5" transform="matrix(0 1 -0.999984 -0.00571133 817.379 -244.799)" stroke="#E2D2B2" stroke-opacity="0.5"/>
<line x1="-203.992" y1="725.002" x2="913.008" y2="725.002" stroke="#E2D2B2" stroke-opacity="0.5"/>
<line y1="-0.5" x2="1128.49" y2="-0.5" transform="matrix(1 0 -0.0078138 0.999969 -214.996 650.631)" stroke="#E2D2B2" stroke-opacity="0.5"/>
<line y1="-0.5" x2="1128.49" y2="-0.5" transform="matrix(1 0 -0.0078138 0.999969 -214.996 752.623)" stroke="#E2D2B2" stroke-opacity="0.5"/>
<line y1="-0.5" x2="1128.49" y2="-0.5" transform="matrix(1 0 -0.0078138 0.999969 -214.992 623.514)" stroke="#E2D2B2" stroke-opacity="0.5"/>
<line y1="-0.5" x2="1128.49" y2="-0.5" transform="matrix(1 0 -0.0078138 0.999969 -214.992 547.115)" stroke="#E2D2B2" stroke-opacity="0.5"/>
<line y1="-0.5" x2="1128.49" y2="-0.5" transform="matrix(1 0 -0.0078138 0.999969 -214.992 520.002)" stroke="#E2D2B2" stroke-opacity="0.5"/>
<line y1="-0.5" x2="1128.49" y2="-0.5" transform="matrix(1 0 -0.0078138 0.999969 -214.992 443.6)" stroke="#E2D2B2" stroke-opacity="0.5"/>
<line y1="-0.5" x2="1128.49" y2="-0.5" transform="matrix(1 0 -0.0078138 0.999969 -214.992 416.49)" stroke="#E2D2B2" stroke-opacity="0.5"/>
<line y1="-0.5" x2="1128.49" y2="-0.5" transform="matrix(1 0 -0.0078138 0.999969 -214.992 340.088)" stroke="#E2D2B2" stroke-opacity="0.5"/>
<line y1="-0.5" x2="1128.49" y2="-0.5" transform="matrix(1 0 -0.0078138 0.999969 -214.996 312.975)" stroke="#E2D2B2" stroke-opacity="0.5"/>
<line y1="-0.5" x2="1128.49" y2="-0.5" transform="matrix(1 0 -0.0078138 0.999969 -214.992 236.576)" stroke="#E2D2B2" stroke-opacity="0.5"/>
<line y1="-0.5" x2="1128.49" y2="-0.5" transform="matrix(1 0 -0.0078138 0.999969 -214.992 209.459)" stroke="#E2D2B2" stroke-opacity="0.5"/>
<line y1="-0.5" x2="1128.49" y2="-0.5" transform="matrix(1 0 -0.0078138 0.999969 -214.992 133.061)" stroke="#E2D2B2" stroke-opacity="0.5"/>
<line y1="-0.5" x2="1128.49" y2="-0.5" transform="matrix(1 0 -0.0078138 0.999969 -214.992 105.951)" stroke="#E2D2B2" stroke-opacity="0.5"/>
<line x1="-214.996" y1="28.7051" x2="913.004" y2="28.7052" stroke="#E2D2B2" stroke-opacity="0.5"/>
<line y1="-0.5" x2="1128.49" y2="-0.5" transform="matrix(1 0 -0.0078138 0.999969 -214.992 2.43555)" stroke="#E2D2B2" stroke-opacity="0.5"/>
<rect width="1269.5" height="760" transform="translate(0.5 0.705078)" fill="url(#paint0_linear_7396_39129)"/>
<path d="M415.8 358.965C414.573 358.698 413.373 358.565 412.2 358.565C411.407 358.565 410.78 358.622 410.32 358.735C409.86 358.848 409.523 358.988 409.31 359.155C409.123 359.302 408.98 359.472 408.88 359.665C408.787 359.852 408.74 360.098 408.74 360.405C408.74 360.798 408.853 361.155 409.08 361.475C409.307 361.788 409.62 362.078 410.02 362.345C410.427 362.612 410.957 362.902 411.61 363.215C411.723 363.268 411.837 363.322 411.95 363.375C412.07 363.435 412.19 363.492 412.31 363.545C413.257 363.992 413.977 364.368 414.47 364.675C414.97 364.982 415.38 365.372 415.7 365.845C416.02 366.318 416.187 366.915 416.2 367.635C416.2 368.495 415.97 369.248 415.51 369.895C415.057 370.535 414.407 371.032 413.56 371.385C412.713 371.732 411.72 371.905 410.58 371.905C409.88 371.905 409.21 371.838 408.57 371.705C407.93 371.572 407.313 371.392 406.72 371.165L406.68 369.385C407.36 369.645 408.09 369.855 408.87 370.015C409.657 370.175 410.437 370.255 411.21 370.255C411.877 370.255 412.407 370.198 412.8 370.085C413.193 369.972 413.497 369.825 413.71 369.645C413.89 369.498 414.037 369.308 414.15 369.075C414.263 368.835 414.32 368.542 414.32 368.195C414.32 367.748 414.22 367.378 414.02 367.085C413.82 366.792 413.52 366.525 413.12 366.285C412.72 366.045 412.103 365.725 411.27 365.325L410.7 365.065C409.84 364.652 409.147 364.255 408.62 363.875C408.1 363.495 407.7 363.062 407.42 362.575C407.14 362.088 407 361.515 407 360.855C407 359.888 407.267 359.108 407.8 358.515C408.34 357.915 409.043 357.488 409.91 357.235C410.783 356.975 411.753 356.845 412.82 356.845C413.287 356.845 413.76 356.872 414.24 356.925C414.72 356.978 415.203 357.062 415.69 357.175L415.8 358.965ZM421.432 371.705H419.512V356.405H421.432V363.025V363.165V371.705ZM426.242 371.705V364.515C426.242 364.088 426.169 363.745 426.022 363.485C425.882 363.225 425.682 363.038 425.422 362.925C425.169 362.805 424.859 362.745 424.492 362.745C423.926 362.745 423.339 362.868 422.732 363.115C422.132 363.355 421.529 363.685 420.922 364.105L421.082 362.735H421.522C422.082 362.248 422.679 361.872 423.312 361.605C423.946 361.338 424.612 361.205 425.312 361.205C426.219 361.205 426.916 361.438 427.402 361.905C427.896 362.372 428.146 363.025 428.152 363.865L428.192 371.705H426.242ZM438.635 371.705V364.525C438.635 364.125 438.545 363.802 438.365 363.555C438.185 363.308 437.938 363.132 437.625 363.025C437.311 362.912 436.941 362.855 436.515 362.855C435.781 362.855 435.015 362.932 434.215 363.085C433.415 363.238 432.598 363.472 431.765 363.785L432.105 361.935C432.778 361.715 433.495 361.538 434.255 361.405C435.015 361.272 435.768 361.205 436.515 361.205C437.455 361.205 438.221 361.312 438.815 361.525C439.415 361.732 439.855 362.052 440.135 362.485C440.421 362.912 440.565 363.458 440.565 364.125V371.705H438.635ZM438.845 367.095C438.058 367.082 437.285 367.095 436.525 367.135C435.771 367.175 435.141 367.268 434.635 367.415C434.141 367.555 433.798 367.742 433.605 367.975C433.418 368.208 433.325 368.488 433.325 368.815C433.325 369.148 433.408 369.442 433.575 369.695C433.748 369.948 433.995 370.148 434.315 370.295C434.641 370.435 435.025 370.505 435.465 370.505C435.931 370.505 436.461 370.432 437.055 370.285C437.648 370.132 438.228 369.912 438.795 369.625L438.905 370.835H438.465C437.838 371.222 437.198 371.505 436.545 371.685C435.898 371.858 435.301 371.945 434.755 371.945C434.048 371.945 433.441 371.822 432.935 371.575C432.428 371.328 432.045 370.995 431.785 370.575C431.531 370.148 431.405 369.672 431.405 369.145C431.405 368.238 431.805 367.535 432.605 367.035C433.405 366.535 434.348 366.195 435.435 366.015C436.521 365.835 437.651 365.735 438.825 365.715L438.845 367.095ZM448.377 363.885L448.547 364.045V371.705H446.627V361.435H448.377V363.885ZM443.727 370.175H452.317L452.087 371.705H443.957L443.727 370.175ZM443.927 361.435H447.957V362.965H443.687L443.927 361.435ZM453.847 363.095C453.1 363.075 452.414 363.122 451.787 363.235C451.167 363.342 450.574 363.508 450.007 363.735C449.447 363.962 448.854 364.262 448.227 364.635L448.027 363.595H448.537C448.837 363.108 449.21 362.685 449.657 362.325C450.104 361.965 450.604 361.688 451.157 361.495C451.717 361.302 452.3 361.205 452.907 361.205C453.214 361.205 453.494 361.235 453.747 361.295L453.847 363.095ZM461.989 361.435V371.705H460.069V362.515L460.519 362.965H456.399L456.599 361.435H461.989ZM456.269 370.175H465.899L465.699 371.705H456.469L456.269 370.175ZM460.659 358.845C460.386 358.845 460.143 358.795 459.929 358.695C459.723 358.588 459.559 358.438 459.439 358.245C459.326 358.045 459.269 357.815 459.269 357.555C459.269 357.162 459.396 356.852 459.649 356.625C459.909 356.392 460.246 356.275 460.659 356.275C461.073 356.275 461.406 356.392 461.659 356.625C461.919 356.852 462.049 357.165 462.049 357.565C462.049 357.958 461.919 358.272 461.659 358.505C461.406 358.732 461.073 358.845 460.659 358.845ZM471.042 371.705H469.122V361.425H470.942V363.025L471.042 363.165V371.705ZM475.852 371.705V364.515C475.852 364.088 475.778 363.745 475.632 363.485C475.492 363.225 475.292 363.038 475.032 362.925C474.778 362.805 474.468 362.745 474.102 362.745C473.535 362.745 472.948 362.868 472.342 363.115C471.742 363.355 471.138 363.685 470.532 364.105L470.632 362.735H471.032C471.578 362.255 472.188 361.882 472.862 361.615C473.535 361.342 474.222 361.205 474.922 361.205C475.828 361.205 476.525 361.438 477.012 361.905C477.505 362.372 477.755 363.025 477.762 363.865L477.802 371.705H475.852ZM485.154 368.065C484.361 368.065 483.647 367.922 483.014 367.635C482.387 367.342 481.897 366.942 481.544 366.435C481.191 365.928 481.014 365.368 481.014 364.755C481.014 364.082 481.207 363.475 481.594 362.935C481.981 362.395 482.521 361.972 483.214 361.665C483.907 361.352 484.697 361.195 485.584 361.195C486.231 361.195 486.817 361.282 487.344 361.455C487.871 361.628 488.341 361.892 488.754 362.245L488.834 362.625C488.854 362.645 488.877 362.668 488.904 362.695C489.144 362.942 489.334 363.218 489.474 363.525C489.621 363.832 489.694 364.185 489.694 364.585C489.694 365.265 489.491 365.872 489.084 366.405C488.684 366.932 488.137 367.342 487.444 367.635C486.757 367.922 485.994 368.065 485.154 368.065ZM488.214 361.965C488.587 361.745 489.017 361.548 489.504 361.375C489.991 361.202 490.477 361.102 490.964 361.075L491.274 362.525L488.374 362.695L488.214 361.965ZM484.774 367.485L484.254 368.965C484.214 369.105 484.201 369.222 484.214 369.315C484.227 369.402 484.267 369.472 484.334 369.525C484.401 369.572 484.497 369.608 484.624 369.635L484.684 369.645L488.694 370.355L488.774 370.365C489.234 370.452 489.634 370.572 489.974 370.725C490.321 370.872 490.611 371.095 490.844 371.395C491.077 371.695 491.194 372.088 491.194 372.575C491.194 373.288 490.921 373.905 490.374 374.425C489.834 374.945 489.097 375.342 488.164 375.615C487.231 375.888 486.184 376.025 485.024 376.025C484.124 376.025 483.321 375.938 482.614 375.765C481.907 375.592 481.351 375.325 480.944 374.965C480.537 374.605 480.334 374.162 480.334 373.635C480.334 373.228 480.467 372.855 480.734 372.515C481.001 372.175 481.434 371.812 482.034 371.425L483.484 370.515L484.244 371.065C484.077 371.145 483.901 371.235 483.714 371.335C483.414 371.515 483.154 371.698 482.934 371.885C482.714 372.078 482.534 372.288 482.394 372.515C482.254 372.748 482.184 372.995 482.184 373.255C482.184 373.588 482.311 373.865 482.564 374.085C482.817 374.305 483.181 374.468 483.654 374.575C484.127 374.688 484.694 374.745 485.354 374.745C486.094 374.745 486.774 374.678 487.394 374.545C488.014 374.418 488.507 374.222 488.874 373.955C489.241 373.695 489.424 373.382 489.424 373.015C489.424 372.715 489.287 372.475 489.014 372.295C488.747 372.115 488.324 371.975 487.744 371.875L484.564 371.335C484.131 371.262 483.774 371.168 483.494 371.055C483.214 370.935 483.001 370.795 482.854 370.635C482.714 370.468 482.644 370.275 482.644 370.055C482.644 369.862 482.691 369.645 482.784 369.405C482.884 369.165 483.021 368.885 483.194 368.565C483.294 368.378 483.354 368.258 483.374 368.205L483.794 367.285L484.774 367.485ZM487.894 364.935C487.894 364.175 487.664 363.592 487.204 363.185C486.744 362.778 486.017 362.575 485.024 362.575C484.577 362.575 484.217 362.612 483.944 362.685C483.677 362.758 483.467 362.855 483.314 362.975C483.174 363.088 483.064 363.258 482.984 363.485C482.904 363.712 482.864 364.012 482.864 364.385C482.864 365.145 483.094 365.728 483.554 366.135C484.014 366.542 484.741 366.745 485.734 366.745C486.181 366.745 486.537 366.708 486.804 366.635C487.077 366.562 487.291 366.465 487.444 366.345C487.584 366.232 487.694 366.062 487.774 365.835C487.854 365.608 487.894 365.308 487.894 364.935ZM510.579 371.945C509.612 371.945 508.759 371.735 508.019 371.315C507.279 370.888 506.702 370.275 506.289 369.475C505.875 368.668 505.669 367.708 505.669 366.595C505.669 365.375 505.912 364.362 506.399 363.555C506.885 362.742 507.515 362.145 508.289 361.765C509.069 361.385 509.905 361.195 510.799 361.195C511.752 361.195 512.592 361.408 513.319 361.835C514.045 362.255 514.612 362.868 515.019 363.675C515.432 364.475 515.639 365.438 515.639 366.565C515.639 367.778 515.402 368.788 514.929 369.595C514.462 370.402 513.845 370.995 513.079 371.375C512.312 371.755 511.479 371.945 510.579 371.945ZM510.819 370.435C511.225 370.435 511.579 370.398 511.879 370.325C512.185 370.252 512.449 370.142 512.669 369.995C512.955 369.795 513.195 369.458 513.389 368.985C513.589 368.505 513.689 367.805 513.689 366.885C513.689 366.078 513.612 365.375 513.459 364.775C513.312 364.168 513.002 363.668 512.529 363.275C512.055 362.875 511.372 362.675 510.479 362.675C510.072 362.675 509.719 362.712 509.419 362.785C509.119 362.858 508.859 362.972 508.639 363.125C508.452 363.252 508.285 363.428 508.139 363.655C507.992 363.882 507.869 364.208 507.769 364.635C507.675 365.055 507.629 365.582 507.629 366.215C507.629 367.028 507.702 367.738 507.849 368.345C508.002 368.952 508.312 369.452 508.779 369.845C509.245 370.238 509.925 370.435 510.819 370.435ZM520.411 375.545H518.491V361.425H520.271V362.945L520.411 363.085V375.545ZM528.211 366.095C528.211 367.335 527.971 368.395 527.491 369.275C527.018 370.148 526.368 370.812 525.541 371.265C524.721 371.712 523.788 371.935 522.741 371.935C522.054 371.935 521.398 371.842 520.771 371.655C520.144 371.468 519.558 371.192 519.011 370.825L519.711 369.495C520.258 369.828 520.811 370.078 521.371 370.245C521.931 370.412 522.498 370.495 523.071 370.495C523.451 370.495 523.788 370.455 524.081 370.375C524.374 370.288 524.664 370.145 524.951 369.945C525.311 369.698 525.601 369.322 525.821 368.815C526.048 368.308 526.161 367.565 526.161 366.585C526.161 365.432 525.948 364.498 525.521 363.785C525.094 363.072 524.338 362.715 523.251 362.715C522.711 362.715 522.151 362.815 521.571 363.015C520.998 363.208 520.411 363.475 519.811 363.815L520.161 362.555H520.501C521.008 362.135 521.544 361.805 522.111 361.565C522.684 361.325 523.324 361.205 524.031 361.205C524.931 361.205 525.694 361.408 526.321 361.815C526.948 362.222 527.418 362.792 527.731 363.525C528.051 364.252 528.211 365.108 528.211 366.095ZM535.163 361.995V368.835C535.163 369.182 535.223 369.462 535.343 369.675C535.463 369.888 535.67 370.052 535.963 370.165C536.263 370.272 536.68 370.325 537.213 370.325C537.66 370.325 538.127 370.282 538.613 370.195C539.107 370.108 539.567 370.008 539.993 369.895L539.803 371.385C539.317 371.552 538.807 371.685 538.273 371.785C537.74 371.885 537.16 371.935 536.533 371.935C535.733 371.935 535.093 371.838 534.613 371.645C534.133 371.452 533.783 371.152 533.563 370.745C533.35 370.332 533.243 369.782 533.243 369.095V361.995H535.163ZM540.073 361.435L539.733 362.935H530.383V362.115L534.523 358.965H535.153V362.035L534.303 361.435H540.073ZM548.806 361.435V371.705H546.886V362.515L547.336 362.965H543.216L543.416 361.435H548.806ZM543.086 370.175H552.716L552.516 371.705H543.286L543.086 370.175ZM547.476 358.845C547.202 358.845 546.959 358.795 546.746 358.695C546.539 358.588 546.376 358.438 546.256 358.245C546.142 358.045 546.086 357.815 546.086 357.555C546.086 357.162 546.212 356.852 546.466 356.625C546.726 356.392 547.062 356.275 547.476 356.275C547.889 356.275 548.222 356.392 548.476 356.625C548.736 356.852 548.866 357.165 548.866 357.565C548.866 357.958 548.736 358.272 548.476 358.505C548.222 358.732 547.889 358.845 547.476 358.845ZM560.188 371.945C559.221 371.945 558.368 371.735 557.628 371.315C556.888 370.888 556.311 370.275 555.898 369.475C555.485 368.668 555.278 367.708 555.278 366.595C555.278 365.375 555.521 364.362 556.008 363.555C556.495 362.742 557.125 362.145 557.898 361.765C558.678 361.385 559.515 361.195 560.408 361.195C561.361 361.195 562.201 361.408 562.928 361.835C563.655 362.255 564.221 362.868 564.628 363.675C565.041 364.475 565.248 365.438 565.248 366.565C565.248 367.778 565.011 368.788 564.538 369.595C564.071 370.402 563.455 370.995 562.688 371.375C561.921 371.755 561.088 371.945 560.188 371.945ZM560.428 370.435C560.835 370.435 561.188 370.398 561.488 370.325C561.795 370.252 562.058 370.142 562.278 369.995C562.565 369.795 562.805 369.458 562.998 368.985C563.198 368.505 563.298 367.805 563.298 366.885C563.298 366.078 563.221 365.375 563.068 364.775C562.921 364.168 562.611 363.668 562.138 363.275C561.665 362.875 560.981 362.675 560.088 362.675C559.681 362.675 559.328 362.712 559.028 362.785C558.728 362.858 558.468 362.972 558.248 363.125C558.061 363.252 557.895 363.428 557.748 363.655C557.601 363.882 557.478 364.208 557.378 364.635C557.285 365.055 557.238 365.582 557.238 366.215C557.238 367.028 557.311 367.738 557.458 368.345C557.611 368.952 557.921 369.452 558.388 369.845C558.855 370.238 559.535 370.435 560.428 370.435ZM570.26 371.705H568.34V361.425H570.16V363.025L570.26 363.165V371.705ZM575.07 371.705V364.515C575.07 364.088 574.997 363.745 574.85 363.485C574.71 363.225 574.51 363.038 574.25 362.925C573.997 362.805 573.687 362.745 573.32 362.745C572.754 362.745 572.167 362.868 571.56 363.115C570.96 363.355 570.357 363.685 569.75 364.105L569.85 362.735H570.25C570.797 362.255 571.407 361.882 572.08 361.615C572.754 361.342 573.44 361.205 574.14 361.205C575.047 361.205 575.744 361.438 576.23 361.905C576.724 362.372 576.974 363.025 576.98 363.865L577.02 371.705H575.07ZM598.415 361.435V371.705H596.495V362.515L596.945 362.965H592.825L593.025 361.435H598.415ZM592.695 370.175H602.325L602.125 371.705H592.895L592.695 370.175ZM597.085 358.845C596.812 358.845 596.568 358.795 596.355 358.695C596.148 358.588 595.985 358.438 595.865 358.245C595.752 358.045 595.695 357.815 595.695 357.555C595.695 357.162 595.822 356.852 596.075 356.625C596.335 356.392 596.672 356.275 597.085 356.275C597.498 356.275 597.832 356.392 598.085 356.625C598.345 356.852 598.475 357.165 598.475 357.565C598.475 357.958 598.345 358.272 598.085 358.505C597.832 358.732 597.498 358.845 597.085 358.845ZM611.008 361.205C611.548 361.205 612.058 361.238 612.538 361.305C613.024 361.372 613.494 361.465 613.948 361.585L614.017 363.265C613.311 363.118 612.634 363.002 611.988 362.915C611.341 362.828 610.684 362.785 610.018 362.785C609.451 362.785 608.971 362.825 608.578 362.905C608.191 362.978 607.884 363.098 607.658 363.265C607.518 363.358 607.411 363.468 607.338 363.595C607.271 363.722 607.238 363.858 607.238 364.005C607.238 364.232 607.334 364.435 607.528 364.615C607.721 364.795 608.008 364.962 608.388 365.115C608.774 365.268 609.298 365.425 609.958 365.585L610.598 365.745C611.484 365.952 612.184 366.155 612.698 366.355C613.218 366.555 613.634 366.835 613.948 367.195C614.261 367.555 614.418 368.028 614.418 368.615C614.418 369.288 614.208 369.872 613.787 370.365C613.374 370.858 612.768 371.238 611.968 371.505C611.174 371.772 610.218 371.905 609.098 371.905C608.424 371.905 607.791 371.858 607.198 371.765C606.604 371.678 606.038 371.555 605.498 371.395L605.358 369.575C606.131 369.802 606.934 369.988 607.768 370.135C608.601 370.275 609.421 370.345 610.228 370.345C610.688 370.345 611.081 370.318 611.408 370.265C611.741 370.205 612.018 370.102 612.238 369.955L612.258 369.945C612.391 369.852 612.494 369.735 612.568 369.595C612.641 369.448 612.678 369.278 612.678 369.085C612.678 368.752 612.558 368.482 612.318 368.275C612.084 368.068 611.758 367.898 611.338 367.765C610.924 367.632 610.284 367.462 609.418 367.255C609.204 367.202 609.034 367.158 608.908 367.125C608.168 366.945 607.554 366.738 607.068 366.505C606.588 366.265 606.218 365.972 605.958 365.625C605.704 365.278 605.578 364.858 605.578 364.365C605.578 363.652 605.828 363.058 606.327 362.585C606.828 362.112 607.488 361.765 608.308 361.545C609.128 361.318 610.028 361.205 611.008 361.205ZM637.072 371.705V364.525C637.072 364.125 636.982 363.802 636.802 363.555C636.622 363.308 636.376 363.132 636.062 363.025C635.749 362.912 635.379 362.855 634.952 362.855C634.219 362.855 633.452 362.932 632.652 363.085C631.852 363.238 631.036 363.472 630.202 363.785L630.542 361.935C631.216 361.715 631.932 361.538 632.692 361.405C633.452 361.272 634.206 361.205 634.952 361.205C635.892 361.205 636.659 361.312 637.252 361.525C637.852 361.732 638.292 362.052 638.572 362.485C638.859 362.912 639.002 363.458 639.002 364.125V371.705H637.072ZM637.282 367.095C636.496 367.082 635.722 367.095 634.962 367.135C634.209 367.175 633.579 367.268 633.072 367.415C632.579 367.555 632.236 367.742 632.042 367.975C631.856 368.208 631.762 368.488 631.762 368.815C631.762 369.148 631.846 369.442 632.012 369.695C632.186 369.948 632.432 370.148 632.752 370.295C633.079 370.435 633.462 370.505 633.902 370.505C634.369 370.505 634.899 370.432 635.492 370.285C636.086 370.132 636.666 369.912 637.232 369.625L637.342 370.835H636.902C636.276 371.222 635.636 371.505 634.982 371.685C634.336 371.858 633.739 371.945 633.192 371.945C632.486 371.945 631.879 371.822 631.372 371.575C630.866 371.328 630.482 370.995 630.222 370.575C629.969 370.148 629.842 369.672 629.842 369.145C629.842 368.238 630.242 367.535 631.042 367.035C631.842 366.535 632.786 366.195 633.872 366.015C634.959 365.835 636.089 365.735 637.262 365.715L637.282 367.095ZM645.345 371.705V357.385L645.795 357.935H642.515L642.675 356.405H647.265V371.705H645.345ZM642.385 370.185H650.405L650.245 371.705H642.545L642.385 370.185ZM661.197 371.695C660.357 369.682 659.647 367.578 659.067 365.385H658.887C658.247 367.672 657.5 369.775 656.647 371.695H655.417C654.63 369.968 653.994 368.258 653.507 366.565C653.02 364.872 652.687 363.162 652.507 361.435H654.397C654.544 362.708 654.777 363.995 655.097 365.295C655.417 366.588 655.794 367.828 656.227 369.015H656.397C656.77 368.148 657.11 367.258 657.417 366.345C657.73 365.432 658.024 364.492 658.297 363.525L658.407 363.145H659.737L659.927 363.805C660.187 364.758 660.45 365.658 660.717 366.505C660.99 367.352 661.29 368.188 661.617 369.015H661.797C662.244 367.775 662.634 366.512 662.967 365.225C663.3 363.938 663.537 362.675 663.677 361.435H665.437C665.257 363.162 664.92 364.875 664.427 366.575C663.934 368.268 663.284 369.975 662.477 371.695H661.197ZM674.279 371.705V364.525C674.279 364.125 674.189 363.802 674.009 363.555C673.829 363.308 673.583 363.132 673.269 363.025C672.956 362.912 672.586 362.855 672.159 362.855C671.426 362.855 670.659 362.932 669.859 363.085C669.059 363.238 668.243 363.472 667.409 363.785L667.749 361.935C668.423 361.715 669.139 361.538 669.899 361.405C670.659 361.272 671.413 361.205 672.159 361.205C673.099 361.205 673.866 361.312 674.459 361.525C675.059 361.732 675.499 362.052 675.779 362.485C676.066 362.912 676.209 363.458 676.209 364.125V371.705H674.279ZM674.489 367.095C673.703 367.082 672.929 367.095 672.169 367.135C671.416 367.175 670.786 367.268 670.279 367.415C669.786 367.555 669.443 367.742 669.249 367.975C669.063 368.208 668.969 368.488 668.969 368.815C668.969 369.148 669.053 369.442 669.219 369.695C669.393 369.948 669.639 370.148 669.959 370.295C670.286 370.435 670.669 370.505 671.109 370.505C671.576 370.505 672.106 370.432 672.699 370.285C673.293 370.132 673.873 369.912 674.439 369.625L674.549 370.835H674.109C673.483 371.222 672.843 371.505 672.189 371.685C671.543 371.858 670.946 371.945 670.399 371.945C669.693 371.945 669.086 371.822 668.579 371.575C668.073 371.328 667.689 370.995 667.429 370.575C667.176 370.148 667.049 369.672 667.049 369.145C667.049 368.238 667.449 367.535 668.249 367.035C669.049 366.535 669.993 366.195 671.079 366.015C672.166 365.835 673.296 365.735 674.469 365.715L674.489 367.095ZM681.042 361.435C681.415 362.928 681.888 364.372 682.462 365.765C683.035 367.152 683.685 368.498 684.412 369.805H684.572C685.265 368.472 685.858 367.135 686.352 365.795C686.852 364.455 687.282 363.002 687.642 361.435H689.572C689.225 362.882 688.738 364.385 688.112 365.945C687.485 367.505 686.812 369.018 686.092 370.485L685.622 371.415C685.222 372.222 684.755 372.958 684.222 373.625C683.695 374.298 683.082 374.852 682.382 375.285C681.688 375.718 680.938 375.935 680.132 375.935C679.752 375.935 679.355 375.895 678.942 375.815L678.532 374.105C679.065 374.218 679.572 374.275 680.052 374.275C680.612 374.275 681.098 374.185 681.512 374.005C681.925 373.825 682.268 373.592 682.542 373.305C682.815 373.025 683.052 372.705 683.252 372.345L683.712 371.505L684.102 371.885L683.862 372.555C683.142 371.335 682.495 370.145 681.922 368.985C681.348 367.825 680.822 366.622 680.342 365.375C679.862 364.128 679.432 362.815 679.052 361.435H681.042ZM697.824 361.205C698.364 361.205 698.874 361.238 699.354 361.305C699.841 361.372 700.311 361.465 700.764 361.585L700.834 363.265C700.127 363.118 699.451 363.002 698.804 362.915C698.157 362.828 697.501 362.785 696.834 362.785C696.267 362.785 695.787 362.825 695.394 362.905C695.007 362.978 694.701 363.098 694.474 363.265C694.334 363.358 694.227 363.468 694.154 363.595C694.087 363.722 694.054 363.858 694.054 364.005C694.054 364.232 694.151 364.435 694.344 364.615C694.537 364.795 694.824 364.962 695.204 365.115C695.591 365.268 696.114 365.425 696.774 365.585L697.414 365.745C698.301 365.952 699.001 366.155 699.514 366.355C700.034 366.555 700.451 366.835 700.764 367.195C701.077 367.555 701.234 368.028 701.234 368.615C701.234 369.288 701.024 369.872 700.604 370.365C700.191 370.858 699.584 371.238 698.784 371.505C697.991 371.772 697.034 371.905 695.914 371.905C695.241 371.905 694.607 371.858 694.014 371.765C693.421 371.678 692.854 371.555 692.314 371.395L692.174 369.575C692.947 369.802 693.751 369.988 694.584 370.135C695.417 370.275 696.237 370.345 697.044 370.345C697.504 370.345 697.897 370.318 698.224 370.265C698.557 370.205 698.834 370.102 699.054 369.955L699.074 369.945C699.207 369.852 699.311 369.735 699.384 369.595C699.457 369.448 699.494 369.278 699.494 369.085C699.494 368.752 699.374 368.482 699.134 368.275C698.901 368.068 698.574 367.898 698.154 367.765C697.741 367.632 697.101 367.462 696.234 367.255C696.021 367.202 695.851 367.158 695.724 367.125C694.984 366.945 694.371 366.738 693.884 366.505C693.404 366.265 693.034 365.972 692.774 365.625C692.521 365.278 692.394 364.858 692.394 364.365C692.394 363.652 692.644 363.058 693.144 362.585C693.644 362.112 694.304 361.765 695.124 361.545C695.944 361.318 696.844 361.205 697.824 361.205ZM723.889 371.705V364.525C723.889 364.125 723.799 363.802 723.619 363.555C723.439 363.308 723.192 363.132 722.879 363.025C722.565 362.912 722.195 362.855 721.769 362.855C721.035 362.855 720.269 362.932 719.469 363.085C718.669 363.238 717.852 363.472 717.019 363.785L717.359 361.935C718.032 361.715 718.749 361.538 719.509 361.405C720.269 361.272 721.022 361.205 721.769 361.205C722.709 361.205 723.475 361.312 724.069 361.525C724.669 361.732 725.109 362.052 725.389 362.485C725.675 362.912 725.819 363.458 725.819 364.125V371.705H723.889ZM724.099 367.095C723.312 367.082 722.539 367.095 721.779 367.135C721.025 367.175 720.395 367.268 719.889 367.415C719.395 367.555 719.052 367.742 718.859 367.975C718.672 368.208 718.579 368.488 718.579 368.815C718.579 369.148 718.662 369.442 718.829 369.695C719.002 369.948 719.249 370.148 719.569 370.295C719.895 370.435 720.279 370.505 720.719 370.505C721.185 370.505 721.715 370.432 722.309 370.285C722.902 370.132 723.482 369.912 724.049 369.625L724.159 370.835H723.719C723.092 371.222 722.452 371.505 721.799 371.685C721.152 371.858 720.555 371.945 720.009 371.945C719.302 371.945 718.695 371.822 718.189 371.575C717.682 371.328 717.299 370.995 717.039 370.575C716.785 370.148 716.659 369.672 716.659 369.145C716.659 368.238 717.059 367.535 717.859 367.035C718.659 366.535 719.602 366.195 720.689 366.015C721.775 365.835 722.905 365.735 724.079 365.715L724.099 367.095ZM730.821 361.435C731.088 362.908 731.478 364.338 731.991 365.725C732.511 367.105 733.144 368.442 733.891 369.735H734.061C734.814 368.448 735.448 367.112 735.961 365.725C736.481 364.338 736.874 362.908 737.141 361.435H739.021C738.668 363.182 738.134 364.922 737.421 366.655C736.714 368.388 735.831 370.072 734.771 371.705H733.071C732.004 370.065 731.118 368.385 730.411 366.665C729.704 364.945 729.161 363.202 728.781 361.435H730.821ZM748.693 371.705V364.525C748.693 364.125 748.603 363.802 748.423 363.555C748.243 363.308 747.997 363.132 747.683 363.025C747.37 362.912 747 362.855 746.573 362.855C745.84 362.855 745.073 362.932 744.273 363.085C743.473 363.238 742.657 363.472 741.823 363.785L742.163 361.935C742.837 361.715 743.553 361.538 744.313 361.405C745.073 361.272 745.827 361.205 746.573 361.205C747.513 361.205 748.28 361.312 748.873 361.525C749.473 361.732 749.913 362.052 750.193 362.485C750.48 362.912 750.623 363.458 750.623 364.125V371.705H748.693ZM748.903 367.095C748.117 367.082 747.343 367.095 746.583 367.135C745.83 367.175 745.2 367.268 744.693 367.415C744.2 367.555 743.857 367.742 743.663 367.975C743.477 368.208 743.383 368.488 743.383 368.815C743.383 369.148 743.467 369.442 743.633 369.695C743.807 369.948 744.053 370.148 744.373 370.295C744.7 370.435 745.083 370.505 745.523 370.505C745.99 370.505 746.52 370.432 747.113 370.285C747.707 370.132 748.287 369.912 748.853 369.625L748.963 370.835H748.523C747.897 371.222 747.257 371.505 746.603 371.685C745.957 371.858 745.36 371.945 744.813 371.945C744.107 371.945 743.5 371.822 742.993 371.575C742.487 371.328 742.103 370.995 741.843 370.575C741.59 370.148 741.463 369.672 741.463 369.145C741.463 368.238 741.863 367.535 742.663 367.035C743.463 366.535 744.407 366.195 745.493 366.015C746.58 365.835 747.71 365.735 748.883 365.715L748.903 367.095ZM759.646 361.435V371.705H757.726V362.515L758.176 362.965H754.056L754.256 361.435H759.646ZM753.926 370.175H763.556L763.356 371.705H754.126L753.926 370.175ZM758.316 358.845C758.042 358.845 757.799 358.795 757.586 358.695C757.379 358.588 757.216 358.438 757.096 358.245C756.982 358.045 756.926 357.815 756.926 357.555C756.926 357.162 757.052 356.852 757.306 356.625C757.566 356.392 757.902 356.275 758.316 356.275C758.729 356.275 759.062 356.392 759.316 356.625C759.576 356.852 759.706 357.165 759.706 357.565C759.706 357.958 759.576 358.272 759.316 358.505C759.062 358.732 758.729 358.845 758.316 358.845ZM770.098 371.705V357.485L770.548 357.935H766.458L766.658 356.405H772.018V371.705H770.098ZM766.328 370.175H775.888L775.688 371.705H766.528L766.328 370.175ZM785.9 371.705V364.525C785.9 364.125 785.81 363.802 785.63 363.555C785.45 363.308 785.204 363.132 784.89 363.025C784.577 362.912 784.207 362.855 783.78 362.855C783.047 362.855 782.28 362.932 781.48 363.085C780.68 363.238 779.864 363.472 779.03 363.785L779.37 361.935C780.044 361.715 780.76 361.538 781.52 361.405C782.28 361.272 783.034 361.205 783.78 361.205C784.72 361.205 785.487 361.312 786.08 361.525C786.68 361.732 787.12 362.052 787.4 362.485C787.687 362.912 787.83 363.458 787.83 364.125V371.705H785.9ZM786.11 367.095C785.324 367.082 784.55 367.095 783.79 367.135C783.037 367.175 782.407 367.268 781.9 367.415C781.407 367.555 781.064 367.742 780.87 367.975C780.684 368.208 780.59 368.488 780.59 368.815C780.59 369.148 780.674 369.442 780.84 369.695C781.014 369.948 781.26 370.148 781.58 370.295C781.907 370.435 782.29 370.505 782.73 370.505C783.197 370.505 783.727 370.432 784.32 370.285C784.914 370.132 785.494 369.912 786.06 369.625L786.17 370.835H785.73C785.104 371.222 784.464 371.505 783.81 371.685C783.164 371.858 782.567 371.945 782.02 371.945C781.314 371.945 780.707 371.822 780.2 371.575C779.694 371.328 779.31 370.995 779.05 370.575C778.797 370.148 778.67 369.672 778.67 369.145C778.67 368.238 779.07 367.535 779.87 367.035C780.67 366.535 781.614 366.195 782.7 366.015C783.787 365.835 784.917 365.735 786.09 365.715L786.11 367.095ZM793.123 370.475L791.983 371.755H791.343V356.405H793.263V370.175L793.123 370.475ZM801.063 366.095C801.063 367.335 800.823 368.395 800.343 369.275C799.869 370.148 799.219 370.812 798.393 371.265C797.573 371.712 796.639 371.935 795.593 371.935C794.906 371.935 794.249 371.842 793.623 371.655C792.996 371.468 792.409 371.192 791.863 370.825L792.563 369.495C793.109 369.828 793.663 370.078 794.223 370.245C794.783 370.412 795.349 370.495 795.923 370.495C796.303 370.495 796.639 370.455 796.933 370.375C797.226 370.288 797.516 370.145 797.803 369.945C798.163 369.698 798.453 369.322 798.673 368.815C798.899 368.308 799.013 367.565 799.013 366.585C799.013 365.432 798.799 364.498 798.373 363.785C797.946 363.072 797.189 362.715 796.103 362.715C795.563 362.715 795.003 362.815 794.423 363.015C793.849 363.208 793.263 363.475 792.663 363.815L793.013 362.555H793.353C793.859 362.135 794.396 361.805 794.963 361.565C795.536 361.325 796.176 361.205 796.883 361.205C797.783 361.205 798.546 361.408 799.173 361.815C799.799 362.222 800.269 362.792 800.583 363.525C800.903 364.252 801.063 365.108 801.063 366.095ZM807.305 371.705V357.485L807.755 357.935H803.665L803.865 356.405H809.225V371.705H807.305ZM803.535 370.175H813.095L812.895 371.705H803.735L803.535 370.175ZM819.117 363.115C818.784 363.362 818.494 363.728 818.247 364.215C818.001 364.702 817.877 365.355 817.877 366.175C817.877 367.022 817.994 367.752 818.227 368.365C818.461 368.972 818.874 369.455 819.467 369.815C820.061 370.168 820.877 370.345 821.917 370.345C822.477 370.345 823.011 370.298 823.517 370.205C824.031 370.105 824.511 369.975 824.957 369.815L824.867 371.315C824.394 371.495 823.867 371.645 823.287 371.765C822.707 371.885 822.077 371.945 821.397 371.945C820.231 371.945 819.247 371.745 818.447 371.345C817.647 370.945 817.044 370.365 816.637 369.605C816.231 368.838 816.027 367.915 816.027 366.835C816.027 365.608 816.277 364.572 816.777 363.725C817.277 362.878 817.941 362.245 818.767 361.825C819.594 361.405 820.501 361.195 821.487 361.195C822.414 361.195 823.167 361.375 823.747 361.735C824.334 362.095 824.757 362.582 825.017 363.195C825.284 363.808 825.417 364.515 825.417 365.315V366.515H817.617V365.365H823.997L823.487 366.065C823.521 365.912 823.547 365.752 823.567 365.585C823.594 365.418 823.607 365.235 823.607 365.035C823.607 364.495 823.514 364.048 823.327 363.695C823.141 363.335 822.857 363.065 822.477 362.885C822.097 362.705 821.617 362.615 821.037 362.615C820.604 362.615 820.227 362.662 819.907 362.755C819.587 362.848 819.324 362.968 819.117 363.115ZM833.16 372.055C832.786 372.055 832.456 371.982 832.17 371.835C831.89 371.688 831.666 371.478 831.5 371.205C831.34 370.925 831.26 370.605 831.26 370.245C831.26 369.878 831.34 369.558 831.5 369.285C831.666 369.012 831.89 368.805 832.17 368.665C832.456 368.525 832.773 368.455 833.12 368.455C833.506 368.455 833.853 368.545 834.16 368.725C834.473 368.898 834.72 369.165 834.9 369.525C835.08 369.885 835.17 370.335 835.17 370.875C835.17 371.868 834.873 372.818 834.28 373.725C833.693 374.632 832.943 375.435 832.03 376.135L831.08 375.345C831.88 374.678 832.503 374.028 832.95 373.395C833.403 372.768 833.666 372.118 833.74 371.445L834.11 371.845C833.816 371.985 833.5 372.055 833.16 372.055ZM413.83 401.705V394.525C413.83 394.125 413.74 393.802 413.56 393.555C413.38 393.308 413.133 393.132 412.82 393.025C412.507 392.912 412.137 392.855 411.71 392.855C410.977 392.855 410.21 392.932 409.41 393.085C408.61 393.238 407.793 393.472 406.96 393.785L407.3 391.935C407.973 391.715 408.69 391.538 409.45 391.405C410.21 391.272 410.963 391.205 411.71 391.205C412.65 391.205 413.417 391.312 414.01 391.525C414.61 391.732 415.05 392.052 415.33 392.485C415.617 392.912 415.76 393.458 415.76 394.125V401.705H413.83ZM414.04 397.095C413.253 397.082 412.48 397.095 411.72 397.135C410.967 397.175 410.337 397.268 409.83 397.415C409.337 397.555 408.993 397.742 408.8 397.975C408.613 398.208 408.52 398.488 408.52 398.815C408.52 399.148 408.603 399.442 408.77 399.695C408.943 399.948 409.19 400.148 409.51 400.295C409.837 400.435 410.22 400.505 410.66 400.505C411.127 400.505 411.657 400.432 412.25 400.285C412.843 400.132 413.423 399.912 413.99 399.625L414.1 400.835H413.66C413.033 401.222 412.393 401.505 411.74 401.685C411.093 401.858 410.497 401.945 409.95 401.945C409.243 401.945 408.637 401.822 408.13 401.575C407.623 401.328 407.24 400.995 406.98 400.575C406.727 400.148 406.6 399.672 406.6 399.145C406.6 398.238 407 397.535 407.8 397.035C408.6 396.535 409.543 396.195 410.63 396.015C411.717 395.835 412.847 395.735 414.02 395.715L414.04 397.095ZM424.972 391.205C425.512 391.205 426.022 391.238 426.502 391.305C426.989 391.372 427.459 391.465 427.912 391.585L427.982 393.265C427.276 393.118 426.599 393.002 425.952 392.915C425.306 392.828 424.649 392.785 423.982 392.785C423.416 392.785 422.936 392.825 422.542 392.905C422.156 392.978 421.849 393.098 421.622 393.265C421.482 393.358 421.376 393.468 421.302 393.595C421.236 393.722 421.202 393.858 421.202 394.005C421.202 394.232 421.299 394.435 421.492 394.615C421.686 394.795 421.972 394.962 422.352 395.115C422.739 395.268 423.262 395.425 423.922 395.585L424.562 395.745C425.449 395.952 426.149 396.155 426.662 396.355C427.182 396.555 427.599 396.835 427.912 397.195C428.226 397.555 428.382 398.028 428.382 398.615C428.382 399.288 428.172 399.872 427.752 400.365C427.339 400.858 426.732 401.238 425.932 401.505C425.139 401.772 424.182 401.905 423.062 401.905C422.389 401.905 421.756 401.858 421.162 401.765C420.569 401.678 420.002 401.555 419.462 401.395L419.322 399.575C420.096 399.802 420.899 399.988 421.732 400.135C422.566 400.275 423.386 400.345 424.192 400.345C424.652 400.345 425.046 400.318 425.372 400.265C425.706 400.205 425.982 400.102 426.202 399.955L426.222 399.945C426.356 399.852 426.459 399.735 426.532 399.595C426.606 399.448 426.642 399.278 426.642 399.085C426.642 398.752 426.522 398.482 426.282 398.275C426.049 398.068 425.722 397.898 425.302 397.765C424.889 397.632 424.249 397.462 423.382 397.255C423.169 397.202 422.999 397.158 422.872 397.125C422.132 396.945 421.519 396.738 421.032 396.505C420.552 396.265 420.182 395.972 419.922 395.625C419.669 395.278 419.542 394.858 419.542 394.365C419.542 393.652 419.792 393.058 420.292 392.585C420.792 392.112 421.452 391.765 422.272 391.545C423.092 391.318 423.992 391.205 424.972 391.205ZM450.647 401.695C450.234 400.595 449.867 399.505 449.547 398.425C449.227 397.345 448.957 396.322 448.737 395.355H448.577C448.037 397.588 447.364 399.702 446.557 401.695H445.327C444.6 399.975 444.02 398.278 443.587 396.605C443.16 394.932 442.87 393.208 442.717 391.435H444.577C444.69 392.762 444.884 394.058 445.157 395.325C445.43 396.585 445.764 397.798 446.157 398.965H446.317C446.63 398.152 446.93 397.258 447.217 396.285C447.51 395.312 447.78 394.332 448.027 393.345L448.077 393.155H449.427L449.547 393.655C449.767 394.575 450.004 395.498 450.257 396.425C450.517 397.345 450.784 398.192 451.057 398.965H451.217C451.617 397.772 451.96 396.545 452.247 395.285C452.534 394.018 452.737 392.735 452.857 391.435H454.597C454.444 393.215 454.147 394.942 453.707 396.615C453.274 398.282 452.684 399.975 451.937 401.695H450.647ZM459.449 393.115C459.116 393.362 458.826 393.728 458.579 394.215C458.333 394.702 458.209 395.355 458.209 396.175C458.209 397.022 458.326 397.752 458.559 398.365C458.793 398.972 459.206 399.455 459.799 399.815C460.393 400.168 461.209 400.345 462.249 400.345C462.809 400.345 463.343 400.298 463.849 400.205C464.363 400.105 464.843 399.975 465.289 399.815L465.199 401.315C464.726 401.495 464.199 401.645 463.619 401.765C463.039 401.885 462.409 401.945 461.729 401.945C460.563 401.945 459.579 401.745 458.779 401.345C457.979 400.945 457.376 400.365 456.969 399.605C456.563 398.838 456.359 397.915 456.359 396.835C456.359 395.608 456.609 394.572 457.109 393.725C457.609 392.878 458.273 392.245 459.099 391.825C459.926 391.405 460.833 391.195 461.819 391.195C462.746 391.195 463.499 391.375 464.079 391.735C464.666 392.095 465.089 392.582 465.349 393.195C465.616 393.808 465.749 394.515 465.749 395.315V396.515H457.949V395.365H464.329L463.819 396.065C463.853 395.912 463.879 395.752 463.899 395.585C463.926 395.418 463.939 395.235 463.939 395.035C463.939 394.495 463.846 394.048 463.659 393.695C463.473 393.335 463.189 393.065 462.809 392.885C462.429 392.705 461.949 392.615 461.369 392.615C460.936 392.615 460.559 392.662 460.239 392.755C459.919 392.848 459.656 392.968 459.449 393.115ZM472.442 401.705V387.485L472.892 387.935H468.802L469.002 386.405H474.362V401.705H472.442ZM468.672 400.175H478.232L478.032 401.705H468.872L468.672 400.175ZM484.844 401.705V387.485L485.294 387.935H481.204L481.404 386.405H486.764V401.705H484.844ZM481.074 400.175H490.634L490.434 401.705H481.274L481.074 400.175ZM513.049 401.705V394.525C513.049 394.125 512.959 393.802 512.779 393.555C512.599 393.308 512.352 393.132 512.039 393.025C511.725 392.912 511.355 392.855 510.929 392.855C510.195 392.855 509.429 392.932 508.629 393.085C507.829 393.238 507.012 393.472 506.179 393.785L506.519 391.935C507.192 391.715 507.909 391.538 508.669 391.405C509.429 391.272 510.182 391.205 510.929 391.205C511.869 391.205 512.635 391.312 513.229 391.525C513.829 391.732 514.269 392.052 514.549 392.485C514.835 392.912 514.979 393.458 514.979 394.125V401.705H513.049ZM513.259 397.095C512.472 397.082 511.699 397.095 510.939 397.135C510.185 397.175 509.555 397.268 509.049 397.415C508.555 397.555 508.212 397.742 508.019 397.975C507.832 398.208 507.739 398.488 507.739 398.815C507.739 399.148 507.822 399.442 507.989 399.695C508.162 399.948 508.409 400.148 508.729 400.295C509.055 400.435 509.439 400.505 509.879 400.505C510.345 400.505 510.875 400.432 511.469 400.285C512.062 400.132 512.642 399.912 513.209 399.625L513.319 400.835H512.879C512.252 401.222 511.612 401.505 510.959 401.685C510.312 401.858 509.715 401.945 509.169 401.945C508.462 401.945 507.855 401.822 507.349 401.575C506.842 401.328 506.459 400.995 506.199 400.575C505.945 400.148 505.819 399.672 505.819 399.145C505.819 398.238 506.219 397.535 507.019 397.035C507.819 396.535 508.762 396.195 509.849 396.015C510.935 395.835 512.065 395.735 513.239 395.715L513.259 397.095ZM524.191 391.205C524.731 391.205 525.241 391.238 525.721 391.305C526.208 391.372 526.678 391.465 527.131 391.585L527.201 393.265C526.494 393.118 525.818 393.002 525.171 392.915C524.524 392.828 523.868 392.785 523.201 392.785C522.634 392.785 522.154 392.825 521.761 392.905C521.374 392.978 521.068 393.098 520.841 393.265C520.701 393.358 520.594 393.468 520.521 393.595C520.454 393.722 520.421 393.858 520.421 394.005C520.421 394.232 520.518 394.435 520.711 394.615C520.904 394.795 521.191 394.962 521.571 395.115C521.958 395.268 522.481 395.425 523.141 395.585L523.781 395.745C524.668 395.952 525.368 396.155 525.881 396.355C526.401 396.555 526.818 396.835 527.131 397.195C527.444 397.555 527.601 398.028 527.601 398.615C527.601 399.288 527.391 399.872 526.971 400.365C526.558 400.858 525.951 401.238 525.151 401.505C524.358 401.772 523.401 401.905 522.281 401.905C521.608 401.905 520.974 401.858 520.381 401.765C519.788 401.678 519.221 401.555 518.681 401.395L518.541 399.575C519.314 399.802 520.118 399.988 520.951 400.135C521.784 400.275 522.604 400.345 523.411 400.345C523.871 400.345 524.264 400.318 524.591 400.265C524.924 400.205 525.201 400.102 525.421 399.955L525.441 399.945C525.574 399.852 525.678 399.735 525.751 399.595C525.824 399.448 525.861 399.278 525.861 399.085C525.861 398.752 525.741 398.482 525.501 398.275C525.268 398.068 524.941 397.898 524.521 397.765C524.108 397.632 523.468 397.462 522.601 397.255C522.388 397.202 522.218 397.158 522.091 397.125C521.351 396.945 520.738 396.738 520.251 396.505C519.771 396.265 519.401 395.972 519.141 395.625C518.888 395.278 518.761 394.858 518.761 394.365C518.761 393.652 519.011 393.058 519.511 392.585C520.011 392.112 520.671 391.765 521.491 391.545C522.311 391.318 523.211 391.205 524.191 391.205ZM544.896 401.705H543.166V391.425H544.796V393.025L544.896 393.165V401.705ZM546.996 401.705V393.745C546.996 393.405 546.926 393.165 546.786 393.025C546.646 392.878 546.462 392.805 546.236 392.805C545.929 392.805 545.632 392.905 545.346 393.105C545.066 393.298 544.776 393.562 544.476 393.895L544.426 393.955L544.546 392.725H544.896C545.142 392.258 545.456 391.888 545.836 391.615C546.216 391.342 546.656 391.205 547.156 391.205C547.496 391.205 547.779 391.272 548.006 391.405C548.239 391.538 548.412 391.745 548.526 392.025C548.646 392.298 548.706 392.645 548.706 393.065L548.746 401.705H546.996ZM550.836 401.705V393.745C550.836 393.405 550.766 393.165 550.626 393.025C550.486 392.878 550.302 392.805 550.076 392.805C549.762 392.805 549.462 392.905 549.176 393.105C548.889 393.305 548.592 393.575 548.286 393.915L548.266 393.955L548.386 392.725H548.756C549.002 392.252 549.312 391.882 549.686 391.615C550.059 391.342 550.496 391.205 550.996 391.205C551.336 391.205 551.619 391.272 551.846 391.405C552.079 391.538 552.252 391.745 552.366 392.025C552.486 392.298 552.546 392.645 552.546 393.065L552.586 401.705H550.836ZM562.658 401.705V394.525C562.658 394.125 562.568 393.802 562.388 393.555C562.208 393.308 561.961 393.132 561.648 393.025C561.335 392.912 560.965 392.855 560.538 392.855C559.805 392.855 559.038 392.932 558.238 393.085C557.438 393.238 556.621 393.472 555.788 393.785L556.128 391.935C556.801 391.715 557.518 391.538 558.278 391.405C559.038 391.272 559.791 391.205 560.538 391.205C561.478 391.205 562.245 391.312 562.838 391.525C563.438 391.732 563.878 392.052 564.158 392.485C564.445 392.912 564.588 393.458 564.588 394.125V401.705H562.658ZM562.868 397.095C562.081 397.082 561.308 397.095 560.548 397.135C559.795 397.175 559.165 397.268 558.658 397.415C558.165 397.555 557.821 397.742 557.628 397.975C557.441 398.208 557.348 398.488 557.348 398.815C557.348 399.148 557.431 399.442 557.598 399.695C557.771 399.948 558.018 400.148 558.338 400.295C558.665 400.435 559.048 400.505 559.488 400.505C559.955 400.505 560.485 400.432 561.078 400.285C561.671 400.132 562.251 399.912 562.818 399.625L562.928 400.835H562.488C561.861 401.222 561.221 401.505 560.568 401.685C559.921 401.858 559.325 401.945 558.778 401.945C558.071 401.945 557.465 401.822 556.958 401.575C556.451 401.328 556.068 400.995 555.808 400.575C555.555 400.148 555.428 399.672 555.428 399.145C555.428 398.238 555.828 397.535 556.628 397.035C557.428 396.535 558.371 396.195 559.458 396.015C560.545 395.835 561.675 395.735 562.848 395.715L562.868 397.095ZM570.26 386.405V401.705H568.34V386.405H570.26ZM577.85 391.435C577.177 392.275 576.517 393.045 575.87 393.745C575.23 394.438 574.507 395.168 573.7 395.935V396.065C574.587 396.918 575.424 397.795 576.21 398.695C577.004 399.595 577.764 400.598 578.49 401.705H576.08C575.42 400.745 574.75 399.858 574.07 399.045C573.397 398.232 572.65 397.408 571.83 396.575L572.8 396.945H569.82V395.415H572.86L571.69 395.895C572.517 395.088 573.244 394.328 573.87 393.615C574.497 392.902 575.09 392.175 575.65 391.435H577.85ZM586.013 391.435V401.705H584.093V392.515L584.543 392.965H580.423L580.623 391.435H586.013ZM580.293 400.175H589.923L589.723 401.705H580.493L580.293 400.175ZM584.683 388.845C584.409 388.845 584.166 388.795 583.953 388.695C583.746 388.588 583.583 388.438 583.463 388.245C583.349 388.045 583.293 387.815 583.293 387.555C583.293 387.162 583.419 386.852 583.673 386.625C583.933 386.392 584.269 386.275 584.683 386.275C585.096 386.275 585.429 386.392 585.683 386.625C585.943 386.852 586.073 387.165 586.073 387.565C586.073 387.958 585.943 388.272 585.683 388.505C585.429 388.732 585.096 388.845 584.683 388.845ZM595.065 401.705H593.145V391.425H594.965V393.025L595.065 393.165V401.705ZM599.875 401.705V394.515C599.875 394.088 599.802 393.745 599.655 393.485C599.515 393.225 599.315 393.038 599.055 392.925C598.802 392.805 598.492 392.745 598.125 392.745C597.558 392.745 596.972 392.868 596.365 393.115C595.765 393.355 595.162 393.685 594.555 394.105L594.655 392.735H595.055C595.602 392.255 596.212 391.882 596.885 391.615C597.558 391.342 598.245 391.205 598.945 391.205C599.852 391.205 600.548 391.438 601.035 391.905C601.528 392.372 601.778 393.025 601.785 393.865L601.825 401.705H599.875ZM609.178 398.065C608.384 398.065 607.671 397.922 607.038 397.635C606.411 397.342 605.921 396.942 605.568 396.435C605.214 395.928 605.038 395.368 605.038 394.755C605.038 394.082 605.231 393.475 605.618 392.935C606.004 392.395 606.544 391.972 607.238 391.665C607.931 391.352 608.721 391.195 609.608 391.195C610.254 391.195 610.841 391.282 611.368 391.455C611.894 391.628 612.364 391.892 612.778 392.245L612.858 392.625C612.878 392.645 612.901 392.668 612.928 392.695C613.168 392.942 613.358 393.218 613.498 393.525C613.644 393.832 613.718 394.185 613.718 394.585C613.718 395.265 613.514 395.872 613.108 396.405C612.708 396.932 612.161 397.342 611.468 397.635C610.781 397.922 610.018 398.065 609.178 398.065ZM612.238 391.965C612.611 391.745 613.041 391.548 613.528 391.375C614.014 391.202 614.501 391.102 614.987 391.075L615.298 392.525L612.398 392.695L612.238 391.965ZM608.798 397.485L608.278 398.965C608.238 399.105 608.224 399.222 608.238 399.315C608.251 399.402 608.291 399.472 608.358 399.525C608.424 399.572 608.521 399.608 608.648 399.635L608.708 399.645L612.718 400.355L612.798 400.365C613.258 400.452 613.658 400.572 613.998 400.725C614.344 400.872 614.634 401.095 614.868 401.395C615.101 401.695 615.217 402.088 615.217 402.575C615.217 403.288 614.944 403.905 614.398 404.425C613.858 404.945 613.121 405.342 612.188 405.615C611.254 405.888 610.208 406.025 609.048 406.025C608.148 406.025 607.344 405.938 606.638 405.765C605.931 405.592 605.374 405.325 604.968 404.965C604.561 404.605 604.358 404.162 604.358 403.635C604.358 403.228 604.491 402.855 604.758 402.515C605.024 402.175 605.458 401.812 606.058 401.425L607.508 400.515L608.268 401.065C608.101 401.145 607.924 401.235 607.738 401.335C607.438 401.515 607.178 401.698 606.958 401.885C606.738 402.078 606.558 402.288 606.418 402.515C606.278 402.748 606.208 402.995 606.208 403.255C606.208 403.588 606.334 403.865 606.588 404.085C606.841 404.305 607.204 404.468 607.678 404.575C608.151 404.688 608.718 404.745 609.378 404.745C610.118 404.745 610.798 404.678 611.418 404.545C612.038 404.418 612.531 404.222 612.898 403.955C613.264 403.695 613.448 403.382 613.448 403.015C613.448 402.715 613.311 402.475 613.038 402.295C612.771 402.115 612.348 401.975 611.768 401.875L608.588 401.335C608.154 401.262 607.798 401.168 607.518 401.055C607.238 400.935 607.024 400.795 606.878 400.635C606.738 400.468 606.668 400.275 606.668 400.055C606.668 399.862 606.714 399.645 606.808 399.405C606.908 399.165 607.044 398.885 607.218 398.565C607.318 398.378 607.378 398.258 607.398 398.205L607.818 397.285L608.798 397.485ZM611.918 394.935C611.918 394.175 611.688 393.592 611.228 393.185C610.768 392.778 610.041 392.575 609.048 392.575C608.601 392.575 608.241 392.612 607.968 392.685C607.701 392.758 607.491 392.855 607.338 392.975C607.198 393.088 607.088 393.258 607.008 393.485C606.928 393.712 606.888 394.012 606.888 394.385C606.888 395.145 607.118 395.728 607.578 396.135C608.038 396.542 608.764 396.745 609.758 396.745C610.204 396.745 610.561 396.708 610.828 396.635C611.101 396.562 611.314 396.465 611.468 396.345C611.608 396.232 611.718 396.062 611.798 395.835C611.878 395.608 611.918 395.308 611.918 394.935ZM635.622 391.435V401.705H633.702V392.515L634.152 392.965H630.032L630.232 391.435H635.622ZM629.902 400.175H639.532L639.332 401.705H630.102L629.902 400.175ZM634.292 388.845C634.019 388.845 633.776 388.795 633.562 388.695C633.356 388.588 633.192 388.438 633.072 388.245C632.959 388.045 632.902 387.815 632.902 387.555C632.902 387.162 633.029 386.852 633.282 386.625C633.542 386.392 633.879 386.275 634.292 386.275C634.706 386.275 635.039 386.392 635.292 386.625C635.552 386.852 635.682 387.165 635.682 387.565C635.682 387.958 635.552 388.272 635.292 388.505C635.039 388.732 634.706 388.845 634.292 388.845ZM646.785 391.995V398.835C646.785 399.182 646.845 399.462 646.965 399.675C647.085 399.888 647.291 400.052 647.585 400.165C647.885 400.272 648.301 400.325 648.835 400.325C649.281 400.325 649.748 400.282 650.235 400.195C650.728 400.108 651.188 400.008 651.615 399.895L651.425 401.385C650.938 401.552 650.428 401.685 649.895 401.785C649.361 401.885 648.781 401.935 648.155 401.935C647.355 401.935 646.715 401.838 646.235 401.645C645.755 401.452 645.405 401.152 645.185 400.745C644.971 400.332 644.865 399.782 644.865 399.095V391.995H646.785ZM651.695 391.435L651.355 392.935H642.005V392.115L646.145 388.965H646.775V392.035L645.925 391.435H651.695ZM669.239 405.545H667.319V391.425H669.099V392.945L669.239 393.085V405.545ZM677.039 396.095C677.039 397.335 676.799 398.395 676.319 399.275C675.846 400.148 675.196 400.812 674.369 401.265C673.549 401.712 672.616 401.935 671.569 401.935C670.883 401.935 670.226 401.842 669.599 401.655C668.973 401.468 668.386 401.192 667.839 400.825L668.539 399.495C669.086 399.828 669.639 400.078 670.199 400.245C670.759 400.412 671.326 400.495 671.899 400.495C672.279 400.495 672.616 400.455 672.909 400.375C673.203 400.288 673.493 400.145 673.779 399.945C674.139 399.698 674.429 399.322 674.649 398.815C674.876 398.308 674.989 397.565 674.989 396.585C674.989 395.432 674.776 394.498 674.349 393.785C673.923 393.072 673.166 392.715 672.079 392.715C671.539 392.715 670.979 392.815 670.399 393.015C669.826 393.208 669.239 393.475 668.639 393.815L668.989 392.555H669.329C669.836 392.135 670.373 391.805 670.939 391.565C671.513 391.325 672.153 391.205 672.859 391.205C673.759 391.205 674.523 391.408 675.149 391.815C675.776 392.222 676.246 392.792 676.559 393.525C676.879 394.252 677.039 395.108 677.039 396.095ZM684.022 393.885L684.192 394.045V401.705H682.272V391.435H684.022V393.885ZM679.372 400.175H687.962L687.732 401.705H679.602L679.372 400.175ZM679.572 391.435H683.602V392.965H679.332L679.572 391.435ZM689.492 393.095C688.745 393.075 688.058 393.122 687.432 393.235C686.812 393.342 686.218 393.508 685.652 393.735C685.092 393.962 684.498 394.262 683.872 394.635L683.672 393.595H684.182C684.482 393.108 684.855 392.685 685.302 392.325C685.748 391.965 686.248 391.688 686.802 391.495C687.362 391.302 687.945 391.205 688.552 391.205C688.858 391.205 689.138 391.235 689.392 391.295L689.492 393.095ZM697.634 391.435V401.705H695.714V392.515L696.164 392.965H692.044L692.244 391.435H697.634ZM691.914 400.175H701.544L701.344 401.705H692.114L691.914 400.175ZM696.304 388.845C696.031 388.845 695.787 388.795 695.574 388.695C695.367 388.588 695.204 388.438 695.084 388.245C694.971 388.045 694.914 387.815 694.914 387.555C694.914 387.162 695.041 386.852 695.294 386.625C695.554 386.392 695.891 386.275 696.304 386.275C696.717 386.275 697.051 386.392 697.304 386.625C697.564 386.852 697.694 387.165 697.694 387.565C697.694 387.958 697.564 388.272 697.304 388.505C697.051 388.732 696.717 388.845 696.304 388.845ZM706.016 391.435C706.283 392.908 706.673 394.338 707.186 395.725C707.706 397.105 708.34 398.442 709.086 399.735H709.256C710.01 398.448 710.643 397.112 711.156 395.725C711.676 394.338 712.07 392.908 712.336 391.435H714.216C713.863 393.182 713.33 394.922 712.616 396.655C711.91 398.388 711.026 400.072 709.966 401.705H708.266C707.2 400.065 706.313 398.385 705.606 396.665C704.9 394.945 704.356 393.202 703.976 391.435H706.016ZM723.889 401.705V394.525C723.889 394.125 723.799 393.802 723.619 393.555C723.439 393.308 723.192 393.132 722.879 393.025C722.565 392.912 722.195 392.855 721.769 392.855C721.035 392.855 720.269 392.932 719.469 393.085C718.669 393.238 717.852 393.472 717.019 393.785L717.359 391.935C718.032 391.715 718.749 391.538 719.509 391.405C720.269 391.272 721.022 391.205 721.769 391.205C722.709 391.205 723.475 391.312 724.069 391.525C724.669 391.732 725.109 392.052 725.389 392.485C725.675 392.912 725.819 393.458 725.819 394.125V401.705H723.889ZM724.099 397.095C723.312 397.082 722.539 397.095 721.779 397.135C721.025 397.175 720.395 397.268 719.889 397.415C719.395 397.555 719.052 397.742 718.859 397.975C718.672 398.208 718.579 398.488 718.579 398.815C718.579 399.148 718.662 399.442 718.829 399.695C719.002 399.948 719.249 400.148 719.569 400.295C719.895 400.435 720.279 400.505 720.719 400.505C721.185 400.505 721.715 400.432 722.309 400.285C722.902 400.132 723.482 399.912 724.049 399.625L724.159 400.835H723.719C723.092 401.222 722.452 401.505 721.799 401.685C721.152 401.858 720.555 401.945 720.009 401.945C719.302 401.945 718.695 401.822 718.189 401.575C717.682 401.328 717.299 400.995 717.039 400.575C716.785 400.148 716.659 399.672 716.659 399.145C716.659 398.238 717.059 397.535 717.859 397.035C718.659 396.535 719.602 396.195 720.689 396.015C721.775 395.835 722.905 395.735 724.079 395.715L724.099 397.095ZM733.601 391.995V398.835C733.601 399.182 733.661 399.462 733.781 399.675C733.901 399.888 734.108 400.052 734.401 400.165C734.701 400.272 735.118 400.325 735.651 400.325C736.098 400.325 736.564 400.282 737.051 400.195C737.544 400.108 738.004 400.008 738.431 399.895L738.241 401.385C737.754 401.552 737.244 401.685 736.711 401.785C736.178 401.885 735.598 401.935 734.971 401.935C734.171 401.935 733.531 401.838 733.051 401.645C732.571 401.452 732.221 401.152 732.001 400.745C731.788 400.332 731.681 399.782 731.681 399.095V391.995H733.601ZM738.511 391.435L738.171 392.935H728.821V392.115L732.961 388.965H733.591V392.035L732.741 391.435H738.511ZM744.703 393.115C744.37 393.362 744.08 393.728 743.833 394.215C743.587 394.702 743.463 395.355 743.463 396.175C743.463 397.022 743.58 397.752 743.813 398.365C744.047 398.972 744.46 399.455 745.053 399.815C745.647 400.168 746.463 400.345 747.503 400.345C748.063 400.345 748.597 400.298 749.103 400.205C749.617 400.105 750.097 399.975 750.543 399.815L750.453 401.315C749.98 401.495 749.453 401.645 748.873 401.765C748.293 401.885 747.663 401.945 746.983 401.945C745.817 401.945 744.833 401.745 744.033 401.345C743.233 400.945 742.63 400.365 742.223 399.605C741.817 398.838 741.613 397.915 741.613 396.835C741.613 395.608 741.863 394.572 742.363 393.725C742.863 392.878 743.527 392.245 744.353 391.825C745.18 391.405 746.087 391.195 747.073 391.195C748 391.195 748.753 391.375 749.333 391.735C749.92 392.095 750.343 392.582 750.603 393.195C750.87 393.808 751.003 394.515 751.003 395.315V396.515H743.203V395.365H749.583L749.073 396.065C749.107 395.912 749.133 395.752 749.153 395.585C749.18 395.418 749.193 395.235 749.193 395.035C749.193 394.495 749.1 394.048 748.913 393.695C748.727 393.335 748.443 393.065 748.063 392.885C747.683 392.705 747.203 392.615 746.623 392.615C746.19 392.615 745.813 392.662 745.493 392.755C745.173 392.848 744.91 392.968 744.703 393.115ZM773.498 401.705V394.525C773.498 394.125 773.408 393.802 773.228 393.555C773.048 393.308 772.801 393.132 772.488 393.025C772.175 392.912 771.805 392.855 771.378 392.855C770.645 392.855 769.878 392.932 769.078 393.085C768.278 393.238 767.461 393.472 766.628 393.785L766.968 391.935C767.641 391.715 768.358 391.538 769.118 391.405C769.878 391.272 770.631 391.205 771.378 391.205C772.318 391.205 773.085 391.312 773.678 391.525C774.278 391.732 774.718 392.052 774.998 392.485C775.285 392.912 775.428 393.458 775.428 394.125V401.705H773.498ZM773.708 397.095C772.921 397.082 772.148 397.095 771.388 397.135C770.635 397.175 770.005 397.268 769.498 397.415C769.005 397.555 768.661 397.742 768.468 397.975C768.281 398.208 768.188 398.488 768.188 398.815C768.188 399.148 768.271 399.442 768.438 399.695C768.611 399.948 768.858 400.148 769.178 400.295C769.505 400.435 769.888 400.505 770.328 400.505C770.795 400.505 771.325 400.432 771.918 400.285C772.511 400.132 773.091 399.912 773.658 399.625L773.768 400.835H773.328C772.701 401.222 772.061 401.505 771.408 401.685C770.761 401.858 770.165 401.945 769.618 401.945C768.911 401.945 768.305 401.822 767.798 401.575C767.291 401.328 766.908 400.995 766.648 400.575C766.395 400.148 766.268 399.672 766.268 399.145C766.268 398.238 766.668 397.535 767.468 397.035C768.268 396.535 769.211 396.195 770.298 396.015C771.385 395.835 772.515 395.735 773.688 395.715L773.708 397.095ZM782.81 398.065C782.017 398.065 781.304 397.922 780.67 397.635C780.044 397.342 779.554 396.942 779.2 396.435C778.847 395.928 778.67 395.368 778.67 394.755C778.67 394.082 778.864 393.475 779.25 392.935C779.637 392.395 780.177 391.972 780.87 391.665C781.564 391.352 782.354 391.195 783.24 391.195C783.887 391.195 784.474 391.282 785 391.455C785.527 391.628 785.997 391.892 786.41 392.245L786.49 392.625C786.51 392.645 786.534 392.668 786.56 392.695C786.8 392.942 786.99 393.218 787.13 393.525C787.277 393.832 787.35 394.185 787.35 394.585C787.35 395.265 787.147 395.872 786.74 396.405C786.34 396.932 785.794 397.342 785.1 397.635C784.414 397.922 783.65 398.065 782.81 398.065ZM785.87 391.965C786.244 391.745 786.674 391.548 787.16 391.375C787.647 391.202 788.134 391.102 788.62 391.075L788.93 392.525L786.03 392.695L785.87 391.965ZM782.43 397.485L781.91 398.965C781.87 399.105 781.857 399.222 781.87 399.315C781.884 399.402 781.924 399.472 781.99 399.525C782.057 399.572 782.154 399.608 782.28 399.635L782.34 399.645L786.35 400.355L786.43 400.365C786.89 400.452 787.29 400.572 787.63 400.725C787.977 400.872 788.267 401.095 788.5 401.395C788.734 401.695 788.85 402.088 788.85 402.575C788.85 403.288 788.577 403.905 788.03 404.425C787.49 404.945 786.754 405.342 785.82 405.615C784.887 405.888 783.84 406.025 782.68 406.025C781.78 406.025 780.977 405.938 780.27 405.765C779.564 405.592 779.007 405.325 778.6 404.965C778.194 404.605 777.99 404.162 777.99 403.635C777.99 403.228 778.124 402.855 778.39 402.515C778.657 402.175 779.09 401.812 779.69 401.425L781.14 400.515L781.9 401.065C781.734 401.145 781.557 401.235 781.37 401.335C781.07 401.515 780.81 401.698 780.59 401.885C780.37 402.078 780.19 402.288 780.05 402.515C779.91 402.748 779.84 402.995 779.84 403.255C779.84 403.588 779.967 403.865 780.22 404.085C780.474 404.305 780.837 404.468 781.31 404.575C781.784 404.688 782.35 404.745 783.01 404.745C783.75 404.745 784.43 404.678 785.05 404.545C785.67 404.418 786.164 404.222 786.53 403.955C786.897 403.695 787.08 403.382 787.08 403.015C787.08 402.715 786.944 402.475 786.67 402.295C786.404 402.115 785.98 401.975 785.4 401.875L782.22 401.335C781.787 401.262 781.43 401.168 781.15 401.055C780.87 400.935 780.657 400.795 780.51 400.635C780.37 400.468 780.3 400.275 780.3 400.055C780.3 399.862 780.347 399.645 780.44 399.405C780.54 399.165 780.677 398.885 780.85 398.565C780.95 398.378 781.01 398.258 781.03 398.205L781.45 397.285L782.43 397.485ZM785.55 394.935C785.55 394.175 785.32 393.592 784.86 393.185C784.4 392.778 783.674 392.575 782.68 392.575C782.234 392.575 781.874 392.612 781.6 392.685C781.334 392.758 781.124 392.855 780.97 392.975C780.83 393.088 780.72 393.258 780.64 393.485C780.56 393.712 780.52 394.012 780.52 394.385C780.52 395.145 780.75 395.728 781.21 396.135C781.67 396.542 782.397 396.745 783.39 396.745C783.837 396.745 784.194 396.708 784.46 396.635C784.734 396.562 784.947 396.465 785.1 396.345C785.24 396.232 785.35 396.062 785.43 395.835C785.51 395.608 785.55 395.308 785.55 394.935ZM798.303 401.705V394.525C798.303 394.125 798.213 393.802 798.033 393.555C797.853 393.308 797.606 393.132 797.293 393.025C796.979 392.912 796.609 392.855 796.183 392.855C795.449 392.855 794.683 392.932 793.883 393.085C793.083 393.238 792.266 393.472 791.433 393.785L791.773 391.935C792.446 391.715 793.163 391.538 793.923 391.405C794.683 391.272 795.436 391.205 796.183 391.205C797.123 391.205 797.889 391.312 798.483 391.525C799.083 391.732 799.523 392.052 799.803 392.485C800.089 392.912 800.233 393.458 800.233 394.125V401.705H798.303ZM798.513 397.095C797.726 397.082 796.953 397.095 796.193 397.135C795.439 397.175 794.809 397.268 794.303 397.415C793.809 397.555 793.466 397.742 793.273 397.975C793.086 398.208 792.993 398.488 792.993 398.815C792.993 399.148 793.076 399.442 793.243 399.695C793.416 399.948 793.663 400.148 793.983 400.295C794.309 400.435 794.693 400.505 795.133 400.505C795.599 400.505 796.129 400.432 796.723 400.285C797.316 400.132 797.896 399.912 798.463 399.625L798.573 400.835H798.133C797.506 401.222 796.866 401.505 796.213 401.685C795.566 401.858 794.969 401.945 794.423 401.945C793.716 401.945 793.109 401.822 792.603 401.575C792.096 401.328 791.713 400.995 791.453 400.575C791.199 400.148 791.073 399.672 791.073 399.145C791.073 398.238 791.473 397.535 792.273 397.035C793.073 396.535 794.016 396.195 795.103 396.015C796.189 395.835 797.319 395.735 798.493 395.715L798.513 397.095ZM809.255 391.435V401.705H807.335V392.515L807.785 392.965H803.665L803.865 391.435H809.255ZM803.535 400.175H813.165L812.965 401.705H803.735L803.535 400.175ZM807.925 388.845C807.652 388.845 807.408 388.795 807.195 388.695C806.988 388.588 806.825 388.438 806.705 388.245C806.592 388.045 806.535 387.815 806.535 387.555C806.535 387.162 806.662 386.852 806.915 386.625C807.175 386.392 807.512 386.275 807.925 386.275C808.338 386.275 808.672 386.392 808.925 386.625C809.185 386.852 809.315 387.165 809.315 387.565C809.315 387.958 809.185 388.272 808.925 388.505C808.672 388.732 808.338 388.845 807.925 388.845ZM818.307 401.705H816.387V391.425H818.207V393.025L818.307 393.165V401.705ZM823.117 401.705V394.515C823.117 394.088 823.044 393.745 822.897 393.485C822.757 393.225 822.557 393.038 822.297 392.925C822.044 392.805 821.734 392.745 821.367 392.745C820.801 392.745 820.214 392.868 819.607 393.115C819.007 393.355 818.404 393.685 817.797 394.105L817.897 392.735H818.297C818.844 392.255 819.454 391.882 820.127 391.615C820.801 391.342 821.487 391.205 822.187 391.205C823.094 391.205 823.791 391.438 824.277 391.905C824.771 392.372 825.021 393.025 825.027 393.865L825.067 401.705H823.117Z" fill="black"/>
</g>
<defs>
<linearGradient id="paint0_linear_7396_39129" x1="634.75" y1="0" x2="634.75" y2="760" gradientUnits="userSpaceOnUse">
<stop stop-color="#FAF9F6" stop-opacity="0"/>
<stop offset="0.42" stop-color="#FAF9F6" stop-opacity="0.8"/>
<stop offset="0.545" stop-color="#FAF9F6" stop-opacity="0.8"/>
<stop offset="0.99" stop-color="#FAF9F6" stop-opacity="0"/>
</linearGradient>
<clipPath id="clip0_7396_39129">
<rect width="1269.5" height="760" fill="white" transform="translate(0.5 0.705078)"/>
</clipPath>
</defs>
</svg>
