<svg width="1129" height="761" viewBox="0 0 1129 761" fill="none" xmlns="http://www.w3.org/2000/svg">
<line y1="-0.5" x2="1211" y2="-0.5" transform="matrix(0 1 -0.999984 -0.00571133 118.59 -146)" stroke="#E2D2B2" stroke-opacity="0.5"/>
<line y1="-0.5" x2="1211" y2="-0.5" transform="matrix(0 1 -0.999984 -0.00571133 214.941 -146)" stroke="#E2D2B2" stroke-opacity="0.5"/>
<line y1="-0.5" x2="1211" y2="-0.5" transform="matrix(0 1 -0.999984 -0.00571133 249.133 -146)" stroke="#E2D2B2" stroke-opacity="0.5"/>
<line y1="-0.5" x2="1211" y2="-0.5" transform="matrix(0 1 -0.999984 -0.00571133 345.484 -146)" stroke="#E2D2B2" stroke-opacity="0.5"/>
<line y1="-0.5" x2="1211" y2="-0.5" transform="matrix(0 1 -0.999984 -0.00571133 379.672 -146)" stroke="#E2D2B2" stroke-opacity="0.5"/>
<line y1="-0.5" x2="1211" y2="-0.5" transform="matrix(0 1 -0.999984 -0.00571133 476.023 -146)" stroke="#E2D2B2" stroke-opacity="0.5"/>
<line y1="-0.5" x2="1211" y2="-0.5" transform="matrix(0 1 -0.999984 -0.00571133 510.215 -146)" stroke="#E2D2B2" stroke-opacity="0.5"/>
<line y1="-0.5" x2="1211" y2="-0.5" transform="matrix(0 1 -0.999984 -0.00571133 606.562 -146)" stroke="#E2D2B2" stroke-opacity="0.5"/>
<line y1="-0.5" x2="1211" y2="-0.5" transform="matrix(0 1 -0.999984 -0.00571133 640.754 -146)" stroke="#E2D2B2" stroke-opacity="0.5"/>
<line y1="-0.5" x2="1211" y2="-0.5" transform="matrix(0 1 -0.999984 -0.00571133 737.102 -146)" stroke="#E2D2B2" stroke-opacity="0.5"/>
<line y1="-0.5" x2="1211" y2="-0.5" transform="matrix(0 1 -0.999984 -0.00571133 771.297 -146)" stroke="#E2D2B2" stroke-opacity="0.5"/>
<line y1="-0.5" x2="1211" y2="-0.5" transform="matrix(0 1 -0.999984 -0.00571133 867.645 -146)" stroke="#E2D2B2" stroke-opacity="0.5"/>
<line y1="-0.5" x2="1211" y2="-0.5" transform="matrix(0 1 -0.999984 -0.00571133 901.84 -146)" stroke="#E2D2B2" stroke-opacity="0.5"/>
<line y1="-0.5" x2="1211" y2="-0.5" transform="matrix(0 1 -0.999984 -0.00571133 998.184 -146)" stroke="#E2D2B2" stroke-opacity="0.5"/>
<line y1="-0.5" x2="1211" y2="-0.5" transform="matrix(0 1 -0.999984 -0.00571133 1032.38 -146)" stroke="#E2D2B2" stroke-opacity="0.5"/>
<line y1="-0.5" x2="1128.49" y2="-0.5" transform="matrix(1 0 -0.0078138 0.999969 0 749.43)" stroke="#E2D2B2" stroke-opacity="0.5"/>
<line y1="-0.5" x2="1128.49" y2="-0.5" transform="matrix(1 0 -0.0078138 0.999969 0.00390625 722.312)" stroke="#E2D2B2" stroke-opacity="0.5"/>
<line y1="-0.5" x2="1128.49" y2="-0.5" transform="matrix(1 0 -0.0078138 0.999969 0.00390625 645.914)" stroke="#E2D2B2" stroke-opacity="0.5"/>
<line y1="-0.5" x2="1128.49" y2="-0.5" transform="matrix(1 0 -0.0078138 0.999969 0.00390625 618.801)" stroke="#E2D2B2" stroke-opacity="0.5"/>
<line y1="-0.5" x2="1128.49" y2="-0.5" transform="matrix(1 0 -0.0078138 0.999969 0.00390625 542.398)" stroke="#E2D2B2" stroke-opacity="0.5"/>
<line y1="-0.5" x2="1128.49" y2="-0.5" transform="matrix(1 0 -0.0078138 0.999969 0.00390625 515.289)" stroke="#E2D2B2" stroke-opacity="0.5"/>
<line y1="-0.5" x2="1128.49" y2="-0.5" transform="matrix(1 0 -0.0078138 0.999969 0.00390625 438.887)" stroke="#E2D2B2" stroke-opacity="0.5"/>
<line y1="-0.5" x2="1128.49" y2="-0.5" transform="matrix(1 0 -0.0078138 0.999969 0 411.773)" stroke="#E2D2B2" stroke-opacity="0.5"/>
<line y1="-0.5" x2="1128.49" y2="-0.5" transform="matrix(1 0 -0.0078138 0.999969 0.00390625 335.375)" stroke="#E2D2B2" stroke-opacity="0.5"/>
<line y1="-0.5" x2="1128.49" y2="-0.5" transform="matrix(1 0 -0.0078138 0.999969 0.00390625 308.258)" stroke="#E2D2B2" stroke-opacity="0.5"/>
<line y1="-0.5" x2="1128.49" y2="-0.5" transform="matrix(1 0 -0.0078138 0.999969 0.00390625 231.859)" stroke="#E2D2B2" stroke-opacity="0.5"/>
<line y1="-0.5" x2="1128.49" y2="-0.5" transform="matrix(1 0 -0.0078138 0.999969 0.00390625 204.75)" stroke="#E2D2B2" stroke-opacity="0.5"/>
<line x1="4.37114e-08" y1="127.504" x2="1128" y2="127.504" stroke="#E2D2B2" stroke-opacity="0.5"/>
<line x1="4.37114e-08" y1="24.6914" x2="1128" y2="24.6915" stroke="#E2D2B2" stroke-opacity="0.5"/>
<line y1="-0.5" x2="1128.49" y2="-0.5" transform="matrix(1 0 -0.0078138 0.999969 0.00390625 101.234)" stroke="#E2D2B2" stroke-opacity="0.5"/>
</svg>
