<svg width="630" height="681" viewBox="0 0 630 681" fill="none" xmlns="http://www.w3.org/2000/svg">
<g clip-path="url(#clip0_7414_14326)">
<rect width="629.5" height="680" transform="matrix(-1 0 0 1 629.5 0.443359)" fill="#FAF9F6"/>
<path d="M628.5 656.287L-0.499983 15.7164" stroke="url(#paint0_linear_7414_14326)"/>
<path d="M585.5 656.287L-43.5 15.7164" stroke="url(#paint1_linear_7414_14326)"/>
<path d="M539.5 656.287L-89.5 15.7164" stroke="url(#paint2_linear_7414_14326)"/>
<path d="M488.5 656.287L-140.5 15.7164" stroke="url(#paint3_linear_7414_14326)"/>
<path d="M818.5 656.287L189.5 15.7164" stroke="url(#paint4_linear_7414_14326)"/>
<path d="M775.5 656.287L146.5 15.7164" stroke="url(#paint5_linear_7414_14326)"/>
<path d="M729.5 656.287L100.5 15.7164" stroke="url(#paint6_linear_7414_14326)"/>
<path d="M678.5 656.287L49.5 15.7164" stroke="url(#paint7_linear_7414_14326)"/>
<path d="M1010.5 656.287L381.5 15.7164" stroke="url(#paint8_linear_7414_14326)"/>
<path d="M967.5 656.287L338.5 15.7164" stroke="url(#paint9_linear_7414_14326)"/>
<path d="M921.5 656.287L292.5 15.7164" stroke="url(#paint10_linear_7414_14326)"/>
<path d="M870.5 656.287L241.5 15.7164" stroke="url(#paint11_linear_7414_14326)"/>
<path d="M1194.5 656.287L565.5 15.7164" stroke="url(#paint12_linear_7414_14326)"/>
<path d="M1151.5 656.287L522.5 15.7164" stroke="url(#paint13_linear_7414_14326)"/>
<path d="M1105.5 656.287L476.5 15.7164" stroke="url(#paint14_linear_7414_14326)"/>
<path d="M1054.5 656.287L425.5 15.7164" stroke="url(#paint15_linear_7414_14326)"/>
<path d="M1238.5 656.287L609.5 15.7164" stroke="url(#paint16_linear_7414_14326)"/>
<path d="M438.5 656.287L-190.5 15.7164" stroke="url(#paint17_linear_7414_14326)"/>
<path d="M389.5 656.287L-239.5 15.7164" stroke="url(#paint18_linear_7414_14326)"/>
<path d="M339.5 656.287L-301.04 3.95013" stroke="url(#paint19_linear_7414_14326)"/>
<path d="M288.5 656.287L-352.04 3.95013" stroke="url(#paint20_linear_7414_14326)"/>
<path d="M238.5 656.287L-402.04 3.95013" stroke="url(#paint21_linear_7414_14326)"/>
<path d="M189.5 656.287L-451.04 3.95013" stroke="url(#paint22_linear_7414_14326)"/>
<path d="M139.5 656.287L-501.04 3.95013" stroke="url(#paint23_linear_7414_14326)"/>
<path d="M88.5 656.287L-552.04 3.95013" stroke="url(#paint24_linear_7414_14326)"/>
<path d="M38.5 656.287L-602.04 3.95013" stroke="url(#paint25_linear_7414_14326)"/>
<rect width="629.5" height="680" transform="matrix(-1 0 0 1 629.5 0.443359)" fill="url(#paint26_linear_7414_14326)"/>
<path d="M64.177 332.614C63.067 332.614 62.191 332.293 61.549 331.651C60.907 331.003 60.46 330.175 60.208 329.167C59.956 328.153 59.83 327.031 59.83 325.801C59.83 324.373 60.025 323.161 60.415 322.165C60.805 321.163 61.351 320.41 62.053 319.906C62.755 319.396 63.571 319.141 64.501 319.141C65.611 319.141 66.487 319.465 67.129 320.113C67.771 320.755 68.215 321.58 68.461 322.588C68.707 323.596 68.83 324.718 68.83 325.954C68.83 327.382 68.635 328.597 68.245 329.599C67.861 330.595 67.318 331.348 66.616 331.858C65.92 332.362 65.107 332.614 64.177 332.614ZM64.402 331.291C64.78 331.291 65.11 331.237 65.392 331.129C65.674 331.015 65.905 330.868 66.085 330.688C66.223 330.544 66.358 330.328 66.49 330.04C66.622 329.752 66.736 329.329 66.832 328.771C66.928 328.213 66.976 327.502 66.976 326.638C66.976 325.198 66.901 324.046 66.751 323.182C66.601 322.312 66.325 321.655 65.923 321.211C65.527 320.767 64.969 320.545 64.249 320.545C63.871 320.545 63.541 320.599 63.259 320.707C62.977 320.815 62.746 320.959 62.566 321.139C62.332 321.373 62.122 321.796 61.936 322.408C61.756 323.02 61.666 323.92 61.666 325.108C61.666 326.548 61.741 327.709 61.891 328.591C62.047 329.467 62.323 330.136 62.719 330.598C63.121 331.06 63.682 331.291 64.402 331.291ZM75.2401 325.405L75.3931 325.549V332.443H73.6651V323.2H75.2401V325.405ZM71.0551 331.066H78.7861L78.5791 332.443H71.2621L71.0551 331.066ZM71.2351 323.2H74.8621V324.577H71.0191L71.2351 323.2ZM80.1631 324.694C79.4911 324.676 78.8731 324.718 78.3091 324.82C77.7511 324.916 77.2171 325.066 76.7071 325.27C76.2031 325.474 75.6691 325.744 75.1051 326.08L74.9251 325.144H75.3841C75.6541 324.706 75.9901 324.325 76.3921 324.001C76.7941 323.677 77.2441 323.428 77.7421 323.254C78.2461 323.08 78.7711 322.993 79.3171 322.993C79.5931 322.993 79.8451 323.02 80.0731 323.074L80.1631 324.694ZM86.0152 329.167C85.3012 329.167 84.6592 329.038 84.0892 328.78C83.5252 328.516 83.0842 328.156 82.7662 327.7C82.4482 327.244 82.2892 326.74 82.2892 326.188C82.2892 325.582 82.4632 325.036 82.8112 324.55C83.1592 324.064 83.6452 323.683 84.2692 323.407C84.8932 323.125 85.6042 322.984 86.4022 322.984C86.9842 322.984 87.5122 323.062 87.9862 323.218C88.4602 323.374 88.8832 323.611 89.2552 323.929L89.3272 324.271C89.3452 324.289 89.3662 324.31 89.3902 324.334C89.6062 324.556 89.7772 324.805 89.9032 325.081C90.0352 325.357 90.1012 325.675 90.1012 326.035C90.1012 326.647 89.9182 327.193 89.5522 327.673C89.1922 328.147 88.7002 328.516 88.0762 328.78C87.4582 329.038 86.7712 329.167 86.0152 329.167ZM88.7692 323.677C89.1052 323.479 89.4922 323.302 89.9302 323.146C90.3682 322.99 90.8062 322.9 91.2442 322.876L91.5232 324.181L88.9132 324.334L88.7692 323.677ZM85.6732 328.645L85.2052 329.977C85.1692 330.103 85.1572 330.208 85.1692 330.292C85.1812 330.37 85.2172 330.433 85.2772 330.481C85.3372 330.523 85.4242 330.556 85.5382 330.58L85.5922 330.589L89.2012 331.228L89.2732 331.237C89.6872 331.315 90.0472 331.423 90.3532 331.561C90.6652 331.693 90.9262 331.894 91.1362 332.164C91.3462 332.434 91.4512 332.788 91.4512 333.226C91.4512 333.868 91.2052 334.423 90.7132 334.891C90.2272 335.359 89.5642 335.716 88.7242 335.962C87.8842 336.208 86.9422 336.331 85.8982 336.331C85.0882 336.331 84.3652 336.253 83.7292 336.097C83.0932 335.941 82.5922 335.701 82.2262 335.377C81.8602 335.053 81.6772 334.654 81.6772 334.18C81.6772 333.814 81.7972 333.478 82.0372 333.172C82.2772 332.866 82.6672 332.539 83.2072 332.191L84.5122 331.372L85.1962 331.867C85.0462 331.939 84.8872 332.02 84.7192 332.11C84.4492 332.272 84.2152 332.437 84.0172 332.605C83.8192 332.779 83.6572 332.968 83.5312 333.172C83.4052 333.382 83.3422 333.604 83.3422 333.838C83.3422 334.138 83.4562 334.387 83.6842 334.585C83.9122 334.783 84.2392 334.93 84.6652 335.026C85.0912 335.128 85.6012 335.179 86.1952 335.179C86.8612 335.179 87.4732 335.119 88.0312 334.999C88.5892 334.885 89.0332 334.708 89.3632 334.468C89.6932 334.234 89.8582 333.952 89.8582 333.622C89.8582 333.352 89.7352 333.136 89.4892 332.974C89.2492 332.812 88.8682 332.686 88.3462 332.596L85.4842 332.11C85.0942 332.044 84.7732 331.96 84.5212 331.858C84.2692 331.75 84.0772 331.624 83.9452 331.48C83.8192 331.33 83.7562 331.156 83.7562 330.958C83.7562 330.784 83.7982 330.589 83.8822 330.373C83.9722 330.157 84.0952 329.905 84.2512 329.617C84.3412 329.449 84.3952 329.341 84.4132 329.293L84.7912 328.465L85.6732 328.645ZM88.4812 326.35C88.4812 325.666 88.2742 325.141 87.8602 324.775C87.4462 324.409 86.7922 324.226 85.8982 324.226C85.4962 324.226 85.1722 324.259 84.9262 324.325C84.6862 324.391 84.4972 324.478 84.3592 324.586C84.2332 324.688 84.1342 324.841 84.0622 325.045C83.9902 325.249 83.9542 325.519 83.9542 325.855C83.9542 326.539 84.1612 327.064 84.5752 327.43C84.9892 327.796 85.6432 327.979 86.5372 327.979C86.9392 327.979 87.2602 327.946 87.5002 327.88C87.7462 327.814 87.9382 327.727 88.0762 327.619C88.2022 327.517 88.3012 327.364 88.3732 327.16C88.4452 326.956 88.4812 326.686 88.4812 326.35ZM99.9583 332.443V325.981C99.9583 325.621 99.8773 325.33 99.7153 325.108C99.5533 324.886 99.3313 324.727 99.0493 324.631C98.7673 324.529 98.4343 324.478 98.0503 324.478C97.3903 324.478 96.7003 324.547 95.9803 324.685C95.2603 324.823 94.5253 325.033 93.7753 325.315L94.0813 323.65C94.6873 323.452 95.3323 323.293 96.0163 323.173C96.7003 323.053 97.3783 322.993 98.0503 322.993C98.8963 322.993 99.5863 323.089 100.12 323.281C100.66 323.467 101.056 323.755 101.308 324.145C101.566 324.529 101.695 325.021 101.695 325.621V332.443H99.9583ZM100.147 328.294C99.4393 328.282 98.7433 328.294 98.0593 328.33C97.3813 328.366 96.8143 328.45 96.3583 328.582C95.9143 328.708 95.6053 328.876 95.4313 329.086C95.2633 329.296 95.1793 329.548 95.1793 329.842C95.1793 330.142 95.2543 330.406 95.4043 330.634C95.5603 330.862 95.7823 331.042 96.0703 331.174C96.3643 331.3 96.7093 331.363 97.1053 331.363C97.5253 331.363 98.0023 331.297 98.5363 331.165C99.0703 331.027 99.5923 330.829 100.102 330.571L100.201 331.66H99.8053C99.2413 332.008 98.6653 332.263 98.0773 332.425C97.4953 332.581 96.9583 332.659 96.4663 332.659C95.8303 332.659 95.2843 332.548 94.8283 332.326C94.3723 332.104 94.0273 331.804 93.7933 331.426C93.5653 331.042 93.4513 330.613 93.4513 330.139C93.4513 329.323 93.8113 328.69 94.5313 328.24C95.2513 327.79 96.1003 327.484 97.0783 327.322C98.0563 327.16 99.0733 327.07 100.129 327.052L100.147 328.294ZM106.8 332.443H105.072V323.191H106.71V324.631L106.8 324.757V332.443ZM111.129 332.443V325.972C111.129 325.588 111.063 325.279 110.931 325.045C110.805 324.811 110.625 324.643 110.391 324.541C110.163 324.433 109.884 324.379 109.554 324.379C109.044 324.379 108.516 324.49 107.97 324.712C107.43 324.928 106.887 325.225 106.341 325.603L106.431 324.37H106.791C107.283 323.938 107.832 323.602 108.438 323.362C109.044 323.116 109.662 322.993 110.292 322.993C111.108 322.993 111.735 323.203 112.173 323.623C112.617 324.043 112.842 324.631 112.848 325.387L112.884 332.443H111.129ZM120.978 323.2V332.443H119.25V324.172L119.655 324.577H115.947L116.127 323.2H120.978ZM115.83 331.066H124.497L124.317 332.443H116.01L115.83 331.066ZM119.781 320.869C119.535 320.869 119.316 320.824 119.124 320.734C118.938 320.638 118.791 320.503 118.683 320.329C118.581 320.149 118.53 319.942 118.53 319.708C118.53 319.354 118.644 319.075 118.872 318.871C119.106 318.661 119.409 318.556 119.781 318.556C120.153 318.556 120.453 318.661 120.681 318.871C120.915 319.075 121.032 319.357 121.032 319.717C121.032 320.071 120.915 320.353 120.681 320.563C120.453 320.767 120.153 320.869 119.781 320.869ZM134.786 323.173L134.921 324.1L129.134 331.39L128.891 330.976H135.587L135.02 332.434H127.199L127.091 331.453L132.752 324.388L133.04 324.577H127.019L127.55 323.182L134.786 323.173ZM141.016 324.712C140.716 324.934 140.455 325.264 140.233 325.702C140.011 326.14 139.9 326.728 139.9 327.466C139.9 328.228 140.005 328.885 140.215 329.437C140.425 329.983 140.797 330.418 141.331 330.742C141.865 331.06 142.6 331.219 143.536 331.219C144.04 331.219 144.52 331.177 144.976 331.093C145.438 331.003 145.87 330.886 146.272 330.742L146.191 332.092C145.765 332.254 145.291 332.389 144.769 332.497C144.247 332.605 143.68 332.659 143.068 332.659C142.018 332.659 141.133 332.479 140.413 332.119C139.693 331.759 139.15 331.237 138.784 330.553C138.418 329.863 138.235 329.032 138.235 328.06C138.235 326.956 138.46 326.023 138.91 325.261C139.36 324.499 139.957 323.929 140.701 323.551C141.445 323.173 142.261 322.984 143.149 322.984C143.983 322.984 144.661 323.146 145.183 323.47C145.711 323.794 146.092 324.232 146.326 324.784C146.566 325.336 146.686 325.972 146.686 326.692V327.772H139.666V326.737H145.408L144.949 327.367C144.979 327.229 145.003 327.085 145.021 326.935C145.045 326.785 145.057 326.62 145.057 326.44C145.057 325.954 144.973 325.552 144.805 325.234C144.637 324.91 144.382 324.667 144.04 324.505C143.698 324.343 143.266 324.262 142.744 324.262C142.354 324.262 142.015 324.304 141.727 324.388C141.439 324.472 141.202 324.58 141.016 324.712ZM167.183 318.673H168.92V332.443H167.309V330.958L167.183 330.832V318.673ZM160.163 328.258C160.163 327.142 160.376 326.188 160.802 325.396C161.234 324.604 161.819 324.007 162.557 323.605C163.301 323.197 164.144 322.993 165.086 322.993C165.704 322.993 166.295 323.08 166.859 323.254C167.423 323.422 167.951 323.668 168.443 323.992L167.813 325.198C167.321 324.898 166.823 324.673 166.319 324.523C165.815 324.367 165.305 324.289 164.789 324.289C164.447 324.289 164.144 324.328 163.88 324.406C163.616 324.478 163.355 324.604 163.097 324.784C162.773 325.006 162.509 325.345 162.305 325.801C162.107 326.257 162.008 326.926 162.008 327.808C162.008 328.846 162.2 329.686 162.584 330.328C162.968 330.97 163.649 331.291 164.627 331.291C165.113 331.291 165.614 331.204 166.13 331.03C166.652 330.85 167.183 330.61 167.723 330.31L167.408 331.435H167.102C166.646 331.813 166.16 332.11 165.644 332.326C165.134 332.542 164.561 332.65 163.925 332.65C163.115 332.65 162.428 332.47 161.864 332.11C161.3 331.744 160.874 331.234 160.586 330.58C160.304 329.92 160.163 329.146 160.163 328.258ZM176.788 323.2V332.443H175.06V324.172L175.465 324.577H171.757L171.937 323.2H176.788ZM171.64 331.066H180.307L180.127 332.443H171.82L171.64 331.066ZM175.591 320.869C175.345 320.869 175.126 320.824 174.934 320.734C174.748 320.638 174.601 320.503 174.493 320.329C174.391 320.149 174.34 319.942 174.34 319.708C174.34 319.354 174.454 319.075 174.682 318.871C174.916 318.661 175.219 318.556 175.591 318.556C175.963 318.556 176.263 318.661 176.491 318.871C176.725 319.075 176.842 319.357 176.842 319.717C176.842 320.071 176.725 320.353 176.491 320.563C176.263 320.767 175.963 320.869 175.591 320.869ZM188.121 322.993C188.607 322.993 189.066 323.023 189.498 323.083C189.936 323.143 190.359 323.227 190.767 323.335L190.83 324.847C190.194 324.715 189.585 324.61 189.003 324.532C188.421 324.454 187.83 324.415 187.23 324.415C186.72 324.415 186.288 324.451 185.934 324.523C185.586 324.589 185.31 324.697 185.106 324.847C184.98 324.931 184.884 325.03 184.818 325.144C184.758 325.258 184.728 325.381 184.728 325.513C184.728 325.717 184.815 325.9 184.989 326.062C185.163 326.224 185.421 326.374 185.763 326.512C186.111 326.65 186.582 326.791 187.176 326.935L187.752 327.079C188.55 327.265 189.18 327.448 189.642 327.628C190.11 327.808 190.485 328.06 190.767 328.384C191.049 328.708 191.19 329.134 191.19 329.662C191.19 330.268 191.001 330.793 190.623 331.237C190.251 331.681 189.705 332.023 188.985 332.263C188.271 332.503 187.41 332.623 186.402 332.623C185.796 332.623 185.226 332.581 184.692 332.497C184.158 332.419 183.648 332.308 183.162 332.164L183.036 330.526C183.732 330.73 184.455 330.898 185.205 331.03C185.955 331.156 186.693 331.219 187.419 331.219C187.833 331.219 188.187 331.195 188.481 331.147C188.781 331.093 189.03 331 189.228 330.868L189.246 330.859C189.366 330.775 189.459 330.67 189.525 330.544C189.591 330.412 189.624 330.259 189.624 330.085C189.624 329.785 189.516 329.542 189.3 329.356C189.09 329.17 188.796 329.017 188.418 328.897C188.046 328.777 187.47 328.624 186.69 328.438C186.498 328.39 186.345 328.351 186.231 328.321C185.565 328.159 185.013 327.973 184.575 327.763C184.143 327.547 183.81 327.283 183.576 326.971C183.348 326.659 183.234 326.281 183.234 325.837C183.234 325.195 183.459 324.661 183.909 324.235C184.359 323.809 184.953 323.497 185.691 323.299C186.429 323.095 187.239 322.993 188.121 322.993ZM199.724 322.984C200.174 322.984 200.615 323.017 201.047 323.083C201.479 323.143 201.902 323.227 202.316 323.335L202.469 324.973C201.923 324.853 201.35 324.76 200.75 324.694C200.156 324.622 199.601 324.586 199.085 324.586C198.557 324.586 198.122 324.625 197.78 324.703C197.444 324.781 197.159 324.904 196.925 325.072C196.643 325.264 196.397 325.561 196.187 325.963C195.983 326.359 195.881 326.887 195.881 327.547C195.881 328.333 196.04 328.996 196.358 329.536C196.682 330.07 197.129 330.472 197.699 330.742C198.269 331.012 198.935 331.147 199.697 331.147C200.141 331.147 200.594 331.108 201.056 331.03C201.518 330.952 201.992 330.847 202.478 330.715L202.343 332.119C201.965 332.269 201.53 332.395 201.038 332.497C200.546 332.605 199.988 332.659 199.364 332.659C198.266 332.659 197.33 332.47 196.556 332.092C195.782 331.714 195.191 331.171 194.783 330.463C194.381 329.749 194.18 328.894 194.18 327.898C194.18 326.788 194.423 325.867 194.909 325.135C195.401 324.403 196.061 323.863 196.889 323.515C197.723 323.161 198.668 322.984 199.724 322.984ZM211.615 323.2H213.343V332.452H211.705V331.021L211.615 330.895V323.2ZM207.286 323.2V329.671C207.286 330.061 207.349 330.373 207.475 330.607C207.607 330.835 207.787 331.003 208.015 331.111C208.249 331.213 208.531 331.264 208.861 331.264C209.371 331.264 209.896 331.156 210.436 330.94C210.982 330.724 211.528 330.424 212.074 330.04L211.984 331.282H211.624C211.132 331.708 210.583 332.044 209.977 332.29C209.371 332.53 208.753 332.65 208.123 332.65C207.307 332.65 206.677 332.44 206.233 332.02C205.795 331.6 205.573 331.015 205.567 330.265L205.531 323.2H207.286ZM221.608 322.993C222.094 322.993 222.553 323.023 222.985 323.083C223.423 323.143 223.846 323.227 224.254 323.335L224.317 324.847C223.681 324.715 223.072 324.61 222.49 324.532C221.908 324.454 221.317 324.415 220.717 324.415C220.207 324.415 219.775 324.451 219.421 324.523C219.073 324.589 218.797 324.697 218.593 324.847C218.467 324.931 218.371 325.03 218.305 325.144C218.245 325.258 218.215 325.381 218.215 325.513C218.215 325.717 218.302 325.9 218.476 326.062C218.65 326.224 218.908 326.374 219.25 326.512C219.598 326.65 220.069 326.791 220.663 326.935L221.239 327.079C222.037 327.265 222.667 327.448 223.129 327.628C223.597 327.808 223.972 328.06 224.254 328.384C224.536 328.708 224.677 329.134 224.677 329.662C224.677 330.268 224.488 330.793 224.11 331.237C223.738 331.681 223.192 332.023 222.472 332.263C221.758 332.503 220.897 332.623 219.889 332.623C219.283 332.623 218.713 332.581 218.179 332.497C217.645 332.419 217.135 332.308 216.649 332.164L216.523 330.526C217.219 330.73 217.942 330.898 218.692 331.03C219.442 331.156 220.18 331.219 220.906 331.219C221.32 331.219 221.674 331.195 221.968 331.147C222.268 331.093 222.517 331 222.715 330.868L222.733 330.859C222.853 330.775 222.946 330.67 223.012 330.544C223.078 330.412 223.111 330.259 223.111 330.085C223.111 329.785 223.003 329.542 222.787 329.356C222.577 329.17 222.283 329.017 221.905 328.897C221.533 328.777 220.957 328.624 220.177 328.438C219.985 328.39 219.832 328.351 219.718 328.321C219.052 328.159 218.5 327.973 218.062 327.763C217.63 327.547 217.297 327.283 217.063 326.971C216.835 326.659 216.721 326.281 216.721 325.837C216.721 325.195 216.946 324.661 217.396 324.235C217.846 323.809 218.44 323.497 219.178 323.299C219.916 323.095 220.726 322.993 221.608 322.993ZM232.77 322.993C233.256 322.993 233.715 323.023 234.147 323.083C234.585 323.143 235.008 323.227 235.416 323.335L235.479 324.847C234.843 324.715 234.234 324.61 233.652 324.532C233.07 324.454 232.479 324.415 231.879 324.415C231.369 324.415 230.937 324.451 230.583 324.523C230.235 324.589 229.959 324.697 229.755 324.847C229.629 324.931 229.533 325.03 229.467 325.144C229.407 325.258 229.377 325.381 229.377 325.513C229.377 325.717 229.464 325.9 229.638 326.062C229.812 326.224 230.07 326.374 230.412 326.512C230.76 326.65 231.231 326.791 231.825 326.935L232.401 327.079C233.199 327.265 233.829 327.448 234.291 327.628C234.759 327.808 235.134 328.06 235.416 328.384C235.698 328.708 235.839 329.134 235.839 329.662C235.839 330.268 235.65 330.793 235.272 331.237C234.9 331.681 234.354 332.023 233.634 332.263C232.92 332.503 232.059 332.623 231.051 332.623C230.445 332.623 229.875 332.581 229.341 332.497C228.807 332.419 228.297 332.308 227.811 332.164L227.685 330.526C228.381 330.73 229.104 330.898 229.854 331.03C230.604 331.156 231.342 331.219 232.068 331.219C232.482 331.219 232.836 331.195 233.13 331.147C233.43 331.093 233.679 331 233.877 330.868L233.895 330.859C234.015 330.775 234.108 330.67 234.174 330.544C234.24 330.412 234.273 330.259 234.273 330.085C234.273 329.785 234.165 329.542 233.949 329.356C233.739 329.17 233.445 329.017 233.067 328.897C232.695 328.777 232.119 328.624 231.339 328.438C231.147 328.39 230.994 328.351 230.88 328.321C230.214 328.159 229.662 327.973 229.224 327.763C228.792 327.547 228.459 327.283 228.225 326.971C227.997 326.659 227.883 326.281 227.883 325.837C227.883 325.195 228.108 324.661 228.558 324.235C229.008 323.809 229.602 323.497 230.34 323.299C231.078 323.095 231.888 322.993 232.77 322.993ZM243.761 323.2V332.443H242.033V324.172L242.438 324.577H238.73L238.91 323.2H243.761ZM238.613 331.066H247.28L247.1 332.443H238.793L238.613 331.066ZM242.564 320.869C242.318 320.869 242.099 320.824 241.907 320.734C241.721 320.638 241.574 320.503 241.466 320.329C241.364 320.149 241.313 319.942 241.313 319.708C241.313 319.354 241.427 319.075 241.655 318.871C241.889 318.661 242.192 318.556 242.564 318.556C242.936 318.556 243.236 318.661 243.464 318.871C243.698 319.075 243.815 319.357 243.815 319.717C243.815 320.071 243.698 320.353 243.464 320.563C243.236 320.767 242.936 320.869 242.564 320.869ZM254.005 332.659C253.135 332.659 252.367 332.47 251.701 332.092C251.035 331.708 250.516 331.156 250.144 330.436C249.772 329.71 249.586 328.846 249.586 327.844C249.586 326.746 249.805 325.834 250.243 325.108C250.681 324.376 251.248 323.839 251.944 323.497C252.646 323.155 253.399 322.984 254.203 322.984C255.061 322.984 255.817 323.176 256.471 323.56C257.125 323.938 257.635 324.49 258.001 325.216C258.373 325.936 258.559 326.803 258.559 327.817C258.559 328.909 258.346 329.818 257.92 330.544C257.5 331.27 256.945 331.804 256.255 332.146C255.565 332.488 254.815 332.659 254.005 332.659ZM254.221 331.3C254.587 331.3 254.905 331.267 255.175 331.201C255.451 331.135 255.688 331.036 255.886 330.904C256.144 330.724 256.36 330.421 256.534 329.995C256.714 329.563 256.804 328.933 256.804 328.105C256.804 327.379 256.735 326.746 256.597 326.206C256.465 325.66 256.186 325.21 255.76 324.856C255.334 324.496 254.719 324.316 253.915 324.316C253.549 324.316 253.231 324.349 252.961 324.415C252.691 324.481 252.457 324.583 252.259 324.721C252.091 324.835 251.941 324.994 251.809 325.198C251.677 325.402 251.566 325.696 251.476 326.08C251.392 326.458 251.35 326.932 251.35 327.502C251.35 328.234 251.416 328.873 251.548 329.419C251.686 329.965 251.965 330.415 252.385 330.769C252.805 331.123 253.417 331.3 254.221 331.3ZM263.07 332.443H261.342V323.191H262.98V324.631L263.07 324.757V332.443ZM267.399 332.443V325.972C267.399 325.588 267.333 325.279 267.201 325.045C267.075 324.811 266.895 324.643 266.661 324.541C266.433 324.433 266.154 324.379 265.824 324.379C265.314 324.379 264.786 324.49 264.24 324.712C263.7 324.928 263.157 325.225 262.611 325.603L262.701 324.37H263.061C263.553 323.938 264.102 323.602 264.708 323.362C265.314 323.116 265.932 322.993 266.562 322.993C267.378 322.993 268.005 323.203 268.443 323.623C268.887 324.043 269.112 324.631 269.118 325.387L269.154 332.443H267.399ZM277.418 322.993C277.904 322.993 278.363 323.023 278.795 323.083C279.233 323.143 279.656 323.227 280.064 323.335L280.127 324.847C279.491 324.715 278.882 324.61 278.3 324.532C277.718 324.454 277.127 324.415 276.527 324.415C276.017 324.415 275.585 324.451 275.231 324.523C274.883 324.589 274.607 324.697 274.403 324.847C274.277 324.931 274.181 325.03 274.115 325.144C274.055 325.258 274.025 325.381 274.025 325.513C274.025 325.717 274.112 325.9 274.286 326.062C274.46 326.224 274.718 326.374 275.06 326.512C275.408 326.65 275.879 326.791 276.473 326.935L277.049 327.079C277.847 327.265 278.477 327.448 278.939 327.628C279.407 327.808 279.782 328.06 280.064 328.384C280.346 328.708 280.487 329.134 280.487 329.662C280.487 330.268 280.298 330.793 279.92 331.237C279.548 331.681 279.002 332.023 278.282 332.263C277.568 332.503 276.707 332.623 275.699 332.623C275.093 332.623 274.523 332.581 273.989 332.497C273.455 332.419 272.945 332.308 272.459 332.164L272.333 330.526C273.029 330.73 273.752 330.898 274.502 331.03C275.252 331.156 275.99 331.219 276.716 331.219C277.13 331.219 277.484 331.195 277.778 331.147C278.078 331.093 278.327 331 278.525 330.868L278.543 330.859C278.663 330.775 278.756 330.67 278.822 330.544C278.888 330.412 278.921 330.259 278.921 330.085C278.921 329.785 278.813 329.542 278.597 329.356C278.387 329.17 278.093 329.017 277.715 328.897C277.343 328.777 276.767 328.624 275.987 328.438C275.795 328.39 275.642 328.351 275.528 328.321C274.862 328.159 274.31 327.973 273.872 327.763C273.44 327.547 273.107 327.283 272.873 326.971C272.645 326.659 272.531 326.281 272.531 325.837C272.531 325.195 272.756 324.661 273.206 324.235C273.656 323.809 274.25 323.497 274.988 323.299C275.726 323.095 276.536 322.993 277.418 322.993ZM300.876 332.443V325.981C300.876 325.621 300.795 325.33 300.633 325.108C300.471 324.886 300.249 324.727 299.967 324.631C299.685 324.529 299.352 324.478 298.968 324.478C298.308 324.478 297.618 324.547 296.898 324.685C296.178 324.823 295.443 325.033 294.693 325.315L294.999 323.65C295.605 323.452 296.25 323.293 296.934 323.173C297.618 323.053 298.296 322.993 298.968 322.993C299.814 322.993 300.504 323.089 301.038 323.281C301.578 323.467 301.974 323.755 302.226 324.145C302.484 324.529 302.613 325.021 302.613 325.621V332.443H300.876ZM301.065 328.294C300.357 328.282 299.661 328.294 298.977 328.33C298.299 328.366 297.732 328.45 297.276 328.582C296.832 328.708 296.523 328.876 296.349 329.086C296.181 329.296 296.097 329.548 296.097 329.842C296.097 330.142 296.172 330.406 296.322 330.634C296.478 330.862 296.7 331.042 296.988 331.174C297.282 331.3 297.627 331.363 298.023 331.363C298.443 331.363 298.92 331.297 299.454 331.165C299.988 331.027 300.51 330.829 301.02 330.571L301.119 331.66H300.723C300.159 332.008 299.583 332.263 298.995 332.425C298.413 332.581 297.876 332.659 297.384 332.659C296.748 332.659 296.202 332.548 295.746 332.326C295.29 332.104 294.945 331.804 294.711 331.426C294.483 331.042 294.369 330.613 294.369 330.139C294.369 329.323 294.729 328.69 295.449 328.24C296.169 327.79 297.018 327.484 297.996 327.322C298.974 327.16 299.991 327.07 301.047 327.052L301.065 328.294ZM309.644 325.405L309.797 325.549V332.443H308.069V323.2H309.644V325.405ZM305.459 331.066H313.19L312.983 332.443H305.666L305.459 331.066ZM305.639 323.2H309.266V324.577H305.423L305.639 323.2ZM314.567 324.694C313.895 324.676 313.277 324.718 312.713 324.82C312.155 324.916 311.621 325.066 311.111 325.27C310.607 325.474 310.073 325.744 309.509 326.08L309.329 325.144H309.788C310.058 324.706 310.394 324.325 310.796 324.001C311.198 323.677 311.648 323.428 312.146 323.254C312.65 323.08 313.175 322.993 313.721 322.993C313.997 322.993 314.249 323.02 314.477 323.074L314.567 324.694ZM320.978 332.659C320.108 332.659 319.34 332.47 318.674 332.092C318.008 331.708 317.489 331.156 317.117 330.436C316.745 329.71 316.559 328.846 316.559 327.844C316.559 326.746 316.778 325.834 317.216 325.108C317.654 324.376 318.221 323.839 318.917 323.497C319.619 323.155 320.372 322.984 321.176 322.984C322.034 322.984 322.79 323.176 323.444 323.56C324.098 323.938 324.608 324.49 324.974 325.216C325.346 325.936 325.532 326.803 325.532 327.817C325.532 328.909 325.319 329.818 324.893 330.544C324.473 331.27 323.918 331.804 323.228 332.146C322.538 332.488 321.788 332.659 320.978 332.659ZM321.194 331.3C321.56 331.3 321.878 331.267 322.148 331.201C322.424 331.135 322.661 331.036 322.859 330.904C323.117 330.724 323.333 330.421 323.507 329.995C323.687 329.563 323.777 328.933 323.777 328.105C323.777 327.379 323.708 326.746 323.57 326.206C323.438 325.66 323.159 325.21 322.733 324.856C322.307 324.496 321.692 324.316 320.888 324.316C320.522 324.316 320.204 324.349 319.934 324.415C319.664 324.481 319.43 324.583 319.232 324.721C319.064 324.835 318.914 324.994 318.782 325.198C318.65 325.402 318.539 325.696 318.449 326.08C318.365 326.458 318.323 326.932 318.323 327.502C318.323 328.234 318.389 328.873 318.521 329.419C318.659 329.965 318.938 330.415 319.358 330.769C319.778 331.123 320.39 331.3 321.194 331.3ZM334.399 323.2H336.127V332.452H334.489V331.021L334.399 330.895V323.2ZM330.07 323.2V329.671C330.07 330.061 330.133 330.373 330.259 330.607C330.391 330.835 330.571 331.003 330.799 331.111C331.033 331.213 331.315 331.264 331.645 331.264C332.155 331.264 332.68 331.156 333.22 330.94C333.766 330.724 334.312 330.424 334.858 330.04L334.768 331.282H334.408C333.916 331.708 333.367 332.044 332.761 332.29C332.155 332.53 331.537 332.65 330.907 332.65C330.091 332.65 329.461 332.44 329.017 332.02C328.579 331.6 328.357 331.015 328.351 330.265L328.315 323.2H330.07ZM341.205 332.443H339.477V323.191H341.115V324.631L341.205 324.757V332.443ZM345.534 332.443V325.972C345.534 325.588 345.468 325.279 345.336 325.045C345.21 324.811 345.03 324.643 344.796 324.541C344.568 324.433 344.289 324.379 343.959 324.379C343.449 324.379 342.921 324.49 342.375 324.712C341.835 324.928 341.292 325.225 340.746 325.603L340.836 324.37H341.196C341.688 323.938 342.237 323.602 342.843 323.362C343.449 323.116 344.067 322.993 344.697 322.993C345.513 322.993 346.14 323.203 346.578 323.623C347.022 324.043 347.247 324.631 347.253 325.387L347.289 332.443H345.534ZM356.939 318.673H358.676V332.443H357.065V330.958L356.939 330.832V318.673ZM349.919 328.258C349.919 327.142 350.132 326.188 350.558 325.396C350.99 324.604 351.575 324.007 352.313 323.605C353.057 323.197 353.9 322.993 354.842 322.993C355.46 322.993 356.051 323.08 356.615 323.254C357.179 323.422 357.707 323.668 358.199 323.992L357.569 325.198C357.077 324.898 356.579 324.673 356.075 324.523C355.571 324.367 355.061 324.289 354.545 324.289C354.203 324.289 353.9 324.328 353.636 324.406C353.372 324.478 353.111 324.604 352.853 324.784C352.529 325.006 352.265 325.345 352.061 325.801C351.863 326.257 351.764 326.926 351.764 327.808C351.764 328.846 351.956 329.686 352.34 330.328C352.724 330.97 353.405 331.291 354.383 331.291C354.869 331.291 355.37 331.204 355.886 331.03C356.408 330.85 356.939 330.61 357.479 330.31L357.164 331.435H356.858C356.402 331.813 355.916 332.11 355.4 332.326C354.89 332.542 354.317 332.65 353.681 332.65C352.871 332.65 352.184 332.47 351.62 332.11C351.056 331.744 350.63 331.234 350.342 330.58C350.06 329.92 349.919 329.146 349.919 328.258ZM377.877 322.993C378.363 322.993 378.822 323.023 379.254 323.083C379.692 323.143 380.115 323.227 380.523 323.335L380.586 324.847C379.95 324.715 379.341 324.61 378.759 324.532C378.177 324.454 377.586 324.415 376.986 324.415C376.476 324.415 376.044 324.451 375.69 324.523C375.342 324.589 375.066 324.697 374.862 324.847C374.736 324.931 374.64 325.03 374.574 325.144C374.514 325.258 374.484 325.381 374.484 325.513C374.484 325.717 374.571 325.9 374.745 326.062C374.919 326.224 375.177 326.374 375.519 326.512C375.867 326.65 376.338 326.791 376.932 326.935L377.508 327.079C378.306 327.265 378.936 327.448 379.398 327.628C379.866 327.808 380.241 328.06 380.523 328.384C380.805 328.708 380.946 329.134 380.946 329.662C380.946 330.268 380.757 330.793 380.379 331.237C380.007 331.681 379.461 332.023 378.741 332.263C378.027 332.503 377.166 332.623 376.158 332.623C375.552 332.623 374.982 332.581 374.448 332.497C373.914 332.419 373.404 332.308 372.918 332.164L372.792 330.526C373.488 330.73 374.211 330.898 374.961 331.03C375.711 331.156 376.449 331.219 377.175 331.219C377.589 331.219 377.943 331.195 378.237 331.147C378.537 331.093 378.786 331 378.984 330.868L379.002 330.859C379.122 330.775 379.215 330.67 379.281 330.544C379.347 330.412 379.38 330.259 379.38 330.085C379.38 329.785 379.272 329.542 379.056 329.356C378.846 329.17 378.552 329.017 378.174 328.897C377.802 328.777 377.226 328.624 376.446 328.438C376.254 328.39 376.101 328.351 375.987 328.321C375.321 328.159 374.769 327.973 374.331 327.763C373.899 327.547 373.566 327.283 373.332 326.971C373.104 326.659 372.99 326.281 372.99 325.837C372.99 325.195 373.215 324.661 373.665 324.235C374.115 323.809 374.709 323.497 375.447 323.299C376.185 323.095 376.995 322.993 377.877 322.993ZM385.637 335.899H383.909V323.191H385.511V324.559L385.637 324.685V335.899ZM392.657 327.394C392.657 328.51 392.441 329.464 392.009 330.256C391.583 331.042 390.998 331.639 390.254 332.047C389.516 332.449 388.676 332.65 387.734 332.65C387.116 332.65 386.525 332.566 385.961 332.398C385.397 332.23 384.869 331.981 384.377 331.651L385.007 330.454C385.499 330.754 385.997 330.979 386.501 331.129C387.005 331.279 387.515 331.354 388.031 331.354C388.373 331.354 388.676 331.318 388.94 331.246C389.204 331.168 389.465 331.039 389.723 330.859C390.047 330.637 390.308 330.298 390.506 329.842C390.71 329.386 390.812 328.717 390.812 327.835C390.812 326.797 390.62 325.957 390.236 325.315C389.852 324.673 389.171 324.352 388.193 324.352C387.707 324.352 387.203 324.442 386.681 324.622C386.165 324.796 385.637 325.036 385.097 325.342L385.412 324.208H385.718C386.174 323.83 386.657 323.533 387.167 323.317C387.683 323.101 388.259 322.993 388.895 322.993C389.705 322.993 390.392 323.176 390.956 323.542C391.52 323.908 391.943 324.421 392.225 325.081C392.513 325.735 392.657 326.506 392.657 327.394ZM397.744 324.712C397.444 324.934 397.183 325.264 396.961 325.702C396.739 326.14 396.628 326.728 396.628 327.466C396.628 328.228 396.733 328.885 396.943 329.437C397.153 329.983 397.525 330.418 398.059 330.742C398.593 331.06 399.328 331.219 400.264 331.219C400.768 331.219 401.248 331.177 401.704 331.093C402.166 331.003 402.598 330.886 403 330.742L402.919 332.092C402.493 332.254 402.019 332.389 401.497 332.497C400.975 332.605 400.408 332.659 399.796 332.659C398.746 332.659 397.861 332.479 397.141 332.119C396.421 331.759 395.878 331.237 395.512 330.553C395.146 329.863 394.963 329.032 394.963 328.06C394.963 326.956 395.188 326.023 395.638 325.261C396.088 324.499 396.685 323.929 397.429 323.551C398.173 323.173 398.989 322.984 399.877 322.984C400.711 322.984 401.389 323.146 401.911 323.47C402.439 323.794 402.82 324.232 403.054 324.784C403.294 325.336 403.414 325.972 403.414 326.692V327.772H396.394V326.737H402.136L401.677 327.367C401.707 327.229 401.731 327.085 401.749 326.935C401.773 326.785 401.785 326.62 401.785 326.44C401.785 325.954 401.701 325.552 401.533 325.234C401.365 324.91 401.11 324.667 400.768 324.505C400.426 324.343 399.994 324.262 399.472 324.262C399.082 324.262 398.743 324.304 398.455 324.388C398.167 324.472 397.93 324.58 397.744 324.712ZM411.804 322.984C412.254 322.984 412.695 323.017 413.127 323.083C413.559 323.143 413.982 323.227 414.396 323.335L414.549 324.973C414.003 324.853 413.43 324.76 412.83 324.694C412.236 324.622 411.681 324.586 411.165 324.586C410.637 324.586 410.202 324.625 409.86 324.703C409.524 324.781 409.239 324.904 409.005 325.072C408.723 325.264 408.477 325.561 408.267 325.963C408.063 326.359 407.961 326.887 407.961 327.547C407.961 328.333 408.12 328.996 408.438 329.536C408.762 330.07 409.209 330.472 409.779 330.742C410.349 331.012 411.015 331.147 411.777 331.147C412.221 331.147 412.674 331.108 413.136 331.03C413.598 330.952 414.072 330.847 414.558 330.715L414.423 332.119C414.045 332.269 413.61 332.395 413.118 332.497C412.626 332.605 412.068 332.659 411.444 332.659C410.346 332.659 409.41 332.47 408.636 332.092C407.862 331.714 407.271 331.171 406.863 330.463C406.461 329.749 406.26 328.894 406.26 327.898C406.26 326.788 406.503 325.867 406.989 325.135C407.481 324.403 408.141 323.863 408.969 323.515C409.803 323.161 410.748 322.984 411.804 322.984ZM422.355 323.2V332.443H420.627V324.172L421.032 324.577H417.324L417.504 323.2H422.355ZM417.207 331.066H425.874L425.694 332.443H417.387L417.207 331.066ZM421.158 320.869C420.912 320.869 420.693 320.824 420.501 320.734C420.315 320.638 420.168 320.503 420.06 320.329C419.958 320.149 419.907 319.942 419.907 319.708C419.907 319.354 420.021 319.075 420.249 318.871C420.483 318.661 420.786 318.556 421.158 318.556C421.53 318.556 421.83 318.661 422.058 318.871C422.292 319.075 422.409 319.357 422.409 319.717C422.409 320.071 422.292 320.353 422.058 320.563C421.83 320.767 421.53 320.869 421.158 320.869ZM437.774 319.69C437.402 319.582 437.009 319.501 436.595 319.447C436.181 319.387 435.737 319.357 435.263 319.357C434.963 319.357 434.696 319.378 434.462 319.42C434.234 319.462 434.039 319.519 433.877 319.591C433.715 319.663 433.586 319.741 433.49 319.825C433.346 319.957 433.235 320.146 433.157 320.392C433.079 320.632 433.04 320.962 433.04 321.382V332.443H431.294V322.642C431.294 321.592 431.468 320.716 431.816 320.014C432.164 319.306 432.668 318.778 433.328 318.43C433.994 318.076 434.813 317.899 435.785 317.899C436.085 317.899 436.376 317.917 436.658 317.953C436.946 317.983 437.219 318.028 437.477 318.088H437.486L437.774 319.69ZM428.765 331.102H436.154L435.947 332.443H428.981L428.765 331.102ZM437.594 323.218L437.27 324.559H428.063V323.767L431.87 323.047L432.131 323.218H437.594ZM444.679 323.2V332.443H442.951V324.172L443.356 324.577H439.648L439.828 323.2H444.679ZM439.531 331.066H448.198L448.018 332.443H439.711L439.531 331.066ZM443.482 320.869C443.236 320.869 443.017 320.824 442.825 320.734C442.639 320.638 442.492 320.503 442.384 320.329C442.282 320.149 442.231 319.942 442.231 319.708C442.231 319.354 442.345 319.075 442.573 318.871C442.807 318.661 443.11 318.556 443.482 318.556C443.854 318.556 444.154 318.661 444.382 318.871C444.616 319.075 444.733 319.357 444.733 319.717C444.733 320.071 444.616 320.353 444.382 320.563C444.154 320.767 443.854 320.869 443.482 320.869ZM456.453 322.984C456.903 322.984 457.344 323.017 457.776 323.083C458.208 323.143 458.631 323.227 459.045 323.335L459.198 324.973C458.652 324.853 458.079 324.76 457.479 324.694C456.885 324.622 456.33 324.586 455.814 324.586C455.286 324.586 454.851 324.625 454.509 324.703C454.173 324.781 453.888 324.904 453.654 325.072C453.372 325.264 453.126 325.561 452.916 325.963C452.712 326.359 452.61 326.887 452.61 327.547C452.61 328.333 452.769 328.996 453.087 329.536C453.411 330.07 453.858 330.472 454.428 330.742C454.998 331.012 455.664 331.147 456.426 331.147C456.87 331.147 457.323 331.108 457.785 331.03C458.247 330.952 458.721 330.847 459.207 330.715L459.072 332.119C458.694 332.269 458.259 332.395 457.767 332.497C457.275 332.605 456.717 332.659 456.093 332.659C454.995 332.659 454.059 332.47 453.285 332.092C452.511 331.714 451.92 331.171 451.512 330.463C451.11 329.749 450.909 328.894 450.909 327.898C450.909 326.788 451.152 325.867 451.638 325.135C452.13 324.403 452.79 323.863 453.618 323.515C454.452 323.161 455.397 322.984 456.453 322.984ZM478.777 322.984C479.227 322.984 479.668 323.017 480.1 323.083C480.532 323.143 480.955 323.227 481.369 323.335L481.522 324.973C480.976 324.853 480.403 324.76 479.803 324.694C479.209 324.622 478.654 324.586 478.138 324.586C477.61 324.586 477.175 324.625 476.833 324.703C476.497 324.781 476.212 324.904 475.978 325.072C475.696 325.264 475.45 325.561 475.24 325.963C475.036 326.359 474.934 326.887 474.934 327.547C474.934 328.333 475.093 328.996 475.411 329.536C475.735 330.07 476.182 330.472 476.752 330.742C477.322 331.012 477.988 331.147 478.75 331.147C479.194 331.147 479.647 331.108 480.109 331.03C480.571 330.952 481.045 330.847 481.531 330.715L481.396 332.119C481.018 332.269 480.583 332.395 480.091 332.497C479.599 332.605 479.041 332.659 478.417 332.659C477.319 332.659 476.383 332.47 475.609 332.092C474.835 331.714 474.244 331.171 473.836 330.463C473.434 329.749 473.233 328.894 473.233 327.898C473.233 326.788 473.476 325.867 473.962 325.135C474.454 324.403 475.114 323.863 475.942 323.515C476.776 323.161 477.721 322.984 478.777 322.984ZM488.409 332.659C487.539 332.659 486.771 332.47 486.105 332.092C485.439 331.708 484.92 331.156 484.548 330.436C484.176 329.71 483.99 328.846 483.99 327.844C483.99 326.746 484.209 325.834 484.647 325.108C485.085 324.376 485.652 323.839 486.348 323.497C487.05 323.155 487.803 322.984 488.607 322.984C489.465 322.984 490.221 323.176 490.875 323.56C491.529 323.938 492.039 324.49 492.405 325.216C492.777 325.936 492.963 326.803 492.963 327.817C492.963 328.909 492.75 329.818 492.324 330.544C491.904 331.27 491.349 331.804 490.659 332.146C489.969 332.488 489.219 332.659 488.409 332.659ZM488.625 331.3C488.991 331.3 489.309 331.267 489.579 331.201C489.855 331.135 490.092 331.036 490.29 330.904C490.548 330.724 490.764 330.421 490.938 329.995C491.118 329.563 491.208 328.933 491.208 328.105C491.208 327.379 491.139 326.746 491.001 326.206C490.869 325.66 490.59 325.21 490.164 324.856C489.738 324.496 489.123 324.316 488.319 324.316C487.953 324.316 487.635 324.349 487.365 324.415C487.095 324.481 486.861 324.583 486.663 324.721C486.495 324.835 486.345 324.994 486.213 325.198C486.081 325.402 485.97 325.696 485.88 326.08C485.796 326.458 485.754 326.932 485.754 327.502C485.754 328.234 485.82 328.873 485.952 329.419C486.09 329.965 486.369 330.415 486.789 330.769C487.209 331.123 487.821 331.3 488.625 331.3ZM497.474 332.443H495.746V323.191H497.384V324.631L497.474 324.757V332.443ZM501.803 332.443V325.972C501.803 325.588 501.737 325.279 501.605 325.045C501.479 324.811 501.299 324.643 501.065 324.541C500.837 324.433 500.558 324.379 500.228 324.379C499.718 324.379 499.19 324.49 498.644 324.712C498.104 324.928 497.561 325.225 497.015 325.603L497.105 324.37H497.465C497.957 323.938 498.506 323.602 499.112 323.362C499.718 323.116 500.336 322.993 500.966 322.993C501.782 322.993 502.409 323.203 502.847 323.623C503.291 324.043 503.516 324.631 503.522 325.387L503.558 332.443H501.803ZM510.535 323.704V329.86C510.535 330.172 510.589 330.424 510.697 330.616C510.805 330.808 510.991 330.955 511.255 331.057C511.525 331.153 511.9 331.201 512.38 331.201C512.782 331.201 513.202 331.162 513.64 331.084C514.084 331.006 514.498 330.916 514.882 330.814L514.711 332.155C514.273 332.305 513.814 332.425 513.334 332.515C512.854 332.605 512.332 332.65 511.768 332.65C511.048 332.65 510.472 332.563 510.04 332.389C509.608 332.215 509.293 331.945 509.095 331.579C508.903 331.207 508.807 330.712 508.807 330.094V323.704H510.535ZM514.954 323.2L514.648 324.55H506.233V323.812L509.959 320.977H510.526V323.74L509.761 323.2H514.954ZM520.527 324.712C520.227 324.934 519.966 325.264 519.744 325.702C519.522 326.14 519.411 326.728 519.411 327.466C519.411 328.228 519.516 328.885 519.726 329.437C519.936 329.983 520.308 330.418 520.842 330.742C521.376 331.06 522.111 331.219 523.047 331.219C523.551 331.219 524.031 331.177 524.487 331.093C524.949 331.003 525.381 330.886 525.783 330.742L525.702 332.092C525.276 332.254 524.802 332.389 524.28 332.497C523.758 332.605 523.191 332.659 522.579 332.659C521.529 332.659 520.644 332.479 519.924 332.119C519.204 331.759 518.661 331.237 518.295 330.553C517.929 329.863 517.746 329.032 517.746 328.06C517.746 326.956 517.971 326.023 518.421 325.261C518.871 324.499 519.468 323.929 520.212 323.551C520.956 323.173 521.772 322.984 522.66 322.984C523.494 322.984 524.172 323.146 524.694 323.47C525.222 323.794 525.603 324.232 525.837 324.784C526.077 325.336 526.197 325.972 526.197 326.692V327.772H519.177V326.737H524.919L524.46 327.367C524.49 327.229 524.514 327.085 524.532 326.935C524.556 326.785 524.568 326.62 524.568 326.44C524.568 325.954 524.484 325.552 524.316 325.234C524.148 324.91 523.893 324.667 523.551 324.505C523.209 324.343 522.777 324.262 522.255 324.262C521.865 324.262 521.526 324.304 521.238 324.388C520.95 324.472 520.713 324.58 520.527 324.712ZM530.961 332.443H529.233V323.191H530.871V324.631L530.961 324.757V332.443ZM535.29 332.443V325.972C535.29 325.588 535.224 325.279 535.092 325.045C534.966 324.811 534.786 324.643 534.552 324.541C534.324 324.433 534.045 324.379 533.715 324.379C533.205 324.379 532.677 324.49 532.131 324.712C531.591 324.928 531.048 325.225 530.502 325.603L530.592 324.37H530.952C531.444 323.938 531.993 323.602 532.599 323.362C533.205 323.116 533.823 322.993 534.453 322.993C535.269 322.993 535.896 323.203 536.334 323.623C536.778 324.043 537.003 324.631 537.009 325.387L537.045 332.443H535.29ZM544.022 323.704V329.86C544.022 330.172 544.076 330.424 544.184 330.616C544.292 330.808 544.478 330.955 544.742 331.057C545.012 331.153 545.387 331.201 545.867 331.201C546.269 331.201 546.689 331.162 547.127 331.084C547.571 331.006 547.985 330.916 548.369 330.814L548.198 332.155C547.76 332.305 547.301 332.425 546.821 332.515C546.341 332.605 545.819 332.65 545.255 332.65C544.535 332.65 543.959 332.563 543.527 332.389C543.095 332.215 542.78 331.945 542.582 331.579C542.39 331.207 542.294 330.712 542.294 330.094V323.704H544.022ZM548.441 323.2L548.135 324.55H539.72V323.812L543.446 320.977H544.013V323.74L543.248 323.2H548.441ZM64.051 350.704V356.86C64.051 357.172 64.105 357.424 64.213 357.616C64.321 357.808 64.507 357.955 64.771 358.057C65.041 358.153 65.416 358.201 65.896 358.201C66.298 358.201 66.718 358.162 67.156 358.084C67.6 358.006 68.014 357.916 68.398 357.814L68.227 359.155C67.789 359.305 67.33 359.425 66.85 359.515C66.37 359.605 65.848 359.65 65.284 359.65C64.564 359.65 63.988 359.563 63.556 359.389C63.124 359.215 62.809 358.945 62.611 358.579C62.419 358.207 62.323 357.712 62.323 357.094V350.704H64.051ZM68.47 350.2L68.164 351.55H59.749V350.812L63.475 347.977H64.042V350.74L63.277 350.2H68.47ZM75.4111 359.659C74.5411 359.659 73.7731 359.47 73.1071 359.092C72.4411 358.708 71.9221 358.156 71.5501 357.436C71.1781 356.71 70.9921 355.846 70.9921 354.844C70.9921 353.746 71.2111 352.834 71.6491 352.108C72.0871 351.376 72.6541 350.839 73.3501 350.497C74.0521 350.155 74.8051 349.984 75.6091 349.984C76.4671 349.984 77.2231 350.176 77.8771 350.56C78.5311 350.938 79.0411 351.49 79.4071 352.216C79.7791 352.936 79.9651 353.803 79.9651 354.817C79.9651 355.909 79.7521 356.818 79.3261 357.544C78.9061 358.27 78.3511 358.804 77.6611 359.146C76.9711 359.488 76.2211 359.659 75.4111 359.659ZM75.6271 358.3C75.9931 358.3 76.3111 358.267 76.5811 358.201C76.8571 358.135 77.0941 358.036 77.2921 357.904C77.5501 357.724 77.7661 357.421 77.9401 356.995C78.1201 356.563 78.2101 355.933 78.2101 355.105C78.2101 354.379 78.1411 353.746 78.0031 353.206C77.8711 352.66 77.5921 352.21 77.1661 351.856C76.7401 351.496 76.1251 351.316 75.3211 351.316C74.9551 351.316 74.6371 351.349 74.3671 351.415C74.0971 351.481 73.8631 351.583 73.6651 351.721C73.4971 351.835 73.3471 351.994 73.2151 352.198C73.0831 352.402 72.9721 352.696 72.8821 353.08C72.7981 353.458 72.7561 353.932 72.7561 354.502C72.7561 355.234 72.8221 355.873 72.9541 356.419C73.0921 356.965 73.3711 357.415 73.7911 357.769C74.2111 358.123 74.8231 358.3 75.6271 358.3ZM99.9583 359.443V352.981C99.9583 352.621 99.8773 352.33 99.7153 352.108C99.5533 351.886 99.3313 351.727 99.0493 351.631C98.7673 351.529 98.4343 351.478 98.0503 351.478C97.3903 351.478 96.7003 351.547 95.9803 351.685C95.2603 351.823 94.5253 352.033 93.7753 352.315L94.0813 350.65C94.6873 350.452 95.3323 350.293 96.0163 350.173C96.7003 350.053 97.3783 349.993 98.0503 349.993C98.8963 349.993 99.5863 350.089 100.12 350.281C100.66 350.467 101.056 350.755 101.308 351.145C101.566 351.529 101.695 352.021 101.695 352.621V359.443H99.9583ZM100.147 355.294C99.4393 355.282 98.7433 355.294 98.0593 355.33C97.3813 355.366 96.8143 355.45 96.3583 355.582C95.9143 355.708 95.6053 355.876 95.4313 356.086C95.2633 356.296 95.1793 356.548 95.1793 356.842C95.1793 357.142 95.2543 357.406 95.4043 357.634C95.5603 357.862 95.7823 358.042 96.0703 358.174C96.3643 358.3 96.7093 358.363 97.1053 358.363C97.5253 358.363 98.0023 358.297 98.5363 358.165C99.0703 358.027 99.5923 357.829 100.102 357.571L100.201 358.66H99.8053C99.2413 359.008 98.6653 359.263 98.0773 359.425C97.4953 359.581 96.9583 359.659 96.4663 359.659C95.8303 359.659 95.2843 359.548 94.8283 359.326C94.3723 359.104 94.0273 358.804 93.7933 358.426C93.5653 358.042 93.4513 357.613 93.4513 357.139C93.4513 356.323 93.8113 355.69 94.5313 355.24C95.2513 354.79 96.1003 354.484 97.0783 354.322C98.0563 354.16 99.0733 354.07 100.129 354.052L100.147 355.294ZM106.197 350.2C106.437 351.526 106.788 352.813 107.25 354.061C107.718 355.303 108.288 356.506 108.96 357.67H109.113C109.791 356.512 110.361 355.309 110.823 354.061C111.291 352.813 111.645 351.526 111.885 350.2H113.577C113.259 351.772 112.779 353.338 112.137 354.898C111.501 356.458 110.706 357.973 109.752 359.443H108.222C107.262 357.967 106.464 356.455 105.828 354.907C105.192 353.359 104.703 351.79 104.361 350.2H106.197ZM120.06 359.659C119.19 359.659 118.422 359.47 117.756 359.092C117.09 358.708 116.571 358.156 116.199 357.436C115.827 356.71 115.641 355.846 115.641 354.844C115.641 353.746 115.86 352.834 116.298 352.108C116.736 351.376 117.303 350.839 117.999 350.497C118.701 350.155 119.454 349.984 120.258 349.984C121.116 349.984 121.872 350.176 122.526 350.56C123.18 350.938 123.69 351.49 124.056 352.216C124.428 352.936 124.614 353.803 124.614 354.817C124.614 355.909 124.401 356.818 123.975 357.544C123.555 358.27 123 358.804 122.31 359.146C121.62 359.488 120.87 359.659 120.06 359.659ZM120.276 358.3C120.642 358.3 120.96 358.267 121.23 358.201C121.506 358.135 121.743 358.036 121.941 357.904C122.199 357.724 122.415 357.421 122.589 356.995C122.769 356.563 122.859 355.933 122.859 355.105C122.859 354.379 122.79 353.746 122.652 353.206C122.52 352.66 122.241 352.21 121.815 351.856C121.389 351.496 120.774 351.316 119.97 351.316C119.604 351.316 119.286 351.349 119.016 351.415C118.746 351.481 118.512 351.583 118.314 351.721C118.146 351.835 117.996 351.994 117.864 352.198C117.732 352.402 117.621 352.696 117.531 353.08C117.447 353.458 117.405 353.932 117.405 354.502C117.405 355.234 117.471 355.873 117.603 356.419C117.741 356.965 118.02 357.415 118.44 357.769C118.86 358.123 119.472 358.3 120.276 358.3ZM132.14 350.2V359.443H130.412V351.172L130.817 351.577H127.109L127.289 350.2H132.14ZM126.992 358.066H135.659L135.479 359.443H127.172L126.992 358.066ZM130.943 347.869C130.697 347.869 130.478 347.824 130.286 347.734C130.1 347.638 129.953 347.503 129.845 347.329C129.743 347.149 129.692 346.942 129.692 346.708C129.692 346.354 129.806 346.075 130.034 345.871C130.268 345.661 130.571 345.556 130.943 345.556C131.315 345.556 131.615 345.661 131.843 345.871C132.077 346.075 132.194 346.357 132.194 346.717C132.194 347.071 132.077 347.353 131.843 347.563C131.615 347.767 131.315 347.869 130.943 347.869ZM144.859 345.673H146.596V359.443H144.985V357.958L144.859 357.832V345.673ZM137.839 355.258C137.839 354.142 138.052 353.188 138.478 352.396C138.91 351.604 139.495 351.007 140.233 350.605C140.977 350.197 141.82 349.993 142.762 349.993C143.38 349.993 143.971 350.08 144.535 350.254C145.099 350.422 145.627 350.668 146.119 350.992L145.489 352.198C144.997 351.898 144.499 351.673 143.995 351.523C143.491 351.367 142.981 351.289 142.465 351.289C142.123 351.289 141.82 351.328 141.556 351.406C141.292 351.478 141.031 351.604 140.773 351.784C140.449 352.006 140.185 352.345 139.981 352.801C139.783 353.257 139.684 353.926 139.684 354.808C139.684 355.846 139.876 356.686 140.26 357.328C140.644 357.97 141.325 358.291 142.303 358.291C142.789 358.291 143.29 358.204 143.806 358.03C144.328 357.85 144.859 357.61 145.399 357.31L145.084 358.435H144.778C144.322 358.813 143.836 359.11 143.32 359.326C142.81 359.542 142.237 359.65 141.601 359.65C140.791 359.65 140.104 359.47 139.54 359.11C138.976 358.744 138.55 358.234 138.262 357.58C137.98 356.92 137.839 356.146 137.839 355.258ZM164.15 356.167C163.436 356.167 162.794 356.038 162.224 355.78C161.66 355.516 161.219 355.156 160.901 354.7C160.583 354.244 160.424 353.74 160.424 353.188C160.424 352.582 160.598 352.036 160.946 351.55C161.294 351.064 161.78 350.683 162.404 350.407C163.028 350.125 163.739 349.984 164.537 349.984C165.119 349.984 165.647 350.062 166.121 350.218C166.595 350.374 167.018 350.611 167.39 350.929L167.462 351.271C167.48 351.289 167.501 351.31 167.525 351.334C167.741 351.556 167.912 351.805 168.038 352.081C168.17 352.357 168.236 352.675 168.236 353.035C168.236 353.647 168.053 354.193 167.687 354.673C167.327 355.147 166.835 355.516 166.211 355.78C165.593 356.038 164.906 356.167 164.15 356.167ZM166.904 350.677C167.24 350.479 167.627 350.302 168.065 350.146C168.503 349.99 168.941 349.9 169.379 349.876L169.658 351.181L167.048 351.334L166.904 350.677ZM163.808 355.645L163.34 356.977C163.304 357.103 163.292 357.208 163.304 357.292C163.316 357.37 163.352 357.433 163.412 357.481C163.472 357.523 163.559 357.556 163.673 357.58L163.727 357.589L167.336 358.228L167.408 358.237C167.822 358.315 168.182 358.423 168.488 358.561C168.8 358.693 169.061 358.894 169.271 359.164C169.481 359.434 169.586 359.788 169.586 360.226C169.586 360.868 169.34 361.423 168.848 361.891C168.362 362.359 167.699 362.716 166.859 362.962C166.019 363.208 165.077 363.331 164.033 363.331C163.223 363.331 162.5 363.253 161.864 363.097C161.228 362.941 160.727 362.701 160.361 362.377C159.995 362.053 159.812 361.654 159.812 361.18C159.812 360.814 159.932 360.478 160.172 360.172C160.412 359.866 160.802 359.539 161.342 359.191L162.647 358.372L163.331 358.867C163.181 358.939 163.022 359.02 162.854 359.11C162.584 359.272 162.35 359.437 162.152 359.605C161.954 359.779 161.792 359.968 161.666 360.172C161.54 360.382 161.477 360.604 161.477 360.838C161.477 361.138 161.591 361.387 161.819 361.585C162.047 361.783 162.374 361.93 162.8 362.026C163.226 362.128 163.736 362.179 164.33 362.179C164.996 362.179 165.608 362.119 166.166 361.999C166.724 361.885 167.168 361.708 167.498 361.468C167.828 361.234 167.993 360.952 167.993 360.622C167.993 360.352 167.87 360.136 167.624 359.974C167.384 359.812 167.003 359.686 166.481 359.596L163.619 359.11C163.229 359.044 162.908 358.96 162.656 358.858C162.404 358.75 162.212 358.624 162.08 358.48C161.954 358.33 161.891 358.156 161.891 357.958C161.891 357.784 161.933 357.589 162.017 357.373C162.107 357.157 162.23 356.905 162.386 356.617C162.476 356.449 162.53 356.341 162.548 356.293L162.926 355.465L163.808 355.645ZM166.616 353.35C166.616 352.666 166.409 352.141 165.995 351.775C165.581 351.409 164.927 351.226 164.033 351.226C163.631 351.226 163.307 351.259 163.061 351.325C162.821 351.391 162.632 351.478 162.494 351.586C162.368 351.688 162.269 351.841 162.197 352.045C162.125 352.249 162.089 352.519 162.089 352.855C162.089 353.539 162.296 354.064 162.71 354.43C163.124 354.796 163.778 354.979 164.672 354.979C165.074 354.979 165.395 354.946 165.635 354.88C165.881 354.814 166.073 354.727 166.211 354.619C166.337 354.517 166.436 354.364 166.508 354.16C166.58 353.956 166.616 353.686 166.616 353.35ZM174.502 351.712C174.202 351.934 173.941 352.264 173.719 352.702C173.497 353.14 173.386 353.728 173.386 354.466C173.386 355.228 173.491 355.885 173.701 356.437C173.911 356.983 174.283 357.418 174.817 357.742C175.351 358.06 176.086 358.219 177.022 358.219C177.526 358.219 178.006 358.177 178.462 358.093C178.924 358.003 179.356 357.886 179.758 357.742L179.677 359.092C179.251 359.254 178.777 359.389 178.255 359.497C177.733 359.605 177.166 359.659 176.554 359.659C175.504 359.659 174.619 359.479 173.899 359.119C173.179 358.759 172.636 358.237 172.27 357.553C171.904 356.863 171.721 356.032 171.721 355.06C171.721 353.956 171.946 353.023 172.396 352.261C172.846 351.499 173.443 350.929 174.187 350.551C174.931 350.173 175.747 349.984 176.635 349.984C177.469 349.984 178.147 350.146 178.669 350.47C179.197 350.794 179.578 351.232 179.812 351.784C180.052 352.336 180.172 352.972 180.172 353.692V354.772H173.152V353.737H178.894L178.435 354.367C178.465 354.229 178.489 354.085 178.507 353.935C178.531 353.785 178.543 353.62 178.543 353.44C178.543 352.954 178.459 352.552 178.291 352.234C178.123 351.91 177.868 351.667 177.526 351.505C177.184 351.343 176.752 351.262 176.23 351.262C175.84 351.262 175.501 351.304 175.213 351.388C174.925 351.472 174.688 351.58 174.502 351.712ZM186.834 350.704V356.86C186.834 357.172 186.888 357.424 186.996 357.616C187.104 357.808 187.29 357.955 187.554 358.057C187.824 358.153 188.199 358.201 188.679 358.201C189.081 358.201 189.501 358.162 189.939 358.084C190.383 358.006 190.797 357.916 191.181 357.814L191.01 359.155C190.572 359.305 190.113 359.425 189.633 359.515C189.153 359.605 188.631 359.65 188.067 359.65C187.347 359.65 186.771 359.563 186.339 359.389C185.907 359.215 185.592 358.945 185.394 358.579C185.202 358.207 185.106 357.712 185.106 357.094V350.704H186.834ZM191.253 350.2L190.947 351.55H182.532V350.812L186.258 347.977H186.825V350.74L186.06 350.2H191.253ZM197.996 350.704V356.86C197.996 357.172 198.05 357.424 198.158 357.616C198.266 357.808 198.452 357.955 198.716 358.057C198.986 358.153 199.361 358.201 199.841 358.201C200.243 358.201 200.663 358.162 201.101 358.084C201.545 358.006 201.959 357.916 202.343 357.814L202.172 359.155C201.734 359.305 201.275 359.425 200.795 359.515C200.315 359.605 199.793 359.65 199.229 359.65C198.509 359.65 197.933 359.563 197.501 359.389C197.069 359.215 196.754 358.945 196.556 358.579C196.364 358.207 196.268 357.712 196.268 357.094V350.704H197.996ZM202.415 350.2L202.109 351.55H193.694V350.812L197.42 347.977H197.987V350.74L197.222 350.2H202.415ZM210.274 350.2V359.443H208.546V351.172L208.951 351.577H205.243L205.423 350.2H210.274ZM205.126 358.066H213.793L213.613 359.443H205.306L205.126 358.066ZM209.077 347.869C208.831 347.869 208.612 347.824 208.42 347.734C208.234 347.638 208.087 347.503 207.979 347.329C207.877 347.149 207.826 346.942 207.826 346.708C207.826 346.354 207.94 346.075 208.168 345.871C208.402 345.661 208.705 345.556 209.077 345.556C209.449 345.556 209.749 345.661 209.977 345.871C210.211 346.075 210.328 346.357 210.328 346.717C210.328 347.071 210.211 347.353 209.977 347.563C209.749 347.767 209.449 347.869 209.077 347.869ZM218.422 359.443H216.694V350.191H218.332V351.631L218.422 351.757V359.443ZM222.751 359.443V352.972C222.751 352.588 222.685 352.279 222.553 352.045C222.427 351.811 222.247 351.643 222.013 351.541C221.785 351.433 221.506 351.379 221.176 351.379C220.666 351.379 220.138 351.49 219.592 351.712C219.052 351.928 218.509 352.225 217.963 352.603L218.053 351.37H218.413C218.905 350.938 219.454 350.602 220.06 350.362C220.666 350.116 221.284 349.993 221.914 349.993C222.73 349.993 223.357 350.203 223.795 350.623C224.239 351.043 224.464 351.631 224.47 352.387L224.506 359.443H222.751ZM231.123 356.167C230.409 356.167 229.767 356.038 229.197 355.78C228.633 355.516 228.192 355.156 227.874 354.7C227.556 354.244 227.397 353.74 227.397 353.188C227.397 352.582 227.571 352.036 227.919 351.55C228.267 351.064 228.753 350.683 229.377 350.407C230.001 350.125 230.712 349.984 231.51 349.984C232.092 349.984 232.62 350.062 233.094 350.218C233.568 350.374 233.991 350.611 234.363 350.929L234.435 351.271C234.453 351.289 234.474 351.31 234.498 351.334C234.714 351.556 234.885 351.805 235.011 352.081C235.143 352.357 235.209 352.675 235.209 353.035C235.209 353.647 235.026 354.193 234.66 354.673C234.3 355.147 233.808 355.516 233.184 355.78C232.566 356.038 231.879 356.167 231.123 356.167ZM233.877 350.677C234.213 350.479 234.6 350.302 235.038 350.146C235.476 349.99 235.914 349.9 236.352 349.876L236.631 351.181L234.021 351.334L233.877 350.677ZM230.781 355.645L230.313 356.977C230.277 357.103 230.265 357.208 230.277 357.292C230.289 357.37 230.325 357.433 230.385 357.481C230.445 357.523 230.532 357.556 230.646 357.58L230.7 357.589L234.309 358.228L234.381 358.237C234.795 358.315 235.155 358.423 235.461 358.561C235.773 358.693 236.034 358.894 236.244 359.164C236.454 359.434 236.559 359.788 236.559 360.226C236.559 360.868 236.313 361.423 235.821 361.891C235.335 362.359 234.672 362.716 233.832 362.962C232.992 363.208 232.05 363.331 231.006 363.331C230.196 363.331 229.473 363.253 228.837 363.097C228.201 362.941 227.7 362.701 227.334 362.377C226.968 362.053 226.785 361.654 226.785 361.18C226.785 360.814 226.905 360.478 227.145 360.172C227.385 359.866 227.775 359.539 228.315 359.191L229.62 358.372L230.304 358.867C230.154 358.939 229.995 359.02 229.827 359.11C229.557 359.272 229.323 359.437 229.125 359.605C228.927 359.779 228.765 359.968 228.639 360.172C228.513 360.382 228.45 360.604 228.45 360.838C228.45 361.138 228.564 361.387 228.792 361.585C229.02 361.783 229.347 361.93 229.773 362.026C230.199 362.128 230.709 362.179 231.303 362.179C231.969 362.179 232.581 362.119 233.139 361.999C233.697 361.885 234.141 361.708 234.471 361.468C234.801 361.234 234.966 360.952 234.966 360.622C234.966 360.352 234.843 360.136 234.597 359.974C234.357 359.812 233.976 359.686 233.454 359.596L230.592 359.11C230.202 359.044 229.881 358.96 229.629 358.858C229.377 358.75 229.185 358.624 229.053 358.48C228.927 358.33 228.864 358.156 228.864 357.958C228.864 357.784 228.906 357.589 228.99 357.373C229.08 357.157 229.203 356.905 229.359 356.617C229.449 356.449 229.503 356.341 229.521 356.293L229.899 355.465L230.781 355.645ZM233.589 353.35C233.589 352.666 233.382 352.141 232.968 351.775C232.554 351.409 231.9 351.226 231.006 351.226C230.604 351.226 230.28 351.259 230.034 351.325C229.794 351.391 229.605 351.478 229.467 351.586C229.341 351.688 229.242 351.841 229.17 352.045C229.098 352.249 229.062 352.519 229.062 352.855C229.062 353.539 229.269 354.064 229.683 354.43C230.097 354.796 230.751 354.979 231.645 354.979C232.047 354.979 232.368 354.946 232.608 354.88C232.854 354.814 233.046 354.727 233.184 354.619C233.31 354.517 233.409 354.364 233.481 354.16C233.553 353.956 233.589 353.686 233.589 353.35ZM253.168 359.443V346.645L253.573 347.05H249.892L250.072 345.673H254.896V359.443H253.168ZM249.775 358.066H258.379L258.199 359.443H249.955L249.775 358.066ZM265.167 359.659C264.297 359.659 263.529 359.47 262.863 359.092C262.197 358.708 261.678 358.156 261.306 357.436C260.934 356.71 260.748 355.846 260.748 354.844C260.748 353.746 260.967 352.834 261.405 352.108C261.843 351.376 262.41 350.839 263.106 350.497C263.808 350.155 264.561 349.984 265.365 349.984C266.223 349.984 266.979 350.176 267.633 350.56C268.287 350.938 268.797 351.49 269.163 352.216C269.535 352.936 269.721 353.803 269.721 354.817C269.721 355.909 269.508 356.818 269.082 357.544C268.662 358.27 268.107 358.804 267.417 359.146C266.727 359.488 265.977 359.659 265.167 359.659ZM265.383 358.3C265.749 358.3 266.067 358.267 266.337 358.201C266.613 358.135 266.85 358.036 267.048 357.904C267.306 357.724 267.522 357.421 267.696 356.995C267.876 356.563 267.966 355.933 267.966 355.105C267.966 354.379 267.897 353.746 267.759 353.206C267.627 352.66 267.348 352.21 266.922 351.856C266.496 351.496 265.881 351.316 265.077 351.316C264.711 351.316 264.393 351.349 264.123 351.415C263.853 351.481 263.619 351.583 263.421 351.721C263.253 351.835 263.103 351.994 262.971 352.198C262.839 352.402 262.728 352.696 262.638 353.08C262.554 353.458 262.512 353.932 262.512 354.502C262.512 355.234 262.578 355.873 262.71 356.419C262.848 356.965 263.127 357.415 263.547 357.769C263.967 358.123 264.579 358.3 265.383 358.3ZM277.418 349.993C277.904 349.993 278.363 350.023 278.795 350.083C279.233 350.143 279.656 350.227 280.064 350.335L280.127 351.847C279.491 351.715 278.882 351.61 278.3 351.532C277.718 351.454 277.127 351.415 276.527 351.415C276.017 351.415 275.585 351.451 275.231 351.523C274.883 351.589 274.607 351.697 274.403 351.847C274.277 351.931 274.181 352.03 274.115 352.144C274.055 352.258 274.025 352.381 274.025 352.513C274.025 352.717 274.112 352.9 274.286 353.062C274.46 353.224 274.718 353.374 275.06 353.512C275.408 353.65 275.879 353.791 276.473 353.935L277.049 354.079C277.847 354.265 278.477 354.448 278.939 354.628C279.407 354.808 279.782 355.06 280.064 355.384C280.346 355.708 280.487 356.134 280.487 356.662C280.487 357.268 280.298 357.793 279.92 358.237C279.548 358.681 279.002 359.023 278.282 359.263C277.568 359.503 276.707 359.623 275.699 359.623C275.093 359.623 274.523 359.581 273.989 359.497C273.455 359.419 272.945 359.308 272.459 359.164L272.333 357.526C273.029 357.73 273.752 357.898 274.502 358.03C275.252 358.156 275.99 358.219 276.716 358.219C277.13 358.219 277.484 358.195 277.778 358.147C278.078 358.093 278.327 358 278.525 357.868L278.543 357.859C278.663 357.775 278.756 357.67 278.822 357.544C278.888 357.412 278.921 357.259 278.921 357.085C278.921 356.785 278.813 356.542 278.597 356.356C278.387 356.17 278.093 356.017 277.715 355.897C277.343 355.777 276.767 355.624 275.987 355.438C275.795 355.39 275.642 355.351 275.528 355.321C274.862 355.159 274.31 354.973 273.872 354.763C273.44 354.547 273.107 354.283 272.873 353.971C272.645 353.659 272.531 353.281 272.531 352.837C272.531 352.195 272.756 351.661 273.206 351.235C273.656 350.809 274.25 350.497 274.988 350.299C275.726 350.095 276.536 349.993 277.418 349.993ZM287.293 350.704V356.86C287.293 357.172 287.347 357.424 287.455 357.616C287.563 357.808 287.749 357.955 288.013 358.057C288.283 358.153 288.658 358.201 289.138 358.201C289.54 358.201 289.96 358.162 290.398 358.084C290.842 358.006 291.256 357.916 291.64 357.814L291.469 359.155C291.031 359.305 290.572 359.425 290.092 359.515C289.612 359.605 289.09 359.65 288.526 359.65C287.806 359.65 287.23 359.563 286.798 359.389C286.366 359.215 286.051 358.945 285.853 358.579C285.661 358.207 285.565 357.712 285.565 357.094V350.704H287.293ZM291.712 350.2L291.406 351.55H282.991V350.812L286.717 347.977H287.284V350.74L286.519 350.2H291.712ZM310.733 350.2V359.443H309.005V351.172L309.41 351.577H305.702L305.882 350.2H310.733ZM305.585 358.066H314.252L314.072 359.443H305.765L305.585 358.066ZM309.536 347.869C309.29 347.869 309.071 347.824 308.879 347.734C308.693 347.638 308.546 347.503 308.438 347.329C308.336 347.149 308.285 346.942 308.285 346.708C308.285 346.354 308.399 346.075 308.627 345.871C308.861 345.661 309.164 345.556 309.536 345.556C309.908 345.556 310.208 345.661 310.436 345.871C310.67 346.075 310.787 346.357 310.787 346.717C310.787 347.071 310.67 347.353 310.436 347.563C310.208 347.767 309.908 347.869 309.536 347.869ZM318.881 359.443H317.153V350.191H318.791V351.631L318.881 351.757V359.443ZM323.21 359.443V352.972C323.21 352.588 323.144 352.279 323.012 352.045C322.886 351.811 322.706 351.643 322.472 351.541C322.244 351.433 321.965 351.379 321.635 351.379C321.125 351.379 320.597 351.49 320.051 351.712C319.511 351.928 318.968 352.225 318.422 352.603L318.512 351.37H318.872C319.364 350.938 319.913 350.602 320.519 350.362C321.125 350.116 321.743 349.993 322.373 349.993C323.189 349.993 323.816 350.203 324.254 350.623C324.698 351.043 324.923 351.631 324.929 352.387L324.965 359.443H323.21ZM341.934 351.712C341.634 351.934 341.373 352.264 341.151 352.702C340.929 353.14 340.818 353.728 340.818 354.466C340.818 355.228 340.923 355.885 341.133 356.437C341.343 356.983 341.715 357.418 342.249 357.742C342.783 358.06 343.518 358.219 344.454 358.219C344.958 358.219 345.438 358.177 345.894 358.093C346.356 358.003 346.788 357.886 347.19 357.742L347.109 359.092C346.683 359.254 346.209 359.389 345.687 359.497C345.165 359.605 344.598 359.659 343.986 359.659C342.936 359.659 342.051 359.479 341.331 359.119C340.611 358.759 340.068 358.237 339.702 357.553C339.336 356.863 339.153 356.032 339.153 355.06C339.153 353.956 339.378 353.023 339.828 352.261C340.278 351.499 340.875 350.929 341.619 350.551C342.363 350.173 343.179 349.984 344.067 349.984C344.901 349.984 345.579 350.146 346.101 350.47C346.629 350.794 347.01 351.232 347.244 351.784C347.484 352.336 347.604 352.972 347.604 353.692V354.772H340.584V353.737H346.326L345.867 354.367C345.897 354.229 345.921 354.085 345.939 353.935C345.963 353.785 345.975 353.62 345.975 353.44C345.975 352.954 345.891 352.552 345.723 352.234C345.555 351.91 345.3 351.667 344.958 351.505C344.616 351.343 344.184 351.262 343.662 351.262C343.272 351.262 342.933 351.304 342.645 351.388C342.357 351.472 342.12 351.58 341.934 351.712ZM352.367 359.443H350.639V350.191H352.277V351.631L352.367 351.757V359.443ZM356.696 359.443V352.972C356.696 352.588 356.63 352.279 356.498 352.045C356.372 351.811 356.192 351.643 355.958 351.541C355.73 351.433 355.451 351.379 355.121 351.379C354.611 351.379 354.083 351.49 353.537 351.712C352.997 351.928 352.454 352.225 351.908 352.603L351.998 351.37H352.358C352.85 350.938 353.399 350.602 354.005 350.362C354.611 350.116 355.229 349.993 355.859 349.993C356.675 349.993 357.302 350.203 357.74 350.623C358.184 351.043 358.409 351.631 358.415 352.387L358.451 359.443H356.696ZM368.101 345.673H369.838V359.443H368.227V357.958L368.101 357.832V345.673ZM361.081 355.258C361.081 354.142 361.294 353.188 361.72 352.396C362.152 351.604 362.737 351.007 363.475 350.605C364.219 350.197 365.062 349.993 366.004 349.993C366.622 349.993 367.213 350.08 367.777 350.254C368.341 350.422 368.869 350.668 369.361 350.992L368.731 352.198C368.239 351.898 367.741 351.673 367.237 351.523C366.733 351.367 366.223 351.289 365.707 351.289C365.365 351.289 365.062 351.328 364.798 351.406C364.534 351.478 364.273 351.604 364.015 351.784C363.691 352.006 363.427 352.345 363.223 352.801C363.025 353.257 362.926 353.926 362.926 354.808C362.926 355.846 363.118 356.686 363.502 357.328C363.886 357.97 364.567 358.291 365.545 358.291C366.031 358.291 366.532 358.204 367.048 358.03C367.57 357.85 368.101 357.61 368.641 357.31L368.326 358.435H368.02C367.564 358.813 367.078 359.11 366.562 359.326C366.052 359.542 365.479 359.65 364.843 359.65C364.033 359.65 363.346 359.47 362.782 359.11C362.218 358.744 361.792 358.234 361.504 357.58C361.222 356.92 361.081 356.146 361.081 355.258ZM375.951 359.443V346.645L376.356 347.05H372.675L372.855 345.673H377.679V359.443H375.951ZM372.558 358.066H381.162L380.982 359.443H372.738L372.558 358.066ZM386.582 351.712C386.282 351.934 386.021 352.264 385.799 352.702C385.577 353.14 385.466 353.728 385.466 354.466C385.466 355.228 385.571 355.885 385.781 356.437C385.991 356.983 386.363 357.418 386.897 357.742C387.431 358.06 388.166 358.219 389.102 358.219C389.606 358.219 390.086 358.177 390.542 358.093C391.004 358.003 391.436 357.886 391.838 357.742L391.757 359.092C391.331 359.254 390.857 359.389 390.335 359.497C389.813 359.605 389.246 359.659 388.634 359.659C387.584 359.659 386.699 359.479 385.979 359.119C385.259 358.759 384.716 358.237 384.35 357.553C383.984 356.863 383.801 356.032 383.801 355.06C383.801 353.956 384.026 353.023 384.476 352.261C384.926 351.499 385.523 350.929 386.267 350.551C387.011 350.173 387.827 349.984 388.715 349.984C389.549 349.984 390.227 350.146 390.749 350.47C391.277 350.794 391.658 351.232 391.892 351.784C392.132 352.336 392.252 352.972 392.252 353.692V354.772H385.232V353.737H390.974L390.515 354.367C390.545 354.229 390.569 354.085 390.587 353.935C390.611 353.785 390.623 353.62 390.623 353.44C390.623 352.954 390.539 352.552 390.371 352.234C390.203 351.91 389.948 351.667 389.606 351.505C389.264 351.343 388.832 351.262 388.31 351.262C387.92 351.262 387.581 351.304 387.293 351.388C387.005 351.472 386.768 351.58 386.582 351.712ZM400.201 349.993C400.687 349.993 401.146 350.023 401.578 350.083C402.016 350.143 402.439 350.227 402.847 350.335L402.91 351.847C402.274 351.715 401.665 351.61 401.083 351.532C400.501 351.454 399.91 351.415 399.31 351.415C398.8 351.415 398.368 351.451 398.014 351.523C397.666 351.589 397.39 351.697 397.186 351.847C397.06 351.931 396.964 352.03 396.898 352.144C396.838 352.258 396.808 352.381 396.808 352.513C396.808 352.717 396.895 352.9 397.069 353.062C397.243 353.224 397.501 353.374 397.843 353.512C398.191 353.65 398.662 353.791 399.256 353.935L399.832 354.079C400.63 354.265 401.26 354.448 401.722 354.628C402.19 354.808 402.565 355.06 402.847 355.384C403.129 355.708 403.27 356.134 403.27 356.662C403.27 357.268 403.081 357.793 402.703 358.237C402.331 358.681 401.785 359.023 401.065 359.263C400.351 359.503 399.49 359.623 398.482 359.623C397.876 359.623 397.306 359.581 396.772 359.497C396.238 359.419 395.728 359.308 395.242 359.164L395.116 357.526C395.812 357.73 396.535 357.898 397.285 358.03C398.035 358.156 398.773 358.219 399.499 358.219C399.913 358.219 400.267 358.195 400.561 358.147C400.861 358.093 401.11 358 401.308 357.868L401.326 357.859C401.446 357.775 401.539 357.67 401.605 357.544C401.671 357.412 401.704 357.259 401.704 357.085C401.704 356.785 401.596 356.542 401.38 356.356C401.17 356.17 400.876 356.017 400.498 355.897C400.126 355.777 399.55 355.624 398.77 355.438C398.578 355.39 398.425 355.351 398.311 355.321C397.645 355.159 397.093 354.973 396.655 354.763C396.223 354.547 395.89 354.283 395.656 353.971C395.428 353.659 395.314 353.281 395.314 352.837C395.314 352.195 395.539 351.661 395.989 351.235C396.439 350.809 397.033 350.497 397.771 350.299C398.509 350.095 399.319 349.993 400.201 349.993ZM411.363 349.993C411.849 349.993 412.308 350.023 412.74 350.083C413.178 350.143 413.601 350.227 414.009 350.335L414.072 351.847C413.436 351.715 412.827 351.61 412.245 351.532C411.663 351.454 411.072 351.415 410.472 351.415C409.962 351.415 409.53 351.451 409.176 351.523C408.828 351.589 408.552 351.697 408.348 351.847C408.222 351.931 408.126 352.03 408.06 352.144C408 352.258 407.97 352.381 407.97 352.513C407.97 352.717 408.057 352.9 408.231 353.062C408.405 353.224 408.663 353.374 409.005 353.512C409.353 353.65 409.824 353.791 410.418 353.935L410.994 354.079C411.792 354.265 412.422 354.448 412.884 354.628C413.352 354.808 413.727 355.06 414.009 355.384C414.291 355.708 414.432 356.134 414.432 356.662C414.432 357.268 414.243 357.793 413.865 358.237C413.493 358.681 412.947 359.023 412.227 359.263C411.513 359.503 410.652 359.623 409.644 359.623C409.038 359.623 408.468 359.581 407.934 359.497C407.4 359.419 406.89 359.308 406.404 359.164L406.278 357.526C406.974 357.73 407.697 357.898 408.447 358.03C409.197 358.156 409.935 358.219 410.661 358.219C411.075 358.219 411.429 358.195 411.723 358.147C412.023 358.093 412.272 358 412.47 357.868L412.488 357.859C412.608 357.775 412.701 357.67 412.767 357.544C412.833 357.412 412.866 357.259 412.866 357.085C412.866 356.785 412.758 356.542 412.542 356.356C412.332 356.17 412.038 356.017 411.66 355.897C411.288 355.777 410.712 355.624 409.932 355.438C409.74 355.39 409.587 355.351 409.473 355.321C408.807 355.159 408.255 354.973 407.817 354.763C407.385 354.547 407.052 354.283 406.818 353.971C406.59 353.659 406.476 353.281 406.476 352.837C406.476 352.195 406.701 351.661 407.151 351.235C407.601 350.809 408.195 350.497 408.933 350.299C409.671 350.095 410.481 349.993 411.363 349.993ZM433.688 349.993C434.174 349.993 434.633 350.023 435.065 350.083C435.503 350.143 435.926 350.227 436.334 350.335L436.397 351.847C435.761 351.715 435.152 351.61 434.57 351.532C433.988 351.454 433.397 351.415 432.797 351.415C432.287 351.415 431.855 351.451 431.501 351.523C431.153 351.589 430.877 351.697 430.673 351.847C430.547 351.931 430.451 352.03 430.385 352.144C430.325 352.258 430.295 352.381 430.295 352.513C430.295 352.717 430.382 352.9 430.556 353.062C430.73 353.224 430.988 353.374 431.33 353.512C431.678 353.65 432.149 353.791 432.743 353.935L433.319 354.079C434.117 354.265 434.747 354.448 435.209 354.628C435.677 354.808 436.052 355.06 436.334 355.384C436.616 355.708 436.757 356.134 436.757 356.662C436.757 357.268 436.568 357.793 436.19 358.237C435.818 358.681 435.272 359.023 434.552 359.263C433.838 359.503 432.977 359.623 431.969 359.623C431.363 359.623 430.793 359.581 430.259 359.497C429.725 359.419 429.215 359.308 428.729 359.164L428.603 357.526C429.299 357.73 430.022 357.898 430.772 358.03C431.522 358.156 432.26 358.219 432.986 358.219C433.4 358.219 433.754 358.195 434.048 358.147C434.348 358.093 434.597 358 434.795 357.868L434.813 357.859C434.933 357.775 435.026 357.67 435.092 357.544C435.158 357.412 435.191 357.259 435.191 357.085C435.191 356.785 435.083 356.542 434.867 356.356C434.657 356.17 434.363 356.017 433.985 355.897C433.613 355.777 433.037 355.624 432.257 355.438C432.065 355.39 431.912 355.351 431.798 355.321C431.132 355.159 430.58 354.973 430.142 354.763C429.71 354.547 429.377 354.283 429.143 353.971C428.915 353.659 428.801 353.281 428.801 352.837C428.801 352.195 429.026 351.661 429.476 351.235C429.926 350.809 430.52 350.497 431.258 350.299C431.996 350.095 432.806 349.993 433.688 349.993ZM441.448 362.899H439.72V350.191H441.322V351.559L441.448 351.685V362.899ZM448.468 354.394C448.468 355.51 448.252 356.464 447.82 357.256C447.394 358.042 446.809 358.639 446.065 359.047C445.327 359.449 444.487 359.65 443.545 359.65C442.927 359.65 442.336 359.566 441.772 359.398C441.208 359.23 440.68 358.981 440.188 358.651L440.818 357.454C441.31 357.754 441.808 357.979 442.312 358.129C442.816 358.279 443.326 358.354 443.842 358.354C444.184 358.354 444.487 358.318 444.751 358.246C445.015 358.168 445.276 358.039 445.534 357.859C445.858 357.637 446.119 357.298 446.317 356.842C446.521 356.386 446.623 355.717 446.623 354.835C446.623 353.797 446.431 352.957 446.047 352.315C445.663 351.673 444.982 351.352 444.004 351.352C443.518 351.352 443.014 351.442 442.492 351.622C441.976 351.796 441.448 352.036 440.908 352.342L441.223 351.208H441.529C441.985 350.83 442.468 350.533 442.978 350.317C443.494 350.101 444.07 349.993 444.706 349.993C445.516 349.993 446.203 350.176 446.767 350.542C447.331 350.908 447.754 351.421 448.036 352.081C448.324 352.735 448.468 353.506 448.468 354.394ZM457.146 359.443V352.981C457.146 352.621 457.065 352.33 456.903 352.108C456.741 351.886 456.519 351.727 456.237 351.631C455.955 351.529 455.622 351.478 455.238 351.478C454.578 351.478 453.888 351.547 453.168 351.685C452.448 351.823 451.713 352.033 450.963 352.315L451.269 350.65C451.875 350.452 452.52 350.293 453.204 350.173C453.888 350.053 454.566 349.993 455.238 349.993C456.084 349.993 456.774 350.089 457.308 350.281C457.848 350.467 458.244 350.755 458.496 351.145C458.754 351.529 458.883 352.021 458.883 352.621V359.443H457.146ZM457.335 355.294C456.627 355.282 455.931 355.294 455.247 355.33C454.569 355.366 454.002 355.45 453.546 355.582C453.102 355.708 452.793 355.876 452.619 356.086C452.451 356.296 452.367 356.548 452.367 356.842C452.367 357.142 452.442 357.406 452.592 357.634C452.748 357.862 452.97 358.042 453.258 358.174C453.552 358.3 453.897 358.363 454.293 358.363C454.713 358.363 455.19 358.297 455.724 358.165C456.258 358.027 456.78 357.829 457.29 357.571L457.389 358.66H456.993C456.429 359.008 455.853 359.263 455.265 359.425C454.683 359.581 454.146 359.659 453.654 359.659C453.018 359.659 452.472 359.548 452.016 359.326C451.56 359.104 451.215 358.804 450.981 358.426C450.753 358.042 450.639 357.613 450.639 357.139C450.639 356.323 450.999 355.69 451.719 355.24C452.439 354.79 453.288 354.484 454.266 354.322C455.244 354.16 456.261 354.07 457.317 354.052L457.335 355.294ZM463.484 359.443H461.927V350.191H463.394V351.631L463.484 351.757V359.443ZM465.374 359.443V352.279C465.374 351.973 465.311 351.757 465.185 351.631C465.059 351.499 464.894 351.433 464.69 351.433C464.414 351.433 464.147 351.523 463.889 351.703C463.637 351.877 463.376 352.114 463.106 352.414L463.061 352.468L463.169 351.361H463.484C463.706 350.941 463.988 350.608 464.33 350.362C464.672 350.116 465.068 349.993 465.518 349.993C465.824 349.993 466.079 350.053 466.283 350.173C466.493 350.293 466.649 350.479 466.751 350.731C466.859 350.977 466.913 351.289 466.913 351.667L466.949 359.443H465.374ZM468.83 359.443V352.279C468.83 351.973 468.767 351.757 468.641 351.631C468.515 351.499 468.35 351.433 468.146 351.433C467.864 351.433 467.594 351.523 467.336 351.703C467.078 351.883 466.811 352.126 466.535 352.432L466.517 352.468L466.625 351.361H466.958C467.18 350.935 467.459 350.602 467.795 350.362C468.131 350.116 468.524 349.993 468.974 349.993C469.28 349.993 469.535 350.053 469.739 350.173C469.949 350.293 470.105 350.479 470.207 350.731C470.315 350.977 470.369 351.289 470.369 351.667L470.405 359.443H468.83ZM474.646 359.443H473.089V350.191H474.556V351.631L474.646 351.757V359.443ZM476.536 359.443V352.279C476.536 351.973 476.473 351.757 476.347 351.631C476.221 351.499 476.056 351.433 475.852 351.433C475.576 351.433 475.309 351.523 475.051 351.703C474.799 351.877 474.538 352.114 474.268 352.414L474.223 352.468L474.331 351.361H474.646C474.868 350.941 475.15 350.608 475.492 350.362C475.834 350.116 476.23 349.993 476.68 349.993C476.986 349.993 477.241 350.053 477.445 350.173C477.655 350.293 477.811 350.479 477.913 350.731C478.021 350.977 478.075 351.289 478.075 351.667L478.111 359.443H476.536ZM479.992 359.443V352.279C479.992 351.973 479.929 351.757 479.803 351.631C479.677 351.499 479.512 351.433 479.308 351.433C479.026 351.433 478.756 351.523 478.498 351.703C478.24 351.883 477.973 352.126 477.697 352.432L477.679 352.468L477.787 351.361H478.12C478.342 350.935 478.621 350.602 478.957 350.362C479.293 350.116 479.686 349.993 480.136 349.993C480.442 349.993 480.697 350.053 480.901 350.173C481.111 350.293 481.267 350.479 481.369 350.731C481.477 350.977 481.531 351.289 481.531 351.667L481.567 359.443H479.992ZM485.556 350.2C485.892 351.544 486.318 352.843 486.834 354.097C487.35 355.345 487.935 356.557 488.589 357.733H488.733C489.357 356.533 489.891 355.33 490.335 354.124C490.785 352.918 491.172 351.61 491.496 350.2H493.233C492.921 351.502 492.483 352.855 491.919 354.259C491.355 355.663 490.749 357.025 490.101 358.345L489.678 359.182C489.318 359.908 488.898 360.571 488.418 361.171C487.944 361.777 487.392 362.275 486.762 362.665C486.138 363.055 485.463 363.25 484.737 363.25C484.395 363.25 484.038 363.214 483.666 363.142L483.297 361.603C483.777 361.705 484.233 361.756 484.665 361.756C485.169 361.756 485.607 361.675 485.979 361.513C486.351 361.351 486.66 361.141 486.906 360.883C487.152 360.631 487.365 360.343 487.545 360.019L487.959 359.263L488.31 359.605L488.094 360.208C487.446 359.11 486.864 358.039 486.348 356.995C485.832 355.951 485.358 354.868 484.926 353.746C484.494 352.624 484.107 351.442 483.765 350.2H485.556ZM512.263 349.984C512.713 349.984 513.154 350.017 513.586 350.083C514.018 350.143 514.441 350.227 514.855 350.335L515.008 351.973C514.462 351.853 513.889 351.76 513.289 351.694C512.695 351.622 512.14 351.586 511.624 351.586C511.096 351.586 510.661 351.625 510.319 351.703C509.983 351.781 509.698 351.904 509.464 352.072C509.182 352.264 508.936 352.561 508.726 352.963C508.522 353.359 508.42 353.887 508.42 354.547C508.42 355.333 508.579 355.996 508.897 356.536C509.221 357.07 509.668 357.472 510.238 357.742C510.808 358.012 511.474 358.147 512.236 358.147C512.68 358.147 513.133 358.108 513.595 358.03C514.057 357.952 514.531 357.847 515.017 357.715L514.882 359.119C514.504 359.269 514.069 359.395 513.577 359.497C513.085 359.605 512.527 359.659 511.903 359.659C510.805 359.659 509.869 359.47 509.095 359.092C508.321 358.714 507.73 358.171 507.322 357.463C506.92 356.749 506.719 355.894 506.719 354.898C506.719 353.788 506.962 352.867 507.448 352.135C507.94 351.403 508.6 350.863 509.428 350.515C510.262 350.161 511.207 349.984 512.263 349.984ZM519.798 359.443H518.07V345.673H519.798V351.631V351.757V359.443ZM524.127 359.443V352.972C524.127 352.588 524.061 352.279 523.929 352.045C523.803 351.811 523.623 351.643 523.389 351.541C523.161 351.433 522.882 351.379 522.552 351.379C522.042 351.379 521.514 351.49 520.968 351.712C520.428 351.928 519.885 352.225 519.339 352.603L519.483 351.37H519.879C520.383 350.932 520.92 350.593 521.49 350.353C522.06 350.113 522.66 349.993 523.29 349.993C524.106 349.993 524.733 350.203 525.171 350.623C525.615 351.043 525.84 351.631 525.846 352.387L525.882 359.443H524.127ZM535.281 359.443V352.981C535.281 352.621 535.2 352.33 535.038 352.108C534.876 351.886 534.654 351.727 534.372 351.631C534.09 351.529 533.757 351.478 533.373 351.478C532.713 351.478 532.023 351.547 531.303 351.685C530.583 351.823 529.848 352.033 529.098 352.315L529.404 350.65C530.01 350.452 530.655 350.293 531.339 350.173C532.023 350.053 532.701 349.993 533.373 349.993C534.219 349.993 534.909 350.089 535.443 350.281C535.983 350.467 536.379 350.755 536.631 351.145C536.889 351.529 537.018 352.021 537.018 352.621V359.443H535.281ZM535.47 355.294C534.762 355.282 534.066 355.294 533.382 355.33C532.704 355.366 532.137 355.45 531.681 355.582C531.237 355.708 530.928 355.876 530.754 356.086C530.586 356.296 530.502 356.548 530.502 356.842C530.502 357.142 530.577 357.406 530.727 357.634C530.883 357.862 531.105 358.042 531.393 358.174C531.687 358.3 532.032 358.363 532.428 358.363C532.848 358.363 533.325 358.297 533.859 358.165C534.393 358.027 534.915 357.829 535.425 357.571L535.524 358.66H535.128C534.564 359.008 533.988 359.263 533.4 359.425C532.818 359.581 532.281 359.659 531.789 359.659C531.153 359.659 530.607 359.548 530.151 359.326C529.695 359.104 529.35 358.804 529.116 358.426C528.888 358.042 528.774 357.613 528.774 357.139C528.774 356.323 529.134 355.69 529.854 355.24C530.574 354.79 531.423 354.484 532.401 354.322C533.379 354.16 534.396 354.07 535.452 354.052L535.47 355.294ZM544.022 350.704V356.86C544.022 357.172 544.076 357.424 544.184 357.616C544.292 357.808 544.478 357.955 544.742 358.057C545.012 358.153 545.387 358.201 545.867 358.201C546.269 358.201 546.689 358.162 547.127 358.084C547.571 358.006 547.985 357.916 548.369 357.814L548.198 359.155C547.76 359.305 547.301 359.425 546.821 359.515C546.341 359.605 545.819 359.65 545.255 359.65C544.535 359.65 543.959 359.563 543.527 359.389C543.095 359.215 542.78 358.945 542.582 358.579C542.39 358.207 542.294 357.712 542.294 357.094V350.704H544.022ZM548.441 350.2L548.135 351.55H539.72V350.812L543.446 347.977H544.013V350.74L543.248 350.2H548.441ZM556.471 349.993C556.957 349.993 557.416 350.023 557.848 350.083C558.286 350.143 558.709 350.227 559.117 350.335L559.18 351.847C558.544 351.715 557.935 351.61 557.353 351.532C556.771 351.454 556.18 351.415 555.58 351.415C555.07 351.415 554.638 351.451 554.284 351.523C553.936 351.589 553.66 351.697 553.456 351.847C553.33 351.931 553.234 352.03 553.168 352.144C553.108 352.258 553.078 352.381 553.078 352.513C553.078 352.717 553.165 352.9 553.339 353.062C553.513 353.224 553.771 353.374 554.113 353.512C554.461 353.65 554.932 353.791 555.526 353.935L556.102 354.079C556.9 354.265 557.53 354.448 557.992 354.628C558.46 354.808 558.835 355.06 559.117 355.384C559.399 355.708 559.54 356.134 559.54 356.662C559.54 357.268 559.351 357.793 558.973 358.237C558.601 358.681 558.055 359.023 557.335 359.263C556.621 359.503 555.76 359.623 554.752 359.623C554.146 359.623 553.576 359.581 553.042 359.497C552.508 359.419 551.998 359.308 551.512 359.164L551.386 357.526C552.082 357.73 552.805 357.898 553.555 358.03C554.305 358.156 555.043 358.219 555.769 358.219C556.183 358.219 556.537 358.195 556.831 358.147C557.131 358.093 557.38 358 557.578 357.868L557.596 357.859C557.716 357.775 557.809 357.67 557.875 357.544C557.941 357.412 557.974 357.259 557.974 357.085C557.974 356.785 557.866 356.542 557.65 356.356C557.44 356.17 557.146 356.017 556.768 355.897C556.396 355.777 555.82 355.624 555.04 355.438C554.848 355.39 554.695 355.351 554.581 355.321C553.915 355.159 553.363 354.973 552.925 354.763C552.493 354.547 552.16 354.283 551.926 353.971C551.698 353.659 551.584 353.281 551.584 352.837C551.584 352.195 551.809 351.661 552.259 351.235C552.709 350.809 553.303 350.497 554.041 350.299C554.779 350.095 555.589 349.993 556.471 349.993Z" fill="#343434"/>
</g>
<defs>
<linearGradient id="paint0_linear_7414_14326" x1="-0.530972" y1="15.4444" x2="761.964" y2="368.208" gradientUnits="userSpaceOnUse">
<stop stop-color="#F5CBBC"/>
<stop offset="0.5" stop-color="#F5F0EB"/>
<stop offset="1" stop-color="#F5CBBC"/>
</linearGradient>
<linearGradient id="paint1_linear_7414_14326" x1="-43.531" y1="15.4444" x2="718.964" y2="368.208" gradientUnits="userSpaceOnUse">
<stop stop-color="#F5CBBC"/>
<stop offset="0.5" stop-color="#F5F0EB"/>
<stop offset="1" stop-color="#F5CBBC"/>
</linearGradient>
<linearGradient id="paint2_linear_7414_14326" x1="-89.531" y1="15.4444" x2="672.964" y2="368.208" gradientUnits="userSpaceOnUse">
<stop stop-color="#F5CBBC"/>
<stop offset="0.5" stop-color="#F5F0EB"/>
<stop offset="1" stop-color="#F5CBBC"/>
</linearGradient>
<linearGradient id="paint3_linear_7414_14326" x1="-140.531" y1="15.4444" x2="621.964" y2="368.208" gradientUnits="userSpaceOnUse">
<stop stop-color="#F5CBBC"/>
<stop offset="0.5" stop-color="#F5F0EB"/>
<stop offset="1" stop-color="#F5CBBC"/>
</linearGradient>
<linearGradient id="paint4_linear_7414_14326" x1="189.469" y1="15.4444" x2="951.964" y2="368.208" gradientUnits="userSpaceOnUse">
<stop stop-color="#F5CBBC"/>
<stop offset="0.5" stop-color="#F5F0EB"/>
<stop offset="1" stop-color="#F5CBBC"/>
</linearGradient>
<linearGradient id="paint5_linear_7414_14326" x1="146.469" y1="15.4444" x2="908.964" y2="368.208" gradientUnits="userSpaceOnUse">
<stop stop-color="#F5CBBC"/>
<stop offset="0.5" stop-color="#F5F0EB"/>
<stop offset="1" stop-color="#F5CBBC"/>
</linearGradient>
<linearGradient id="paint6_linear_7414_14326" x1="100.469" y1="15.4444" x2="862.964" y2="368.208" gradientUnits="userSpaceOnUse">
<stop stop-color="#F5CBBC"/>
<stop offset="0.5" stop-color="#F5F0EB"/>
<stop offset="1" stop-color="#F5CBBC"/>
</linearGradient>
<linearGradient id="paint7_linear_7414_14326" x1="49.469" y1="15.4444" x2="811.964" y2="368.208" gradientUnits="userSpaceOnUse">
<stop stop-color="#F5CBBC"/>
<stop offset="0.5" stop-color="#F5F0EB"/>
<stop offset="1" stop-color="#F5CBBC"/>
</linearGradient>
<linearGradient id="paint8_linear_7414_14326" x1="381.469" y1="15.4444" x2="1143.96" y2="368.208" gradientUnits="userSpaceOnUse">
<stop stop-color="#F5CBBC"/>
<stop offset="0.5" stop-color="#F5F0EB"/>
<stop offset="1" stop-color="#F5CBBC"/>
</linearGradient>
<linearGradient id="paint9_linear_7414_14326" x1="338.469" y1="15.4444" x2="1100.96" y2="368.208" gradientUnits="userSpaceOnUse">
<stop stop-color="#F5CBBC"/>
<stop offset="0.5" stop-color="#F5F0EB"/>
<stop offset="1" stop-color="#F5CBBC"/>
</linearGradient>
<linearGradient id="paint10_linear_7414_14326" x1="292.469" y1="15.4444" x2="1054.96" y2="368.208" gradientUnits="userSpaceOnUse">
<stop stop-color="#F5CBBC"/>
<stop offset="0.5" stop-color="#F5F0EB"/>
<stop offset="1" stop-color="#F5CBBC"/>
</linearGradient>
<linearGradient id="paint11_linear_7414_14326" x1="241.469" y1="15.4444" x2="1003.96" y2="368.208" gradientUnits="userSpaceOnUse">
<stop stop-color="#F5CBBC"/>
<stop offset="0.5" stop-color="#F5F0EB"/>
<stop offset="1" stop-color="#F5CBBC"/>
</linearGradient>
<linearGradient id="paint12_linear_7414_14326" x1="565.469" y1="15.4444" x2="1327.96" y2="368.208" gradientUnits="userSpaceOnUse">
<stop stop-color="#F5CBBC"/>
<stop offset="0.5" stop-color="#F5F0EB"/>
<stop offset="1" stop-color="#F5CBBC"/>
</linearGradient>
<linearGradient id="paint13_linear_7414_14326" x1="522.469" y1="15.4444" x2="1284.96" y2="368.208" gradientUnits="userSpaceOnUse">
<stop stop-color="#F5CBBC"/>
<stop offset="0.5" stop-color="#F5F0EB"/>
<stop offset="1" stop-color="#F5CBBC"/>
</linearGradient>
<linearGradient id="paint14_linear_7414_14326" x1="476.469" y1="15.4444" x2="1238.96" y2="368.208" gradientUnits="userSpaceOnUse">
<stop stop-color="#F5CBBC"/>
<stop offset="0.5" stop-color="#F5F0EB"/>
<stop offset="1" stop-color="#F5CBBC"/>
</linearGradient>
<linearGradient id="paint15_linear_7414_14326" x1="425.469" y1="15.4444" x2="1187.96" y2="368.208" gradientUnits="userSpaceOnUse">
<stop stop-color="#F5CBBC"/>
<stop offset="0.5" stop-color="#F5F0EB"/>
<stop offset="1" stop-color="#F5CBBC"/>
</linearGradient>
<linearGradient id="paint16_linear_7414_14326" x1="609.469" y1="15.4444" x2="1371.96" y2="368.208" gradientUnits="userSpaceOnUse">
<stop stop-color="#F5CBBC"/>
<stop offset="0.5" stop-color="#F5F0EB"/>
<stop offset="1" stop-color="#F5CBBC"/>
</linearGradient>
<linearGradient id="paint17_linear_7414_14326" x1="-190.531" y1="15.4444" x2="571.964" y2="368.208" gradientUnits="userSpaceOnUse">
<stop stop-color="#F5CBBC"/>
<stop offset="0.5" stop-color="#F5F0EB"/>
<stop offset="1" stop-color="#F5CBBC"/>
</linearGradient>
<linearGradient id="paint18_linear_7414_14326" x1="-239.531" y1="15.4444" x2="522.964" y2="368.208" gradientUnits="userSpaceOnUse">
<stop stop-color="#F5CBBC"/>
<stop offset="0.5" stop-color="#F5F0EB"/>
<stop offset="1" stop-color="#F5CBBC"/>
</linearGradient>
<linearGradient id="paint19_linear_7414_14326" x1="-301.073" y1="3.67618" x2="475.417" y2="362.915" gradientUnits="userSpaceOnUse">
<stop stop-color="#F5CBBC"/>
<stop offset="0.5" stop-color="#F5F0EB"/>
<stop offset="1" stop-color="#F5CBBC"/>
</linearGradient>
<linearGradient id="paint20_linear_7414_14326" x1="-352.073" y1="3.67618" x2="424.417" y2="362.915" gradientUnits="userSpaceOnUse">
<stop stop-color="#F5CBBC"/>
<stop offset="0.5" stop-color="#F5F0EB"/>
<stop offset="1" stop-color="#F5CBBC"/>
</linearGradient>
<linearGradient id="paint21_linear_7414_14326" x1="-402.073" y1="3.67618" x2="374.417" y2="362.915" gradientUnits="userSpaceOnUse">
<stop stop-color="#F5CBBC"/>
<stop offset="0.5" stop-color="#F5F0EB"/>
<stop offset="1" stop-color="#F5CBBC"/>
</linearGradient>
<linearGradient id="paint22_linear_7414_14326" x1="-451.073" y1="3.67618" x2="325.417" y2="362.915" gradientUnits="userSpaceOnUse">
<stop stop-color="#F5CBBC"/>
<stop offset="0.5" stop-color="#F5F0EB"/>
<stop offset="1" stop-color="#F5CBBC"/>
</linearGradient>
<linearGradient id="paint23_linear_7414_14326" x1="-501.073" y1="3.67618" x2="275.417" y2="362.915" gradientUnits="userSpaceOnUse">
<stop stop-color="#F5CBBC"/>
<stop offset="0.5" stop-color="#F5F0EB"/>
<stop offset="1" stop-color="#F5CBBC"/>
</linearGradient>
<linearGradient id="paint24_linear_7414_14326" x1="-552.073" y1="3.67618" x2="224.417" y2="362.915" gradientUnits="userSpaceOnUse">
<stop stop-color="#F5CBBC"/>
<stop offset="0.5" stop-color="#F5F0EB"/>
<stop offset="1" stop-color="#F5CBBC"/>
</linearGradient>
<linearGradient id="paint25_linear_7414_14326" x1="-602.073" y1="3.67618" x2="174.417" y2="362.915" gradientUnits="userSpaceOnUse">
<stop stop-color="#F5CBBC"/>
<stop offset="0.5" stop-color="#F5F0EB"/>
<stop offset="1" stop-color="#F5CBBC"/>
</linearGradient>
<linearGradient id="paint26_linear_7414_14326" x1="314.75" y1="0" x2="314.75" y2="680" gradientUnits="userSpaceOnUse">
<stop stop-color="#FAF9F6" stop-opacity="0"/>
<stop offset="0.42" stop-color="#FAF9F6" stop-opacity="0.8"/>
<stop offset="0.545" stop-color="#FAF9F6" stop-opacity="0.8"/>
<stop offset="0.99" stop-color="#FAF9F6" stop-opacity="0"/>
</linearGradient>
<clipPath id="clip0_7414_14326">
<rect width="629.5" height="680" fill="white" transform="matrix(-1 0 0 1 629.5 0.443359)"/>
</clipPath>
</defs>
</svg>
