<svg width="25" height="25" viewBox="0 0 25 25" fill="none" xmlns="http://www.w3.org/2000/svg">
<g clip-path="url(#clip0_7597_22278)">
<path d="M15.0968 22.7704C15.0968 23.097 15.4104 23.3322 15.724 23.2407C23.8775 20.8872 26.4256 10.5898 20.3106 4.70537C14.1956 -1.17903 4.00368 1.76297 1.96518 10.0009C0.542277 15.7511 3.91798 21.5979 9.60918 23.2407C9.92278 23.3322 10.2364 23.097 10.2364 22.7704V20.4676C8.84098 20.8891 7.35878 20.1502 6.85558 18.7821C6.58168 17.9481 6.12658 17.1851 5.52288 16.5479C8.31568 17.224 8.36468 19.0369 10.2658 18.1843C10.3232 17.5484 10.5352 16.9362 10.8831 16.4009C8.72728 16.1559 6.45388 15.8129 6.45388 12.0892C6.43518 11.127 6.78578 10.1942 7.43378 9.48257C7.13868 8.64547 7.17368 7.72737 7.53178 6.91517C7.88988 6.10297 8.34508 6.65057 10.207 7.89507C11.8102 7.45227 13.5034 7.45227 15.1066 7.89507C16.9587 6.64077 17.772 6.91517 17.772 6.91517C18.1301 7.72737 18.1651 8.64547 17.87 9.48257C18.5188 10.1936 18.8696 11.1268 18.8499 12.0892C18.8499 15.8227 16.5765 16.1559 14.4108 16.3911C14.8746 17.0598 15.1085 17.8611 15.0772 18.6743L15.0968 22.7704Z" stroke="#343434" stroke-width="1.5" stroke-linecap="round" stroke-linejoin="round"/>
</g>
<defs>
<clipPath id="clip0_7597_22278">
<rect width="24" height="24" fill="white" transform="translate(0.666504 0.443359)"/>
</clipPath>
</defs>
</svg>
