<svg width="27" height="27" viewBox="0 0 27 27" fill="none" xmlns="http://www.w3.org/2000/svg">
<path fill-rule="evenodd" clip-rule="evenodd" d="M0.666504 13.4434C0.666504 20.6231 6.4868 26.4434 13.6665 26.4434C20.8462 26.4434 26.6665 20.6231 26.6665 13.4434C26.6665 6.26366 20.8462 0.443359 13.6665 0.443359C6.4868 0.443359 0.666504 6.26366 0.666504 13.4434ZM2.1665 13.4434C2.1665 7.09208 7.31523 1.94336 13.6665 1.94336C20.0178 1.94336 25.1665 7.09208 25.1665 13.4434C25.1665 19.7946 20.0178 24.9434 13.6665 24.9434C7.31523 24.9434 2.1665 19.7946 2.1665 13.4434ZM10.3735 8.60436V19.9434H12.3625V15.7104H15.3545C17.7175 15.7104 19.0605 14.0784 19.0605 12.1574C19.0605 10.2364 17.7345 8.60436 15.3545 8.60436H10.3735ZM15.0825 10.3554C16.2045 10.3554 17.0205 11.0694 17.0205 12.1574C17.0205 13.2454 16.2045 13.9594 15.0825 13.9594H12.3625V10.3554H15.0825Z" fill="#343434"/>
</svg>
