<svg width="251" height="47" viewBox="0 0 251 47" fill="none" xmlns="http://www.w3.org/2000/svg">
<g id="Group 22">
<g id="Group 21">
<g id="Group 18">
<path id="Vector 220" d="M3.89523 12.6308C3.17448 16.5132 2.38252 20.3941 1.8912 24.3146C1.74149 25.5093 1.64604 29.1034 1.51309 27.9067C1.4354 27.2075 1.72274 26.2397 1.8723 25.6002C2.71504 21.9972 4.13321 18.4885 5.68184 15.1358C6.58832 13.1733 7.64792 11.2911 9.2456 9.80433C9.5355 9.53457 10.3925 8.63383 10.5312 9.45457C10.9492 11.9275 10.9492 14.5463 11.0133 17.0453C11.0566 18.7319 11.3283 20.7971 10.966 22.4807C10.8405 23.064 10.3116 23.9276 10.7392 22.8211C11.392 21.1313 12.737 18.4289 14.492 17.603C15.318 17.2143 15.3814 23.5001 15.8154 24.2957C16.3646 25.3025 18.0253 24.1477 18.5757 23.842C22.1795 21.8398 25.9937 19.0085 27.9435 15.2587C28.0537 15.0468 28.5186 14.2808 28.3217 13.992C28.2791 13.9296 27.9988 13.7681 27.9246 13.8597C26.6609 15.4207 25.7889 18.6939 26.0908 20.6563C26.3271 22.1926 27.5772 23.3504 29.1346 23.3504C30.0771 23.3504 31.0292 23.6043 31.4222 22.5375C31.7309 21.6996 31.7975 20.7901 31.876 19.9095C32.0092 18.4144 32.3177 16.7946 31.8854 15.3249C31.5772 14.2769 30.9224 13.9325 30.0988 13.2736C29.6248 12.8943 29.0512 12.4565 28.3973 12.6686C27.8703 12.8395 27.4971 13.6063 27.244 14.0109C26.3953 15.3675 25.4774 16.8596 25.0982 18.4349C24.6872 20.1421 24.9023 21.769 25.9206 23.2086C27.2017 25.0198 31.0874 22.9805 32.3864 22.2917C34.9542 20.9301 37.1112 18.602 38.2473 15.9204C38.7627 14.7037 38.9935 13.3298 39.703 12.2148C39.9998 11.7484 39.4938 13.256 39.4762 13.3492C39.1854 14.8815 38.6925 16.3739 38.4174 17.9055C38.0146 20.1481 38.1427 22.5553 38.1055 24.8251C38.0963 25.3825 38.0885 27.0248 37.9353 26.4888C37.8818 26.3014 37.9506 26.0621 38.0015 25.846C38.5402 23.5566 39.194 21.3137 40.1 19.1344C40.7766 17.5072 41.8107 15.2391 43.1817 14.0204C43.6665 13.5894 43.9091 14.2222 44.2593 14.4646C44.9007 14.9086 45.7484 14.6016 46.2917 14.2189C46.7981 13.8621 47.3816 13.5023 47.7475 12.99C47.9139 12.757 47.9024 12.5769 48.1351 12.4606" stroke="#808FDC" stroke-width="1.80367" stroke-linecap="round"/>
<path id="Vector 221" d="M48.3037 20.8014C49.7512 20.3491 51.3751 20.3888 52.8695 20.1397C53.4639 20.0407 54.2059 19.9685 54.6939 19.5725C55.3808 19.0152 56.2358 17.9307 56.6979 17.1715C57.8515 15.2764 56.745 13.1445 54.4292 13.1445C53.7305 13.1445 53.2292 13.8265 52.7939 14.2789C51.7622 15.351 50.836 16.5047 50.1187 17.8143C49.1158 19.6453 49.0344 20.8193 49.6649 22.7109C50.3036 24.627 53.4319 23.8398 55.0342 23.902C58.7563 24.0465 62.6283 24.3415 66.1698 23.0134" stroke="#808FDC" stroke-width="1.80367" stroke-linecap="round"/>
</g>
<g id="Group 19">
<path id="Vector 222" d="M88.9555 14.4636C90.4161 12.9118 86.599 11.9185 85.4406 13.1109C83.9227 14.6735 82.7576 16.3263 81.7105 18.2552C80.8587 19.8242 79.2392 22.0813 80.3168 23.9221C80.8863 24.895 82.844 25.1904 83.6165 24.332C85.0819 22.7039 85.8572 20.2687 86.701 18.2962C86.9673 17.6739 87.4799 15.744 87.4799 16.4209C87.4799 17.5547 87.2673 18.6931 87.3056 19.8641C87.3572 21.4367 88.4607 21.9324 89.8675 22.467C91.9283 23.25 93.86 20.04 95.1963 18.8906C99.3502 15.3173 103.992 12.138 105.628 6.66518C105.896 5.76897 106.657 3.82355 105.372 3.25273C104.727 2.96601 104.314 3.63749 103.978 4.05204C100.997 7.73995 99.3098 12.3619 99.1416 17.087C99.0456 19.7842 98.9962 22.1065 101.089 24.0144C102.473 25.2764 105.086 21.8394 105.639 20.8581C106.837 18.7304 106.548 16.3701 106.151 14.0332C105.878 12.425 102.32 12.7383 101.867 14.0947" stroke="#808FDC" stroke-width="1.80367" stroke-linecap="round"/>
<path id="Vector 223" d="M113.12 13.7266C111.847 13.8539 110.724 15.7573 110.005 16.5754C109.129 17.5712 107.155 19.6729 107.381 21.2278C107.578 22.5796 109.836 24.2532 111.183 24.0459C113.224 23.7319 115.654 22.6295 117.116 21.1868C118.075 20.2407 119.851 18.1634 119.566 16.5959C119.478 16.1159 119.199 14.9835 118.756 14.7513C118.425 14.5779 113.12 12.9844 113.12 14.2799" stroke="#808FDC" stroke-width="1.80367" stroke-linecap="round"/>
<path id="Vector 224" d="M123.263 13.1719C122.6 15.6231 121.831 17.9442 121.982 20.5194C122.072 22.0515 124.215 21.3216 124.923 20.5092C125.798 19.5059 127.059 18.548 127.413 17.2094C127.638 16.3613 127.932 15.5091 128.346 14.7398C128.41 14.62 128.928 13.9332 128.858 14.4221C128.728 15.331 128.572 16.0818 128.653 17.025C128.714 17.7351 128.713 18.4919 128.807 19.1975C128.928 20.1034 129.071 20.4408 129.842 20.7346C131.11 21.2177 132.993 20.5873 133.962 19.8123" stroke="#808FDC" stroke-width="1.80367" stroke-linecap="round"/>
<path id="Vector 225" d="M141.34 1C141.34 4.53104 140.33 7.9626 139.506 11.3706C138.795 14.3103 138.288 17.2998 137.958 20.3065C137.858 21.2192 137.795 21.805 138.204 22.5814C138.728 23.5727 138.913 23.9018 139.762 23.0528C140.519 22.296 140.938 21.4325 141.525 20.5524" stroke="#808FDC" stroke-width="1.80367" stroke-linecap="round"/>
<path id="Vector 226" d="M134.331 13.1731C137.221 12.5482 140.231 13.3255 143.001 12.0664" stroke="#808FDC" stroke-width="1.80367" stroke-linecap="round"/>
</g>
<g id="Group 20">
<path id="Vector 227" d="M162.705 2.80469C162.601 4.26082 162.138 5.79208 161.803 7.21115C161.195 9.7874 160.964 12.4091 160.389 14.9788C159.901 17.1599 159.544 19.274 158.893 21.4348C158.743 21.9343 158.493 22.7382 158.463 23.2794C158.422 24.0153 158.119 24.3877 157.868 25.083C157.447 26.2539 158.048 22.2259 159.098 21.5578C159.253 21.4592 160.392 21.6193 160.512 21.6193C162.602 21.6193 165.582 22.1973 167.563 21.3221C169.502 20.465 171.211 19.456 172.461 17.7457C173.296 16.6028 173.32 15.7856 173.086 14.3845C172.749 12.3615 172.026 10.0667 170.391 8.74829C169.015 7.63896 167.215 6.23798 165.493 5.66377C164.492 5.33033 163.317 5.38465 162.285 5.24362C160.374 4.98242 158.492 4.54552 156.618 4.09588" stroke="#808FDC" stroke-width="1.80367" stroke-linecap="round"/>
<path id="Vector 228" d="M178.937 12.2148C178.937 14.681 178.051 17.4349 178.599 19.9005C178.782 20.724 179.239 21.6726 179.767 22.3395C180.202 22.8895 180.738 22.7289 181.396 22.7289C182.439 22.7289 183.908 23.1404 184.676 22.2985C186.075 20.7638 187.681 19.4966 188.518 17.5436C188.743 17.0207 190.516 13.4853 189.451 12.9527" stroke="#808FDC" stroke-width="1.80367" stroke-linecap="round"/>
<path id="Vector 229" d="M195.168 12.582C195.168 12.8939 195.106 13.1752 195.045 13.4838C194.645 15.5193 194.393 17.584 193.959 19.6119C193.682 20.9057 193.372 22.2188 193.323 23.547C193.314 23.8001 193.62 23.3725 193.733 23.2805C194.522 22.6381 195.064 21.412 195.639 20.6059C196.575 19.2965 197.54 18.0095 198.355 16.6196C198.63 16.1505 200.771 15.8785 201.214 16.1687C202.077 16.7342 202.616 18.6422 203.018 19.5914C203.217 20.0618 203.536 21.2938 204.022 21.5794C205.271 22.3142 207.692 22.0596 208.633 20.8826" stroke="#808FDC" stroke-width="1.80367" stroke-linecap="round"/>
</g>
</g>
<path id="Vector 230" d="M219.743 16.7806C225.134 11.3896 234.846 11.1889 241.887 10.9232C244.194 10.8362 245.481 14.9501 246.193 16.6173C247.824 20.4318 248.352 24.144 247.969 28.2913C247.591 32.3833 244.919 34.9929 241.969 37.3529C241.195 37.9716 240.558 39.0264 239.377 39.0264C238.906 39.0264 239.553 36.7647 239.581 36.5978C240.01 34.0227 239.948 31.5185 239.948 28.9036C239.948 25.6086 240.493 35.6154 239.581 38.7815C239.087 40.4967 238.349 41.7155 237.458 43.2307C237.132 43.7852 235.239 46.0638 236.601 45.6593C241.004 44.3523 245.419 42.3323 249.499 40.2918" stroke="#808FDC" stroke-width="1.80367" stroke-linecap="round"/>
</g>
</svg>
