<svg width="870" height="760" viewBox="0 0 870 760" fill="none" xmlns="http://www.w3.org/2000/svg">
<g clip-path="url(#clip0_7490_113441)">
<rect width="870" height="760" transform="translate(0.5)" fill="#FAF9F6"/>
<g filter="url(#filter0_df_7490_113441)">
<path d="M-445.863 38.4386C-472.313 -6.02837 -497.181 -51.5014 -522.823 -96.4422C-508.499 -104.615 -542.555 -131.024 -547.675 -139.998C-555.511 -153.732 -560.691 -169.428 -568.074 -182.368C-591.041 -222.621 -609.834 -267.525 -635.841 -307.388C-642.884 -318.183 -650.473 -328.823 -658.416 -339.274C-655.433 -312.414 -647.565 -285.079 -642.219 -266.507L-641.703 -264.714C-640.397 -260.172 -639.037 -255.635 -637.625 -251.106C-584.356 -149.242 -524.807 -36.199 -541.774 -53.5427C-558.748 -70.8944 -569.816 -95.0421 -580.916 -116.26C-603.31 -159.068 -623.165 -204.704 -637.625 -251.106C-682.747 -337.388 -723.364 -415.649 -709.161 -399.855C-691.855 -380.612 -674.417 -360.326 -658.416 -339.274C-661.186 -364.212 -659.745 -388.742 -648.165 -405.469C-636.578 -422.206 -610.12 -431.355 -594.879 -445.185C-568.973 -468.692 -550.173 -496.525 -535.924 -528.281C-518.478 -567.16 -515.525 -612.213 -487.71 -646.015C-450.405 -691.35 -397.44 -727.32 -346.696 -756.273L-181.143 -850.733C-135.745 -876.637 -88.9135 -910.741 -37.0338 -921.371C36.9393 -936.527 116.972 -918.818 188.517 -901.485C253.77 -885.676 342.646 -865.935 387.432 -811.356C409.227 -784.794 425.038 -752.672 445.881 -725.096C455.228 -712.728 464.249 -700.28 472.844 -687.546C428.344 -759.773 333.571 -914.51 289.676 -985.744C281.734 -997.617 274.056 -1009.69 266.93 -1022.18C264.251 -1026.88 273.515 -1011.97 289.676 -985.744C308.998 -956.858 329.88 -929.175 348.161 -899.67C351.479 -894.314 352.765 -895.603 357.868 -892.586C367.338 -886.986 372.88 -876.433 380.756 -869.018C389.973 -860.34 397.857 -852.284 404.091 -841.358C463.822 -736.672 528.776 -632.272 593.19 -529.796C732.557 -308.077 880.415 -88.3206 999.43 145.416C1036.66 218.528 1065.93 291.662 1094.24 368.201C1100.92 386.281 1105.87 408.452 1115.44 425.219C1134.2 458.09 1076.75 481.094 1053.86 486.43L1052.63 486.717C1026.68 492.771 1001.1 498.738 974.191 496.087C944.557 493.168 918.985 482.592 890.647 475.053C871.671 470.004 846.502 457.43 827.269 466.93C809.768 475.575 793.021 486.265 776.058 495.943C751.83 509.768 713.286 543.023 683.801 529.131C646.929 511.759 608.421 492.064 574.269 469.535C543.296 449.104 508.724 422.41 471.665 418.403C447.157 415.753 417.069 412.777 392.904 416.781C308.162 430.825 245.182 384.608 185.75 332.802C172.241 321.027 154.128 300.555 134.198 300.548C104.135 300.538 74.7267 307.296 44.3688 307.105C15.9789 306.926 -17.2373 307.564 -43.6144 296.674C-83.8209 280.073 -106.351 249.684 -131.247 215.891C-165.093 169.951 -192.629 123.91 -237.124 86.9552C-255.849 71.4037 -285.637 53.6827 -311.567 62.383C-353.214 76.3574 -420.521 81.0431 -445.863 38.4386Z" fill="#EBEEFF"/>
</g>
<g filter="url(#filter1_f_7490_113441)">
<path d="M-441.93 -10.7016C-467.617 -53.72 -491.624 -97.7961 -516.455 -141.315C-501.295 -149.965 -535.563 -174.803 -540.521 -183.493C-548.109 -196.793 -552.869 -212.138 -560.018 -224.669C-582.259 -263.648 -599.993 -307.397 -625.399 -345.872C-632.279 -356.291 -639.731 -366.536 -647.557 -376.579C-645.506 -350.091 -638.412 -323.321 -633.592 -305.133L-633.127 -303.378C-631.95 -298.929 -630.716 -294.488 -629.429 -290.056C-578.174 -191.228 -520.846 -81.5692 -537.756 -98.0902C-554.673 -114.619 -565.207 -138.108 -575.887 -158.693C-597.435 -200.226 -616.242 -244.657 -629.429 -290.056C-672.844 -373.768 -711.902 -449.71 -697.795 -434.617C-680.608 -416.228 -663.323 -396.811 -647.557 -376.579C-649.461 -401.173 -647.018 -425.524 -634.37 -442.541C-621.714 -459.568 -593.942 -469.654 -577.612 -483.943C-549.855 -508.23 -529.295 -536.526 -513.299 -568.532C-493.714 -607.716 -488.908 -652.454 -458.775 -687.011C-418.359 -733.36 -362.08 -771.039 -308.374 -801.683L-133.156 -901.658C-85.1073 -929.073 -35.2559 -964.667 18.9174 -977.206C96.1609 -995.084 178.41 -980.645 251.879 -966.249C318.886 -953.119 410.221 -937.01 454.516 -884.686C476.073 -859.222 491.213 -828.018 511.743 -801.513C520.95 -789.625 529.816 -777.645 538.229 -765.366C494.914 -835.18 402.699 -984.771 359.971 -1053.62C352.201 -1065.08 344.713 -1076.74 337.812 -1088.83C335.218 -1093.38 344.241 -1078.97 359.971 -1053.62C378.876 -1025.76 399.442 -999.152 417.243 -970.637C420.474 -965.461 421.856 -966.787 427.027 -963.996C436.624 -958.817 441.958 -948.58 449.832 -941.54C459.048 -933.302 466.905 -925.628 472.942 -915.048C530.783 -813.674 594.048 -712.785 656.828 -613.781C792.659 -399.575 937.365 -187.642 1051.64 39.2558C1087.39 110.229 1114.88 181.532 1141.25 256.245C1147.48 273.894 1151.75 295.661 1161.02 311.898C1179.18 343.729 1118.75 368.74 1094.83 374.912L1093.55 375.244C1066.42 382.246 1039.68 389.147 1011.9 387.564C981.303 385.821 955.214 376.336 926.14 369.967C906.671 365.702 881.077 354.223 860.778 364.378C842.307 373.618 824.538 384.855 806.585 395.098C780.942 409.73 739.711 444.162 709.696 431.545C672.159 415.767 633.018 397.751 598.5 376.76C567.195 357.724 532.403 332.624 494.155 330.091C468.861 328.416 437.797 326.634 412.601 331.537C350.906 343.541 293.489 321.564 237.196 283.013C218.233 266.528 181.912 225.216 149.015 226.435C117.861 227.59 87.1249 235.423 55.6733 236.41C26.2606 237.333 -8.18519 239.252 -35.097 229.487C-76.1187 214.602 -98.2886 185.376 -122.778 152.87C-156.072 108.678 -182.823 64.1434 -227.5 29.2649C-246.301 14.587 -276.483 -1.81093 -303.69 7.81111C-347.39 23.2661 -417.319 30.5151 -441.93 -10.7016Z" fill="#D8DDF6"/>
</g>
<g clip-path="url(#clip1_7490_113441)">
<path d="M382.817 619.703L235.602 609.832V619.703L382.817 630.192V619.703Z" fill="#6D524C" stroke="#361D02" stroke-width="1.05112"/>
<path d="M301.226 555.798L279.613 489.246L295.882 557.017L301.226 555.798Z" fill="#090203" stroke="#361D02" stroke-width="1.05112"/>
<path d="M277.109 480.337L283.373 479.846L280.241 574.596H271.627L277.109 480.337Z" fill="url(#paint0_linear_7490_113441)" stroke="#361D02" stroke-width="1.05112"/>
<path d="M224.637 640.371C223.385 639.119 229.336 591.3 232.468 567.547L240.299 568.33C239.046 568.33 235.601 616.619 234.035 640.371H224.637Z" fill="#916E65" stroke="#361D02" stroke-width="1.05112"/>
<path d="M241.868 568.334H240.302L234.821 640.375L237.17 634.111L241.868 568.334Z" fill="#322308" stroke="#361D02" stroke-width="1.05112"/>
<path d="M378.902 655.254L383.6 579.297H391.431L389.865 655.254H378.902Z" fill="#6C4A41" stroke="#361D02" stroke-width="1.05112"/>
<path d="M426.671 547.192L420.406 477.5L421.19 547.192H426.671Z" fill="#090203" stroke="#361D02" stroke-width="1.05112"/>
<path d="M222.295 566.766V559.719L389.086 573.031V580.078L222.295 566.766Z" fill="#49330D" stroke="#361D02" stroke-width="1.05112"/>
<path d="M285.328 429.729C287.207 430.982 289.765 430.252 290.809 429.729L290.026 437.56C288.721 437.56 285.641 437.404 283.762 436.777C281.413 435.994 279.064 433.645 277.497 432.079C276.245 430.826 269.667 432.079 266.535 432.862H254.788C253.535 426.597 255.565 423.84 256.736 423.244H271.233C273.054 423.085 275.087 423.14 276.714 423.465C280.63 424.248 282.979 428.163 285.328 429.729Z" fill="#CD9A8D"/>
<path d="M305.687 333.413L415.963 331.849L416.098 329.498H422.363L412.572 485.327H407.09L415.238 344.377L408.268 344.475L402.003 344.376L350.321 345.236L332.311 345.535L332.311 345.535L328.396 345.6L322.914 345.678L318.216 345.744L312.735 345.821L304.121 345.942L305.687 333.413Z" fill="#CD9A8D"/>
<path d="M266.535 432.862C269.667 432.079 276.245 430.826 277.497 432.079C279.064 433.645 281.413 435.994 283.762 436.777C285.641 437.404 288.721 437.56 290.026 437.56L290.809 429.729C289.765 430.252 287.207 430.982 285.328 429.729C282.979 428.163 280.63 424.248 276.714 423.465C275.087 423.14 273.054 423.085 271.233 423.244M266.535 432.862C266.535 430.774 266.535 426.284 266.535 425.031C266.535 424.116 268.674 423.468 271.233 423.244M266.535 432.862H254.788C253.535 426.597 255.565 423.84 256.736 423.244H271.233M416.098 331.847L305.687 333.413L304.121 345.942L312.735 345.821L318.216 345.744M416.098 331.847L415.315 344.376L408.268 344.475L402.003 344.376C373.258 344.854 357.141 345.122 328.396 345.6L322.914 345.678L318.216 345.744M416.098 331.847V329.498M416.098 329.498H422.363L412.572 485.327H407.09L416.098 329.498ZM318.216 345.744C346.962 345.266 391.824 344.52 391.824 344.52M391.824 344.707L397.305 344.63M332.311 345.535L337.792 345.458M344.84 345.313L350.321 345.236M380.55 344.707L386.032 344.63M368.021 344.901L373.503 344.824M357.369 345.079L362.85 345.001" stroke="#361D02" stroke-width="1.05112"/>
<path d="M305.691 331.842H300.992L286.114 479.84H292.378L305.691 331.842Z" fill="#CD9A8D" stroke="#361D02" stroke-width="1.05112"/>
<path d="M273.976 483.762L276.325 432.08L270.061 433.646C268.233 451.918 264.736 488.147 265.362 486.894C265.989 485.641 271.366 484.284 273.976 483.762Z" fill="#CD9A8D" stroke="#361D02" stroke-width="1.05112"/>
<path d="M279.457 435.214L276.325 432.865L277.108 482.981L287.288 479.849L279.457 435.214Z" fill="#CD9A8D" stroke="#361D02" stroke-width="1.05112"/>
<path d="M299.815 481.26L313.91 345.041L319.391 344.963L358.543 344.312L358.544 344.298L364.026 344.221L369.196 344.135L369.197 344.121L374.678 344.044L381.726 343.927L387.207 343.849L387.206 343.861L403.179 343.596L409.443 343.695L402.396 483.763H396.914L403.179 343.596L387.206 343.861L380.47 482.506L374.988 482.352L381.724 343.953L374.677 344.07L367.158 482.352L361.676 482.197L369.194 344.161L364.024 344.247L353.063 481.414L347.581 481.26L358.541 344.338L351.497 344.455L339.751 480.895H334.269L346.014 344.546L333.486 344.755L338.968 344.678L327.222 481.118H321.74L333.486 344.755L329.571 344.82L317.825 481.26H312.344L324.09 344.897L319.391 344.963L305.296 481.26H299.815Z" fill="#CD9A8D"/>
<path d="M385.168 482.506L392.999 343.927L398.48 343.849L390.65 482.661L385.168 482.506Z" fill="#CD9A8D"/>
<path d="M414.924 343.849L409.443 343.695M305.296 345.162L313.91 345.041M313.91 345.041L299.815 481.26H305.296L319.391 344.963M313.91 345.041L319.391 344.963M319.391 344.963L324.09 344.897M319.391 344.963C348.137 344.485 392.999 343.739 392.999 343.739M324.09 344.897L312.344 481.26H317.825L329.571 344.82M324.09 344.897L329.571 344.82M329.571 344.82C358.317 344.342 374.433 344.074 403.179 343.596M403.179 343.596L396.914 483.763H402.396L409.443 343.695M403.179 343.596L409.443 343.695M392.999 343.927L385.168 482.506L390.65 482.661L398.48 343.849L392.999 343.927ZM333.486 344.755L321.74 481.118H327.222L338.968 344.678L333.486 344.755ZM346.015 344.532L334.269 480.895H339.751L351.497 344.455L346.015 344.532ZM381.726 343.927L374.988 482.352L380.47 482.506L387.207 343.849L381.726 343.927ZM369.197 344.121L361.676 482.197L367.158 482.352L374.678 344.044L369.197 344.121ZM358.544 344.298L347.581 481.26L353.063 481.414L364.026 344.221L358.544 344.298Z" stroke="#361D02" stroke-width="1.05112"/>
<path d="M266.146 500.203V493.156C259.881 491.276 237.433 528.915 226.993 547.97H232.474C237.486 531.056 257.01 509.078 266.146 500.203Z" fill="#58412B" stroke="#361D02" stroke-width="1.05112"/>
<path d="M266.925 493.156V500.204L401.611 505.685V499.421L266.925 493.156Z" fill="#583A1C" stroke="#583A1C" stroke-width="1.05112"/>
<path d="M409.443 485.329L407.877 489.244L283.37 483.763L287.286 479.064L409.443 485.329Z" fill="#583A1C" stroke="#583A1C" stroke-width="1.05112"/>
<path d="M304.511 480.631H299.813C284.152 492.533 262.487 532.052 253.612 550.323H261.443C270.213 524.012 293.809 492.899 304.511 480.631Z" fill="#DFB3A0" stroke="#361D02" stroke-width="1.05112"/>
<path d="M291.199 479.846H286.501C270.839 491.748 249.175 531.267 240.3 549.538H248.131C256.901 523.227 280.497 492.114 291.199 479.846Z" fill="#DFB3A0" stroke="#361D02" stroke-width="1.05112"/>
<path d="M316.261 481.412H311.562C295.901 493.315 274.236 532.833 265.362 551.104H273.975C295.901 506.47 305.559 493.68 316.261 481.412Z" fill="#DFB3A0" stroke="#361D02" stroke-width="1.05112"/>
<path d="M327.222 481.412H322.524C306.862 493.315 290.679 534.399 281.804 552.671H289.635C298.405 526.36 316.52 493.68 327.222 481.412Z" fill="#DFB3A0" stroke="#361D02" stroke-width="1.05112"/>
<path d="M338.965 481.412H334.267C318.605 493.315 304.51 529.179 294.331 553.454H304.51C311.558 524.48 328.263 493.68 338.965 481.412Z" fill="#DFB3A0" stroke="#361D02" stroke-width="1.05112"/>
<path d="M352.282 481.412H347.583C331.922 493.315 320.176 524.48 309.997 555.02H318.61C325.658 526.047 341.58 493.68 352.282 481.412Z" fill="#DFB3A0" stroke="#361D02" stroke-width="1.05112"/>
<path d="M366.374 482.975H361.675C346.014 494.877 331.919 528.392 324.872 556.582H332.702C344.448 511.165 355.672 495.243 366.374 482.975Z" fill="#DFB3A0" stroke="#361D02" stroke-width="1.05112"/>
<path d="M389.869 482.975H385.171C365.594 504.117 361.679 529.958 354.631 558.148H364.028C372.642 511.948 379.167 495.243 389.869 482.975Z" fill="#DFB3A0" stroke="#361D02" stroke-width="1.05112"/>
<path d="M402.398 484.547H397.7C378.123 507.256 381.255 522.917 370.292 559.721H379.689C388.303 513.52 391.696 496.815 402.398 484.547Z" fill="#DFB3A0" stroke="#361D02" stroke-width="1.05112"/>
<path d="M380.471 482.975H375.772C358.545 493.937 346.799 529.175 339.751 557.365H349.148C360.894 507.249 365.592 495.504 380.471 482.975Z" fill="#DFB3A0" stroke="#361D02" stroke-width="1.05112"/>
<path d="M272.413 486.896L266.148 492.378L402.401 498.642L404.75 492.378L272.413 486.896Z" fill="#C59C8D" stroke="#5C462D" stroke-width="1.05112"/>
<path d="M229.34 546.406L223.076 558.152L390.651 572.247L393.783 561.284L229.34 546.406Z" fill="#F0CCB4" stroke="#361D02" stroke-width="1.05112"/>
<path d="M265.367 486.893C269.126 483.761 281.028 480.89 286.51 479.846L284.161 482.195C261.608 484.074 233.784 533.094 222.299 557.369H213.685C237.177 505.687 260.669 490.809 265.367 486.893Z" fill="#E5B5AB" stroke="#361D02" stroke-width="1.05112"/>
<path d="M212.13 566.551L212.878 557.575C212.888 557.459 212.99 557.373 213.105 557.383L222.1 558.132C222.209 558.141 222.292 558.232 222.292 558.342V567.318C222.292 567.44 222.188 567.537 222.066 567.528L212.324 566.778C212.207 566.769 212.121 566.667 212.13 566.551Z" fill="#34220D" stroke="#34220D" stroke-width="1.05112"/>
<path d="M287.286 478.281L284.153 482.197L411.792 487.678C411.792 486.634 413.202 485.172 412.575 484.546C411.949 483.919 328.266 479.847 287.286 478.281Z" fill="#CD9A8D" stroke="#361D02" stroke-width="1.05112"/>
<path d="M413.354 484.547C407.873 497.076 401.347 546.148 398.476 573.033H389.079C389.34 567.551 390.802 550.794 394.561 527.615C398.319 504.437 404.74 487.679 407.089 484.547H413.354Z" fill="#C7A197" stroke="#361D02" stroke-width="1.05112"/>
<path d="M389.097 581.416L389.847 571.657C389.856 571.547 389.947 571.463 390.057 571.463H399.049C399.165 571.463 399.259 571.557 399.259 571.673V581.432C399.259 581.549 399.165 581.643 399.049 581.643H389.306C389.184 581.643 389.087 581.538 389.097 581.416Z" fill="#34220D" stroke="#34220D" stroke-width="1.05112"/>
<path d="M416.498 435.213L422.762 434.43L419.63 585.56H411.016L416.498 435.213Z" fill="url(#paint1_linear_7490_113441)" stroke="#361D02" stroke-width="1.05112"/>
<path d="M411.016 423.467V433.647L425.111 432.864V423.467H411.016Z" fill="url(#paint2_linear_7490_113441)" stroke="#361D02" stroke-width="1.05112"/>
<path d="M425.105 432.864V423.467L429.02 433.647V439.911L425.105 432.864Z" fill="#3A3119" stroke="#361D02" stroke-width="1.05112"/>
<path d="M428.237 439.128H420.72L410.247 435.637C410.039 435.568 410.063 435.266 410.279 435.23L412.263 434.9L425.418 434.43L428.237 439.128Z" fill="#0F0600" stroke="#361D02" stroke-width="1.05112"/>
<path d="M393.211 360.083L391.087 391.533L384.895 379.486L375.761 368.134L392.803 359.809C392.999 359.713 393.226 359.866 393.211 360.083Z" fill="#E0D5D1" stroke="#25222C" stroke-width="1.71325"/>
<path d="M300.566 362.192L303.435 393.656L308.789 381.6L317.9 370.682L300.979 361.914C300.78 361.811 300.546 361.968 300.566 362.192Z" fill="#E0D5D1" stroke="#25222C" stroke-width="1.71325"/>
<path d="M404.191 429.337C404.191 444.145 406.307 446.264 399.96 456.837L403.125 481.755C409.471 475.408 414.768 446.264 416.884 429.337C417.409 425.135 416.884 414.539 429.576 414.533C438.038 414.528 442.269 420.874 444.384 425.11C446.496 429.338 448.615 435.682 444.384 439.918C441.041 443.264 434.288 434.396 427.461 437.802C423.23 439.913 421.336 444.596 423.23 448.379C425.346 452.606 438.038 461.072 448.615 452.61C459.192 444.149 459.192 437.802 459.192 433.571C459.192 422.78 452.846 410.298 444.384 403.952C435.923 397.605 422.793 399.935 414.768 403.95C410.538 406.067 404.191 413.317 404.191 429.337Z" fill="#E0D5D1" stroke="#25222C" stroke-width="1.71325"/>
<path d="M376.473 513.498C368.011 515.191 334.87 514.203 319.357 513.498C305.825 512.883 298.309 504.246 296.087 498.69C291.855 488.113 293.971 477.534 296.087 462.726C298.202 447.918 298.909 409.842 304.549 392.917C311.493 372.078 324.708 361.188 348.972 361.188C374.357 361.188 386.747 375.992 393.396 399.265C395.792 407.652 403.973 475.421 403.973 481.767C403.973 488.113 401.858 498.69 397.627 502.921C393.396 507.152 387.05 511.383 376.473 513.498Z" fill="#E0D5D1" stroke="#25222C" stroke-width="1.71325"/>
<path d="M357.62 395.9C357.62 396.588 357.62 397.276 357.62 397.963C357.62 399.213 357.929 400.069 358.687 401.093C359.91 402.744 362.017 403.413 364.005 403.413C365.594 403.413 366.825 402.829 367.708 401.481C368.205 400.721 368.507 399.887 368.942 399.114C369.038 398.944 369.205 398.653 369.21 398.452C369.219 398.099 369.427 396.814 369.103 396.652" stroke="#25222C" stroke-width="0.6853" stroke-linecap="round"/>
<path d="M327.482 396.865C327.59 397.544 327.698 398.223 327.806 398.902C328.003 400.136 328.443 400.934 329.353 401.826C330.82 403.263 333.005 403.592 334.969 403.279C336.539 403.029 337.662 402.26 338.322 400.789C338.693 399.961 338.86 399.089 339.168 398.258C339.236 398.074 339.355 397.761 339.329 397.562C339.283 397.212 339.285 395.91 338.94 395.801" stroke="#25222C" stroke-width="0.6853" stroke-linecap="round"/>
<path d="M371.911 464.144L381.271 424.153L392.332 422.451" stroke="#D822C6" stroke-width="0.571084"/>
<path d="M370.208 478.61L367.656 454.785H382.972L380.419 478.61H370.208Z" fill="url(#paint3_linear_7490_113441)"/>
<path d="M381.227 479.441V483.716H369.942L369.492 479.441M381.227 479.441H369.492M381.227 479.441L385.527 437.768H365.105L369.492 479.441" stroke="#25222C" stroke-width="1.14217"/>
<path d="M365.105 429.914L380.54 429.258L390.632 443.704C388.653 444.36 383.983 445.28 381.134 443.704C378.363 443.047 372.704 441.077 372.229 438.451C368.43 437.4 365.897 432.322 365.105 429.914Z" fill="#F26565"/>
<path d="M380.54 429.258L365.105 429.914C365.897 432.322 368.43 437.4 372.229 438.451M380.54 429.258L372.229 438.451M380.54 429.258L381.134 443.704M380.54 429.258L390.632 443.704C388.653 444.36 383.983 445.28 381.134 443.704M372.229 438.451C372.704 441.077 378.363 443.047 381.134 443.704" stroke="#C01F1F" stroke-width="0.571084"/>
<path d="M285.982 457.339C283.94 451.893 294.49 425.856 300.446 416.496L296.192 450.532C303.283 452.517 308.615 447.298 314.061 454.786C319.507 462.274 310.09 464.997 306.403 464.146C295.342 460.742 288.024 462.784 285.982 457.339Z" fill="#E0D5D1" stroke="#25222C" stroke-width="1.14217"/>
<path d="M309.712 453.662C309.563 453.712 309.482 453.874 309.532 454.024C309.581 454.173 309.743 454.254 309.893 454.204L309.712 453.662ZM309.893 454.204C311.046 453.82 312.297 454.262 313.258 454.915C313.734 455.237 314.12 455.6 314.366 455.907C314.49 456.062 314.57 456.193 314.612 456.291C314.661 456.407 314.628 456.408 314.652 456.359L315.163 456.614C315.259 456.423 315.199 456.211 315.137 456.067C315.068 455.905 314.954 455.728 314.812 455.55C314.526 455.193 314.096 454.793 313.579 454.442C312.555 453.747 311.112 453.196 309.712 453.662L309.893 454.204Z" fill="#25222C"/>
<path d="M311.498 457.902C311.34 457.902 311.212 458.03 311.212 458.188C311.212 458.345 311.34 458.473 311.498 458.473V457.902ZM311.498 458.473C313.143 458.473 314.209 458.952 314.824 459.47C315.133 459.73 315.326 459.998 315.425 460.219C315.533 460.457 315.51 460.586 315.497 460.612L316.008 460.868C316.136 460.611 316.078 460.279 315.946 459.985C315.806 459.674 315.556 459.34 315.192 459.033C314.459 458.416 313.256 457.902 311.498 457.902V458.473Z" fill="#25222C"/>
<path d="M308.102 462.162C307.945 462.162 307.817 462.29 307.817 462.447C307.817 462.605 307.945 462.733 308.102 462.733V462.162ZM308.102 462.733C309.788 462.733 310.629 463.017 311.013 463.312C311.197 463.454 311.269 463.593 311.293 463.704C311.318 463.818 311.296 463.929 311.25 464.021L311.761 464.277C311.857 464.085 311.907 463.842 311.852 463.584C311.796 463.323 311.637 463.072 311.361 462.859C310.823 462.445 309.82 462.162 308.102 462.162V462.733Z" fill="#25222C"/>
<path d="M407.654 456.49C409.697 451.044 402.504 423.305 396.548 413.945L399.996 447.13L395.742 450.534C388.651 452.519 381.618 444.748 376.172 452.235C370.726 459.723 381.844 464.148 385.532 463.297C396.593 459.893 405.612 461.935 407.654 456.49Z" fill="#E0D5D1" stroke="#25222C" stroke-width="1.14217"/>
<path d="M380.536 451.274C380.685 451.324 380.766 451.485 380.716 451.635C380.667 451.784 380.505 451.865 380.355 451.816L380.536 451.274ZM380.355 451.816C379.202 451.431 377.951 451.874 376.99 452.526C376.514 452.849 376.128 453.211 375.882 453.518C375.759 453.673 375.678 453.804 375.636 453.902C375.587 454.019 375.62 454.019 375.596 453.97L375.085 454.225C374.989 454.035 375.05 453.822 375.111 453.679C375.18 453.516 375.294 453.339 375.436 453.162C375.722 452.804 376.152 452.404 376.669 452.053C377.693 451.358 379.137 450.807 380.536 451.274L380.355 451.816Z" fill="#25222C"/>
<path d="M379.62 455.513C379.778 455.513 379.905 455.641 379.905 455.799C379.905 455.957 379.778 456.084 379.62 456.084V455.513ZM379.62 456.084C377.975 456.084 376.908 456.563 376.294 457.081C375.985 457.341 375.792 457.609 375.692 457.831C375.585 458.069 375.608 458.197 375.621 458.224L375.11 458.479C374.981 458.222 375.039 457.89 375.172 457.596C375.311 457.286 375.561 456.951 375.926 456.644C376.659 456.027 377.862 455.513 379.62 455.513V456.084Z" fill="#25222C"/>
<path d="M383.016 459.611C383.173 459.611 383.301 459.739 383.301 459.896C383.301 460.054 383.173 460.182 383.016 460.182V459.611ZM383.016 460.182C381.34 460.182 380.257 460.462 379.639 460.787C379.329 460.951 379.152 461.116 379.068 461.247C378.985 461.376 379.003 461.444 379.017 461.471L378.506 461.726C378.377 461.469 378.431 461.183 378.587 460.939C378.742 460.697 379.009 460.473 379.373 460.282C380.102 459.898 381.287 459.611 383.016 459.611V460.182Z" fill="#25222C"/>
<path d="M332.009 413.173C329.565 414.395 327.936 413.682 327.427 413.173C324.881 411.901 318.721 407.37 314.444 399.428C309.098 389.501 315.208 384.154 319.79 383.391C324.372 382.627 327.427 387.208 329.718 387.208C332.009 387.208 342.7 381.863 344.991 391.79C347.282 401.718 335.063 411.646 332.009 413.173Z" fill="#54333F" fill-opacity="0.4" stroke="#DC1E41" stroke-width="2.05018"/>
<path d="M365.888 414.025C368.332 415.246 369.961 414.534 370.47 414.025C373.015 412.752 379.176 408.222 383.452 400.28C388.798 390.352 382.689 385.006 378.107 384.242C373.525 383.478 370.47 388.06 368.179 388.06C365.888 388.06 355.197 382.714 352.906 392.642C350.615 402.57 362.833 412.497 365.888 414.025Z" fill="#54333F" fill-opacity="0.4" stroke="#DC1E41" stroke-width="2.05018"/>
<path d="M351.864 393.316H345.754V396.371H351.864V393.316Z" fill="#DC1E41" stroke="#DC1E41" stroke-width="0.512545"/>
<path d="M318.32 368.84L312.364 394.367H311.513L316.618 370.542L314.065 367.139L318.32 368.84Z" fill="#DC1E41" stroke="#DC1E41" stroke-width="0.571084"/>
<path d="M373.631 367.985L385.544 390.959V390.108L375.333 369.687L377.886 366.283L373.631 367.985Z" fill="#DC1E41" stroke="#DC1E41" stroke-width="0.571084"/>
<path d="M350.521 430.538V423.377" stroke="#25222C" stroke-width="0.6853"/>
<path d="M341.567 427.859C341.567 434.305 347.535 432.335 350.519 430.545C353.205 432.335 358.576 434.305 358.576 427.859" stroke="#25222C" stroke-width="0.6853"/>
<path d="M347.921 422.154C348.674 422.589 349.42 423.227 350.313 423.227C350.433 423.467 350.8 423.167 350.911 423.056C351.194 422.772 351.526 422.526 351.808 422.244C352.132 421.92 352.378 421.504 352.705 421.176C353.05 420.831 353.51 420.491 353.906 420.194C355.437 419.045 355.518 414.939 353.051 414.939C351.77 414.939 350.685 415.246 349.8 416.183C349.719 416.269 349.558 416.446 349.544 416.563C349.531 416.663 349.491 416.946 349.454 416.852C349.248 416.337 348.705 415.787 348.243 415.49C347.679 415.128 346.59 415.484 346.112 415.813C345.01 416.57 344.049 418.099 344.84 419.335C345.034 419.638 345.22 419.936 345.443 420.218C346.059 420.997 347.073 421.665 347.921 422.154Z" stroke="#25222C" stroke-width="1.41979" stroke-linecap="round"/>
<path d="M348.4 417.4C348.149 417.4 347.898 417.4 347.647 417.4C347.419 417.4 347.367 417.668 347.287 417.84C347.242 417.935 347.264 418.062 347.264 418.165C347.264 418.484 347.271 418.815 347.367 419.121C347.466 419.439 347.598 419.741 347.741 420.041C347.769 420.099 347.809 420.295 347.895 420.305C348.181 420.337 347.621 419.641 347.577 419.589C347.378 419.352 346.998 419.294 346.737 419.121C346.614 419.039 346.609 418.782 346.487 418.7C346.027 418.393 346.506 417.701 346.737 417.419C346.858 417.271 346.908 417.028 347.063 416.904C347.111 416.865 347.404 417.803 347.432 417.896C347.716 418.828 348.301 419.821 349.121 420.389C349.373 420.563 349.661 420.821 349.949 420.927C350.256 421.041 349.7 420.702 349.631 420.651C349.368 420.459 349.074 420.257 348.84 420.029C348.788 419.978 348.67 419.804 348.592 419.804C348.529 419.804 348.659 420.128 348.672 420.155C348.788 420.4 348.902 420.645 349.037 420.88C349.131 421.046 349.185 421.253 349.322 421.39C349.453 421.521 349.628 421.768 349.79 421.853C349.871 421.896 349.808 421.483 349.806 421.47C349.742 420.985 349.606 420.512 349.497 420.036C349.397 419.598 349.368 419.13 349.242 418.7C349.146 418.373 349.635 419.085 349.682 419.164C349.718 419.223 349.96 419.753 350.061 419.753C350.205 419.753 350.127 418.495 350.127 418.368C350.127 418.157 350.088 417.908 350.159 417.704C350.205 417.572 350.221 417.976 350.258 418.111C350.39 418.603 350.543 419.089 350.716 419.566C350.834 419.891 350.839 419.044 350.842 419.004C350.91 418.257 351.053 417.476 351.053 416.726C351.053 416.58 351.033 416.449 351.013 416.305C350.977 416.053 350.899 416.482 350.884 416.556C350.677 417.593 350.926 418.714 350.926 419.767C350.926 419.822 350.893 420.048 350.969 420.052C351.079 420.059 351.137 419.969 351.179 419.884" stroke="#25222C" stroke-width="1.41979" stroke-linecap="round"/>
<path d="M352.399 416.436C352.598 416.436 353.041 416.34 353.217 416.44C353.279 416.475 353.358 416.769 353.365 416.838C353.386 417.044 353.367 417.26 353.367 417.467C353.367 417.915 353.045 418.48 352.759 418.812C352.591 419.007 352.429 419.21 352.254 419.399C352.174 419.486 352.027 419.593 351.978 419.703C351.885 419.912 351.811 420.116 351.697 420.318C351.62 420.456 351.469 420.715 351.384 420.852C351.374 420.867 351.244 421.102 351.285 420.936C351.324 420.781 351.379 420.629 351.43 420.477C351.49 420.303 351.561 420.146 351.674 420.005C351.765 419.891 351.774 419.583 351.809 419.444C351.909 419.05 351.978 418.701 351.978 418.288C351.978 418.156 352.051 417.672 351.936 417.615" stroke="#25222C" stroke-width="1.41979" stroke-linecap="round"/>
<path d="M377.18 540.277C375.401 539.684 371.843 507.067 362.947 510.032L400.308 489.275C408.611 498.171 393.192 531.974 396.157 529.602C399.122 527.23 413.948 535.532 417.506 538.497C421.064 541.462 418.692 549.172 415.727 551.544C412.762 553.916 406.239 548.579 405.053 546.207C403.866 543.835 378.959 540.87 377.18 540.277Z" fill="#E0D5D1" stroke="#E0D5D1" stroke-width="1.14217"/>
<path d="M362.947 510.032C371.843 507.067 375.401 539.684 377.18 540.277C378.959 540.87 403.866 543.835 405.053 546.207C406.239 548.579 412.762 553.916 415.727 551.544C418.692 549.172 421.064 541.462 417.506 538.497C413.948 535.532 399.122 527.23 396.157 529.602C393.192 531.974 408.611 498.171 400.308 489.275" stroke="#25222C" stroke-width="1.14217"/>
<path d="M413.149 547.135C414.284 548.269 415.702 550.538 415.702 551.389" stroke="#25222C" stroke-width="0.571084"/>
<path d="M415.7 545.434C416.834 546.568 417.402 547.986 418.253 548.837" stroke="#25222C" stroke-width="0.571084"/>
<path d="M417.405 543.734C418.54 544.869 418.256 545.436 419.107 546.287" stroke="#25222C" stroke-width="0.571084"/>
<path d="M291.104 503.615C284.936 487.959 293.674 477.323 298.813 473.963L311.267 508.952C310.318 508.478 310.872 512.312 311.267 514.289C311.86 516.661 311.623 521.643 305.93 522.592C298.813 523.778 274.499 515.475 271.534 513.696C268.569 511.917 261.452 511.917 257.894 509.545C254.335 507.173 256.114 503.022 256.707 501.243C257.3 499.463 265.603 497.684 272.719 499.463C279.836 501.243 288.731 506.58 291.104 506.58C293.002 506.58 291.895 504.603 291.104 503.615Z" fill="#E0D5D1" stroke="#E0D5D1" stroke-width="1.14217"/>
<path d="M298.813 473.963C293.674 477.323 284.936 487.959 291.104 503.615C291.895 504.603 293.002 506.58 291.104 506.58C288.731 506.58 279.836 501.243 272.719 499.463C265.603 497.684 257.3 499.463 256.707 501.242C256.114 503.022 254.335 507.173 257.894 509.545C261.452 511.917 268.569 511.917 271.534 513.696C274.499 515.475 298.813 523.778 305.93 522.592C311.623 521.643 311.86 516.661 311.267 514.289C310.872 512.312 310.821 509.598 313.597 510.551" stroke="#25222C" stroke-width="1.14217"/>
<path d="M260.967 507.061C260.47 507.62 261.502 509.032 263.21 509.82C263.473 510.083 264.077 510.451 264.392 509.82C264.708 509.189 264.695 508.957 264.724 508.471C264.753 507.985 265.575 508.471 265.575 507.061C265.575 506.667 262.304 505.56 260.967 507.061Z" fill="#25222C"/>
<path d="M262.653 504.924C262.337 504.293 262.41 504.14 262.541 503.746C262.673 503.351 264.492 504.267 264.623 504.529C264.755 504.792 264.939 505.397 264.623 505.712C264.229 506.106 263.047 505.712 262.653 504.924Z" fill="#25222C"/>
<path d="M258.716 504.58C258.401 503.95 258.584 503.86 258.715 503.466C258.847 503.071 260.293 504.132 260.687 504.527C261.081 504.921 261.572 505.447 261.257 505.763C260.863 506.157 259.11 505.368 258.716 504.58Z" fill="#25222C"/>
<path d="M257.867 507.089C257.587 506.654 257.817 506.601 257.868 506.298C257.918 505.995 258.905 506.611 259.215 506.865C259.525 507.119 259.916 507.461 259.731 507.723C259.5 508.051 258.217 507.634 257.867 507.089Z" fill="#25222C"/>
<path d="M475.188 601.791L480.958 623.939H539.481L550.197 601.791H539.481L551.021 580.566H545.251L555.966 550.113H550.197L555.966 527.042H551.021L555.966 495.665H551.021L555.966 464.289H551.021L555.966 435.681H551.021L555.966 415.379H551.021V386.771H545.251V360.932H539.481V335.093L532.887 340.63V318.482H527.941L524.644 294.488L518.05 299.102V272.34L512.28 276.954L508.983 252.961L502.389 258.498V239.118H495.794V219.739L492.497 213.279V204.051L480.958 202.205L475.188 194.822L469.418 213.279L461.999 209.588L475.188 239.118H471.066L480.958 258.498H475.188L489.2 280.646L480.958 276.954L495.794 299.102H489.2L502.389 315.713H495.794L508.983 340.63H502.389L508.983 360.932H502.389L508.983 382.157H502.389L512.28 406.151H505.686L512.28 435.681L505.686 432.913L508.983 464.289L502.389 460.598L505.686 490.128L502.389 486.437V518.736L495.794 513.199V546.421L489.2 541.807V571.338H480.958V601.791H475.188Z" fill="#8D6358" stroke="#2C1B17" stroke-width="1.05112"/>
<path d="M246.422 114.944C356.908 56.8719 462.273 147.611 501.145 200.24C548.762 90.9985 640.388 81.5244 681.151 116.208C663.681 120.122 643.437 139.081 635.499 148.071L610.907 143.088L633.896 161.196L595.686 160.128L628.671 178.918L572.739 172.626L597.999 186.871L532.229 223.477C634.882 169.172 714.687 244.073 742.25 289.452C731.558 282.674 701.246 277.364 687.427 275.556L665.668 253.278L686.439 286.595L647.88 255.965L657.062 282.467L619.118 249.751L633.327 282.267L594.768 251.637L611.194 268.944L556.184 259.524C678.223 319.072 677.955 443.48 662.566 498.241L629.738 425.11L616.697 484.718L610.492 405.839L595.673 463.79L589.402 392.823L579.916 455.745C577.522 426.712 572.783 370.021 572.976 375.516C573.168 381.012 566.17 403.725 562.647 414.395C567.763 373.98 507.724 270.165 485.217 265.796C467.212 262.3 423.546 314.843 403.963 341.551C401.91 330.068 405.574 315.588 407.664 309.783L372.128 345.762L380.426 317.616L344.945 364.942L353.069 322.014L329.308 360.332L322.09 331.01L283.294 381.892L292.153 340.313L265.144 374.275C256.067 374.318 223.443 397.861 208.266 409.627C275.572 202.855 412.621 199.447 472.733 223.59C458.854 212.247 422.837 209.635 406.563 209.747L386.208 198.081L398.422 183.553L347.022 188.794L386.474 166.432L332.066 174.187L353.301 152.121L306.685 156.507L328.162 141.31L298.906 140.616C297.345 127.464 263.266 118.022 246.422 114.944Z" fill="#BDE692"/>
<path d="M532.229 223.477C634.882 169.172 714.687 244.073 742.25 289.452C731.558 282.674 701.246 277.364 687.427 275.556L665.668 253.278L686.438 286.595L647.88 255.965L657.063 282.467L619.118 249.751L633.327 282.267L594.768 251.637L611.194 268.944L556.184 259.524C678.223 319.072 677.955 443.48 662.566 498.241L629.738 425.11L616.697 484.718L610.492 405.839L595.673 463.79L589.402 392.823L579.916 455.745C577.522 426.712 572.783 370.021 572.976 375.516C573.168 381.012 566.17 403.725 562.647 414.395C567.763 373.98 507.724 270.165 485.217 265.796C467.212 262.3 423.546 314.843 403.963 341.551C401.91 330.068 405.574 315.588 407.664 309.783L372.128 345.762L380.426 317.616L344.945 364.942L353.069 322.014L329.308 360.332L322.09 331.01L283.294 381.892L292.153 340.313L265.144 374.275C256.067 374.318 223.443 397.861 208.266 409.627C275.572 202.855 412.621 199.447 472.733 223.59C458.854 212.247 422.837 209.635 406.563 209.747L386.208 198.081L398.422 183.553L347.022 188.794L386.474 166.432L332.066 174.187L353.301 152.121L306.685 156.507L328.162 141.31L298.906 140.616C297.345 127.464 263.266 118.022 246.422 114.944C356.908 56.8719 462.273 147.611 501.145 200.24C548.762 90.9985 640.388 81.5244 681.151 116.208C663.681 120.122 643.437 139.081 635.499 148.071L610.907 143.088L633.896 161.196L595.686 160.128L628.671 178.918L572.739 172.626L597.999 186.871L532.229 223.477ZM532.229 223.477C529.766 224.78 527.291 226.157 524.802 227.611L532.229 223.477Z" stroke="#90C85E" stroke-width="1.05112"/>
<path d="M649.012 106.07C587.587 96.1189 530.803 167.531 510.09 204.482L518.429 206.94C553.803 136.921 612.243 100.113 649.012 106.07Z" fill="#90C85E" stroke="#90C85E" stroke-width="1.05112"/>
<path d="M242.546 358.682C301.149 251.435 423.258 232.073 476.987 235.798L469.964 251.456C372.379 238.246 277.626 294.485 242.546 358.682Z" fill="#90C85E" stroke="#90C85E" stroke-width="1.05112"/>
<path d="M285.962 111.492C361.791 83.2732 455.543 164.637 492.94 208.846L482.97 214.154C417.075 129.434 331.353 94.6005 285.962 111.492Z" fill="#90C85E" stroke="#90C85E" stroke-width="1.05112"/>
<path d="M715.96 270.224C672.345 213.415 587.237 219.792 550.135 230.081L555.441 238.603C622.645 215.977 689.852 236.219 715.96 270.224Z" fill="#90C85E" stroke="#90C85E" stroke-width="1.05112"/>
<path d="M658.233 463.449C663.654 351.041 579.094 277.653 536.135 255.01L534.169 270.691C615.217 306.739 661.479 396.162 658.233 463.449Z" fill="#90C85E" stroke="#90C85E" stroke-width="1.05112"/>
<path d="M358.99 362.209C360.875 276.152 450.059 231.929 494.415 220.574C444.864 161.675 469.563 100.327 503.814 83.1094C500.365 95.3523 504.995 113.275 507.741 120.706L496.611 135.221L515.059 125.135L501.757 149.419L523.926 133.084L501.627 167.405L518.517 154.858L518.613 206.613C520.155 126.567 591.397 94.671 627.67 88.7079C620.073 93.8249 606.852 111.932 601.191 120.347L580.657 128.562L607.465 123.841L576.369 140.692L595.261 141.654L563.122 157.57L587.276 156.859L556.179 173.709L571.973 167.634L548.11 200.552C624.166 137.533 698.478 169.927 726.128 194.002L671.513 196.161L702.839 219.982L653.61 203.541L683.356 228.075L638.836 213.726L673.323 236.12C655.167 230.139 619.692 218.502 623.043 219.801C626.393 221.101 637.657 231.482 642.871 236.51C620.396 222.753 538.413 234.457 528.342 247.791C520.285 258.459 537.236 300.135 546.719 319.639C539.172 317.985 531.726 311.879 528.947 309.032L538.688 341.192L524.605 328.568L541.15 363.631L518.169 347.292L533.211 372.488L513.283 369.534L530.855 407.648L508.925 391.185L520.285 417.341C517.303 423.187 520.571 450.254 522.578 463.057C421.224 366.242 464.604 277.269 498.964 244.885C487.581 250.867 474.083 273.341 468.757 283.831L455.034 293.893L450.393 282.279L436.494 316.674L436.195 285.525L422.802 322.504L416.643 303.14L403.817 334.239L401.846 316.499L391.735 335.123C383.353 332.72 366.412 352.179 358.99 362.209Z" fill="#BDE692"/>
<path d="M518.613 206.613C520.155 126.567 591.397 94.671 627.67 88.7079C620.073 93.8249 606.852 111.932 601.191 120.347L580.657 128.562L607.465 123.841L576.369 140.692L595.261 141.654L563.122 157.57L587.276 156.859L556.179 173.709L571.973 167.634L548.11 200.552C624.166 137.533 698.478 169.927 726.128 194.002L671.513 196.161L702.839 219.982L653.61 203.541L683.356 228.075L638.836 213.726L673.323 236.12C655.167 230.139 619.692 218.502 623.043 219.801C626.393 221.101 637.657 231.482 642.871 236.51C620.396 222.753 538.413 234.457 528.342 247.791C520.285 258.459 537.236 300.135 546.719 319.639C539.172 317.985 531.726 311.879 528.947 309.032L538.688 341.192L524.605 328.568L541.15 363.631L518.169 347.292L533.211 372.488L513.283 369.534L530.855 407.648L508.925 391.185L520.285 417.341C517.303 423.187 520.571 450.254 522.578 463.057C421.224 366.242 464.604 277.269 498.964 244.885C487.581 250.867 474.083 273.341 468.757 283.831L455.034 293.893L450.393 282.279L436.494 316.675L436.195 285.525L422.802 322.504L416.643 303.14L403.817 334.239L401.846 316.499L391.735 335.123C383.353 332.72 366.412 352.179 358.99 362.209C360.875 276.152 450.059 231.929 494.415 220.574C444.864 161.675 469.563 100.327 503.814 83.1094C500.365 95.3523 504.995 113.275 507.741 120.706L496.611 135.221L515.058 125.135L501.757 149.419L523.926 133.084L501.627 167.405L518.517 154.858L518.613 206.613ZM518.613 206.613C518.576 208.534 518.579 210.482 518.624 212.458L518.613 206.613Z" stroke="#90C85E" stroke-width="1.05112"/>
<path d="M487.105 101.135C460.797 138.039 484.687 193.033 499.92 215.917L504.155 211.193C474.002 170.322 471.357 123.225 487.105 101.135Z" fill="#90C85E" stroke="#90C85E" stroke-width="1.05112"/>
<path d="M503.477 427.825C458.759 362.38 487.647 278.879 507.681 245.309L514.717 253.878C474.478 313.181 476.709 388.65 503.477 427.825Z" fill="#90C85E" stroke="#90C85E" stroke-width="1.05112"/>
<path d="M370.031 335.902C378.285 279.854 458.013 240.667 496.845 228.08L496.715 235.863C424.212 256.275 374.972 302.353 370.031 335.902Z" fill="#90C85E" stroke="#90C85E" stroke-width="1.05112"/>
<path d="M607.463 100.623C559.035 113.943 534.643 170.299 528.501 196.812L535.356 195.608C544.096 146.552 578.474 108.596 607.463 100.623Z" fill="#90C85E" stroke="#90C85E" stroke-width="1.05112"/>
<path d="M703.886 187.773C638.457 155.175 566.545 190.52 538.767 212.267L547.493 217.593C595.911 174.835 664.721 168.26 703.886 187.773Z" fill="#90C85E" stroke="#90C85E" stroke-width="1.05112"/>
<path d="M515.081 674.779L517.423 674.598L511.366 636.977L508.348 638.571L515.081 674.779Z" fill="#361D02" stroke="#361D02" stroke-width="0.525559"/>
<path d="M517.422 674.594L510.06 630.273L530.93 625.935L537.092 664.908L517.422 674.594Z" fill="#6C4A41" stroke="#361D02" stroke-width="0.525559"/>
<path d="M562.056 652.851L564.398 652.67L558.341 615.049L555.323 616.643L562.056 652.851Z" fill="#361D02" stroke="#361D02" stroke-width="0.525559"/>
<path d="M564.397 652.667L557.035 608.345L577.905 604.007L584.067 642.98L564.397 652.667Z" fill="#6C4A41" stroke="#361D02" stroke-width="0.525559"/>
<path d="M445.467 649.681L447.033 650.557L454.08 614.6L452.514 613.723L445.467 649.681Z" fill="#361D02" stroke="#361D02" stroke-width="0.525559"/>
<path d="M472.873 606.705L454.863 611.967L447.815 650.556L462.694 643.54L472.873 606.705Z" fill="#201201" stroke="#361D02" stroke-width="0.525559"/>
<path d="M479.921 635.593L481.487 636.469L488.535 600.512L486.968 599.635L479.921 635.593Z" fill="#361D02" stroke="#361D02" stroke-width="0.525559"/>
<path d="M507.328 592.617L489.317 597.879L482.27 636.469L497.148 629.452L507.328 592.617Z" fill="#201201" stroke="#361D02" stroke-width="0.525559"/>
<path d="M607.069 610.85L595.215 622.152L595.549 625.779L607.403 614.478L607.069 610.85Z" fill="#A46A51" stroke="#361D02" stroke-width="0.525559"/>
<path d="M476.915 575.702L463.313 582.772L595.209 622.156L607.063 610.854L476.915 575.702Z" fill="#DBB3A2" stroke="#361D02" stroke-width="0.525559"/>
<path d="M595.21 622.155L463.314 582.771L463.582 585.673L595.544 625.782L595.21 622.155Z" fill="#A46A51" stroke="#361D02" stroke-width="0.525559"/>
<path d="M594.486 621.97L581.745 632.908L581.957 636.544L594.698 625.606L594.486 621.97Z" fill="#A46A51" stroke="#361D02" stroke-width="0.525559"/>
<path d="M460.531 582.873L446.132 589.527L581.743 632.909L594.484 621.971L460.531 582.873Z" fill="#DBB3A2" stroke="#361D02" stroke-width="0.525559"/>
<path d="M581.743 632.909L446.132 589.527L446.302 592.436L581.955 636.545L581.743 632.909Z" fill="#A46A51" stroke="#361D02" stroke-width="0.525559"/>
<path d="M580.472 633.519L566.995 644.089L567.097 647.729L580.574 637.16L580.472 633.519Z" fill="#A46A51" stroke="#361D02" stroke-width="0.525559"/>
<path d="M443.712 590.609L428.664 596.849L566.995 644.086L580.472 633.517L443.712 590.609Z" fill="#DBB3A2" stroke="#361D02" stroke-width="0.525559"/>
<path d="M566.994 644.083L428.663 596.846L428.744 599.758L567.096 647.724L566.994 644.083Z" fill="#A46A51" stroke="#361D02" stroke-width="0.525559"/>
<path d="M566.163 644.549L552.134 654.747V658.389L566.163 648.191V644.549Z" fill="#A46A51" stroke="#361D02" stroke-width="0.525559"/>
<path d="M428.079 597.93L412.573 603.757L552.129 654.747L566.158 644.549L428.079 597.93Z" fill="#DBB3A2" stroke="#361D02" stroke-width="0.525559"/>
<path d="M552.129 654.742L412.573 603.752V606.666L552.129 658.384V654.742Z" fill="#A46A51" stroke="#361D02" stroke-width="0.525559"/>
<path d="M554.991 600.484C555.792 599.518 555.353 598.253 554.182 598.151L482.742 591.901C482.23 591.856 481.685 592.056 481.282 592.437L456.814 615.556C455.814 616.501 456.186 617.954 457.458 618.066L533.864 624.75C534.456 624.802 535.084 624.527 535.489 624.038L554.991 600.484Z" fill="#A2A9B8" stroke="#444749" stroke-width="1.05112"/>
<path d="M554.991 598.922C555.792 597.955 555.353 596.691 554.182 596.588L482.742 590.338C482.23 590.293 481.685 590.493 481.282 590.874L456.814 613.993C455.814 614.939 456.186 616.392 457.458 616.503L533.864 623.188C534.456 623.24 535.084 622.964 535.489 622.475L554.991 598.922Z" fill="#A2A9B8" stroke="#444749" stroke-width="1.05112"/>
<path d="M498.944 621.172C496.855 620.389 493.462 619.606 490.33 620.389L498.944 621.172Z" stroke="#A2A9B8" stroke-width="0.525559"/>
<g clip-path="url(#clip2_7490_113441)">
<path d="M508.386 607.34C508.304 606.761 508.33 606.131 508.465 605.498L508.643 604.648C508.761 604.095 508.451 603.67 507.854 603.503C508.491 602.605 509.856 602.281 510.401 602.145C510.674 602.077 510.912 601.886 510.931 601.706C510.952 601.521 510.751 601.433 510.483 601.487C510.067 601.574 509.454 601.745 508.827 602.06C509.127 601.587 509.347 600.852 507.849 600.751C507.849 600.751 506.346 601.967 508.25 602.417C508.25 602.417 507.647 602.82 507.23 603.429C506.466 603.437 505.587 603.749 504.928 604.261L503.938 605.027C503.19 605.607 502.385 606.142 501.526 606.629C500.844 607.019 500.217 607.625 499.826 608.467C499.15 609.898 499.547 611.204 500.834 611.337C501.223 611.377 501.588 611.304 501.948 611.14C502.035 611.345 502.253 611.483 502.636 611.522C503.929 611.655 506.024 610.605 507.37 609.248C508.167 608.448 508.448 607.806 508.386 607.34Z" fill="white"/>
<path d="M506.39 608.469C507.419 607.047 508.284 607.136 508.977 607.207L507.176 609.697C506.744 609.78 505.541 609.643 506.39 608.469Z" fill="#A2A9B8"/>
</g>
</g>
</g>
<defs>
<filter id="filter0_df_7490_113441" x="-719.156" y="-1030.15" width="1845.41" height="1586.33" filterUnits="userSpaceOnUse" color-interpolation-filters="sRGB">
<feFlood flood-opacity="0" result="BackgroundImageFix"/>
<feColorMatrix in="SourceAlpha" type="matrix" values="0 0 0 0 0 0 0 0 0 0 0 0 0 0 0 0 0 0 127 0" result="hardAlpha"/>
<feOffset dy="18.9731"/>
<feGaussianBlur stdDeviation="2.37164"/>
<feComposite in2="hardAlpha" operator="out"/>
<feColorMatrix type="matrix" values="0 0 0 0 1 0 0 0 0 1 0 0 0 0 1 0 0 0 0.4 0"/>
<feBlend mode="normal" in2="BackgroundImageFix" result="effect1_dropShadow_7490_113441"/>
<feBlend mode="normal" in="SourceGraphic" in2="effect1_dropShadow_7490_113441" result="shape"/>
<feGaussianBlur stdDeviation="3.55747" result="effect2_foregroundBlur_7490_113441"/>
</filter>
<filter id="filter1_f_7490_113441" x="-707.843" y="-1096.78" width="1879.33" height="1538.17" filterUnits="userSpaceOnUse" color-interpolation-filters="sRGB">
<feFlood flood-opacity="0" result="BackgroundImageFix"/>
<feBlend mode="normal" in="SourceGraphic" in2="BackgroundImageFix" result="shape"/>
<feGaussianBlur stdDeviation="3.55747" result="effect1_foregroundBlur_7490_113441"/>
</filter>
<linearGradient id="paint0_linear_7490_113441" x1="277.5" y1="479.846" x2="277.5" y2="574.596" gradientUnits="userSpaceOnUse">
<stop stop-color="#99746A"/>
<stop offset="0.235" stop-color="#41312D"/>
<stop offset="1" stop-color="#A77E74"/>
</linearGradient>
<linearGradient id="paint1_linear_7490_113441" x1="416.889" y1="434.43" x2="416.889" y2="585.56" gradientUnits="userSpaceOnUse">
<stop stop-color="#99746A"/>
<stop offset="0.235" stop-color="#41312D"/>
<stop offset="1" stop-color="#A77E74"/>
</linearGradient>
<linearGradient id="paint2_linear_7490_113441" x1="418.064" y1="423.467" x2="418.064" y2="433.647" gradientUnits="userSpaceOnUse">
<stop stop-color="#8E6459"/>
<stop offset="0.755" stop-color="#563B32"/>
</linearGradient>
<linearGradient id="paint3_linear_7490_113441" x1="375.314" y1="454.785" x2="375.314" y2="478.61" gradientUnits="userSpaceOnUse">
<stop stop-color="#FFE920"/>
<stop offset="1" stop-color="#FF460C"/>
</linearGradient>
<clipPath id="clip0_7490_113441">
<rect width="949.5" height="760" fill="white" transform="translate(0.5)"/>
</clipPath>
<clipPath id="clip1_7490_113441">
<rect width="533.984" height="593.783" fill="white" transform="translate(208.258 83.1094)"/>
</clipPath>
<clipPath id="clip2_7490_113441">
<rect width="14.0951" height="14.0951" fill="white" transform="matrix(0.994745 0.102379 -0.586036 0.810285 502.664 599.734)"/>
</clipPath>
</defs>
</svg>
