<svg width="158" height="138" viewBox="0 0 158 138" fill="none" xmlns="http://www.w3.org/2000/svg">
<g clipPath="url(#clip0_1163_32392)">
<path d="M6.87808 112.059C0.970309 106.151 -0.211245 91.971 6.87808 73.0661C13.9674 54.1612 30.8062 45.7626 52.9591 39.9841C80.1348 32.8954 111.057 45.7191 114.4 47.0734C120.897 49.7061 130.942 59.3616 134.486 63.6152L138.786 67.9151C140.71 69.8241 142.587 71.6872 142.757 71.8864C149.023 79.2059 159.334 88.2862 155.754 102.606C151.028 121.511 121.489 134.508 82.4979 136.872C43.5066 139.235 12.7859 117.967 6.87808 112.059Z" fill="#5F5858"/>
<path d="M134.486 63.6152C134.8 63.9919 142.406 71.4756 142.757 71.8864M134.486 63.6152L142.757 71.8864M134.486 63.6152C130.942 59.3616 120.897 49.7061 114.4 47.0734C111.057 45.7191 80.1348 32.8954 52.9591 39.9841C30.8062 45.7626 13.9674 54.1612 6.87808 73.0661C-0.211245 91.971 0.970309 106.151 6.87808 112.059C12.7859 117.967 43.5066 139.235 82.4979 136.872C121.489 134.508 151.028 121.511 155.754 102.606C159.334 88.2862 149.023 79.2059 142.757 71.8864" stroke="#25222C" strokeWidth="2.36311"/>
<path d="M33.0645 100.787C35.9087 100.787 40.0446 100.014 42.6092 101.221C44.0319 101.89 45.9153 102.17 47.1406 103.173C48.1949 104.036 49.5476 105.358 50.6596 105.993C54.2894 108.067 55.191 111.64 55.191 115.538" stroke="#25222C" strokeWidth="1.18155" strokeLinecap="round"/>
<path d="M116.83 88.589C119.328 86.0907 122.209 85.9859 125.676 85.9859C128.407 85.9859 130.946 85.6685 133.317 86.8536" stroke="#25222C" strokeWidth="1.18155" strokeLinecap="round"/>
<path d="M103.84 21.7354L102.66 39.209L99.2016 32.4801L93.4271 25.2819L103.521 21.4982C103.682 21.4379 103.851 21.5639 103.84 21.7354Z" fill="#D9D9D9" stroke="#25222C" strokeWidth="2.36311"/>
<path d="M52.098 22.9008L53.209 40.3789L56.694 33.6637L62.4968 26.4883L52.4177 22.6648C52.257 22.6039 52.0871 22.7293 52.098 22.9008Z" fill="#D9D9D9" stroke="#25222C" strokeWidth="2.36311"/>
<path d="M94.4959 107.334C89.7697 108.279 71.2587 107.728 62.5939 107.334C55.0359 106.99 50.8382 102.166 49.5968 99.0628C47.2332 93.155 48.4153 87.2462 49.5968 78.9753C50.7784 70.7044 51.1729 49.4375 54.323 39.984C58.2016 28.3447 65.5832 22.2617 79.1356 22.2617C93.3142 22.2617 100.235 30.5307 103.948 43.5297C105.287 48.214 109.856 86.0657 109.856 89.6104C109.856 93.155 108.675 99.0628 106.311 101.426C103.948 103.789 100.404 106.152 94.4959 107.334Z" fill="#D9D9D9" stroke="#25222C" strokeWidth="2.36311"/>
<path d="M80 61V57" stroke="#25222C" strokeWidth="0.5"/>
<path d="M83.9688 41.6504C83.9688 42.0345 83.9688 42.4185 83.9688 42.8026C83.9688 43.5005 84.1412 43.979 84.5648 44.5508C85.2478 45.4729 86.4245 45.8462 87.5352 45.8462C88.4228 45.8462 89.1102 45.5204 89.6032 44.7673C89.8808 44.3431 90.0496 43.8771 90.2925 43.4453C90.346 43.3501 90.4394 43.1881 90.4423 43.0756C90.4475 42.8784 90.5635 42.1605 90.3824 42.07" stroke="#25222C" strokeWidth="1.18155" strokeLinecap="round"/>
<path d="M67.1377 42.1914C67.1981 42.5707 67.2585 42.95 67.319 43.3292C67.4288 44.0185 67.6744 44.4639 68.1827 44.962C69.0022 45.7651 70.2229 45.9486 71.3198 45.7739C72.1964 45.6342 72.824 45.2043 73.1923 44.3831C73.3998 43.9205 73.4931 43.4337 73.665 42.9691C73.7029 42.8666 73.7696 42.6919 73.7549 42.5805C73.729 42.3849 73.7305 41.6577 73.5375 41.5967" stroke="#25222C" strokeWidth="1.18155" strokeLinecap="round"/>
<path d="M99.6036 71.8887C91.6567 73.9534 85.6966 80.1475 89.67 81.1798C92.8488 82.0057 99.6038 79.4592 102.584 78.0828" stroke="#25222C" strokeWidth="1.18155" strokeLinecap="round"/>
<path d="M103.45 94.8359C93.9973 97.199 86.908 104.288 91.6342 105.47C95.4152 106.415 103.45 103.501 106.995 101.925" stroke="#25222C" strokeWidth="1.18155" strokeLinecap="round"/>
<path d="M58.3026 69.5254C66.2495 72.1063 72.2097 79.8489 68.2362 81.1393C65.0575 82.1717 58.3025 78.9886 55.3223 77.268" stroke="#25222C" strokeWidth="1.18155" strokeLinecap="round"/>
<path d="M110.854 60.0714C110.854 68.3422 112.036 69.5258 108.491 75.4316L110.854 88.4307C114.399 84.8861 116.762 69.5258 117.944 60.0714C118.237 57.7244 117.944 51.8063 125.033 51.8025C129.759 51.8 132.122 55.3447 133.304 57.7103C134.483 60.0719 135.667 63.6156 133.304 65.9812C131.437 67.8504 127.665 62.897 123.851 64.7996C121.488 65.9787 120.431 68.5942 121.488 70.7074C122.67 73.068 129.759 77.7967 135.667 73.0705C141.575 68.3443 141.575 64.7996 141.575 62.4365C141.575 56.4093 138.03 49.4374 133.304 45.8927C128.578 42.348 121.244 43.6492 116.762 45.8918C114.399 47.0741 110.854 51.1237 110.854 60.0714Z" fill="#D9D9D9" stroke="#25222C" strokeWidth="2.36311"/>
<path d="M56.222 89.8473C65.3911 95.7516 70.3688 105.667 64.9402 105.154C60.5973 104.744 53.949 101.874 50.7567 98.948" stroke="#25222C" strokeWidth="1.18155" strokeLinecap="round"/>
<path d="M75 59.5C75 63.1 78.3333 62 80 61C81.5 62 84.5 63.1 84.5 59.5" stroke="#25222C" strokeWidth="0.5"/>
<path d="M78.5466 56.3188C78.9676 56.5616 79.3839 56.9179 79.8828 56.9179C79.9498 57.052 80.1549 56.8844 80.2168 56.8225C80.3752 56.6641 80.5606 56.5264 80.7179 56.3691C80.8991 56.1879 81.0362 55.9554 81.2189 55.7726C81.4119 55.5797 81.6685 55.3897 81.8897 55.2238C82.7451 54.5823 82.7901 52.2891 81.4125 52.2891C80.6968 52.2891 80.0907 52.4603 79.5964 52.9837C79.5509 53.0319 79.4615 53.1304 79.4533 53.1957C79.4463 53.2518 79.4239 53.4099 79.4029 53.3575C79.2878 53.0698 78.9846 52.7622 78.7269 52.5966C78.4119 52.3941 77.8033 52.5934 77.5365 52.7769C76.921 53.2 76.3843 54.0538 76.826 54.744C76.9344 54.9133 77.0383 55.0797 77.1627 55.2371C77.507 55.6725 78.0731 56.0456 78.5466 56.3188Z" stroke="#25222C" strokeWidth="1.18155" strokeLinecap="round"/>
<path d="M78.814 53.6632C78.6738 53.6632 78.5335 53.6632 78.3933 53.6632C78.2659 53.6632 78.237 53.8128 78.1921 53.9088C78.1672 53.9623 78.1791 54.0331 78.1791 54.0904C78.1791 54.2684 78.183 54.4535 78.2366 54.6247C78.2921 54.8024 78.3656 54.9706 78.4456 55.1381C78.4611 55.1706 78.4834 55.2804 78.5318 55.2857C78.6915 55.3035 78.3786 54.9151 78.3541 54.886C78.2427 54.7535 78.1128 54.5982 77.9674 54.5019C77.8983 54.4561 77.8134 54.435 77.7454 54.3896C77.4881 54.2181 77.756 53.8315 77.8851 53.6737C77.9527 53.5911 77.9804 53.4554 78.0667 53.3863C78.0939 53.3645 78.2573 53.8882 78.2731 53.9402C78.4316 54.4609 78.7583 55.0156 79.2163 55.3328C79.3569 55.4301 79.5183 55.5738 79.6788 55.6332C79.8506 55.6969 79.5401 55.5075 79.5011 55.4791C79.3543 55.3719 79.1903 55.2588 79.0596 55.1316C79.0302 55.103 78.9648 55.0062 78.9211 55.0062C78.8858 55.0062 78.9584 55.187 78.9655 55.2021C79.0302 55.339 79.0941 55.4756 79.1693 55.6071C79.2222 55.6997 79.2521 55.8153 79.3287 55.8919C79.4017 55.9649 79.4998 56.1028 79.59 56.1506C79.6355 56.1747 79.6001 55.9438 79.5991 55.9363C79.5633 55.6655 79.4874 55.4013 79.4267 55.1355C79.3708 54.8911 79.3545 54.6293 79.2843 54.3896C79.2306 54.2065 79.5036 54.6046 79.5299 54.6482C79.5498 54.6813 79.6852 54.9774 79.7415 54.9774C79.8222 54.9774 79.7781 54.2749 79.7781 54.2041C79.7781 54.0858 79.7567 53.947 79.7964 53.8331C79.822 53.7594 79.831 53.9851 79.8512 54.0604C79.925 54.3349 80.0105 54.6068 80.1073 54.8729C80.1732 55.0543 80.1758 54.5817 80.1778 54.5594C80.2156 54.1421 80.2954 53.7059 80.2954 53.287C80.2954 53.2054 80.2846 53.1319 80.2732 53.0518C80.253 52.9107 80.2096 53.1503 80.2013 53.1916C80.0855 53.771 80.2249 54.3969 80.2249 54.9853C80.2249 55.0159 80.2064 55.1422 80.2484 55.1447C80.3103 55.1483 80.3422 55.0981 80.3659 55.0506" stroke="#25222C" strokeWidth="1.18155" strokeLinecap="round"/>
<path d="M81.0483 53.1246C81.1595 53.1246 81.4072 53.0711 81.5055 53.1272C81.5397 53.1467 81.5837 53.3108 81.5878 53.3493C81.5999 53.4641 81.5891 53.5852 81.5891 53.7007C81.5891 53.9509 81.4094 54.2663 81.2494 54.4519C81.1554 54.5609 81.0651 54.6741 80.9673 54.7798C80.9225 54.8281 80.8405 54.888 80.8131 54.9496C80.7613 55.0663 80.7199 55.1799 80.6563 55.2932C80.6131 55.3703 80.5288 55.5147 80.4813 55.591C80.4758 55.5999 80.4033 55.7307 80.4264 55.6381C80.4481 55.5514 80.4785 55.4664 80.5074 55.382C80.5408 55.2848 80.5802 55.197 80.6433 55.1181C80.6942 55.0545 80.6993 54.8823 80.7191 54.8046C80.7748 54.5847 80.8131 54.3901 80.8131 54.1593C80.8131 54.0854 80.8539 53.8152 80.7896 53.783" stroke="#25222C" strokeWidth="1.18155" strokeLinecap="round"/>
<path d="M93.4023 111.58C93.4023 108.323 98.6987 105.311 101.405 104.228C105.051 102.77 108.694 101.892 112.492 101.071C117.863 99.9096 122.004 101.069 123.772 106.374" stroke="#25222C" strokeWidth="1.18155" strokeLinecap="round"/>
<path d="M20.1084 83.2832C23.0282 83.2832 25.9481 83.2832 28.8679 83.2832C31.6842 83.2832 34.7491 82.7672 37.1848 84.4216C38.6977 85.4492 41.1692 88.3682 41.1692 90.3983" stroke="#25222C" strokeWidth="1.18155" strokeLinecap="round"/>
<path d="M6.87838 110.879C0.970607 104.971 3.98446 87.296 5 83.5C6.01554 79.704 16.9805 107.052 36.4175 119.15C57.6854 132.387 108.492 122.695 108.492 122.695C123.852 122.695 145.389 107.983 154.572 102.608C149.846 121.513 119.687 133.587 80.6959 135.95C41.7046 138.313 12.7862 116.787 6.87838 110.879Z" fill="#4D4545"/>
</g>
<defs>
<clipPath id="clip0_1163_32392">
<rect width="158" height="138" fill="white"/>
</clipPath>
</defs>
</svg>
