<svg width="56" height="56" viewBox="0 0 56 56" fill="none" xmlns="http://www.w3.org/2000/svg">
<rect width="56" height="56" fill="#C5D4D2"/>
<g clip-path="url(#clip0_7673_883)">
<path d="M14.017 37.9199C13.9414 38.4084 14.342 38.9657 14.8916 39.1371C15.1793 39.2268 15.4775 39.2784 15.7786 39.2907C16.03 39.2999 16.2814 39.311 16.5328 39.3224C17.1213 39.3484 17.7238 39.3752 18.3262 39.3752C18.5682 39.3752 18.8101 39.3708 19.0508 39.3603C20.2225 39.31 21.4121 39.2348 22.5625 39.1622C23.9405 39.0755 25.3652 38.986 26.7668 38.9373C30.4158 38.8111 34.0786 38.3088 37.621 37.8231L38.0805 37.7601C38.911 37.6466 39.7697 37.5288 40.6071 37.3626C40.6441 37.3554 40.6823 37.3489 40.7212 37.3424C41.0576 37.285 41.5657 37.1986 41.6966 36.4257C41.7037 36.3838 41.6951 36.3409 41.6725 36.305C41.6499 36.2691 41.6148 36.2427 41.5739 36.2312C41.486 36.206 41.4045 36.1784 41.3272 36.152C41.169 36.0898 41.0029 36.0492 40.8338 36.0316L40.3 36.0001C39.0685 35.9273 37.7951 35.8522 36.5401 35.8186C32.9839 35.7214 29.4249 35.8139 25.8784 36.0958C23.5938 36.2803 21.2675 36.4312 19.0177 36.5773C17.878 36.6513 16.7383 36.7267 15.5986 36.8037C15.3552 36.8144 15.1142 36.856 14.8813 36.9275C14.6573 36.9925 14.4568 37.1207 14.3036 37.2967C14.1503 37.4727 14.0508 37.689 14.017 37.9199Z" fill="#343434"/>
<path d="M14.6372 29.1547C14.6316 29.3375 14.678 29.5182 14.7708 29.6757C14.8636 29.8333 14.9992 29.9613 15.1617 30.0449C15.4379 30.1806 15.738 30.2606 16.045 30.2805C16.4521 30.3055 16.8793 30.3269 17.313 30.3269C17.5252 30.3269 17.7388 30.3217 17.9523 30.3093C19.226 30.2362 20.5189 30.1497 21.7698 30.0662C24.1117 29.9099 26.5331 29.7476 28.9162 29.6659C32.1602 29.5542 35.4216 29.1556 38.5756 28.77C39.4026 28.6694 40.2288 28.57 41.0547 28.472C41.1204 28.4645 41.1871 28.4583 41.2548 28.4521C41.7382 28.4076 42.34 28.3523 42.9543 27.6941C42.9732 27.6737 42.9871 27.6489 42.9943 27.622C43.0017 27.5952 43.0026 27.5669 42.9965 27.5397C42.9907 27.5125 42.9781 27.4871 42.9602 27.4657C42.9424 27.4444 42.9196 27.4276 42.8938 27.417C41.7717 26.9552 40.8013 26.8919 39.8237 26.8636L38.9705 26.8389C36.2681 26.7603 33.4743 26.679 30.715 26.7851C26.0769 26.9639 21.5349 27.4155 16.5037 27.9438C16.0308 27.9954 15.5698 28.1261 15.1401 28.3305C14.9871 28.4064 14.8587 28.5241 14.7697 28.6699C14.6807 28.8158 14.6347 28.9838 14.6372 29.1547Z" fill="#343434"/>
<path d="M15.5907 20.4103C15.9178 20.5699 16.2716 20.6675 16.6343 20.6979C16.8332 20.7127 17.0321 20.7279 17.2312 20.7435C18.1502 20.8146 19.098 20.888 20.0369 20.888C20.1094 20.888 20.1821 20.8881 20.2547 20.8867C22.0296 20.8644 23.8335 20.823 25.578 20.7829C27.8925 20.7299 30.286 20.6751 32.6394 20.6642C36.0081 20.6486 39.3922 20.2632 42.6652 19.8906L42.7701 19.8787C42.9765 19.8391 43.1736 19.7615 43.3515 19.6498C43.4707 19.5867 43.6058 19.5156 43.7717 19.4388C43.8014 19.4252 43.8265 19.4034 43.8443 19.376C43.862 19.3486 43.8716 19.3168 43.8719 19.2841C43.8724 19.2515 43.8636 19.2194 43.8465 19.1916C43.8292 19.1639 43.8046 19.1415 43.7752 19.1272C43.6043 19.0434 43.4605 18.9629 43.3336 18.8911C43.1345 18.757 42.9109 18.6638 42.6755 18.6169L42.0324 18.5394C40.7831 18.3885 39.4913 18.2317 38.213 18.1784C31.3259 17.8906 24.3327 18.1608 17.57 18.4222L16.3563 18.469C16.1727 18.4762 15.9904 18.5021 15.8121 18.5463C15.6081 18.5848 15.4217 18.6873 15.2801 18.8391C15.1384 18.9909 15.0488 19.1839 15.0243 19.3902C14.9929 19.5989 15.0315 19.8122 15.1339 19.9967C15.2363 20.1813 15.397 20.3267 15.5907 20.4103Z" fill="#343434"/>
</g>
<defs>
<clipPath id="clip0_7673_883">
<rect width="30" height="21.4655" fill="white" transform="translate(14 18)"/>
</clipPath>
</defs>
</svg>
