<svg width="300" height="58" viewBox="0 0 300 58" fill="none" xmlns="http://www.w3.org/2000/svg">
<rect x="0.5" y="0.5" width="299" height="57" fill="white"/>
<rect x="0.5" y="0.5" width="299" height="57" stroke="#343434"/>
<path fill-rule="evenodd" clip-rule="evenodd" d="M48.54 27.2624C48.54 26.447 48.4668 25.6629 48.3309 24.9102H37.5V29.3586H43.6891C43.4225 30.7961 42.6123 32.014 41.3943 32.8295V35.7149H45.1109C47.2855 33.7129 48.54 30.7647 48.54 27.2624Z" fill="#4285F4"/>
<path fill-rule="evenodd" clip-rule="evenodd" d="M37.4995 38.4986C40.6045 38.4986 43.2077 37.4688 45.1104 35.7125L41.3938 32.827C40.364 33.517 39.0467 33.9247 37.4995 33.9247C34.5042 33.9247 31.969 31.9018 31.0647 29.1836H27.2227V32.1631C29.1149 35.9215 33.004 38.4986 37.4995 38.4986Z" fill="#34A853"/>
<path fill-rule="evenodd" clip-rule="evenodd" d="M31.0652 29.1855C30.8352 28.4955 30.7045 27.7584 30.7045 27.0005C30.7045 26.2425 30.8352 25.5055 31.0652 24.8155V21.8359H27.2232C26.4443 23.3884 26 25.1448 26 27.0005C26 28.8562 26.4443 30.6125 27.2232 32.165L31.0652 29.1855Z" fill="#FBBC05"/>
<path fill-rule="evenodd" clip-rule="evenodd" d="M37.4995 20.0739C39.1879 20.0739 40.7038 20.6541 41.8956 21.7936L45.194 18.4952C43.2024 16.6395 40.5992 15.5 37.4995 15.5C33.004 15.5 29.1149 18.077 27.2227 21.8355L31.0647 24.815C31.969 22.0968 34.5042 20.0739 37.4995 20.0739Z" fill="#EA4335"/>
<path d="M71.094 22.975C70.08 22.765 69.021 22.66 67.917 22.66C67.191 22.66 66.636 22.702 66.252 22.786C65.874 22.87 65.604 22.981 65.442 23.119C65.328 23.209 65.238 23.323 65.172 23.461C65.106 23.593 65.073 23.761 65.073 23.965C65.073 24.283 65.172 24.571 65.37 24.829C65.574 25.081 65.838 25.309 66.162 25.513C66.492 25.711 66.93 25.939 67.476 26.197C67.566 26.233 67.65 26.272 67.728 26.314C67.806 26.344 67.884 26.38 67.962 26.422C68.76 26.788 69.381 27.109 69.825 27.385C70.275 27.655 70.65 28.015 70.95 28.465C71.256 28.909 71.424 29.47 71.454 30.148C71.454 30.964 71.235 31.675 70.797 32.281C70.365 32.887 69.744 33.355 68.934 33.685C68.124 34.015 67.173 34.18 66.081 34.18C65.487 34.18 64.914 34.126 64.362 34.018C63.81 33.916 63.282 33.784 62.778 33.622L62.706 31.561C63.324 31.771 63.996 31.933 64.722 32.047C65.454 32.155 66.171 32.209 66.873 32.209C67.389 32.209 67.803 32.173 68.115 32.101C68.427 32.029 68.667 31.921 68.835 31.777C68.949 31.681 69.039 31.555 69.105 31.399C69.177 31.243 69.213 31.057 69.213 30.841C69.213 30.505 69.135 30.226 68.979 30.004C68.829 29.776 68.583 29.557 68.241 29.347C67.905 29.137 67.377 28.858 66.657 28.51L66.207 28.294C65.463 27.934 64.86 27.589 64.398 27.259C63.936 26.923 63.579 26.533 63.327 26.089C63.075 25.645 62.949 25.111 62.949 24.487C62.949 23.569 63.21 22.822 63.732 22.246C64.26 21.67 64.944 21.256 65.784 21.004C66.624 20.752 67.545 20.626 68.547 20.626C68.955 20.626 69.36 20.65 69.762 20.698C70.164 20.74 70.572 20.806 70.986 20.896L71.094 22.975ZM79.4661 24.523V34H77.1171V25.963L77.5221 26.368H73.9941L74.1741 24.523H79.4661ZM73.9311 32.146H82.6521L82.4721 34H74.1111L73.9311 32.146ZM77.9001 22.678C77.5941 22.678 77.3241 22.621 77.0901 22.507C76.8561 22.387 76.6731 22.219 76.5411 22.003C76.4091 21.781 76.3431 21.526 76.3431 21.238C76.3431 20.8 76.4841 20.455 76.7661 20.203C77.0541 19.945 77.4321 19.816 77.9001 19.816C78.3681 19.816 78.7431 19.945 79.0251 20.203C79.3131 20.455 79.4571 20.8 79.4571 21.238C79.4571 21.676 79.3131 22.027 79.0251 22.291C78.7431 22.549 78.3681 22.678 77.9001 22.678ZM88.6212 30.607C87.8712 30.607 87.2022 30.475 86.6142 30.211C86.0262 29.941 85.5672 29.575 85.2372 29.113C84.9072 28.651 84.7422 28.141 84.7422 27.583C84.7422 26.935 84.9402 26.362 85.3362 25.864C85.7322 25.36 86.2632 24.973 86.9292 24.703C87.5952 24.427 88.3272 24.289 89.1252 24.289C89.7372 24.289 90.2952 24.373 90.7992 24.541C91.3032 24.709 91.7352 24.949 92.0952 25.261L92.1762 25.693C92.2002 25.705 92.2212 25.72 92.2392 25.738C92.4912 25.948 92.6922 26.194 92.8422 26.476C92.9982 26.758 93.0762 27.088 93.0762 27.466C93.0762 28.09 92.8722 28.642 92.4642 29.122C92.0622 29.596 91.5222 29.962 90.8442 30.22C90.1662 30.478 89.4252 30.607 88.6212 30.607ZM91.5282 25.045C91.9122 24.841 92.3382 24.655 92.8062 24.487C93.2802 24.313 93.7422 24.214 94.1922 24.19L94.5072 25.702L91.9962 25.864L91.5282 25.045ZM88.4772 30.157L88.1712 31.165C88.1292 31.333 88.1202 31.465 88.1442 31.561C88.1682 31.651 88.2132 31.717 88.2792 31.759C88.3512 31.801 88.4532 31.837 88.5852 31.867L88.6482 31.876L91.9062 32.461L91.9782 32.47C92.4342 32.554 92.8272 32.659 93.1572 32.785C93.4872 32.911 93.7692 33.121 94.0032 33.415C94.2432 33.703 94.3632 34.09 94.3632 34.576C94.3632 35.29 94.0992 35.899 93.5712 36.403C93.0432 36.907 92.3352 37.288 91.4472 37.546C90.5652 37.804 89.5962 37.933 88.5402 37.933C87.7362 37.933 87.0072 37.852 86.3532 37.69C85.7052 37.534 85.1892 37.291 84.8052 36.961C84.4272 36.637 84.2382 36.229 84.2382 35.737C84.2382 35.383 84.3462 35.053 84.5622 34.747C84.7782 34.441 85.1262 34.141 85.6062 33.847L87.1902 32.875L88.0902 33.496C87.9822 33.556 87.8562 33.628 87.7122 33.712C87.4662 33.862 87.2562 34.009 87.0822 34.153C86.9142 34.297 86.7732 34.462 86.6592 34.648C86.5512 34.84 86.4972 35.047 86.4972 35.269C86.4972 35.545 86.6022 35.77 86.8122 35.944C87.0282 36.124 87.3192 36.25 87.6852 36.322C88.0512 36.4 88.4832 36.439 88.9812 36.439C89.6112 36.439 90.1722 36.385 90.6642 36.277C91.1562 36.169 91.5402 36.016 91.8162 35.818C92.0982 35.626 92.2392 35.404 92.2392 35.152C92.2392 34.924 92.1252 34.747 91.8972 34.621C91.6692 34.495 91.2912 34.381 90.7632 34.279L88.2882 33.82C87.8982 33.742 87.5592 33.637 87.2712 33.505C86.9832 33.367 86.7612 33.208 86.6052 33.028C86.4492 32.842 86.3712 32.641 86.3712 32.425C86.3712 32.257 86.4012 32.08 86.4612 31.894C86.5212 31.702 86.6052 31.489 86.7132 31.255C86.7792 31.123 86.8242 31.024 86.8482 30.958L87.2622 29.968L88.4772 30.157ZM90.9072 27.709C90.9072 27.115 90.7332 26.656 90.3852 26.332C90.0432 26.002 89.4612 25.837 88.6392 25.837C88.2792 25.837 87.9912 25.864 87.7752 25.918C87.5652 25.972 87.4032 26.044 87.2892 26.134C87.1812 26.224 87.0972 26.356 87.0372 26.53C86.9832 26.698 86.9562 26.938 86.9562 27.25C86.9562 27.844 87.1272 28.306 87.4692 28.636C87.8172 28.96 88.4022 29.122 89.2242 29.122C89.5842 29.122 89.8692 29.095 90.0792 29.041C90.2952 28.987 90.4602 28.915 90.5742 28.825C90.6822 28.735 90.7632 28.606 90.8172 28.438C90.8772 28.264 90.9072 28.021 90.9072 27.709ZM98.6943 34H96.3543V24.514H98.5683V26.251L98.6943 26.377V34ZM102.411 34V27.475C102.411 27.145 102.354 26.884 102.24 26.692C102.132 26.494 101.976 26.353 101.772 26.269C101.568 26.179 101.316 26.134 101.016 26.134C100.5 26.134 99.9993 26.248 99.5133 26.476C99.0273 26.698 98.5713 27.001 98.1453 27.385L98.3253 25.81H98.6853C99.0753 25.348 99.5703 24.985 100.17 24.721C100.77 24.451 101.406 24.316 102.078 24.316C102.924 24.316 103.578 24.538 104.04 24.982C104.502 25.426 104.736 26.041 104.742 26.827L104.778 34H102.411ZM124.763 24.523H127.103V34.009H124.889V32.263L124.763 32.137V24.523ZM121.046 24.523V31.048C121.046 31.372 121.1 31.633 121.208 31.831C121.322 32.029 121.481 32.173 121.685 32.263C121.889 32.347 122.141 32.389 122.441 32.389C122.957 32.389 123.458 32.275 123.944 32.047C124.43 31.819 124.886 31.516 125.312 31.138L125.132 32.704H124.772C124.382 33.172 123.887 33.541 123.287 33.811C122.687 34.075 122.051 34.207 121.379 34.207C120.533 34.207 119.879 33.985 119.417 33.541C118.955 33.097 118.721 32.479 118.715 31.687L118.679 24.523H121.046ZM131.992 37.321H129.643V24.514H131.866V26.206L131.992 26.332V37.321ZM138.805 28.753C138.805 29.947 138.574 30.955 138.112 31.777C137.65 32.593 137.023 33.202 136.231 33.604C135.445 34.006 134.56 34.207 133.576 34.207C132.958 34.207 132.364 34.129 131.794 33.973C131.224 33.811 130.675 33.574 130.147 33.262L131.2 31.642C131.668 31.924 132.127 32.137 132.577 32.281C133.027 32.419 133.495 32.488 133.981 32.488C134.275 32.488 134.536 32.458 134.764 32.398C134.998 32.338 135.223 32.239 135.439 32.101C135.709 31.927 135.928 31.63 136.096 31.21C136.27 30.784 136.357 30.151 136.357 29.311C136.357 28.351 136.192 27.577 135.862 26.989C135.532 26.401 134.929 26.107 134.053 26.107C133.633 26.107 133.183 26.182 132.703 26.332C132.229 26.476 131.728 26.68 131.2 26.944L131.767 25.549H132.127C132.541 25.159 132.991 24.856 133.477 24.64C133.969 24.424 134.518 24.316 135.124 24.316C135.892 24.316 136.552 24.49 137.104 24.838C137.656 25.186 138.076 25.693 138.364 26.359C138.658 27.019 138.805 27.817 138.805 28.753ZM158.717 33.991C158.033 32.299 157.448 30.514 156.962 28.636H156.773C156.527 29.554 156.251 30.463 155.945 31.363C155.639 32.257 155.3 33.133 154.928 33.991H153.56C152.864 32.437 152.3 30.88 151.868 29.32C151.442 27.76 151.151 26.161 150.995 24.523H153.272C153.374 25.549 153.536 26.572 153.758 27.592C153.98 28.606 154.253 29.62 154.577 30.634H154.766C155.072 29.926 155.336 29.236 155.558 28.564C155.78 27.892 156.008 27.142 156.242 26.314L156.305 26.098H157.673C157.721 26.26 157.766 26.422 157.808 26.584C158 27.346 158.192 28.045 158.384 28.681C158.582 29.317 158.81 29.968 159.068 30.634H159.275C159.605 29.614 159.89 28.591 160.13 27.565C160.37 26.539 160.544 25.525 160.652 24.523H162.776C162.632 26.155 162.341 27.751 161.903 29.311C161.465 30.865 160.892 32.425 160.184 33.991H158.717ZM169.636 24.523V34H167.296V26.035L167.701 26.332H164.974L165.082 24.523H169.636ZM164.992 32.146H172.057L171.949 34H165.1L164.992 32.146ZM168.061 22.75C167.755 22.75 167.485 22.693 167.251 22.579C167.017 22.459 166.834 22.291 166.702 22.075C166.576 21.853 166.513 21.598 166.513 21.31C166.513 20.872 166.654 20.527 166.936 20.275C167.224 20.017 167.599 19.888 168.061 19.888C168.529 19.888 168.904 20.017 169.186 20.275C169.474 20.527 169.618 20.872 169.618 21.31C169.618 21.748 169.474 22.099 169.186 22.363C168.904 22.621 168.529 22.75 168.061 22.75ZM178.782 24.982V31.03C178.782 31.324 178.827 31.561 178.917 31.741C179.013 31.921 179.184 32.059 179.43 32.155C179.676 32.245 180.021 32.29 180.465 32.29C180.813 32.29 181.188 32.263 181.59 32.209C181.998 32.149 182.388 32.077 182.76 31.993L182.589 33.748C182.163 33.892 181.716 34.003 181.248 34.081C180.78 34.165 180.27 34.207 179.718 34.207C178.962 34.207 178.344 34.12 177.864 33.946C177.39 33.772 177.033 33.49 176.793 33.1C176.559 32.71 176.442 32.188 176.442 31.534V24.982H178.782ZM182.922 24.523L182.571 26.323H173.931V25.243L177.963 22.3H178.71V25.315L178.062 24.523H182.922ZM187.991 34H185.651V20.23H187.991V26.251V26.377V34ZM191.708 34V27.475C191.708 27.145 191.651 26.884 191.537 26.692C191.429 26.494 191.273 26.353 191.069 26.269C190.865 26.179 190.613 26.134 190.313 26.134C189.797 26.134 189.296 26.248 188.81 26.476C188.324 26.698 187.868 27.001 187.442 27.385L187.73 25.81H188.09C188.486 25.342 188.966 24.976 189.53 24.712C190.1 24.448 190.715 24.316 191.375 24.316C192.221 24.316 192.875 24.538 193.337 24.982C193.799 25.426 194.033 26.041 194.039 26.827L194.075 34H191.708ZM216.579 23.002C216.135 22.93 215.694 22.873 215.256 22.831C214.824 22.783 214.359 22.759 213.861 22.759C213.321 22.759 212.874 22.783 212.52 22.831C212.166 22.879 211.872 22.948 211.638 23.038C211.41 23.128 211.209 23.248 211.035 23.398C210.729 23.65 210.486 24.061 210.306 24.631C210.126 25.195 210.036 25.99 210.036 27.016C210.036 28.36 210.183 29.428 210.477 30.22C210.771 31.006 211.176 31.561 211.692 31.885C212.208 32.209 212.823 32.371 213.537 32.371C214.005 32.371 214.494 32.314 215.004 32.2L214.662 32.839V28.168L215.112 28.69H212.52L212.745 26.854H216.66L216.669 33.802C216.171 33.922 215.676 34.021 215.184 34.099C214.692 34.177 214.167 34.216 213.609 34.216C212.355 34.216 211.29 33.994 210.414 33.55C209.538 33.106 208.86 32.395 208.38 31.417C207.9 30.433 207.66 29.149 207.66 27.565C207.66 26.059 207.891 24.796 208.353 23.776C208.821 22.756 209.556 21.982 210.558 21.454C211.56 20.92 212.868 20.653 214.482 20.653C214.866 20.653 215.223 20.671 215.553 20.707C215.889 20.737 216.207 20.782 216.507 20.842L216.579 23.002ZM223.26 34.216C222.378 34.216 221.589 34.027 220.893 33.649C220.203 33.271 219.66 32.713 219.264 31.975C218.874 31.237 218.679 30.346 218.679 29.302C218.679 28.156 218.91 27.208 219.372 26.458C219.834 25.708 220.428 25.162 221.154 24.82C221.886 24.478 222.666 24.307 223.494 24.307C224.358 24.307 225.129 24.496 225.807 24.874C226.485 25.246 227.016 25.804 227.4 26.548C227.784 27.286 227.976 28.177 227.976 29.221C227.976 30.373 227.751 31.324 227.301 32.074C226.851 32.818 226.269 33.361 225.555 33.703C224.847 34.045 224.082 34.216 223.26 34.216ZM223.458 32.515C223.8 32.515 224.091 32.485 224.331 32.425C224.571 32.365 224.775 32.275 224.943 32.155C225.153 32.011 225.33 31.738 225.474 31.336C225.618 30.928 225.69 30.394 225.69 29.734C225.69 28.966 225.63 28.315 225.51 27.781C225.396 27.247 225.156 26.815 224.79 26.485C224.424 26.155 223.893 25.99 223.197 25.99C222.861 25.99 222.573 26.02 222.333 26.08C222.093 26.134 221.883 26.218 221.703 26.332C221.571 26.422 221.451 26.569 221.343 26.773C221.235 26.971 221.145 27.238 221.073 27.574C221.001 27.904 220.965 28.297 220.965 28.753C220.965 29.533 221.022 30.19 221.136 30.724C221.256 31.252 221.499 31.684 221.865 32.02C222.231 32.35 222.762 32.515 223.458 32.515ZM234.422 34.216C233.54 34.216 232.751 34.027 232.055 33.649C231.365 33.271 230.822 32.713 230.426 31.975C230.036 31.237 229.841 30.346 229.841 29.302C229.841 28.156 230.072 27.208 230.534 26.458C230.996 25.708 231.59 25.162 232.316 24.82C233.048 24.478 233.828 24.307 234.656 24.307C235.52 24.307 236.291 24.496 236.969 24.874C237.647 25.246 238.178 25.804 238.562 26.548C238.946 27.286 239.138 28.177 239.138 29.221C239.138 30.373 238.913 31.324 238.463 32.074C238.013 32.818 237.431 33.361 236.717 33.703C236.009 34.045 235.244 34.216 234.422 34.216ZM234.62 32.515C234.962 32.515 235.253 32.485 235.493 32.425C235.733 32.365 235.937 32.275 236.105 32.155C236.315 32.011 236.492 31.738 236.636 31.336C236.78 30.928 236.852 30.394 236.852 29.734C236.852 28.966 236.792 28.315 236.672 27.781C236.558 27.247 236.318 26.815 235.952 26.485C235.586 26.155 235.055 25.99 234.359 25.99C234.023 25.99 233.735 26.02 233.495 26.08C233.255 26.134 233.045 26.218 232.865 26.332C232.733 26.422 232.613 26.569 232.505 26.773C232.397 26.971 232.307 27.238 232.235 27.574C232.163 27.904 232.127 28.297 232.127 28.753C232.127 29.533 232.184 30.19 232.298 30.724C232.418 31.252 232.661 31.684 233.027 32.02C233.393 32.35 233.924 32.515 234.62 32.515ZM244.891 30.607C244.141 30.607 243.472 30.475 242.884 30.211C242.296 29.941 241.837 29.575 241.507 29.113C241.177 28.651 241.012 28.141 241.012 27.583C241.012 26.935 241.21 26.362 241.606 25.864C242.002 25.36 242.533 24.973 243.199 24.703C243.865 24.427 244.597 24.289 245.395 24.289C246.007 24.289 246.565 24.373 247.069 24.541C247.573 24.709 248.005 24.949 248.365 25.261L248.446 25.693C248.47 25.705 248.491 25.72 248.509 25.738C248.761 25.948 248.962 26.194 249.112 26.476C249.268 26.758 249.346 27.088 249.346 27.466C249.346 28.09 249.142 28.642 248.734 29.122C248.332 29.596 247.792 29.962 247.114 30.22C246.436 30.478 245.695 30.607 244.891 30.607ZM247.798 25.045C248.182 24.841 248.608 24.655 249.076 24.487C249.55 24.313 250.012 24.214 250.462 24.19L250.777 25.702L248.266 25.864L247.798 25.045ZM244.747 30.157L244.441 31.165C244.399 31.333 244.39 31.465 244.414 31.561C244.438 31.651 244.483 31.717 244.549 31.759C244.621 31.801 244.723 31.837 244.855 31.867L244.918 31.876L248.176 32.461L248.248 32.47C248.704 32.554 249.097 32.659 249.427 32.785C249.757 32.911 250.039 33.121 250.273 33.415C250.513 33.703 250.633 34.09 250.633 34.576C250.633 35.29 250.369 35.899 249.841 36.403C249.313 36.907 248.605 37.288 247.717 37.546C246.835 37.804 245.866 37.933 244.81 37.933C244.006 37.933 243.277 37.852 242.623 37.69C241.975 37.534 241.459 37.291 241.075 36.961C240.697 36.637 240.508 36.229 240.508 35.737C240.508 35.383 240.616 35.053 240.832 34.747C241.048 34.441 241.396 34.141 241.876 33.847L243.46 32.875L244.36 33.496C244.252 33.556 244.126 33.628 243.982 33.712C243.736 33.862 243.526 34.009 243.352 34.153C243.184 34.297 243.043 34.462 242.929 34.648C242.821 34.84 242.767 35.047 242.767 35.269C242.767 35.545 242.872 35.77 243.082 35.944C243.298 36.124 243.589 36.25 243.955 36.322C244.321 36.4 244.753 36.439 245.251 36.439C245.881 36.439 246.442 36.385 246.934 36.277C247.426 36.169 247.81 36.016 248.086 35.818C248.368 35.626 248.509 35.404 248.509 35.152C248.509 34.924 248.395 34.747 248.167 34.621C247.939 34.495 247.561 34.381 247.033 34.279L244.558 33.82C244.168 33.742 243.829 33.637 243.541 33.505C243.253 33.367 243.031 33.208 242.875 33.028C242.719 32.842 242.641 32.641 242.641 32.425C242.641 32.257 242.671 32.08 242.731 31.894C242.791 31.702 242.875 31.489 242.983 31.255C243.049 31.123 243.094 31.024 243.118 30.958L243.532 29.968L244.747 30.157ZM247.177 27.709C247.177 27.115 247.003 26.656 246.655 26.332C246.313 26.002 245.731 25.837 244.909 25.837C244.549 25.837 244.261 25.864 244.045 25.918C243.835 25.972 243.673 26.044 243.559 26.134C243.451 26.224 243.367 26.356 243.307 26.53C243.253 26.698 243.226 26.938 243.226 27.25C243.226 27.844 243.397 28.306 243.739 28.636C244.087 28.96 244.672 29.122 245.494 29.122C245.854 29.122 246.139 29.095 246.349 29.041C246.565 28.987 246.73 28.915 246.844 28.825C246.952 28.735 247.033 28.606 247.087 28.438C247.147 28.264 247.177 28.021 247.177 27.709ZM255.648 34V21.679L256.053 22.084H252.588L252.768 20.23H257.997V34H255.648ZM252.525 32.146H261.129L260.949 34H252.705L252.525 32.146ZM266.729 26.377C266.495 26.557 266.294 26.827 266.126 27.187C265.964 27.541 265.883 28.021 265.883 28.627C265.883 29.443 265.97 30.118 266.144 30.652C266.324 31.186 266.663 31.609 267.161 31.921C267.659 32.227 268.373 32.38 269.303 32.38C269.789 32.38 270.26 32.341 270.716 32.263C271.178 32.179 271.604 32.074 271.994 31.948L271.94 33.658C271.484 33.82 270.98 33.952 270.428 34.054C269.876 34.162 269.282 34.216 268.646 34.216C267.548 34.216 266.624 34.039 265.874 33.685C265.124 33.331 264.557 32.806 264.173 32.11C263.789 31.414 263.597 30.553 263.597 29.527C263.597 28.351 263.834 27.373 264.308 26.593C264.788 25.807 265.412 25.231 266.18 24.865C266.948 24.493 267.779 24.307 268.673 24.307C269.525 24.307 270.227 24.472 270.779 24.802C271.337 25.126 271.745 25.588 272.003 26.188C272.261 26.782 272.39 27.484 272.39 28.294V29.491H265.514V28.186H270.653L270.095 28.942C270.143 28.792 270.179 28.639 270.203 28.483C270.227 28.327 270.239 28.153 270.239 27.961C270.239 27.505 270.161 27.13 270.005 26.836C269.855 26.542 269.627 26.323 269.321 26.179C269.021 26.035 268.643 25.963 268.187 25.963C267.845 25.963 267.554 26.002 267.314 26.08C267.08 26.152 266.885 26.251 266.729 26.377Z" fill="#343434"/>
</svg>
